<svg width="113" height="24" viewBox="0 0 113 24" fill="none" xmlns="http://www.w3.org/2000/svg">
<path d="M98.586 9.41221C99.8482 8.79437 101.595 8.23695 103.281 8.23695C104.554 8.23695 105.45 8.49835 106.016 9.1372C106.575 9.76893 106.764 10.7181 106.764 11.9671V12.3345V12.5631L106.536 12.5549C106.363 12.5488 105.932 12.5487 105.688 12.5487C102.583 12.5487 100.351 13.0197 98.9015 13.8978C97.4699 14.7652 96.7866 16.0381 96.7866 17.7129C96.7866 19.481 97.2258 20.8408 98.2493 21.7643C99.278 22.6926 100.939 23.2192 103.471 23.2192C104.729 23.2192 105.981 23.1356 107.317 23.0465C107.401 23.0409 107.485 23.0352 107.57 23.0296C108.928 22.9393 110.373 22.8487 111.987 22.8398C111.776 21.3932 111.771 19.4516 111.771 18.1129C111.771 18.1126 111.771 18.1123 111.771 18.112L98.586 9.41221ZM98.586 9.41221L98.3977 5.95025L98.586 9.41221ZM83.5654 8.65937L83.711 8.60981C84.3271 8.40007 85.105 8.24329 85.9486 8.24329C87.0245 8.24329 87.8015 8.49647 88.2911 9.16045C88.7657 9.80401 88.9311 10.7865 88.9312 12.1361C88.9312 12.1367 88.9312 12.1374 88.9312 12.1381L88.9313 12.1389L88.9316 12.1533L88.9326 12.2088L88.9362 12.4142C88.9391 12.5884 88.9431 12.8312 88.9471 13.105C88.955 13.6523 88.9629 14.3251 88.9629 14.8242C88.9629 17.1458 88.8887 21.2224 88.7884 22.8454H94.2789C94.1479 21.2295 94.0405 17.4207 94.0586 14.81C94.0586 14.0615 94.0665 13.1902 94.0744 12.5062C94.0784 12.1639 94.0824 11.8683 94.0853 11.6583L94.0889 11.4123L94.0899 11.3465L94.0902 11.3295L94.0903 11.3273C94.0903 11.3266 94.0903 11.3259 94.0903 11.3252C94.09 9.11368 93.6043 7.56911 92.4873 6.56846C91.3633 5.56162 89.5518 5.06079 86.7912 5.06079C85.2865 5.06079 83.9915 5.18869 82.6495 5.32123L82.5391 5.33213C81.2205 5.46225 79.8525 5.59326 78.2072 5.60478C78.3902 8.71138 78.3959 12.4696 78.3835 14.8179C78.3835 14.8182 78.3835 14.8186 78.3835 14.819L78.1629 14.8178L83.5654 8.65937ZM83.5654 8.65937L83.5616 8.8131M83.5654 8.65937L83.5616 8.8131M83.5616 8.8131C83.4982 11.3546 83.4792 13.2503 83.4792 14.8168C83.4671 17.4256 83.569 21.2326 83.6994 22.8391M83.5616 8.8131L83.6994 22.8391M83.6994 22.8391H78.2091H83.6994ZM46.1889 12.6813L46.3983 12.6947L46.4221 12.4862C46.6976 10.0695 47.4353 8.22508 48.8254 6.98111C50.2158 5.73691 52.2953 5.06079 55.3253 5.06079C57.8233 5.06079 59.6119 5.58799 60.7712 6.47926C61.922 7.36393 62.4787 8.6271 62.4787 10.1679C62.4787 11.9548 61.805 13.2378 60.4839 14.0867C59.1454 14.9468 57.1183 15.3765 54.3878 15.3765C53.7499 15.3765 52.6576 15.3575 52.111 15.3324L51.8803 15.3218V15.5527V15.673C51.8803 16.9904 52.315 18.089 53.1707 18.8559C54.0234 19.62 55.2667 20.0303 56.8394 20.0303C58.5858 20.0303 60.1878 19.5324 61.4022 18.893L61.5902 22.3499C60.3752 22.8684 58.1598 23.2318 55.9462 23.2318C52.838 23.2318 50.5845 22.6982 49.0437 21.4847C47.51 20.277 46.6412 18.3624 46.3782 15.5008L46.3606 15.3092L46.1685 15.3007C45.4566 15.2689 44.377 15.2308 42.9107 15.2181L42.6964 15.2162L42.6884 15.4304C42.6837 15.5556 42.679 15.6791 42.6744 15.8008C42.6416 16.6683 42.6122 17.4463 42.6122 18.112C42.6122 19.4504 42.6172 21.3925 42.8335 22.8398C41.217 22.8487 39.7705 22.9393 38.4121 23.0296C38.3266 23.0353 38.2414 23.041 38.1565 23.0466C36.8208 23.1357 35.5696 23.2192 34.3122 23.2192C31.7802 23.2192 30.119 22.6926 29.0903 21.7643C28.0668 20.8408 27.6276 19.481 27.6276 17.7129C27.6276 16.0382 28.3123 14.7653 29.7449 13.8979C31.1953 13.0197 33.4277 12.5487 36.5294 12.5487C36.7729 12.5487 37.2107 12.5488 37.3765 12.5549L37.6013 12.5632L37.6052 12.3383L37.6115 11.9709L37.6116 11.9709V11.9671C37.6116 10.7181 37.4227 9.76893 36.8632 9.1372C36.2974 8.49835 35.4018 8.23695 34.1285 8.23695C32.4485 8.23695 30.6964 8.79437 29.4334 9.41226L29.245 5.95026C30.6597 5.41267 32.9172 5.04179 35.4842 5.04179C38.208 5.04179 40.0187 5.49037 41.1529 6.50224C42.28 7.5079 42.7896 9.11712 42.7896 11.5743C42.7896 11.709 42.788 11.8423 42.7864 11.9764L42.7864 11.9788C42.7848 12.1116 42.7832 12.2451 42.7832 12.3789V12.5984L43.0027 12.5994C44.3322 12.6057 45.3024 12.6247 46.1889 12.6813ZM37.5229 15.3708L37.5246 15.1677L37.3223 15.1493C37.1425 15.133 36.9065 15.1342 36.7007 15.1352C36.6521 15.1355 36.6052 15.1357 36.5611 15.1357C35.2455 15.1357 34.2834 15.3541 33.6455 15.8013C32.9918 16.2596 32.7106 16.9348 32.7106 17.7572C32.7106 18.5878 32.9233 19.2214 33.4352 19.6366C33.9356 20.0425 34.6773 20.2014 35.6425 20.2014C36.2396 20.2014 36.9247 20.124 37.3973 19.9975L37.5728 19.9506L37.5604 19.7694C37.4895 18.7339 37.5038 17.303 37.5172 15.9698C37.5192 15.7673 37.5212 15.5671 37.5229 15.3708ZM51.8549 12.5372V12.7399L52.0569 12.757C52.5173 12.7959 53.1407 12.8021 53.7162 12.8021C54.9306 12.8021 55.8728 12.5996 56.5157 12.1429C57.174 11.6754 57.4844 10.967 57.4844 10.0476C57.4844 9.3805 57.2572 8.83905 56.8326 8.46736C56.4122 8.09925 55.8242 7.9202 55.1416 7.9202C53.9309 7.9202 53.0912 8.41084 52.5666 9.2461C52.0526 10.0644 51.8549 11.1907 51.8549 12.4485V12.5372ZM71.5556 8.98448H71.335V9.20503V16.0911C71.335 17.4217 71.4653 18.3375 71.8743 18.9163C72.3024 19.5221 72.9917 19.7073 73.9312 19.7073C74.2366 19.7073 74.5669 19.6617 74.8661 19.5856C75.0255 19.5451 75.181 19.4947 75.322 19.4353L75.5308 22.8474C74.9583 22.985 73.6699 23.2065 71.9737 23.2065C70.0351 23.2065 68.5952 22.7976 67.6397 21.9324C66.6887 21.0713 66.176 19.7199 66.176 17.7382C66.176 14.5792 66.233 11.1094 66.2646 9.20871L66.2684 8.98448H66.0441H64.2389C64.249 8.60014 64.2459 8.16331 64.2406 7.72712C64.2395 7.63524 64.2383 7.54339 64.2371 7.452C64.2324 7.08732 64.2277 6.72991 64.2294 6.40664C65.6957 6.13276 66.7051 5.56197 67.3993 4.62989C68.0863 3.7075 68.4445 2.45685 68.6692 0.867038H71.5952C71.4883 2.2309 71.392 4.09178 71.392 5.37871V5.59926H71.6126H74.9586V8.98448H71.5556ZM106.669 15.3699L106.67 15.1676L106.469 15.1493C106.289 15.133 106.052 15.1342 105.85 15.1353C105.802 15.1355 105.756 15.1357 105.714 15.1357C104.398 15.1357 103.436 15.3541 102.798 15.8013C102.144 16.2596 101.863 16.9348 101.863 17.7572C101.863 18.5873 102.074 19.221 102.585 19.6365C103.085 20.0426 103.827 20.2014 104.795 20.2014C105.386 20.2014 106.077 20.124 106.55 19.9975L106.726 19.9503L106.713 19.7682C106.642 18.8092 106.653 17.512 106.663 16.2654C106.665 15.962 106.668 15.6617 106.669 15.3699ZM16.4896 4.19784L16.4904 4.1971C17.0044 3.67723 17.6819 3.42003 18.3544 3.42003C19.0199 3.42003 19.6918 3.67684 20.2066 4.19165L24.2289 8.21391C25.2528 9.24366 25.2572 10.9095 24.2298 11.931L24.2293 11.9315L13.0203 23.1405L1.81133 11.9315C0.782181 10.9023 0.78282 9.23653 1.80499 8.21436L5.83404 4.18532C6.34868 3.67068 7.02045 3.4137 7.69261 3.4137C8.36423 3.4137 9.03566 3.67027 9.55664 4.19711L9.55751 4.19799L12.8707 7.51118L13.0268 7.66728L13.1828 7.51103L16.4896 4.19784Z" fill="white" fill-opacity="0.75" stroke="white" stroke-width="0.441108"/>
</svg>
