<svg width="122" height="22" viewBox="0 0 122 22" fill="none" xmlns="http://www.w3.org/2000/svg">
<g clip-path="url(#clip0_552_8703)">
<path d="M121.595 15.4855H115.798L115.8 21.2721H106.571V15.4855H100.771V6.25829H106.571V0.47168H115.798V6.25829H121.595V15.4855Z" fill="white" fill-opacity="0.75"/>
<path d="M109.861 8.45489C110.242 8.45732 110.547 8.34773 110.725 8.16264C110.952 7.93129 110.97 7.58303 110.657 7.20068C110.103 6.52366 110.581 5.87585 111.165 5.89777C111.746 5.92213 112.227 6.52366 111.675 7.20068C111.36 7.58303 111.377 7.92885 111.607 8.16264C111.782 8.34529 112.09 8.45732 112.471 8.45732H116.408C115.993 7.56111 115.864 7.32245 115.151 6.70874C114.206 5.8929 112.446 5.14038 111.211 5.14038C109.632 5.14038 108.204 5.78088 107.169 6.81346C106.695 7.28592 106.307 7.84118 106.022 8.45489H109.861ZM107.635 15.2933C108.001 14.6066 109.6 11.633 110.101 10.7003C110.655 9.66282 110.049 9.22933 109.232 9.18062C108.468 9.13678 107.225 8.93221 105.831 8.90055C105.614 9.50452 105.494 10.1645 105.494 10.844C105.494 12.6412 106.329 14.2461 107.635 15.2933ZM114.384 15.5904C114.384 15.5904 111.814 11.8814 111.673 11.6403C111.526 11.4017 111.404 11.2531 111.162 11.2531C110.921 11.2531 110.799 11.3992 110.655 11.6403C110.528 11.8522 108.458 14.8525 107.977 15.549C108.897 16.1822 110.01 16.5475 111.211 16.5475C112.412 16.5475 113.479 16.1944 114.384 15.5904ZM116.928 10.844C116.928 10.1572 116.808 9.49965 116.586 8.89081C115.156 8.91516 113.877 9.13435 113.098 9.18062C112.275 9.22933 111.673 9.66525 112.224 10.7003C112.783 11.7353 114.641 15.2057 114.714 15.3518C116.061 14.307 116.928 12.6778 116.928 10.8464V10.844Z" fill="white"/>
<path d="M13.0103 17.3458H5.36036L3.82989 21.2691H0.251465L7.27163 3.80041H11.287L18.3364 21.2716H14.5383L13.0078 17.3482L13.0103 17.3458ZM11.863 14.3211L9.18533 7.42664L6.50761 14.3211H11.863ZM19.696 8.21569H23.0279V10.069C23.7114 8.6784 25.0222 7.86013 26.7431 7.86013C29.7479 7.86013 31.6884 9.9594 31.6884 13.3664V21.2716H28.3565V13.8584C28.3565 12.0855 27.346 10.9676 25.7056 10.9676C24.0653 10.9676 23.0279 12.0855 23.0279 13.8584V21.2716H19.696V8.21569ZM32.9186 8.21569H35.2131V4.83543H38.6012V8.21569H42.099V11.1576H38.6012V16.7175C38.6012 17.9425 39.0942 18.5148 40.0755 18.5148C40.7028 18.5148 41.3057 18.242 41.6328 17.8621L43.1096 20.3413C42.3993 21.05 41.169 21.6223 39.558 21.6223C36.9096 21.6223 35.2156 19.9881 35.2156 16.7978V11.1552H32.9211V8.21325L32.9186 8.21569ZM44.7328 2.51941H48.0647V10.069C48.7482 8.6784 50.059 7.86013 51.7798 7.86013C54.7846 7.86013 56.7252 9.9594 56.7252 13.3664V21.2716H53.3933V13.8584C53.3933 12.0855 52.3827 10.9676 50.7424 10.9676C49.1021 10.9676 48.0647 12.0855 48.0647 13.8584V21.2716H44.7328V2.51941ZM58.5315 14.7302C58.5315 10.9408 61.3459 7.86256 65.1147 7.86256C68.8835 7.86256 71.7248 10.7241 71.7248 14.4867C71.7248 14.9226 71.698 15.4414 71.6418 15.6581H61.9439C62.2979 17.4578 63.6648 18.7096 65.659 18.7096C66.9967 18.7096 68.1171 18.1373 68.8835 17.3482L70.6044 19.6375C69.5939 20.7553 67.7363 21.6271 65.5517 21.6271C61.4802 21.6271 58.5315 18.5464 58.5315 14.7327V14.7302ZM62.0294 13.3397H68.2855C67.8754 11.5959 66.7013 10.6681 65.1709 10.6681C63.6404 10.6681 62.4394 11.7591 62.0294 13.3397ZM73.5872 21.2716V8.21569H76.9191V10.2054C77.6026 8.78799 78.8865 7.86013 80.6074 7.86013C82.6017 7.86013 84.1321 8.84157 84.8961 10.5853C85.5796 9.03153 86.8367 7.86013 88.9115 7.86013C91.9432 7.86013 93.9374 9.87659 93.9374 13.3664V21.2716H90.5762V13.8584C90.5762 12.0855 89.5925 10.9676 88.0084 10.9676C86.4242 10.9676 85.4136 12.0855 85.4136 13.8584V21.2716H82.0817V13.8584C82.0817 12.0855 81.098 10.9676 79.5139 10.9676C77.9297 10.9676 76.9191 12.0855 76.9191 13.8584V21.2716H73.5872Z" fill="white" fill-opacity="0.75"/>
</g>
<defs>
<clipPath id="clip0_552_8703">
<rect width="121.344" height="21.1555" fill="white" transform="translate(0.251465 0.47168)"/>
</clipPath>
</defs>
</svg>
