<svg width="18" height="16" viewBox="0 0 18 16" fill="none" xmlns="http://www.w3.org/2000/svg">
<path d="M2.11742 15.6578C1.66546 15.6578 1.2829 15.5013 0.969738 15.1881C0.656579 14.8749 0.5 14.4924 0.5 14.0404V4.74896C0.5 4.297 0.656579 3.91444 0.969738 3.60128C1.2829 3.28812 1.66546 3.13154 2.11742 3.13154H5.86843V1.6174C5.86843 1.16545 6.02501 0.782897 6.33817 0.469738C6.65133 0.156579 7.03389 0 7.48585 0H10.5141C10.9661 0 11.3487 0.156579 11.6618 0.469738C11.975 0.782897 12.1316 1.16545 12.1316 1.6174V3.13154H15.8826C16.3345 3.13154 16.7171 3.28812 17.0303 3.60128C17.3434 3.91444 17.5 4.297 17.5 4.74896V14.0404C17.5 14.4924 17.3434 14.8749 17.0303 15.1881C16.7171 15.5013 16.3345 15.6578 15.8826 15.6578H2.11742ZM7.21052 3.13154H10.7895V1.6174C10.7895 1.54856 10.7608 1.48547 10.7034 1.42812C10.6461 1.37075 10.583 1.34206 10.5141 1.34206H7.48585C7.41702 1.34206 7.35392 1.37075 7.29655 1.42812C7.2392 1.48547 7.21052 1.54856 7.21052 1.6174V3.13154ZM16.1579 10.5131H11.2368V12.0789H6.76317V10.5131H1.84209V14.0404C1.84209 14.1093 1.87076 14.1724 1.92812 14.2297C1.98548 14.2871 2.04858 14.3158 2.11742 14.3158H15.8826C15.9514 14.3158 16.0145 14.2871 16.0719 14.2297C16.1292 14.1724 16.1579 14.1093 16.1579 14.0404V10.5131ZM8.10526 10.7368H9.89474V8.94733H8.10526V10.7368ZM1.84209 9.17103H6.76317V7.60524H11.2368V9.17103H16.1579V4.74896C16.1579 4.68013 16.1292 4.61703 16.0719 4.55966C16.0145 4.50231 15.9514 4.47363 15.8826 4.47363H2.11742C2.04858 4.47363 1.98548 4.50231 1.92812 4.55966C1.87076 4.61703 1.84209 4.68013 1.84209 4.74896V9.17103Z" fill="#060608"/>
</svg>
