<svg width="58" height="32" viewBox="0 0 58 32" fill="none" xmlns="http://www.w3.org/2000/svg">
<path d="M36.7074 25.53C36.7074 25.0287 36.5254 24.9993 36.5254 24.9993H36.2518C35.7962 24.9993 35.3406 24.5437 35.3406 24.0881V19.4625C35.3406 17.5955 36.4556 16.4794 37.8899 16.4794C39.1194 16.4794 40.0305 17.1617 40.0305 18.6647V24.0881C40.0305 24.5437 39.5749 24.9993 39.1194 24.9993H38.8458C38.8458 24.9993 38.6638 25.0472 38.6638 25.5115C38.6638 25.9758 38.8458 26.2254 38.8458 26.2254H44.2191C44.2191 26.2254 44.4011 26.0238 44.4011 25.5595C44.4011 25.0952 44.2191 25.0003 44.2191 25.0003H43.9455C43.4899 25.0003 43.0343 24.5448 43.0343 24.0892V18.5524C43.0343 15.9334 41.3951 14.6593 39.0267 14.6593C37.2741 14.6593 35.9303 15.4789 35.1106 16.6854C35.1106 16.6854 35.1063 15.4909 35.1063 15.347C35.1063 14.9568 34.7314 14.8206 34.2823 15.0015C33.9793 15.1236 32.4491 15.662 31.1521 15.662C31.0801 15.7579 30.9679 15.9519 30.9679 16.2691C30.9679 16.5481 31.0333 16.6941 31.1499 16.8849H31.4235C31.879 16.8849 32.3346 17.3405 32.3346 17.796V24.0881C32.3346 24.5437 31.879 24.9993 31.4235 24.9993H31.1499C31.1499 24.9993 30.9679 25.0287 30.9679 25.5202C30.9679 26.0129 31.1499 26.2243 31.1499 26.2243H36.5232C36.5264 26.2254 36.7074 26.0325 36.7074 25.53Z" fill="white" fill-opacity="0.75"/>
<path d="M26.7723 15.4896C25.9592 14.9577 24.9402 14.6438 23.8208 14.6438C21.0088 14.6438 18.9445 16.5261 18.9445 18.8858C18.9445 20.3375 19.738 21.5168 20.8268 22.2427L18.9162 24.6165C18.9162 24.6165 18.6732 25.0568 18.6732 25.495C18.6732 25.932 18.9511 26.2274 18.9511 26.2274H20.3058C19.3086 26.817 18.8541 27.7991 18.8541 28.6383C18.8541 30.271 20.283 31.6094 23.4819 31.6094C26.7026 31.6094 29.6965 29.908 29.6965 27.2312C29.6965 25.326 28.563 24.0345 25.7271 24.0345H21.4404L22.2797 22.8988C22.756 23.0579 23.1418 23.1255 23.8219 23.1255C26.6121 23.1255 28.6982 21.2204 28.6982 18.8836C28.6982 18.1577 28.4955 17.4787 28.138 16.8847H29.7957C29.8829 16.7332 29.9777 16.5228 29.9777 16.1719C29.9777 15.8972 29.8753 15.5997 29.7979 15.4874H26.7723V15.4896ZM22.2787 26.2283H24.8192C26.3386 26.2283 26.8606 27.0751 26.8606 27.9361C26.8606 29.025 25.8176 30.1356 23.9353 30.1356C22.1664 30.1356 21.168 29.3413 21.168 28.162C21.1669 27.3685 21.6214 26.5683 22.2787 26.2283ZM23.8216 21.7206C22.5519 21.7206 21.7344 20.6546 21.7344 18.8857C21.7344 17.1168 22.5508 16.0509 23.8216 16.0509C25.0696 16.0509 25.8859 17.1168 25.8859 18.8857C25.8859 20.6546 25.0696 21.7206 23.8216 21.7206Z" fill="white" fill-opacity="0.75"/>
<path d="M10.5432 22.4148C10.1781 22.2872 9.87944 22.3995 9.87944 22.3995C9.03584 23.8643 8.2729 24.539 7.08708 24.539C4.94649 24.539 3.58082 22.6044 3.58082 20.3047C3.58082 18.1641 4.53668 16.0693 6.74593 16.0693C8.13448 16.0693 9.20151 16.9347 9.20151 18.2546L9.23312 18.6644C9.23312 18.6644 9.19061 18.8464 9.76827 18.8464C10.3459 18.8464 10.5029 18.6644 10.5029 18.6644L10.3884 15.6824C10.3884 15.6824 10.3764 15.6039 10.335 15.5494C10.2947 15.496 10.2282 15.4546 10.2282 15.4546C9.33993 14.9543 8.15628 14.6579 6.76773 14.6579C3.51216 14.6579 0.484375 16.8431 0.484375 20.7832C0.484375 24.3123 3.14813 26.5434 6.19989 26.5434C9.06854 26.5434 10.4004 24.7439 10.9922 22.7407C10.9911 22.7385 10.8309 22.515 10.5432 22.4148Z" fill="white" fill-opacity="0.75"/>
<path d="M14.6241 13.8473C15.6639 13.8473 16.5075 12.9819 16.5075 11.916C16.5075 10.8479 15.6639 9.98355 14.6241 9.98355C13.5843 9.98355 12.7407 10.8479 12.7407 11.916C12.7407 12.9819 13.5843 13.8473 14.6241 13.8473Z" fill="white" fill-opacity="0.75"/>
<path d="M16.1271 17.3827C16.1271 16.9271 16.5826 16.4715 17.0382 16.4715H17.3118C17.3118 16.4715 17.4938 16.3571 17.4938 15.9156C17.4938 15.4731 17.3118 15.2464 17.3118 15.2464H11.9385C11.9385 15.2464 11.7565 15.5244 11.7565 15.9538C11.7565 16.3832 11.9385 16.4715 11.9385 16.4715H12.2121C12.6677 16.4715 13.1232 16.9271 13.1232 17.3827V24.0867C13.1232 24.5423 12.6677 24.9979 12.2121 24.9979H11.9385C11.9385 24.9979 11.7565 25.0872 11.7565 25.5167C11.7565 25.9461 11.9385 26.224 11.9385 26.224H17.3118C17.3118 26.224 17.4938 25.9973 17.4938 25.5548C17.4938 25.1134 17.3118 24.999 17.3118 24.999H17.0382C16.5826 24.999 16.1271 24.5434 16.1271 24.0878V17.3827Z" fill="white" fill-opacity="0.75"/>
<path d="M57.8043 24.5881C57.8043 24.235 57.6223 24.1282 57.6223 24.1282H57.3487C56.8932 24.1282 56.4387 23.6726 56.4387 23.217V15.2105C56.4387 15.2105 56.4212 14.9751 56.1695 14.9751H55.4763C55.34 14.9751 55.2354 15.0895 55.2354 15.0895L54.2697 16.3506C54.1564 16.4988 54.0267 16.3517 54.0267 16.3517V16.3528C53.3804 15.5909 52.2948 14.6558 50.3362 14.6558C47.3989 14.6558 44.5989 16.7964 44.5989 20.7124C44.5989 24.3778 47.012 26.5412 49.9722 26.5412C51.6572 26.5412 52.7275 25.835 53.57 24.7418V26.0955C53.57 26.0955 53.5809 26.405 53.9286 26.4813C54.2414 26.55 54.4812 26.4497 54.4812 26.4497L57.6234 25.1069C57.6212 25.108 57.8043 24.9423 57.8043 24.5881ZM50.5626 25.0395C48.5364 25.0395 47.6939 23.0362 47.6939 20.5992C47.6939 18.1632 48.5364 16.1599 50.5626 16.1599C52.5887 16.1599 53.4312 18.1632 53.4312 20.5992C53.4323 23.0362 52.5898 25.0395 50.5626 25.0395Z" fill="white" fill-opacity="0.75"/>
<path fill-rule="evenodd" clip-rule="evenodd" d="M13.2301 5.32399C13.2323 4.10983 13.7816 3.02646 14.6405 2.29948C15.4972 3.02972 16.041 4.11528 16.0388 5.32944C16.0367 6.5436 15.4884 7.62697 14.6285 8.35394C13.7718 7.6237 13.228 6.53815 13.2301 5.32399ZM17.4993 2.2221C17.1451 3.07223 17.2116 3.99212 17.6007 4.75287C18.4149 4.49239 19.1135 3.89184 19.4677 3.04171C19.8219 2.19158 19.7555 1.2717 19.3664 0.510943C18.5533 0.770342 17.8536 1.37197 17.4993 2.2221ZM9.80017 3.02101C10.1511 3.87223 10.8476 4.47604 11.6607 4.73871C12.053 3.97904 12.1228 3.06024 11.7718 2.20793C11.4209 1.35671 10.7244 0.752903 9.91134 0.490234C9.51898 1.2499 9.44922 2.1687 9.80017 3.02101ZM4.92063 9.02968C5.77076 9.3839 6.69065 9.31742 7.45141 8.92832C7.19092 8.11416 6.59038 7.41552 5.74024 7.0613C4.89011 6.70708 3.97022 6.77357 3.20946 7.16158C3.46995 7.97574 4.07049 8.67546 4.92063 9.02968ZM23.5091 7.10163C22.6579 7.45258 22.0541 8.14904 21.7914 8.96211C22.5511 9.35448 23.4699 9.42423 24.3222 9.07328C25.1734 8.72233 25.7772 8.02587 26.0399 7.2128C25.2802 6.82043 24.3603 6.75068 23.5091 7.10163ZM21.205 10.5316C19.9909 10.5294 18.9053 11.0733 18.1751 11.931C18.9021 12.791 19.9854 13.3392 21.1996 13.3414C22.4138 13.3435 23.4993 12.7997 24.2296 11.9419C23.5037 11.082 22.4192 10.5338 21.205 10.5316ZM18.2961 6.27657C17.4361 7.13324 17.0525 8.28636 17.1429 9.40788C18.2644 9.50161 19.4187 9.12341 20.2797 8.26675C21.1396 7.41008 21.5233 6.25695 21.4328 5.13543C20.3102 5.04061 19.1571 5.4199 18.2961 6.27657ZM8.05304 10.5316C6.83888 10.5338 5.7555 11.082 5.02853 11.9419C5.75768 12.7997 6.84433 13.3435 8.05849 13.3414C9.27265 13.3392 10.356 12.791 11.083 11.931C10.3528 11.0733 9.26721 10.5294 8.05304 10.5316ZM10.962 6.27657C10.1021 5.4199 8.94786 5.0417 7.82525 5.13543C7.73479 6.25695 8.11844 7.41008 8.97838 8.26675C9.83832 9.12341 10.9936 9.50161 12.1152 9.40788C12.2056 8.28527 11.822 7.13324 10.962 6.27657Z" fill="white" fill-opacity="0.75"/>
</svg>
