<svg width="55" height="55" viewBox="0 0 55 55" fill="none" xmlns="http://www.w3.org/2000/svg">
<g clip-path="url(#clip0_340_897)">
<path d="M18.6488 51.3233C22.0534 47.9187 21.6787 42.035 17.7919 38.2428C13.9607 34.5051 8.10431 34.2569 4.80194 37.6872C3.06987 39.4865 2.36253 41.945 2.64055 44.4175C2.63882 44.4019 2.63612 44.3864 2.63451 44.3709C2.6413 46.54 3.53327 46.9716 1.96814 48.5368C1.50377 49.0011 0.993458 49.395 0.448634 49.719C0.0899482 49.9324 0.063958 50.4513 0.392017 50.7825C0.422213 50.813 0.452625 50.8434 0.483144 50.8737C5.6608 56.015 13.5859 56.3847 18.1761 51.7955C18.4836 51.4882 18.3251 51.6471 18.6488 51.3233Z" fill="url(#paint0_linear_340_897)"/>
<path d="M18.6488 51.3233C22.0534 47.9187 21.6787 42.035 17.7919 38.2428C13.9607 34.5051 8.10431 34.2569 4.80194 37.6872C3.06987 39.4865 2.36253 41.945 2.64055 44.4175C2.63882 44.4019 2.63612 44.3864 2.63451 44.3709C2.6413 46.54 3.53327 46.9716 1.96814 48.5368C1.50377 49.0011 0.993458 49.395 0.448634 49.719C0.0899482 49.9324 0.063958 50.4513 0.392017 50.7825C0.422213 50.813 0.452625 50.8434 0.483144 50.8737C5.6608 56.015 13.5859 56.3847 18.1761 51.7955C18.4836 51.4882 18.3251 51.6471 18.6488 51.3233Z" fill="url(#paint1_linear_340_897)"/>
<path d="M15.4443 48.1192C18.8489 44.7146 19.9337 40.2903 17.8374 38.2888C15.7714 36.316 11.3384 37.4914 8.00625 40.8919C6.25854 42.6754 5.1428 44.7256 4.77947 46.5568C4.78174 46.5452 4.78335 46.534 4.78573 46.5225C4.28512 48.1842 4.86844 48.3072 3.30331 49.8723C2.83894 50.3367 2.3558 50.7577 1.86242 51.1332C1.70939 51.2498 1.59713 51.4011 1.53943 51.5471C1.47483 51.7109 2.93158 52.9729 3.75906 53.1792C6.85534 53.9513 11.3497 52.2133 14.9717 48.5916C15.2791 48.2841 15.1206 48.443 15.4443 48.1192Z" fill="url(#paint2_linear_340_897)"/>
<path d="M18.6487 51.3228C18.3246 51.6469 18.4835 51.488 18.176 51.7955C13.5861 56.3842 5.66091 56.0144 0.483683 50.8735C0.452516 50.8434 0.422428 50.8133 0.392339 50.7822C0.262496 50.6512 0.188516 50.4907 0.168457 50.3316C3.64597 52.4874 9.25715 51.1463 13.392 47.0114C13.6994 46.704 13.5412 46.8634 13.8653 46.5394C16.8997 43.505 18.8922 40.5375 16.5954 37.2334C17.0115 37.535 17.4115 37.8719 17.792 38.2428C21.6793 42.0349 22.0532 47.9184 18.6487 51.3228Z" fill="url(#paint3_linear_340_897)"/>
<path d="M17.7919 38.2432C17.4118 37.8724 17.0114 37.5363 16.5957 37.2344C19.3087 40.9613 19.2532 45.9084 16.2433 48.9182C15.9195 49.242 16.078 49.0831 15.7706 49.3903C11.7617 53.3986 5.20911 53.6237 0.16453 50.1915C0.149324 50.3937 0.223736 50.613 0.392079 50.7829C0.422275 50.8134 0.452687 50.8439 0.483207 50.8742C5.66086 56.0155 13.5859 56.3852 18.1762 51.7959C18.4835 51.4887 18.3251 51.6475 18.6488 51.3238C22.0536 47.9192 21.6788 42.0354 17.7919 38.2432Z" fill="url(#paint4_linear_340_897)"/>
<path d="M53.1412 1.69676C51.0299 -0.414591 47.6597 -0.575278 45.3571 1.32567L22.3104 20.3519C20.0371 22.2287 18.1656 24.5447 16.808 27.1615L13.1191 34.2721L20.5659 41.7189L27.6765 38.03C30.2933 36.6725 32.6093 34.8009 34.4861 32.5276L53.5123 9.48088C55.4132 7.17832 55.2525 3.80811 53.1412 1.69676Z" fill="#79C7D0"/>
<g filter="url(#filter0_i_340_897)">
<path d="M53.1411 1.69716C51.4828 0.038856 49.0481 -0.415379 46.9638 0.386866C47.6997 0.669846 48.3882 1.10715 48.9782 1.69727C51.0895 3.80862 51.2502 7.17883 49.3493 9.48139L30.3231 32.528C28.4463 34.8013 26.1303 36.6728 23.5135 38.0304L19.1438 40.2973L20.5658 41.7194L27.6763 38.0305C30.2932 36.673 32.6092 34.8014 34.486 32.5281L53.5122 9.48128C55.4131 7.17872 55.2524 3.80851 53.1411 1.69716Z" fill="#79C7D0"/>
</g>
<path d="M14.3425 29.5639L12.7572 32.9074C12.3306 33.807 12.5159 34.8776 13.2198 35.5816L19.2562 41.618C19.9602 42.322 21.0308 42.5072 21.9304 42.0806L25.2739 40.4953C26.1023 40.1026 26.2918 39.0076 25.6434 38.3593L16.4784 29.1942C15.8301 28.5461 14.7353 28.7355 14.3425 29.5639Z" fill="url(#paint5_linear_340_897)"/>
<path d="M25.6435 38.3594L16.4784 29.1944C15.8301 28.546 14.7353 28.7355 14.3424 29.5639L13.8093 30.6882L21.4805 38.3594C22.1289 39.0078 21.9394 40.1026 21.111 40.4955L19.0913 41.4531L19.2562 41.618C19.9602 42.322 21.0307 42.5073 21.9303 42.0806L25.2738 40.4953C26.1024 40.1026 26.2918 39.0078 25.6435 38.3594Z" fill="url(#paint6_linear_340_897)"/>
<path d="M18.4443 13.6019C21.7627 13.6019 24.4528 10.9118 24.4528 7.59344C24.4528 4.27505 21.7627 1.58496 18.4443 1.58496C15.1259 1.58496 12.4358 4.27505 12.4358 7.59344C12.4358 10.9118 15.1259 13.6019 18.4443 13.6019Z" fill="#79C7D0"/>
<path d="M8.06879 26.4686C10.5327 26.4686 12.5301 24.4712 12.5301 22.0073C12.5301 19.5433 10.5327 17.5459 8.06879 17.5459C5.60484 17.5459 3.60742 19.5433 3.60742 22.0073C3.60742 24.4712 5.60484 26.4686 8.06879 26.4686Z" fill="#FDECEA"/>
<path d="M44.0041 32.295C39.4681 32.306 35.6858 35.5218 34.8002 39.7978C34.6455 40.5453 34.0995 41.1539 33.3779 41.4028C31.0176 42.2171 29.3233 44.4598 29.3301 47.0983C29.3385 50.3615 32.0081 53.0548 35.2711 53.0906C36.9323 53.1088 38.4398 52.4525 39.5377 51.3788C40.0808 50.8476 40.8667 50.6325 41.6008 50.8276C42.375 51.0333 43.1885 51.143 44.0275 51.143C49.2322 51.143 53.4515 46.9238 53.4516 41.719C53.4517 36.51 49.2132 32.2822 44.0041 32.295Z" fill="url(#paint7_linear_340_897)"/>
<path d="M39.7383 51.1432C38.8993 51.1432 38.0859 51.0335 37.3117 50.8277C36.5776 50.6327 35.7916 50.8478 35.2485 51.3789C34.6678 51.9468 33.9716 52.3963 33.1997 52.6927C33.8455 52.9418 34.5432 53.0827 35.2709 53.0907C36.9322 53.1089 38.4397 52.4526 39.5375 51.3789C39.6276 51.2909 39.7248 51.2124 39.8269 51.1421C39.7973 51.1423 39.768 51.1432 39.7383 51.1432Z" fill="url(#paint8_linear_340_897)"/>
<path d="M44.0039 32.295C43.2743 32.2967 42.5647 32.3824 41.883 32.5412C46.0507 33.5135 49.1624 37.2558 49.1623 41.7193C49.1622 46.1862 46.0543 49.9271 41.8828 50.8979C42.5717 51.0583 43.2895 51.1432 44.0273 51.1432C49.232 51.1432 53.4513 46.924 53.4514 41.7193C53.4515 36.5099 49.213 32.2822 44.0039 32.295Z" fill="url(#paint9_linear_340_897)"/>
</g>
<defs>
<filter id="filter0_i_340_897" x="19.1438" y="0.000976562" width="35.6941" height="45.7188" filterUnits="userSpaceOnUse" color-interpolation-filters="sRGB">
<feFlood flood-opacity="0" result="BackgroundImageFix"/>
<feBlend mode="normal" in="SourceGraphic" in2="BackgroundImageFix" result="shape"/>
<feColorMatrix in="SourceAlpha" type="matrix" values="0 0 0 0 0 0 0 0 0 0 0 0 0 0 0 0 0 0 127 0" result="hardAlpha"/>
<feOffset dy="4"/>
<feGaussianBlur stdDeviation="2"/>
<feComposite in2="hardAlpha" operator="arithmetic" k2="-1" k3="1"/>
<feColorMatrix type="matrix" values="0 0 0 0 0 0 0 0 0 0 0 0 0 0 0 0 0 0 0.07 0"/>
<feBlend mode="normal" in2="shape" result="effect1_innerShadow_340_897"/>
</filter>
<linearGradient id="paint0_linear_340_897" x1="3.51075" y1="38.9286" x2="17.2512" y2="52.669" gradientUnits="userSpaceOnUse">
<stop stop-color="#FEE903"/>
<stop offset="0.2305" stop-color="#FEE505"/>
<stop offset="0.4171" stop-color="#FEDB0B"/>
<stop offset="0.5884" stop-color="#FECA15"/>
<stop offset="0.7504" stop-color="#FEB223"/>
<stop offset="0.9046" stop-color="#FE9435"/>
<stop offset="1" stop-color="#FE7D43"/>
</linearGradient>
<linearGradient id="paint1_linear_340_897" x1="3.51075" y1="38.9286" x2="17.2512" y2="52.669" gradientUnits="userSpaceOnUse">
<stop stop-color="#FFE177"/>
<stop offset="0.5725" stop-color="#FEB137"/>
<stop offset="1" stop-color="#FE646F"/>
</linearGradient>
<linearGradient id="paint2_linear_340_897" x1="2.14563" y1="37.4184" x2="16.0259" y2="51.2987" gradientUnits="userSpaceOnUse">
<stop stop-color="#FFE177"/>
<stop offset="0.5725" stop-color="#FEB137"/>
<stop offset="1" stop-color="#FE646F"/>
</linearGradient>
<linearGradient id="paint3_linear_340_897" x1="-3.94274" y1="31.475" x2="16.6923" y2="52.1101" gradientUnits="userSpaceOnUse">
<stop stop-color="#FFE177"/>
<stop offset="0.5725" stop-color="#FEB137"/>
<stop offset="1" stop-color="#FE646F"/>
</linearGradient>
<linearGradient id="paint4_linear_340_897" x1="-1.2982" y1="34.12" x2="14.557" y2="49.9753" gradientUnits="userSpaceOnUse">
<stop stop-color="#FFE177"/>
<stop offset="0.5725" stop-color="#FEB137"/>
<stop offset="1" stop-color="#FE646F"/>
</linearGradient>
<linearGradient id="paint5_linear_340_897" x1="12.5639" y1="35.5568" x2="27.5038" y2="35.5568" gradientUnits="userSpaceOnUse">
<stop stop-color="#F9F3F1"/>
<stop offset="0.5725" stop-color="#EFE2DD"/>
<stop offset="1" stop-color="#CDBFBA"/>
</linearGradient>
<linearGradient id="paint6_linear_340_897" x1="4.21474" y1="35.5568" x2="24.1297" y2="35.5568" gradientUnits="userSpaceOnUse">
<stop stop-color="#F9F3F1"/>
<stop offset="0.5725" stop-color="#EFE2DD"/>
<stop offset="1" stop-color="#CDBFBA"/>
</linearGradient>
<linearGradient id="paint7_linear_340_897" x1="27.1972" y1="42.693" x2="56.9026" y2="42.693" gradientUnits="userSpaceOnUse">
<stop stop-color="#FDB4BA"/>
<stop offset="0.5725" stop-color="#BD80E1"/>
<stop offset="1" stop-color="#9857BD"/>
</linearGradient>
<linearGradient id="paint8_linear_340_897" x1="18.3559" y1="51.9239" x2="52.7463" y2="51.9239" gradientUnits="userSpaceOnUse">
<stop stop-color="#FDB4BA"/>
<stop offset="0.5725" stop-color="#BD80E1"/>
<stop offset="1" stop-color="#9857BD"/>
</linearGradient>
<linearGradient id="paint9_linear_340_897" x1="18.3558" y1="41.719" x2="52.7462" y2="41.719" gradientUnits="userSpaceOnUse">
<stop stop-color="#FDB4BA"/>
<stop offset="0.5725" stop-color="#BD80E1"/>
<stop offset="1" stop-color="#9857BD"/>
</linearGradient>
<clipPath id="clip0_340_897">
<rect width="55" height="55" fill="white"/>
</clipPath>
</defs>
</svg>
