<svg width="55" height="56" viewBox="0 0 55 56" fill="none" xmlns="http://www.w3.org/2000/svg">
<g clip-path="url(#clip0_340_896)">
<path d="M35.032 10.2666H19.968V3.02754C19.968 1.62353 21.1062 0.485352 22.5102 0.485352H32.4899C33.8939 0.485352 35.0321 1.62353 35.0321 3.02754L35.032 10.2666Z" fill="url(#paint0_linear_340_896)"/>
<path d="M35.032 10.2666H19.968V3.02754C19.968 1.62353 21.1062 0.485352 22.5102 0.485352H32.4899C33.8939 0.485352 35.0321 1.62353 35.0321 3.02754L35.032 10.2666Z" fill="url(#paint1_linear_340_896)"/>
<path d="M19.9681 45.7041H35.0321V52.9432C35.0321 54.3472 33.8939 55.4854 32.4899 55.4854H22.5102C21.1062 55.4854 19.968 54.3472 19.968 52.9432V45.7041H19.9681Z" fill="url(#paint2_linear_340_896)"/>
<path d="M35.0318 45.7041V52.9436C35.0318 54.3477 33.894 55.4855 32.4899 55.4855H27.6176L19.9683 47.8372V45.7041H35.0318Z" fill="url(#paint3_linear_340_896)"/>
<path d="M46.5072 24.9168L38.48 12.1698L44.6056 8.31222C45.7937 7.56411 47.3632 7.92064 48.1115 9.10875L53.4294 17.5535C54.1775 18.7416 53.821 20.3112 52.6329 21.0594L46.5072 24.9168Z" fill="url(#paint4_linear_340_896)"/>
<path d="M46.5072 24.9168L38.48 12.1698L44.6056 8.31222C45.7937 7.56411 47.3632 7.92064 48.1115 9.10875L53.4294 17.5535C54.1775 18.7416 53.821 20.3112 52.6329 21.0594L46.5072 24.9168Z" fill="url(#paint5_linear_340_896)"/>
<path d="M8.49289 31.0537L16.5201 43.8008L10.3945 47.6583C9.20638 48.4065 7.63683 48.0499 6.88861 46.8618L1.57076 38.417C0.822653 37.2289 1.17918 35.6594 2.36729 34.9112L8.49289 31.0537Z" fill="url(#paint6_linear_340_896)"/>
<path d="M8.49289 31.0537L16.5201 43.8008L10.3945 47.6583C9.20638 48.4065 7.63683 48.0499 6.88861 46.8618L1.57076 38.417C0.822653 37.2289 1.17918 35.6594 2.36729 34.9112L8.49289 31.0537Z" fill="url(#paint7_linear_340_896)"/>
<path d="M8.49289 24.9168L16.5201 12.1698L10.3945 8.31222C9.20638 7.56411 7.63683 7.92064 6.88861 9.10875L1.57076 17.5535C0.822653 18.7416 1.17918 20.3112 2.36729 21.0594L8.49289 24.9168Z" fill="url(#paint8_linear_340_896)"/>
<path d="M8.49289 24.9168L16.5201 12.1698L10.3945 8.31222C9.20638 7.56411 7.63683 7.92064 6.88861 9.10875L1.57076 17.5535C0.822653 18.7416 1.17918 20.3112 2.36729 21.0594L8.49289 24.9168Z" fill="url(#paint9_linear_340_896)"/>
<path d="M46.5072 31.0537L38.48 43.8008L44.6056 47.6583C45.7937 48.4065 47.3632 48.0499 48.1115 46.8618L53.4294 38.417C54.1775 37.2289 53.821 35.6594 52.6329 34.9112L46.5072 31.0537Z" fill="url(#paint10_linear_340_896)"/>
<path d="M46.5072 31.0537L38.48 43.8008L44.6056 47.6583C45.7937 48.4065 47.3632 48.0499 48.1115 46.8618L53.4294 38.417C54.1775 37.2289 53.821 35.6594 52.6329 34.9112L46.5072 31.0537Z" fill="url(#paint11_linear_340_896)"/>
<path d="M27.5001 6.75684C15.7761 6.75684 6.27173 16.2611 6.27173 27.9852C6.27173 39.7094 15.7761 49.2136 27.5001 49.2136C39.2242 49.2136 48.7285 39.7093 48.7285 27.9852C48.7285 16.2612 39.2243 6.75684 27.5001 6.75684ZM27.5001 40.1273C20.7942 40.1273 15.3581 34.6911 15.3581 27.9852C15.3581 21.2793 20.7942 15.8432 27.5001 15.8432C34.206 15.8432 39.6422 21.2793 39.6422 27.9852C39.6422 34.6911 34.206 40.1273 27.5001 40.1273Z" fill="url(#paint12_linear_340_896)"/>
<path d="M44.307 27.9855C44.307 18.7034 36.7823 11.1787 27.5002 11.1787C18.218 11.1787 10.6934 18.7034 10.6934 27.9855C10.6934 37.2677 18.218 44.7923 27.5002 44.7923C36.7823 44.7923 44.307 37.2677 44.307 27.9855ZM27.5002 40.1276C20.7943 40.1276 15.3581 34.6914 15.3581 27.9855C15.3581 21.2796 20.7943 15.8435 27.5002 15.8435C34.2061 15.8435 39.6422 21.2796 39.6422 27.9855C39.6422 34.6914 34.2061 40.1276 27.5002 40.1276Z" fill="url(#paint13_linear_340_896)"/>
<path d="M39.6421 27.985C39.6421 34.6909 34.2059 40.1271 27.5 40.1271C20.7941 40.1271 15.3579 34.6909 15.3579 27.985C15.3579 26.4249 15.6525 24.9337 16.1886 23.5635H6.73416C6.43198 24.9898 6.27173 26.4687 6.27173 27.985C6.27173 39.7091 15.7759 49.2134 27.5001 49.2134C39.2243 49.2134 48.7285 39.7092 48.7285 27.985C48.7285 26.4687 48.5682 24.9898 48.2661 23.5635H38.8117C39.3475 24.9337 39.6421 26.4249 39.6421 27.985Z" fill="url(#paint14_linear_340_896)"/>
<path d="M39.1849 10.2607L32.5197 16.926C36.7208 18.836 39.6421 23.0692 39.6421 27.9849C39.6421 34.6908 34.2059 40.1269 27.5 40.1269C22.5843 40.1269 18.3511 37.2057 16.4411 33.0045L9.77588 39.6698C13.574 45.4193 20.0934 49.2133 27.5 49.2133C39.2242 49.2133 48.7284 39.709 48.7284 27.9849C48.7284 20.5783 44.9345 14.059 39.1849 10.2607Z" fill="url(#paint15_linear_340_896)"/>
</g>
<defs>
<linearGradient id="paint0_linear_340_896" x1="27.5" y1="1.2766" x2="27.5" y2="8.67873" gradientUnits="userSpaceOnUse">
<stop stop-color="#C8EFFE"/>
<stop offset="1" stop-color="#62DBFB"/>
</linearGradient>
<linearGradient id="paint1_linear_340_896" x1="29.4771" y1="5.37593" x2="37.2072" y2="5.37593" gradientUnits="userSpaceOnUse">
<stop stop-color="#07B2CD" stop-opacity="0"/>
<stop offset="0.4553" stop-color="#05A5CE" stop-opacity="0.455"/>
<stop offset="1" stop-color="#0290CF"/>
</linearGradient>
<linearGradient id="paint2_linear_340_896" x1="27.5001" y1="49.7697" x2="27.5001" y2="55.1618" gradientUnits="userSpaceOnUse">
<stop stop-color="#C8EFFE"/>
<stop offset="1" stop-color="#62DBFB"/>
</linearGradient>
<linearGradient id="paint3_linear_340_896" x1="27.5" y1="54.6947" x2="27.5" y2="46.6703" gradientUnits="userSpaceOnUse">
<stop stop-color="#07B2CD" stop-opacity="0"/>
<stop offset="0.4553" stop-color="#05A5CE" stop-opacity="0.455"/>
<stop offset="1" stop-color="#0290CF"/>
</linearGradient>
<linearGradient id="paint4_linear_340_896" x1="50.0917" y1="13.7466" x2="43.8295" y2="17.692" gradientUnits="userSpaceOnUse">
<stop stop-color="#C8EFFE"/>
<stop offset="1" stop-color="#62DBFB"/>
</linearGradient>
<linearGradient id="paint5_linear_340_896" x1="46.2244" y1="15.513" x2="49.7472" y2="25.075" gradientUnits="userSpaceOnUse">
<stop stop-color="#07B2CD" stop-opacity="0"/>
<stop offset="0.4553" stop-color="#05A5CE" stop-opacity="0.455"/>
<stop offset="1" stop-color="#0290CF"/>
</linearGradient>
<linearGradient id="paint6_linear_340_896" x1="9.67949" y1="39.2159" x2="4.07164" y2="42.5591" gradientUnits="userSpaceOnUse">
<stop stop-color="#C8EFFE"/>
<stop offset="1" stop-color="#62DBFB"/>
</linearGradient>
<linearGradient id="paint7_linear_340_896" x1="8.24237" y1="39.7275" x2="13.5267" y2="47.0609" gradientUnits="userSpaceOnUse">
<stop stop-color="#07B2CD" stop-opacity="0"/>
<stop offset="0.4553" stop-color="#05A5CE" stop-opacity="0.455"/>
<stop offset="1" stop-color="#0290CF"/>
</linearGradient>
<linearGradient id="paint8_linear_340_896" x1="4.89722" y1="13.7705" x2="11.1594" y2="17.7159" gradientUnits="userSpaceOnUse">
<stop stop-color="#C8EFFE"/>
<stop offset="1" stop-color="#62DBFB"/>
</linearGradient>
<linearGradient id="paint9_linear_340_896" x1="6.19982" y1="13.3818" x2="12.5985" y2="19.8524" gradientUnits="userSpaceOnUse">
<stop stop-color="#07B2CD" stop-opacity="0"/>
<stop offset="0.4553" stop-color="#05A5CE" stop-opacity="0.455"/>
<stop offset="1" stop-color="#0290CF"/>
</linearGradient>
<linearGradient id="paint10_linear_340_896" x1="44.5758" y1="38.7646" x2="50.8307" y2="42.5391" gradientUnits="userSpaceOnUse">
<stop stop-color="#C8EFFE"/>
<stop offset="1" stop-color="#62DBFB"/>
</linearGradient>
<linearGradient id="paint11_linear_340_896" x1="51.7568" y1="40.0237" x2="42.4104" y2="39.2329" gradientUnits="userSpaceOnUse">
<stop stop-color="#07B2CD" stop-opacity="0"/>
<stop offset="0.4553" stop-color="#05A5CE" stop-opacity="0.455"/>
<stop offset="1" stop-color="#0290CF"/>
</linearGradient>
<linearGradient id="paint12_linear_340_896" x1="16.2844" y1="16.7695" x2="40.6003" y2="41.0854" gradientUnits="userSpaceOnUse">
<stop stop-color="#C8EFFE"/>
<stop offset="1" stop-color="#62DBFB"/>
</linearGradient>
<linearGradient id="paint13_linear_340_896" x1="38.5002" y1="38.9855" x2="12.0784" y2="12.5637" gradientUnits="userSpaceOnUse">
<stop stop-color="#C8EFFE"/>
<stop offset="1" stop-color="#62DBFB"/>
</linearGradient>
<linearGradient id="paint14_linear_340_896" x1="27.5" y1="40.387" x2="27.5" y2="48.9312" gradientUnits="userSpaceOnUse">
<stop stop-color="#07B2CD" stop-opacity="0"/>
<stop offset="0.4553" stop-color="#05A5CE" stop-opacity="0.455"/>
<stop offset="1" stop-color="#0290CF"/>
</linearGradient>
<linearGradient id="paint15_linear_340_896" x1="36.5588" y1="37.0437" x2="43.3473" y2="43.8322" gradientUnits="userSpaceOnUse">
<stop stop-color="#07B2CD" stop-opacity="0"/>
<stop offset="0.4553" stop-color="#05A5CE" stop-opacity="0.455"/>
<stop offset="1" stop-color="#0290CF"/>
</linearGradient>
<clipPath id="clip0_340_896">
<rect width="55" height="55" fill="white" transform="translate(0 0.485352)"/>
</clipPath>
</defs>
</svg>
