<svg width="32" height="33" viewBox="0 0 32 33" fill="none" xmlns="http://www.w3.org/2000/svg">
<g clip-path="url(#clip0_88_684)">
<path d="M16 32.8184C24.8366 32.8184 32 25.6549 32 16.8184C32 7.9818 24.8366 0.818359 16 0.818359C7.16344 0.818359 0 7.9818 0 16.8184C0 25.6549 7.16344 32.8184 16 32.8184Z" fill="#3A559F"/>
<path d="M21.0691 14.9238L20.7473 17.7111C20.7339 17.8383 20.6743 17.9561 20.5798 18.0423C20.4853 18.1284 20.3624 18.1768 20.2346 18.1784H17.3255L17.3109 26.442C17.3119 26.5399 17.2743 26.6343 17.2063 26.7047C17.1382 26.7752 17.0452 26.816 16.9473 26.8184H14C13.951 26.8184 13.9025 26.8085 13.8574 26.7894C13.8123 26.7702 13.7716 26.7421 13.7376 26.7068C13.7036 26.6714 13.6772 26.6296 13.6598 26.5838C13.6424 26.538 13.6344 26.4891 13.6364 26.4402V18.1784H11.4546C11.386 18.1776 11.3183 18.1634 11.2553 18.1366C11.1923 18.1097 11.1351 18.0706 11.0872 18.0217C11.0392 17.9727 11.0014 17.9148 10.9758 17.8512C10.9503 17.7876 10.9375 17.7196 10.9382 17.6511L10.9273 14.8638C10.9263 14.795 10.9389 14.7268 10.9644 14.6629C10.9898 14.599 11.0276 14.5407 11.0755 14.4914C11.1235 14.4421 11.1807 14.4027 11.2438 14.3755C11.307 14.3483 11.3749 14.3339 11.4437 14.3329H13.6364V11.642C13.6364 8.51836 15.4909 6.81836 18.2109 6.81836H20.44C20.5089 6.81907 20.5771 6.83338 20.6404 6.86047C20.7038 6.88756 20.7612 6.9269 20.8094 6.97622C20.8575 7.02554 20.8954 7.08389 20.921 7.1479C20.9465 7.21192 20.9592 7.28035 20.9582 7.34927V9.69472C20.9592 9.76364 20.9465 9.83207 20.921 9.89609C20.8954 9.9601 20.8575 10.0184 20.8094 10.0678C20.7612 10.1171 20.7038 10.1564 20.6404 10.1835C20.5771 10.2106 20.5089 10.2249 20.44 10.2256H19.0728C17.5946 10.2256 17.3073 10.9529 17.3073 12.0038V14.3329H20.5564C20.6303 14.3338 20.7031 14.3504 20.7702 14.3815C20.8372 14.4126 20.8969 14.4575 20.9453 14.5133C20.9938 14.5691 21.0298 14.6346 21.0512 14.7053C21.0725 14.7761 21.0786 14.8505 21.0691 14.9238Z" fill="white"/>
</g>
<defs>
<clipPath id="clip0_88_684">
<rect width="32" height="32" fill="white" transform="translate(0 0.818359)"/>
</clipPath>
</defs>
</svg>
