<svg width="282" height="109" viewBox="0 0 282 109" fill="none" xmlns="http://www.w3.org/2000/svg">
<rect x="0.392578" y="38.1338" width="274" height="71" rx="2" transform="rotate(-8 0.392578 38.1338)" fill="#EDB159"/>
<path d="M80.4035 77.3807L73.5251 78.3474L65.2633 58.2334L62.9114 79.839L56.033 80.8057L43.0624 51.6451L50.3052 50.6272L58.7205 71.8344L61.4199 49.0651L66.4763 48.3545L75.3016 69.504L77.4999 46.8052L84.7883 45.7809L80.4035 77.3807ZM113.61 72.7138L92.109 75.7356L87.8389 45.3521L109.34 42.3304L110.14 48.0245L95.1076 50.1371L96.0102 56.56L110.724 54.4922L111.524 60.1862L96.8105 62.254L97.7772 69.1324L112.809 67.0198L113.61 72.7138ZM135.156 69.6856L118.666 72.0032L114.396 41.6198L130.385 39.3727C136.17 38.5596 139.65 41.8332 140.219 45.8874C140.757 49.7138 138.747 52.5976 135.96 53.5931C139.265 53.6397 142.303 56.4179 142.841 60.2442C143.481 64.7995 140.941 68.8726 135.156 69.6856ZM130.682 51.7336C132.869 51.4263 134.043 49.8677 133.774 47.9545C133.506 46.0413 131.941 44.8212 129.754 45.1285L121.646 46.2681L122.574 52.8731L130.682 51.7336ZM132.683 64.3196C135.143 63.9739 136.415 62.448 136.108 60.2615C135.839 58.3483 134.242 56.9005 131.691 57.259L123.355 58.4305L124.347 65.4911L132.683 64.3196ZM159.744 66.7875C153.913 67.6069 149.447 66.2372 146.22 63.7643L149.036 58.3517C151.491 60.2828 155.078 61.6831 159.269 61.0942C162.822 60.5948 164.323 58.7117 164.08 56.9807C163.324 51.6055 146.351 57.7536 144.744 46.3199C144.033 41.2636 147.817 36.4582 154.969 35.4531C159.797 34.7745 164.011 35.6688 167.408 38.025L164.475 43.2682C161.695 41.3363 158.268 40.7495 155.17 41.1848C152.392 41.5754 151.016 43.0229 151.272 44.845C151.951 49.6736 168.943 43.9874 170.537 55.3299C171.318 60.8873 167.944 65.6351 159.744 66.7875ZM182.654 63.0104L176.185 63.9194L171.915 33.536L178.383 32.6269L182.654 63.0104ZM202.214 60.2613L195.7 61.1767L192.23 36.4874L183.348 37.7358L182.548 32.0417L206.781 28.6359L207.582 34.3299L198.744 35.5719L202.214 60.2613ZM236.699 55.4148L215.198 58.4365L210.928 28.0531L232.429 25.0314L233.229 30.7254L218.197 32.8381L219.099 39.2609L233.813 37.1931L234.613 42.8871L219.9 44.955L220.866 51.8334L235.899 49.7207L236.699 55.4148Z" fill="white"/>
</svg>
