<svg width="182" height="80" viewBox="0 0 182 80" fill="none" xmlns="http://www.w3.org/2000/svg">
<g clip-path="url(#clip0_550_7186)">
<g filter="url(#filter0_d_550_7186)">
<path d="M1.1965 0.572311L0.127283 -0.0751944L0.454988 1.13108L6.47193 23.2793L6.81513 24.5426L7.40148 23.3721L11.6906 14.8103L20.6479 13.3825L21.9952 13.1677L20.8282 12.461L1.1965 0.572311Z" stroke="#040229"/>
<path fill-rule="evenodd" clip-rule="evenodd" d="M0.9375 1L20.5692 12.8887L11.3585 14.3569L6.95444 23.1482L0.9375 1Z" fill="#F9F9F9"/>
</g>
</g>
<g filter="url(#filter1_d_550_7186)">
<rect width="131" height="42" transform="translate(27 14)" fill="#B47354"/>
<path d="M57.9293 43H54.0033L50.9613 31.092L47.9453 43H44.0193L39.0533 25.658H43.1873L46.2293 38.19L49.5313 25.658H52.4173L55.6933 38.19L58.7093 25.658H62.8693L57.9293 43ZM69.3935 43.312C65.5715 43.312 62.6855 40.738 62.6855 36.708C62.6855 33.068 65.3635 30.13 69.1855 30.13C72.9295 30.13 75.4775 32.938 75.4775 37.046V37.774H66.1435C66.3515 39.36 67.6255 40.686 69.7575 40.686C70.8235 40.686 72.3055 40.218 73.1115 39.438L74.5675 41.57C73.3195 42.714 71.3435 43.312 69.3935 43.312ZM72.2795 35.538C72.2015 34.342 71.3695 32.756 69.1855 32.756C67.1315 32.756 66.2475 34.29 66.0915 35.538H72.2795ZM81.1646 38.97C81.7106 39.776 82.9326 40.374 83.9986 40.374C85.9226 40.374 87.1966 38.918 87.1966 36.734C87.1966 34.55 85.9226 33.068 83.9986 33.068C82.9326 33.068 81.7106 33.692 81.1646 34.524V38.97ZM81.1646 43H77.8626V25.658H81.1646V32.054C82.1526 30.78 83.5566 30.13 85.0386 30.13C88.2366 30.13 90.6026 32.626 90.6026 36.734C90.6026 40.92 88.2106 43.312 85.0386 43.312C83.5306 43.312 82.1526 42.636 81.1646 41.388V43ZM97.621 43.312C95.437 43.312 93.331 42.584 92.005 41.362L93.435 39.048C94.345 39.906 96.217 40.764 97.777 40.764C99.207 40.764 99.883 40.192 99.883 39.412C99.883 37.332 92.421 39.022 92.421 34.082C92.421 31.976 94.267 30.13 97.569 30.13C99.701 30.13 101.391 30.858 102.639 31.846L101.313 34.108C100.559 33.302 99.129 32.652 97.595 32.652C96.399 32.652 95.619 33.198 95.619 33.9C95.619 35.772 103.055 34.212 103.055 39.282C103.055 41.57 101.105 43.312 97.621 43.312ZM107.126 29.09C106.06 29.09 105.15 28.206 105.15 27.114C105.15 26.022 106.06 25.164 107.126 25.164C108.218 25.164 109.102 26.022 109.102 27.114C109.102 28.206 108.218 29.09 107.126 29.09ZM108.79 43H105.488V30.442H108.79V43ZM116.276 43.312C113.962 43.312 112.714 42.116 112.714 39.88V33.328H110.634V30.442H112.714V27.01H116.042V30.442H118.59V33.328H116.042V38.996C116.042 39.776 116.458 40.374 117.186 40.374C117.68 40.374 118.148 40.192 118.33 40.01L119.032 42.506C118.538 42.948 117.654 43.312 116.276 43.312ZM126.751 43.312C122.929 43.312 120.043 40.738 120.043 36.708C120.043 33.068 122.721 30.13 126.543 30.13C130.287 30.13 132.835 32.938 132.835 37.046V37.774H123.501C123.709 39.36 124.983 40.686 127.115 40.686C128.181 40.686 129.663 40.218 130.469 39.438L131.925 41.57C130.677 42.714 128.701 43.312 126.751 43.312ZM129.637 35.538C129.559 34.342 128.727 32.756 126.543 32.756C124.489 32.756 123.605 34.29 123.449 35.538H129.637ZM139.744 43.312C137.56 43.312 135.454 42.584 134.128 41.362L135.558 39.048C136.468 39.906 138.34 40.764 139.9 40.764C141.33 40.764 142.006 40.192 142.006 39.412C142.006 37.332 134.544 39.022 134.544 34.082C134.544 31.976 136.39 30.13 139.692 30.13C141.824 30.13 143.514 30.858 144.762 31.846L143.436 34.108C142.682 33.302 141.252 32.652 139.718 32.652C138.522 32.652 137.742 33.198 137.742 33.9C137.742 35.772 145.178 34.212 145.178 39.282C145.178 41.57 143.228 43.312 139.744 43.312Z" fill="white"/>
</g>
<defs>
<filter id="filter0_d_550_7186" x="-0.682617" y="-1.15039" width="24.1035" height="28.5344" filterUnits="userSpaceOnUse" color-interpolation-filters="sRGB">
<feFlood flood-opacity="0" result="BackgroundImageFix"/>
<feColorMatrix in="SourceAlpha" type="matrix" values="0 0 0 0 0 0 0 0 0 0 0 0 0 0 0 0 0 0 127 0" result="hardAlpha"/>
<feOffset dy="1.44653"/>
<feColorMatrix type="matrix" values="0 0 0 0 0 0 0 0 0 0 0 0 0 0 0 0 0 0 0.05 0"/>
<feBlend mode="normal" in2="BackgroundImageFix" result="effect1_dropShadow_550_7186"/>
<feBlend mode="normal" in="SourceGraphic" in2="effect1_dropShadow_550_7186" result="shape"/>
</filter>
<filter id="filter1_d_550_7186" x="23" y="10" width="159" height="70" filterUnits="userSpaceOnUse" color-interpolation-filters="sRGB">
<feFlood flood-opacity="0" result="BackgroundImageFix"/>
<feColorMatrix in="SourceAlpha" type="matrix" values="0 0 0 0 0 0 0 0 0 0 0 0 0 0 0 0 0 0 127 0" result="hardAlpha"/>
<feOffset dx="10" dy="10"/>
<feGaussianBlur stdDeviation="7"/>
<feComposite in2="hardAlpha" operator="out"/>
<feColorMatrix type="matrix" values="0 0 0 0 0 0 0 0 0 0 0 0 0 0 0 0 0 0 0.1 0"/>
<feBlend mode="normal" in2="BackgroundImageFix" result="effect1_dropShadow_550_7186"/>
<feBlend mode="normal" in="SourceGraphic" in2="effect1_dropShadow_550_7186" result="shape"/>
</filter>
<clipPath id="clip0_550_7186">
<rect width="22" height="26" fill="white"/>
</clipPath>
</defs>
</svg>
