<svg width="170" height="80" viewBox="0 0 170 80" fill="none" xmlns="http://www.w3.org/2000/svg">
<g clip-path="url(#clip0_550_7208)">
<g filter="url(#filter0_d_550_7208)">
<path d="M1.1965 0.572311L0.127283 -0.0751944L0.454988 1.13108L6.47193 23.2793L6.81513 24.5426L7.40148 23.3721L11.6906 14.8103L20.6479 13.3825L21.9952 13.1677L20.8282 12.461L1.1965 0.572311Z" stroke="#040229"/>
<path fill-rule="evenodd" clip-rule="evenodd" d="M0.9375 1L20.5692 12.8887L11.3585 14.3569L6.95444 23.1482L0.9375 1Z" fill="#F9F9F9"/>
</g>
</g>
<g filter="url(#filter1_d_550_7208)">
<rect width="119" height="42" transform="translate(27 14)" fill="#634EE5"/>
<path d="M49.197 43.312C43.997 43.312 39.967 39.672 39.967 34.342C39.967 29.012 43.997 25.372 49.197 25.372C53.019 25.372 55.229 27.452 56.451 29.61L53.279 31.17C52.551 29.766 50.991 28.648 49.197 28.648C46.051 28.648 43.763 31.066 43.763 34.342C43.763 37.618 46.051 40.036 49.197 40.036C50.991 40.036 52.551 38.944 53.279 37.514L56.451 39.048C55.203 41.206 53.019 43.312 49.197 43.312ZM64.3946 43.312C60.2606 43.312 57.7646 40.296 57.7646 36.708C57.7646 33.146 60.2606 30.13 64.3946 30.13C68.5546 30.13 71.0506 33.146 71.0506 36.708C71.0506 40.296 68.5546 43.312 64.3946 43.312ZM64.3946 40.374C66.4486 40.374 67.6186 38.684 67.6186 36.708C67.6186 34.758 66.4486 33.068 64.3946 33.068C62.3406 33.068 61.1966 34.758 61.1966 36.708C61.1966 38.684 62.3406 40.374 64.3946 40.374ZM85.2783 43H81.9763V35.408C81.9763 33.666 81.0663 33.068 79.6623 33.068C78.3623 33.068 77.3483 33.796 76.8023 34.55V43H73.5003V30.442H76.8023V32.08C77.6083 31.118 79.1423 30.13 81.1963 30.13C83.9523 30.13 85.2783 31.69 85.2783 34.134V43ZM92.7689 43.312C90.4549 43.312 89.2069 42.116 89.2069 39.88V33.328H87.1269V30.442H89.2069V27.01H92.5349V30.442H95.0829V33.328H92.5349V38.996C92.5349 39.776 92.9509 40.374 93.6789 40.374C94.1729 40.374 94.6409 40.192 94.8229 40.01L95.5249 42.506C95.0309 42.948 94.1469 43.312 92.7689 43.312ZM103.244 43.312C99.4221 43.312 96.5361 40.738 96.5361 36.708C96.5361 33.068 99.2141 30.13 103.036 30.13C106.78 30.13 109.328 32.938 109.328 37.046V37.774H99.9941C100.202 39.36 101.476 40.686 103.608 40.686C104.674 40.686 106.156 40.218 106.962 39.438L108.418 41.57C107.17 42.714 105.194 43.312 103.244 43.312ZM106.13 35.538C106.052 34.342 105.22 32.756 103.036 32.756C100.982 32.756 100.098 34.29 99.9421 35.538H106.13ZM123.491 43H120.189V35.408C120.189 33.666 119.279 33.068 117.875 33.068C116.575 33.068 115.561 33.796 115.015 34.55V43H111.713V30.442H115.015V32.08C115.821 31.118 117.355 30.13 119.409 30.13C122.165 30.13 123.491 31.69 123.491 34.134V43ZM130.982 43.312C128.668 43.312 127.42 42.116 127.42 39.88V33.328H125.34V30.442H127.42V27.01H130.748V30.442H133.296V33.328H130.748V38.996C130.748 39.776 131.164 40.374 131.892 40.374C132.386 40.374 132.854 40.192 133.036 40.01L133.738 42.506C133.244 42.948 132.36 43.312 130.982 43.312Z" fill="white"/>
</g>
<defs>
<filter id="filter0_d_550_7208" x="-0.682617" y="-1.15039" width="24.1035" height="28.5344" filterUnits="userSpaceOnUse" color-interpolation-filters="sRGB">
<feFlood flood-opacity="0" result="BackgroundImageFix"/>
<feColorMatrix in="SourceAlpha" type="matrix" values="0 0 0 0 0 0 0 0 0 0 0 0 0 0 0 0 0 0 127 0" result="hardAlpha"/>
<feOffset dy="1.44653"/>
<feColorMatrix type="matrix" values="0 0 0 0 0 0 0 0 0 0 0 0 0 0 0 0 0 0 0.05 0"/>
<feBlend mode="normal" in2="BackgroundImageFix" result="effect1_dropShadow_550_7208"/>
<feBlend mode="normal" in="SourceGraphic" in2="effect1_dropShadow_550_7208" result="shape"/>
</filter>
<filter id="filter1_d_550_7208" x="23" y="10" width="147" height="70" filterUnits="userSpaceOnUse" color-interpolation-filters="sRGB">
<feFlood flood-opacity="0" result="BackgroundImageFix"/>
<feColorMatrix in="SourceAlpha" type="matrix" values="0 0 0 0 0 0 0 0 0 0 0 0 0 0 0 0 0 0 127 0" result="hardAlpha"/>
<feOffset dx="10" dy="10"/>
<feGaussianBlur stdDeviation="7"/>
<feComposite in2="hardAlpha" operator="out"/>
<feColorMatrix type="matrix" values="0 0 0 0 0 0 0 0 0 0 0 0 0 0 0 0 0 0 0.1 0"/>
<feBlend mode="normal" in2="BackgroundImageFix" result="effect1_dropShadow_550_7208"/>
<feBlend mode="normal" in="SourceGraphic" in2="effect1_dropShadow_550_7208" result="shape"/>
</filter>
<clipPath id="clip0_550_7208">
<rect width="22" height="26" fill="white"/>
</clipPath>
</defs>
</svg>
