<svg width="236" height="80" viewBox="0 0 236 80" fill="none" xmlns="http://www.w3.org/2000/svg">
<g clip-path="url(#clip0_550_7201)">
<g filter="url(#filter0_d_550_7201)">
<path d="M1.1965 0.572311L0.127283 -0.0751944L0.454988 1.13108L6.47193 23.2793L6.81513 24.5426L7.40148 23.3721L11.6906 14.8103L20.6479 13.3825L21.9952 13.1677L20.8282 12.461L1.1965 0.572311Z" stroke="#040229"/>
<path fill-rule="evenodd" clip-rule="evenodd" d="M0.9375 1L20.5692 12.8887L11.3585 14.3569L6.95444 23.1482L0.9375 1Z" fill="#F9F9F9"/>
</g>
</g>
<g filter="url(#filter1_d_550_7201)">
<rect width="185" height="42" transform="translate(27 14)" fill="#B14EE5"/>
<path d="M51.866 43H40.842V25.658H44.534V39.75H51.866V43ZM65.0376 43H61.7356V41.7C60.8776 42.714 59.3956 43.312 57.7576 43.312C55.7556 43.312 53.3896 41.96 53.3896 39.152C53.3896 36.214 55.7556 35.096 57.7576 35.096C59.4216 35.096 60.9036 35.642 61.7356 36.63V34.94C61.7356 33.666 60.6436 32.834 58.9796 32.834C57.6276 32.834 56.3796 33.328 55.3136 34.316L54.0656 32.106C55.5996 30.754 57.5756 30.13 59.5516 30.13C62.4116 30.13 65.0376 31.274 65.0376 34.888V43ZM59.0836 41.076C60.1496 41.076 61.1896 40.712 61.7356 39.984V38.424C61.1896 37.696 60.1496 37.332 59.0836 37.332C57.7836 37.332 56.7176 38.008 56.7176 39.23C56.7176 40.4 57.7836 41.076 59.0836 41.076ZM80.0908 43H76.7888V35.408C76.7888 33.666 75.8788 33.068 74.4748 33.068C73.1748 33.068 72.1608 33.796 71.6148 34.55V43H68.3128V30.442H71.6148V32.08C72.4208 31.118 73.9548 30.13 76.0088 30.13C78.7648 30.13 80.0908 31.69 80.0908 34.134V43ZM95.3294 43H92.0014V41.388C91.0134 42.636 89.6354 43.312 88.1274 43.312C84.9554 43.312 82.5634 40.92 82.5634 36.734C82.5634 32.626 84.9294 30.13 88.1274 30.13C89.6094 30.13 91.0134 30.78 92.0014 32.054V25.658H95.3294V43ZM89.1414 40.374C90.2594 40.374 91.4554 39.776 92.0014 38.944V34.498C91.4554 33.666 90.2594 33.068 89.1414 33.068C87.2694 33.068 85.9694 34.55 85.9694 36.734C85.9694 38.892 87.2694 40.374 89.1414 40.374ZM100.242 29.09C99.1758 29.09 98.2658 28.206 98.2658 27.114C98.2658 26.022 99.1758 25.164 100.242 25.164C101.334 25.164 102.218 26.022 102.218 27.114C102.218 28.206 101.334 29.09 100.242 29.09ZM101.906 43H98.6038V30.442H101.906V43ZM116.958 43H113.656V35.408C113.656 33.666 112.746 33.068 111.342 33.068C110.042 33.068 109.028 33.796 108.482 34.55V43H105.18V30.442H108.482V32.08C109.288 31.118 110.822 30.13 112.876 30.13C115.632 30.13 116.958 31.69 116.958 34.134V43ZM125.385 48.096C123.227 48.096 121.563 47.602 119.977 46.224L121.459 43.832C122.473 44.95 123.799 45.392 125.385 45.392C126.971 45.392 128.843 44.69 128.843 42.22V40.946C127.855 42.194 126.503 42.922 124.969 42.922C121.823 42.922 119.431 40.712 119.431 36.526C119.431 32.418 121.797 30.13 124.969 30.13C126.477 30.13 127.829 30.78 128.843 32.054V30.442H132.171V42.142C132.171 46.926 128.479 48.096 125.385 48.096ZM126.009 39.984C127.101 39.984 128.297 39.36 128.843 38.554V34.498C128.297 33.666 127.101 33.068 126.009 33.068C124.137 33.068 122.837 34.368 122.837 36.526C122.837 38.684 124.137 39.984 126.009 39.984ZM145.868 43H142.176V25.658H150.288C154.058 25.658 156.112 28.206 156.112 31.248C156.112 34.264 154.032 36.838 150.288 36.838H145.868V43ZM149.794 33.588C151.25 33.588 152.342 32.678 152.342 31.248C152.342 29.792 151.25 28.908 149.794 28.908H145.868V33.588H149.794ZM168.657 43H165.355V41.7C164.497 42.714 163.015 43.312 161.377 43.312C159.375 43.312 157.009 41.96 157.009 39.152C157.009 36.214 159.375 35.096 161.377 35.096C163.041 35.096 164.523 35.642 165.355 36.63V34.94C165.355 33.666 164.263 32.834 162.599 32.834C161.247 32.834 159.999 33.328 158.933 34.316L157.685 32.106C159.219 30.754 161.195 30.13 163.171 30.13C166.031 30.13 168.657 31.274 168.657 34.888V43ZM162.703 41.076C163.769 41.076 164.809 40.712 165.355 39.984V38.424C164.809 37.696 163.769 37.332 162.703 37.332C161.403 37.332 160.337 38.008 160.337 39.23C160.337 40.4 161.403 41.076 162.703 41.076ZM177.08 48.096C174.922 48.096 173.258 47.602 171.672 46.224L173.154 43.832C174.168 44.95 175.494 45.392 177.08 45.392C178.666 45.392 180.538 44.69 180.538 42.22V40.946C179.55 42.194 178.198 42.922 176.664 42.922C173.518 42.922 171.126 40.712 171.126 36.526C171.126 32.418 173.492 30.13 176.664 30.13C178.172 30.13 179.524 30.78 180.538 32.054V30.442H183.866V42.142C183.866 46.926 180.174 48.096 177.08 48.096ZM177.704 39.984C178.796 39.984 179.992 39.36 180.538 38.554V34.498C179.992 33.666 178.796 33.068 177.704 33.068C175.832 33.068 174.532 34.368 174.532 36.526C174.532 38.684 175.832 39.984 177.704 39.984ZM193.043 43.312C189.221 43.312 186.335 40.738 186.335 36.708C186.335 33.068 189.013 30.13 192.835 30.13C196.579 30.13 199.127 32.938 199.127 37.046V37.774H189.793C190.001 39.36 191.275 40.686 193.407 40.686C194.473 40.686 195.955 40.218 196.761 39.438L198.217 41.57C196.969 42.714 194.993 43.312 193.043 43.312ZM195.929 35.538C195.851 34.342 195.019 32.756 192.835 32.756C190.781 32.756 189.897 34.29 189.741 35.538H195.929Z" fill="white"/>
</g>
<defs>
<filter id="filter0_d_550_7201" x="-0.682617" y="-1.15039" width="24.1035" height="28.5344" filterUnits="userSpaceOnUse" color-interpolation-filters="sRGB">
<feFlood flood-opacity="0" result="BackgroundImageFix"/>
<feColorMatrix in="SourceAlpha" type="matrix" values="0 0 0 0 0 0 0 0 0 0 0 0 0 0 0 0 0 0 127 0" result="hardAlpha"/>
<feOffset dy="1.44653"/>
<feColorMatrix type="matrix" values="0 0 0 0 0 0 0 0 0 0 0 0 0 0 0 0 0 0 0.05 0"/>
<feBlend mode="normal" in2="BackgroundImageFix" result="effect1_dropShadow_550_7201"/>
<feBlend mode="normal" in="SourceGraphic" in2="effect1_dropShadow_550_7201" result="shape"/>
</filter>
<filter id="filter1_d_550_7201" x="23" y="10" width="213" height="70" filterUnits="userSpaceOnUse" color-interpolation-filters="sRGB">
<feFlood flood-opacity="0" result="BackgroundImageFix"/>
<feColorMatrix in="SourceAlpha" type="matrix" values="0 0 0 0 0 0 0 0 0 0 0 0 0 0 0 0 0 0 127 0" result="hardAlpha"/>
<feOffset dx="10" dy="10"/>
<feGaussianBlur stdDeviation="7"/>
<feComposite in2="hardAlpha" operator="out"/>
<feColorMatrix type="matrix" values="0 0 0 0 0 0 0 0 0 0 0 0 0 0 0 0 0 0 0.1 0"/>
<feBlend mode="normal" in2="BackgroundImageFix" result="effect1_dropShadow_550_7201"/>
<feBlend mode="normal" in="SourceGraphic" in2="effect1_dropShadow_550_7201" result="shape"/>
</filter>
<clipPath id="clip0_550_7201">
<rect width="22" height="26" fill="white"/>
</clipPath>
</defs>
</svg>
