<svg width="280" height="250" viewBox="0 0 280 250" fill="none" xmlns="http://www.w3.org/2000/svg">
<g clip-path="url(#clip0_1_1162)">
<path d="M271.811 180.836C267.233 170.423 258.441 161.733 247.878 157.457C236.879 153.003 224.247 154.623 212.661 153.132C202.594 151.835 195.338 147.343 189.328 139.356C183.571 131.703 178.41 123.228 169.004 119.687C161.566 116.891 153.11 117.666 145.717 120.582C132.09 125.942 121.801 137.361 113.136 148.735C105.225 159.123 98.7725 170.497 84.1392 170.867C69.5059 171.238 55.5565 162.89 40.815 165.101C21.3287 168.026 5.10556 184.247 1.70177 203.557C-1.48548 221.654 6.51115 239.209 20.2498 249.523H256.391C273.703 231.171 282.788 205.792 271.811 180.836Z" fill="#F7F0E3"/>
<path d="M58.3432 249.527H58.9928C63.6066 244.413 67.1106 238.398 69.2839 231.862C72.9195 221.052 72.7675 209.707 68.8528 199.917C66.8735 194.979 64.0168 190.359 61.255 185.899C58.4533 181.379 55.5567 176.702 53.5908 171.69C52.7656 169.571 52.1702 167.369 51.8148 165.123C51.6534 165.103 51.49 165.085 51.3267 165.066C51.6831 167.392 52.2939 169.672 53.1482 171.864C55.1293 176.915 58.0393 181.61 60.8523 186.15C63.6027 190.593 66.4481 195.186 68.4121 200.094C72.285 209.781 72.4351 221.009 68.8338 231.712C66.6353 238.325 63.0599 244.397 58.3432 249.527Z" fill="white"/>
<path d="M255.25 228.931C260.116 229.968 264.806 230.899 269.34 231.484C269.418 231.334 269.492 231.182 269.57 231.032C264.998 230.451 260.263 229.512 255.351 228.468C247.867 226.872 239.775 225.147 231.733 225.147C226.758 225.147 221.81 225.808 217.05 227.573C215.241 228.245 213.5 229.091 211.854 230.099C207.555 228.266 203.234 226.266 198.954 224.07C202.06 221.732 205.198 219.44 208.372 217.232C231.925 200.789 253.653 191.467 274.649 188.821C274.607 188.667 274.563 188.513 274.52 188.359C253.466 191.018 231.686 200.373 208.098 216.851C204.869 219.113 201.655 221.455 198.485 223.844C193.622 221.344 188.892 218.595 184.312 215.608C175.964 210.138 166.032 202.329 157.359 191.955C190.979 188.182 225.188 183.432 253.132 164.757C254.192 164.046 255.368 163.211 256.585 162.263C256.45 162.166 256.316 162.073 256.179 161.978C255.013 162.882 253.886 163.687 252.868 164.362C224.931 183.033 190.648 187.747 156.994 191.524C150.866 184.116 145.39 175.401 141.584 165.311C135.658 149.609 135.969 134.2 142.444 123.036C142.725 122.549 143.014 122.073 143.328 121.6C143.058 121.725 142.79 121.854 142.522 121.979C142.355 122.249 142.192 122.521 142.032 122.794C135.487 134.085 135.162 149.641 141.141 165.478C144.925 175.504 150.352 184.177 156.432 191.573C154.483 191.792 152.537 192.008 150.593 192.221C143.584 192.996 136.347 193.795 129.3 194.69C126.732 195.022 124.121 195.408 121.513 195.89C115.94 184.131 109.82 172.66 101.909 162.821C101.796 162.935 101.681 163.043 101.567 163.155C109.409 172.919 115.491 184.306 121.03 195.982C109.692 198.143 98.6852 202.208 92.8083 211.667C87.3189 220.501 87.3246 232.713 92.8235 247.962C93.0134 248.49 93.2034 249.01 93.4085 249.527H93.9157C93.6991 248.957 93.4826 248.387 93.2699 247.8C87.8223 232.696 87.8033 220.623 93.211 211.918C99.0195 202.571 109.966 198.561 121.239 196.424C123.224 200.59 125.123 204.78 127.004 208.947L127.209 209.401C133.768 223.879 140.551 237.849 149.432 249.525H150.025C141.062 237.828 134.241 223.772 127.642 209.205L127.437 208.751C125.564 204.618 123.68 200.458 121.739 196.333C124.288 195.862 126.85 195.484 129.369 195.161C136.397 194.255 143.645 193.451 150.642 192.692C152.689 192.465 154.738 192.238 156.791 192.01C165.547 202.548 175.595 210.465 184.05 215.998C188.579 218.956 193.257 221.682 198.064 224.165C189.985 230.274 182.127 236.702 174.457 242.97C171.798 245.143 169.114 247.331 166.406 249.534H167.166C169.721 247.46 172.253 245.394 174.763 243.336C182.488 237.017 190.401 230.542 198.537 224.397C202.793 226.587 207.084 228.576 211.365 230.413C205.517 234.132 200.749 239.891 197.868 246.886C197.507 247.762 197.192 248.645 196.901 249.534H197.401C197.676 248.706 197.971 247.884 198.307 247.065C201.198 240.052 206.003 234.297 211.897 230.637C223.848 235.714 235.593 239.482 245.686 242.468L246.066 242.58C250.319 243.838 254.669 245.128 258.515 247.198C258.623 247.074 258.732 246.953 258.838 246.829C254.929 244.708 250.515 243.401 246.199 242.126L245.819 242.014C235.83 239.057 224.221 235.336 212.389 230.333C213.924 229.419 215.538 228.646 217.212 228.023C229.535 223.453 243.198 226.363 255.25 228.931Z" fill="white"/>
<path d="M21.4408 198.171C23.5302 206.757 22.6014 216.026 18.8728 223.61C16.4301 228.575 12.9028 233.071 8.55884 236.931C8.64431 237.066 8.73359 237.199 8.82096 237.332C13.2353 233.421 16.8195 228.86 19.2982 223.819C23.0762 216.14 24.0259 206.751 21.9024 198.059C20.2423 191.269 16.9069 185.523 12.2988 181.355C12.1963 181.475 12.0937 181.597 11.993 181.718C16.5232 185.817 19.8054 191.481 21.4408 198.171Z" fill="white"/>
<path d="M128.922 89.4204C133.052 93.6523 134.905 100.768 132.624 107.328C130.415 113.686 125.573 118.951 119.757 122.334C115.077 125.058 108.972 126.56 104.372 123.707C100.932 121.576 99.1485 117.393 99.0535 113.349C98.9586 109.306 100.315 105.36 101.996 101.681C104.366 96.492 107.555 91.4623 112.308 88.3073C118.855 83.9652 124.933 85.3556 128.922 89.4204Z" fill="#F7F0E3"/>
<path d="M74.0799 15.304H39.8254V0.00976562H74.0799V15.304ZM40.5377 14.5917H73.3676V0.712559H40.5377V14.5917Z" fill="#E9DDCA"/>
<path d="M51.8052 29.9366H17.5413V14.6348H51.8052V29.9366ZM18.263 29.2243H51.0834V15.3471H18.2535L18.263 29.2243Z" fill="#E9DDCA"/>
<path d="M268.981 46.2439C266.763 38.869 262.861 32.0899 257.277 25.9066C251.692 19.7233 244.06 14.6088 234.381 10.563C224.713 6.521 212.43 4.5 197.532 4.5C185.646 4.5 173.534 6.10312 161.194 9.30937C148.854 12.5156 138.134 17.0958 129.034 23.0499L140.864 55.5302L134.524 60.6587L143.719 63.3616C152.794 58.6118 161.063 55.1624 168.526 53.0135C175.988 50.8646 183.908 49.7958 192.286 49.8072C200.668 49.8072 207.015 51.8283 211.326 55.8703C215.635 59.9236 217.784 64.7976 217.784 70.4959C217.784 77.3947 215.573 83.5191 211.153 88.8691C206.732 94.2192 201.838 99.632 196.47 105.107C192.748 108.906 189.14 112.828 185.643 116.873C182.152 120.914 179.053 125.278 176.385 129.905C173.663 134.633 171.496 139.661 169.927 144.887C168.29 150.242 167.475 156.247 167.483 162.902C167.483 165.05 167.528 167.605 167.654 170.579C167.675 171.126 167.703 171.662 167.735 172.19H159.044L168.529 178.604H214.65C214.397 176.952 214.28 175.282 214.298 173.611V169.324C214.313 165.217 215.144 161.155 216.743 157.372C218.388 153.423 220.439 149.655 222.863 146.13C225.328 142.531 228.074 139.133 231.074 135.968C234.1 132.75 237.013 129.715 239.811 126.862C243.531 123.063 247.371 119.021 251.333 114.736C255.229 110.541 258.738 106.005 261.82 101.181C264.903 96.3058 267.421 91.0958 269.327 85.6515C271.306 80.0646 272.299 73.9402 272.307 67.2783C272.315 60.6163 271.206 53.6048 268.981 46.2439Z" fill="#B47354"/>
<path d="M182.521 47.5419C174.225 47.5419 166.398 48.5765 159.04 50.6456C151.682 52.7147 143.509 56.0527 134.524 60.6594L120.012 21.645C128.994 15.8897 139.587 11.4577 151.79 8.34895C163.993 5.24021 175.964 3.689 187.702 3.69533C202.429 3.69533 214.569 5.65111 224.122 9.56269C233.675 13.4743 241.218 18.4236 246.75 24.4106C252.269 30.4027 256.124 36.964 258.316 44.0944C260.508 51.2249 261.602 58.0141 261.598 64.4621C261.598 70.9126 260.617 76.8401 258.654 82.2446C256.765 87.5217 254.275 92.5643 251.235 97.2729C248.183 101.949 244.714 106.339 240.871 110.39C236.959 114.538 233.16 118.449 229.475 122.125C226.709 124.891 223.832 127.829 220.842 130.939C217.881 133.998 215.168 137.287 212.726 140.774C210.335 144.179 208.308 147.826 206.678 151.654C205.099 155.307 204.277 159.242 204.262 163.221V167.368C204.243 168.986 204.36 170.603 204.611 172.202H159.025C158.526 169.641 158.236 167.043 158.159 164.435C158.035 161.557 157.99 159.084 157.99 157.005C157.99 150.563 158.796 144.751 160.408 139.57C161.962 134.503 164.104 129.637 166.792 125.069C169.438 120.582 172.507 116.358 175.956 112.455C179.408 108.542 182.975 104.743 186.658 101.059C191.951 95.7654 196.788 90.5274 201.169 85.3445C205.531 80.1628 207.715 74.2353 207.722 67.562C207.722 62.0308 205.597 57.3221 201.338 53.3979C197.08 49.4736 190.806 47.5419 182.521 47.5419Z" fill="#EDB159"/>
<path d="M217.803 223.383C217.803 231.698 215.111 238.118 209.728 242.641C204.345 247.164 198.257 249.429 191.465 249.435C184.661 249.435 178.571 247.171 173.194 242.641C167.818 238.111 165.129 231.692 165.127 223.383C165.127 215.078 167.816 208.659 173.194 204.126C181.482 197.132 193.741 195.579 203.445 200.481C212.053 204.838 217.803 213.682 217.803 223.383Z" fill="#B47354"/>
<path d="M208.78 223.383C208.78 231.699 206.089 238.118 200.706 242.641C195.323 247.164 189.235 249.429 182.443 249.435C175.639 249.435 169.549 247.171 164.172 242.641C158.795 238.112 156.106 231.692 156.105 223.383C156.105 215.078 158.794 208.66 164.172 204.126C169.55 199.593 175.64 197.328 182.443 197.332C189.236 197.332 195.324 199.597 200.706 204.126C206.087 208.656 208.779 215.075 208.78 223.383Z" fill="#EDB159"/>
<path d="M72.2472 105.515C72.7527 102.819 70.9768 100.223 68.2806 99.7179C65.5844 99.2123 62.9888 100.988 62.4833 103.684C61.9777 106.381 63.7536 108.976 66.4498 109.482C69.146 109.987 71.7416 108.211 72.2472 105.515Z" fill="#D3DFFF"/>
<path d="M74.6069 114.817C74.891 113.3 73.8834 111.839 72.3564 111.553C70.8293 111.267 69.3611 112.264 69.077 113.781C68.7928 115.298 69.8004 116.759 71.3275 117.045C72.8545 117.331 74.3228 116.334 74.6069 114.817Z" fill="#D3DFFF"/>
<path d="M68.9296 93.4048C76.567 85.7675 76.567 73.3849 68.9296 65.7476C61.2923 58.1103 48.9098 58.1103 41.2724 65.7476C33.6351 73.3849 33.6351 85.7675 41.2725 93.4048C48.9098 101.042 61.2923 101.042 68.9296 93.4048Z" fill="#D3DFFF"/>
<path d="M47.5922 82.0404C48.9528 82.0404 50.0558 80.9374 50.0558 79.5769C50.0558 78.2163 48.9528 77.1133 47.5922 77.1133C46.2316 77.1133 45.1287 78.2163 45.1287 79.5769C45.1287 80.9374 46.2316 82.0404 47.5922 82.0404Z" fill="white"/>
<path d="M55.1008 82.0404C56.4614 82.0404 57.5643 80.9374 57.5643 79.5769C57.5643 78.2163 56.4614 77.1133 55.1008 77.1133C53.7402 77.1133 52.6372 78.2163 52.6372 79.5769C52.6372 80.9374 53.7402 82.0404 55.1008 82.0404Z" fill="white"/>
<path d="M62.611 82.0404C63.9716 82.0404 65.0746 80.9374 65.0746 79.5769C65.0746 78.2163 63.9716 77.1133 62.611 77.1133C61.2504 77.1133 60.1475 78.2163 60.1475 79.5769C60.1475 80.9374 61.2504 82.0404 62.611 82.0404Z" fill="white"/>
<path d="M41.0923 239.646L42.9196 246.691C43.1701 247.596 43.7283 248.385 44.498 248.922C45.2677 249.46 46.2007 249.712 47.1363 249.635C53.129 249.229 65.576 247.761 72.7217 242.495L70.6912 232.343C60.8673 231.786 51.6798 232.333 43.7192 235.002C41.7381 235.682 40.5814 237.678 41.0923 239.646Z" fill="#102048"/>
<path d="M52.5403 245.254C52.4888 245.253 52.4388 245.236 52.3977 245.205C52.3566 245.174 52.3267 245.13 52.3124 245.081L49.8583 236.3C49.8499 236.27 49.8476 236.238 49.8514 236.207C49.8551 236.176 49.865 236.146 49.8803 236.119C49.8957 236.092 49.9162 236.068 49.9408 236.049C49.9654 236.03 49.9935 236.016 50.0236 236.007C50.0536 235.999 50.0851 235.996 50.1162 236C50.1472 236.003 50.1772 236.013 50.2045 236.029C50.2317 236.044 50.2556 236.065 50.2748 236.089C50.2939 236.114 50.308 236.142 50.3161 236.172L52.7702 244.957C52.7807 244.993 52.7827 245.03 52.776 245.066C52.7693 245.103 52.7541 245.137 52.7317 245.166C52.7093 245.195 52.6803 245.219 52.647 245.235C52.6137 245.251 52.5772 245.258 52.5403 245.257V245.254Z" fill="white"/>
<path d="M57.8435 244.066C57.7918 244.066 57.7415 244.049 57.7003 244.018C57.6591 243.986 57.6293 243.943 57.6156 243.893L55.1615 235.108C55.1446 235.047 55.1526 234.982 55.1836 234.927C55.2146 234.873 55.2661 234.832 55.3268 234.815C55.3875 234.798 55.4524 234.806 55.5072 234.837C55.5621 234.868 55.6024 234.92 55.6193 234.981L58.0733 243.765C58.0897 243.826 58.0816 243.891 58.0507 243.946C58.0198 244 57.9685 244.041 57.9081 244.058C57.887 244.063 57.8653 244.066 57.8435 244.066Z" fill="white"/>
<path d="M64.0014 201.566L41.1702 208.342L58.1264 231.576L82.4696 233.511L116.046 219.313L103.286 200.115L64.0014 201.566Z" fill="#EDB159"/>
<path d="M92.1512 204.793C142.296 189.951 150.35 234.265 72.1159 242.331C69.3522 239.222 66.1232 233.826 64.8411 229.317L106.156 210.225L92.1512 204.793Z" fill="#EDB159"/>
<path d="M94.2805 236.554C91.9347 235.794 89.6877 234.318 89.6877 234.318L81.6265 236.847L83.4727 245.612L91.8435 247.322C94.3983 242.649 94.5426 238.818 94.2805 236.554Z" fill="#F9B384"/>
<path d="M65.0216 229.625L64.6626 229.01C73.2822 224.001 95.3575 211.966 114.168 208.418L114.299 209.119C95.5987 212.646 73.607 224.635 65.0216 229.625Z" fill="#B47354"/>
<path d="M64.0015 201.566C17.3305 192.694 5.24434 237.545 83.4764 245.607C86.3845 242.367 88.5096 238.503 89.6876 234.313C77.6717 226.272 64.2351 218.629 49.5088 211.348L64.0015 201.566Z" fill="#EDB159"/>
<path d="M89.4976 234.618C87.2771 233.205 84.9636 231.712 82.5133 230.129C70.2202 222.192 56.284 213.196 44.4448 208.066L44.7297 207.412C56.6221 212.565 70.583 221.578 82.9084 229.531C85.3568 231.113 87.6684 232.606 89.8869 234.017L89.4976 234.618Z" fill="#B47354"/>
<path d="M29.7605 223.805L29.1375 223.461C30.8887 220.289 33.6961 218.143 37.476 217.104L37.6659 217.789C34.0247 218.798 31.4396 220.766 29.7605 223.805Z" fill="#B47354"/>
<path d="M127.169 221.104C125.49 218.064 122.903 216.097 119.262 215.086L119.452 214.4C123.233 215.449 126.039 217.588 127.79 220.76L127.169 221.104Z" fill="#B47354"/>
<path d="M79.1057 245.227L78.5872 244.733C82.3214 240.735 84.6141 236.512 85.598 231.828L86.2951 231.974C85.2808 236.789 82.9312 241.122 79.1057 245.227Z" fill="#B47354"/>
<path d="M117.556 233.942C111.577 230.248 99.9844 236.632 97.0744 236.953C96.2254 237.047 95.2453 236.861 94.2803 236.554C94.5463 238.818 94.3981 242.649 91.8472 247.312L93.2698 247.601C93.2698 247.601 103.099 251.21 113.527 249.107C123.152 247.172 122.257 236.846 117.556 233.942Z" fill="#102048"/>
<path d="M109.406 246.027C109.381 246.026 109.357 246.023 109.333 246.015C109.273 245.996 109.224 245.954 109.195 245.898C109.166 245.842 109.16 245.777 109.18 245.717C109.89 243.468 110.2 239.043 108.142 236.07C108.117 236.046 108.097 236.016 108.084 235.984C108.072 235.951 108.066 235.916 108.069 235.881C108.071 235.846 108.082 235.812 108.099 235.781C108.116 235.751 108.14 235.724 108.168 235.704C108.197 235.684 108.23 235.67 108.264 235.664C108.299 235.658 108.334 235.659 108.368 235.668C108.402 235.678 108.433 235.694 108.46 235.717C108.487 235.74 108.508 235.768 108.522 235.8C110.678 238.911 110.361 243.521 109.622 245.867C109.606 245.912 109.577 245.952 109.538 245.98C109.5 246.009 109.453 246.025 109.406 246.027Z" fill="white"/>
<path d="M104.716 246.915C104.692 246.915 104.668 246.911 104.646 246.904C104.616 246.895 104.588 246.88 104.564 246.86C104.54 246.84 104.521 246.816 104.506 246.788C104.492 246.761 104.483 246.731 104.48 246.7C104.477 246.669 104.481 246.637 104.49 246.608C105.2 244.357 105.51 239.933 103.453 236.96C103.435 236.935 103.423 236.906 103.416 236.875C103.41 236.845 103.409 236.813 103.415 236.783C103.42 236.752 103.432 236.723 103.449 236.696C103.466 236.67 103.488 236.648 103.514 236.63C103.539 236.612 103.568 236.6 103.599 236.593C103.629 236.587 103.661 236.586 103.691 236.592C103.722 236.597 103.751 236.609 103.778 236.626C103.804 236.643 103.826 236.665 103.844 236.691C105.998 239.802 105.681 244.412 104.942 246.758C104.926 246.804 104.895 246.845 104.854 246.873C104.814 246.901 104.765 246.916 104.716 246.915Z" fill="white"/>
<path d="M55.7447 143.735C55.7447 143.735 67.4984 133.741 67.0634 131.841C66.7538 130.483 63.4241 132.474 63.4241 132.474C63.4241 132.474 68.0929 126.935 67.8555 126.261C67.4319 125.06 64.2009 127.3 64.2009 127.3C64.2009 127.3 66.3853 124.158 65.3406 123.647C64.2959 123.136 62.0223 125.071 62.0223 125.071C62.0223 125.071 63.3519 123.326 62.727 122.868C62.1021 122.41 59.4087 124.293 59.4087 124.293C59.4087 124.293 60.3755 122.093 58.3203 122.927C56.2651 123.761 41.8655 136.983 41.8655 136.983L55.7447 143.735Z" fill="#F9B384"/>
<path d="M60.5539 131.881C60.4947 131.881 60.4378 131.859 60.3944 131.818C58.3772 129.976 57.4863 129.528 55.2659 128.842C55.234 128.835 55.2039 128.821 55.1775 128.802C55.1512 128.782 55.1291 128.757 55.1128 128.729C55.0964 128.701 55.0861 128.669 55.0825 128.637C55.0789 128.604 55.082 128.571 55.0918 128.54C55.1015 128.509 55.1176 128.48 55.139 128.455C55.1604 128.43 55.1867 128.41 55.2163 128.396C55.2458 128.382 55.278 128.374 55.3107 128.373C55.3434 128.372 55.376 128.378 55.4064 128.39C57.7124 129.098 58.6355 129.562 60.7249 131.467C60.7608 131.499 60.786 131.542 60.7972 131.589C60.8084 131.636 60.805 131.685 60.7874 131.73C60.7699 131.775 60.7391 131.813 60.699 131.841C60.659 131.868 60.6117 131.882 60.5634 131.881H60.5539Z" fill="#E28B6D"/>
<path d="M57.0134 137.302H56.9793C56.9171 137.293 56.861 137.26 56.8233 137.21C56.7856 137.159 56.7692 137.096 56.7779 137.034C57.0077 135.382 57.5377 134.348 58.3677 133.875C59.0857 133.473 60.0202 133.514 61.1428 133.999C61.2007 134.024 61.2463 134.071 61.2695 134.13C61.2926 134.189 61.2915 134.254 61.2663 134.312C61.2411 134.37 61.1939 134.416 61.1352 134.439C61.0764 134.462 61.0108 134.461 60.9529 134.436C59.9728 134.012 59.1807 133.963 58.5995 134.289C57.9081 134.669 57.4598 135.619 57.2452 137.099C57.2374 137.155 57.2097 137.206 57.1672 137.243C57.1246 137.281 57.07 137.302 57.0134 137.302Z" fill="#E28B6D"/>
<path d="M56.4589 127.311C56.4265 127.31 56.3945 127.303 56.3648 127.29C56.3351 127.277 56.3083 127.258 56.2861 127.235C56.242 127.19 56.2173 127.13 56.2173 127.068C56.2173 127.005 56.242 126.945 56.2861 126.9L59.2359 124.12C59.2818 124.076 59.3429 124.053 59.406 124.055C59.469 124.057 59.5288 124.083 59.5721 124.129C59.6154 124.175 59.6388 124.236 59.637 124.299C59.6352 124.362 59.6085 124.422 59.5626 124.465L56.6128 127.244C56.5714 127.284 56.5166 127.308 56.4589 127.311Z" fill="#E28B6D"/>
<path d="M59.1904 128.261C59.1439 128.26 59.0986 128.246 59.0599 128.221C59.0212 128.195 58.9909 128.158 58.9725 128.116C58.9542 128.073 58.9487 128.026 58.9567 127.98C58.9647 127.934 58.9858 127.892 59.0175 127.858L61.8515 124.906C61.8726 124.882 61.8984 124.862 61.9274 124.848C61.9564 124.834 61.988 124.826 62.0201 124.824C62.0523 124.823 62.0845 124.828 62.1147 124.839C62.1448 124.851 62.1724 124.868 62.1956 124.89C62.2188 124.913 62.2373 124.94 62.2498 124.969C62.2623 124.999 62.2687 125.031 62.2685 125.063C62.2683 125.095 62.2615 125.127 62.2486 125.157C62.2357 125.186 62.2169 125.213 62.1934 125.235L59.3614 128.187C59.3393 128.21 59.3128 128.228 59.2834 128.241C59.2541 128.254 59.2224 128.261 59.1904 128.261Z" fill="#E28B6D"/>
<path d="M61.9785 129.931C61.9186 129.93 61.8611 129.907 61.8171 129.867C61.7713 129.823 61.7445 129.764 61.7423 129.701C61.7402 129.638 61.7629 129.577 61.8057 129.531L64.028 127.147C64.0715 127.104 64.13 127.079 64.1912 127.078C64.2525 127.077 64.3117 127.1 64.3566 127.142C64.4014 127.183 64.4285 127.241 64.432 127.302C64.4356 127.363 64.4153 127.423 64.3756 127.47L62.1532 129.855C62.1308 129.879 62.1037 129.898 62.0737 129.911C62.0437 129.924 62.0113 129.931 61.9785 129.931Z" fill="#E28B6D"/>
<path d="M100.146 210.588L57.171 212.25L52.4224 173.074C52.4224 173.074 66.8087 159.426 72.3437 154.402L81.6889 153.924C110.688 167.1 105.939 183.559 100.146 210.588Z" fill="#79C7D0"/>
<path d="M81.689 153.924C81.689 153.924 114.866 156.76 125.313 179.485C135.546 201.719 93.4978 209.638 93.4978 209.638L81.689 153.924Z" fill="#79C7D0"/>
<path d="M43.7763 158.803L57.4826 142.124L44.6652 134.357C39.3183 138.075 28.9797 146.495 20.2176 156.03C18.2839 158.135 16.772 160.589 16.0122 163.299C15.3763 165.516 15.2388 167.847 15.6095 170.124C16.5592 175.946 21.1407 180.44 27.255 181.156C32.4765 181.765 52.4225 180.206 68.5677 175.457L73.3163 157.13C70.8755 155.737 52.7416 155.496 43.7763 158.803Z" fill="#79C7D0"/>
<g opacity="0.8">
<path d="M109.368 162.942L109.582 162.893L109.132 162.63C106.701 163.191 104.194 163.77 101.725 164.061C100.237 164.239 95.2664 164.568 93.8229 161.261C93.1011 159.616 93.6481 157.785 94.4649 156.501L94.1078 156.398C93.272 157.76 92.7364 159.669 93.498 161.403C95.0461 164.936 100.218 164.602 101.766 164.414C104.308 164.108 106.889 163.516 109.368 162.942Z" fill="white"/>
<path d="M124.848 188.571C123.264 187.959 121.619 187.327 119.91 187.488C116.889 187.775 114.306 190.759 114.15 194.136C114.044 196.442 114.925 198.86 116.605 200.988L116.908 200.798C115.265 198.731 114.403 196.383 114.506 194.15C114.656 190.936 117.095 188.104 119.942 187.834C121.579 187.682 123.106 188.269 124.723 188.894C125.293 189.118 125.887 189.342 126.484 189.534C126.514 189.418 126.544 189.304 126.571 189.188C125.986 189.004 125.412 188.79 124.848 188.571Z" fill="white"/>
<path d="M41.1306 177.243C39.0602 175.534 35.8425 175.074 32.3039 175.988C29.1508 176.805 26.446 178.419 24.5884 180.558C24.7099 180.596 24.8296 180.641 24.9531 180.678C26.7613 178.649 29.3655 177.116 32.3932 176.334C35.8121 175.447 38.9215 175.88 40.9045 177.519C41.8158 178.304 42.5313 179.29 42.9939 180.4L43.3624 180.358C42.876 179.158 42.111 178.09 41.1306 177.243Z" fill="white"/>
<path d="M22.4097 153.689C26.2902 152.726 30.0777 151.372 33.5689 149.361C34.889 148.601 36.3781 147.632 37.4266 146.209C38.5416 144.69 38.912 142.891 38.4181 141.387C38.2231 140.81 37.8914 140.288 37.4513 139.867L37.1778 140.091C37.5902 140.48 37.8996 140.965 38.0781 141.503C38.5378 142.897 38.1864 144.58 37.1398 146C36.1312 147.37 34.6705 148.314 33.3922 149.055C30.0967 150.954 26.5352 152.265 22.875 153.213L22.4097 153.689Z" fill="white"/>
</g>
<path d="M84.7244 145.214V145.821L84.6275 155.267L84.6161 156.291C84.5494 157.806 83.9005 159.238 82.8046 160.286C81.7087 161.335 80.2504 161.92 78.7336 161.92C77.2168 161.92 75.7584 161.335 74.6625 160.286C73.5667 159.238 72.9177 157.806 72.851 156.291L72.7371 144.617L84.7244 145.214Z" fill="#F9B384"/>
<path d="M84.7185 145.822L84.6217 155.268C79.3716 153.131 77.2139 147.448 77.2139 147.448L84.7185 145.822Z" fill="#102048"/>
<path d="M86.7948 129.338C88.6771 131.596 94.1703 144.389 88.6012 148.754C82.333 153.666 72.7979 145.593 72.7979 145.593L71.5195 130.69L79.7973 128.508L86.7948 129.338Z" fill="#F9B384"/>
<path d="M67.3008 128.518C67.3008 128.518 48.9408 138.095 63.9122 165.699C65.8344 169.243 70.093 170.791 73.7361 169.061C74.6592 168.62 75.4816 167.994 76.1522 167.222C76.8227 166.45 77.327 165.547 77.6335 164.571C77.94 163.596 78.0422 162.567 77.9338 161.55C77.8253 160.533 77.5085 159.549 77.0031 158.66C74.5547 154.31 72.1899 148.709 73.2042 144.539L67.3008 128.518Z" fill="#102048"/>
<path d="M72.5486 136.563C74.4884 134.623 74.4884 131.478 72.5486 129.539C70.6089 127.599 67.4639 127.599 65.5242 129.539C63.5844 131.478 63.5844 134.623 65.5242 136.563C67.4639 138.503 70.6089 138.503 72.5486 136.563Z" fill="#EDB159"/>
<path d="M75.1454 139.018C74.6079 135.92 74.2812 133.795 77.4134 132.197C77.4134 132.197 88.451 134.205 90.5575 130.042C92.6639 125.878 89.4539 119.304 82.7318 123.87C65.5229 120.508 63.2151 136.614 68.4328 141.981L73.5822 141.191C73.8285 141.153 74.0647 141.067 74.2771 140.936C74.4895 140.806 74.6738 140.635 74.8194 140.433C74.9649 140.23 75.0687 140.001 75.1246 139.758C75.1806 139.515 75.1877 139.264 75.1454 139.018Z" fill="#102048"/>
<path d="M83.6912 139.761C84.0961 139.761 84.4244 139.433 84.4244 139.028C84.4244 138.623 84.0961 138.295 83.6912 138.295C83.2863 138.295 82.958 138.623 82.958 139.028C82.958 139.433 83.2863 139.761 83.6912 139.761Z" fill="#102048"/>
<path d="M88.658 137.314C89.0629 137.314 89.3912 136.986 89.3912 136.581C89.3912 136.176 89.0629 135.848 88.658 135.848C88.2531 135.848 87.9248 136.176 87.9248 136.581C87.9248 136.986 88.2531 137.314 88.658 137.314Z" fill="#102048"/>
<path d="M88.149 141.286C88.096 141.286 88.0449 141.265 88.0066 141.229C87.9677 141.19 87.9459 141.137 87.9459 141.081C87.9459 141.026 87.9677 140.973 88.0066 140.934C88.301 140.625 88.6239 140.19 88.489 139.874C88.3542 139.559 87.752 139.405 87.4804 139.405C86.8954 139.405 86.6143 138.362 86.563 138.153C86.5536 138.126 86.55 138.097 86.5525 138.068C86.5551 138.039 86.5636 138.011 86.5777 137.985C86.5917 137.96 86.6109 137.937 86.634 137.92C86.6572 137.902 86.6837 137.889 86.712 137.883C86.7403 137.876 86.7697 137.875 86.7984 137.88C86.827 137.886 86.8542 137.897 86.8783 137.913C86.9023 137.93 86.9227 137.951 86.9381 137.975C86.9534 138 86.9635 138.028 86.9676 138.057C87.0739 138.497 87.3152 138.989 87.4804 138.989C87.7596 138.989 88.6201 139.12 88.8689 139.709C89.0494 140.131 88.8689 140.638 88.2991 141.229C88.2791 141.248 88.2555 141.262 88.2297 141.272C88.204 141.282 88.1766 141.287 88.149 141.286Z" fill="#102048"/>
<path d="M88.1871 144.07C88.1457 144.07 88.1053 144.057 88.0712 144.034C86.6903 143.101 85.2942 143.884 85.2809 143.891C85.2574 143.905 85.2314 143.914 85.2044 143.917C85.1774 143.921 85.15 143.919 85.1237 143.912C85.0974 143.905 85.0728 143.893 85.0512 143.876C85.0296 143.86 85.0115 143.839 84.9979 143.815C84.9708 143.767 84.9636 143.711 84.9778 143.657C84.992 143.604 85.0265 143.559 85.0739 143.53C85.1404 143.493 86.7093 142.613 88.3029 143.69C88.3258 143.705 88.3453 143.725 88.3606 143.747C88.3758 143.77 88.3864 143.796 88.3917 143.823C88.397 143.849 88.3969 143.877 88.3914 143.904C88.386 143.931 88.3753 143.956 88.3599 143.979C88.3407 144.007 88.3149 144.03 88.2848 144.046C88.2547 144.062 88.2211 144.07 88.1871 144.07Z" fill="#102048"/>
<path d="M83.37 135.85C83.7879 136.635 83.0604 136.8 82.2076 137.246C81.3547 137.693 80.4829 137.866 80.2835 137.49C80.084 137.113 80.614 136.445 81.4668 135.991C82.3197 135.537 83.0471 135.25 83.37 135.85Z" fill="#102048"/>
<path d="M86.4775 134.431C86.6675 135.132 87.1841 134.826 87.9458 134.621C88.7075 134.416 89.321 134.04 89.2317 133.706C89.1424 133.371 88.4568 133.261 87.697 133.461C86.9372 133.66 86.3351 133.89 86.4775 134.431Z" fill="#102048"/>
<path opacity="0.4" d="M81.7764 144.024C82.6547 143.214 82.7099 141.845 81.8998 140.967C81.0896 140.089 79.7209 140.034 78.8426 140.844C77.9644 141.654 77.9092 143.023 78.7193 143.901C79.5295 144.779 80.8982 144.834 81.7764 144.024Z" fill="#EB5D60"/>
<path d="M74.7227 144.504C75.7117 143.223 75.3332 141.273 73.8774 140.15C72.4216 139.026 70.4398 139.154 69.4508 140.436C68.4619 141.717 68.8403 143.667 70.2961 144.79C71.7519 145.914 73.7338 145.786 74.7227 144.504Z" fill="#F9B384"/>
<path d="M73.3751 143.544C73.3202 143.544 73.2675 143.522 73.2287 143.484C73.1899 143.445 73.168 143.392 73.168 143.337C73.17 143.038 73.098 142.742 72.9585 142.477C72.819 142.212 72.6163 141.986 72.3684 141.818C72.1729 141.678 71.9461 141.589 71.708 141.557C71.4699 141.526 71.2277 141.553 71.0027 141.637C70.9548 141.648 70.9048 141.641 70.8613 141.618C70.8179 141.596 70.7838 141.559 70.765 141.513C70.7462 141.468 70.7439 141.418 70.7586 141.371C70.7732 141.324 70.8038 141.284 70.845 141.257C71.1334 141.148 71.4443 141.111 71.7503 141.15C72.0563 141.188 72.3481 141.302 72.6001 141.48C72.9044 141.685 73.1533 141.963 73.3249 142.287C73.4965 142.612 73.5855 142.974 73.584 143.341C73.583 143.396 73.5605 143.448 73.5214 143.486C73.4823 143.524 73.4297 143.545 73.3751 143.544Z" fill="#102048"/>
<path d="M43.6031 158.621L36.1069 166.73L36.4556 167.053L43.9518 158.943L43.6031 158.621Z" fill="#102048"/>
<path d="M96.4153 193.484L96.2786 193.03C101.736 191.366 107.031 189.375 111.831 183.373L112.211 183.669C107.318 189.778 101.95 191.797 96.4153 193.484Z" fill="#102048"/>
<path d="M99.7337 175.096H53.3095C51.6399 175.096 50.2856 176.558 50.2856 178.365V211.512C50.2856 213.318 51.6399 214.783 53.3095 214.783H99.7337C101.403 214.783 102.758 213.318 102.758 211.512V178.367C102.758 176.558 101.403 175.096 99.7337 175.096Z" fill="#D3DFFF"/>
<path d="M78.9671 192.844C79.0108 192.846 79.0537 192.856 79.0934 192.874C79.1331 192.893 79.1687 192.919 79.1984 192.951C79.228 192.983 79.251 193.02 79.2661 193.061C79.2812 193.102 79.288 193.146 79.2862 193.19V196.688C79.2893 196.777 79.2576 196.862 79.1978 196.927C79.138 196.992 79.0551 197.03 78.9671 197.034H74.0704C73.9824 197.03 73.8995 196.992 73.8397 196.927C73.78 196.862 73.7482 196.777 73.7513 196.688V193.182C73.7495 193.138 73.7564 193.095 73.7714 193.054C73.7865 193.013 73.8095 192.975 73.8392 192.943C73.8688 192.911 73.9045 192.885 73.9442 192.867C73.9838 192.848 74.0267 192.838 74.0704 192.836H78.9671M78.9671 191.887H74.0704C73.7305 191.891 73.4061 192.029 73.1682 192.272C72.9304 192.515 72.7985 192.842 72.8016 193.182V196.681C72.7985 197.021 72.9304 197.348 73.1682 197.591C73.4061 197.834 73.7305 197.972 74.0704 197.976H78.9671C79.307 197.972 79.6315 197.834 79.8693 197.591C80.1071 197.348 80.239 197.021 80.236 196.681V193.182C80.239 192.842 80.1071 192.515 79.8693 192.272C79.6315 192.029 79.307 191.891 78.9671 191.887Z" fill="#1F3C88"/>
<path d="M279.916 249.051H0V250H279.916V249.051Z" fill="#E6E6E7"/>
</g>
<defs>
<clipPath id="clip0_1_1162">
<rect width="279.916" height="250" fill="white"/>
</clipPath>
</defs>
</svg>
