<svg width="111" height="102" viewBox="0 0 111 102" fill="none" xmlns="http://www.w3.org/2000/svg">
<path d="M15.6702 79.9321C16.8476 79.9321 17.8021 78.9867 17.8021 77.8206C17.8021 76.6544 16.8476 75.709 15.6702 75.709C14.4928 75.709 13.5383 76.6544 13.5383 77.8206C13.5383 78.9867 14.4928 79.9321 15.6702 79.9321Z" fill="#F4A351"/>
<path d="M108.269 46.2987C109.777 46.2987 111 45.0876 111 43.5937C111 42.0998 109.777 40.8887 108.269 40.8887C106.761 40.8887 105.538 42.0998 105.538 43.5937C105.538 45.0876 106.761 46.2987 108.269 46.2987Z" fill="#F4A351"/>
<path d="M58.136 89.5303C82.044 89.5303 101.425 70.3338 101.425 46.6538C101.425 22.9738 82.044 3.77734 58.136 3.77734C34.228 3.77734 14.8468 22.9738 14.8468 46.6538C14.8468 70.3338 34.228 89.5303 58.136 89.5303Z" fill="#ECF3FE"/>
<path d="M21.1204 47.617H21.0931C20.2777 47.5706 19.4677 47.4574 18.6712 47.2786C18.5561 47.2523 18.4562 47.1819 18.3935 47.0827C18.3309 46.9835 18.3105 46.8637 18.337 46.7496C18.3635 46.6356 18.4347 46.5367 18.5348 46.4746C18.635 46.4125 18.7559 46.3924 18.8711 46.4186C19.6197 46.5869 20.381 46.6937 21.1473 46.738C21.2649 46.7423 21.3759 46.7925 21.4562 46.8776C21.5365 46.9627 21.5796 47.0758 21.5761 47.1922C21.5725 47.3086 21.5226 47.4189 21.4372 47.4991C21.3519 47.5792 21.238 47.6227 21.1204 47.6199V47.617ZM23.4932 47.5937C23.378 47.5937 23.2672 47.5495 23.1843 47.4703C23.1013 47.3912 23.0525 47.2833 23.0481 47.1693C23.0437 47.0552 23.0841 46.944 23.1608 46.8588C23.2375 46.7737 23.3446 46.7213 23.4594 46.7126C24.2317 46.6528 24.9998 46.5479 25.7596 46.3983C25.8174 46.3862 25.8771 46.3855 25.9352 46.3964C25.9933 46.4073 26.0486 46.4296 26.0979 46.4618C26.1472 46.4941 26.1895 46.5358 26.2224 46.5845C26.2553 46.6331 26.2781 46.6878 26.2894 46.7453C26.3007 46.8027 26.3004 46.8618 26.2884 46.9192C26.2765 46.9765 26.2531 47.0309 26.2197 47.0792C26.1863 47.1275 26.1435 47.1688 26.0938 47.2005C26.0442 47.2323 25.9886 47.2539 25.9304 47.2642C25.1361 47.4201 24.3333 47.5297 23.5261 47.5924C23.5158 47.5933 23.5049 47.5937 23.4932 47.5937ZM28.1482 46.6949C28.0414 46.695 27.9382 46.6572 27.8572 46.5883C27.7763 46.5195 27.7229 46.4241 27.707 46.3195C27.6911 46.215 27.7136 46.1083 27.7704 46.0188C27.8272 45.9293 27.9146 45.863 28.0166 45.832C28.7461 45.6086 29.4836 45.343 30.2079 45.0431C30.3169 44.9979 30.4396 44.9974 30.5489 45.0418C30.6583 45.0862 30.7454 45.1718 30.791 45.2797C30.8367 45.3877 30.8372 45.5092 30.7923 45.6175C30.7475 45.7259 30.6611 45.8121 30.5521 45.8573C29.8009 46.1682 29.0365 46.4432 28.2797 46.675C28.2371 46.6881 28.1928 46.6949 28.1482 46.6949ZM16.5239 46.535C16.4594 46.5346 16.3956 46.5201 16.3373 46.4927C15.5819 46.1509 14.8738 45.7145 14.2306 45.1941C14.1842 45.1576 14.1456 45.1124 14.1171 45.061C14.0886 45.0096 14.0707 44.9531 14.0645 44.8948C14.0582 44.8365 14.0638 44.7775 14.0809 44.7214C14.0979 44.6652 14.1261 44.613 14.1638 44.5677C14.2015 44.5225 14.2479 44.4851 14.3003 44.4579C14.3527 44.4306 14.4101 44.4139 14.4691 44.4089C14.528 44.4038 14.5875 44.4105 14.6438 44.4284C14.7002 44.4464 14.7524 44.4753 14.7973 44.5135C15.3819 44.9864 16.0254 45.3832 16.7119 45.6941C16.8041 45.7362 16.879 45.8083 16.9241 45.8984C16.9693 45.9885 16.982 46.0912 16.9602 46.1895C16.9384 46.2877 16.8833 46.3756 16.8041 46.4386C16.7249 46.5016 16.6264 46.5359 16.5248 46.5358L16.5239 46.535ZM12.9212 43.558C12.8491 43.558 12.7779 43.5407 12.714 43.5074C12.6501 43.4742 12.5953 43.4261 12.5544 43.3672C12.2411 42.9155 11.9611 42.4421 11.7165 41.9506C11.6602 41.9659 11.6013 41.9701 11.5433 41.9628C11.4854 41.9555 11.4294 41.937 11.3787 41.9083C10.6696 41.5037 9.99706 41.0394 9.36851 40.5205C9.28041 40.4451 9.22562 40.3385 9.21585 40.2236C9.20609 40.1087 9.24213 39.9946 9.31627 39.9057C9.3904 39.8168 9.49673 39.7601 9.6125 39.7479C9.72826 39.7357 9.84426 39.7689 9.93565 39.8403C10.395 40.2181 10.8785 40.5662 11.383 40.8825C11.4162 40.801 11.4733 40.7312 11.5469 40.6821C11.6205 40.6329 11.7072 40.6067 11.7959 40.6067C11.8847 40.6067 11.9714 40.6329 12.045 40.6821C12.1186 40.7312 12.1756 40.801 12.2089 40.8825C12.4949 41.5809 12.8566 42.2465 13.2877 42.8676C13.3337 42.9339 13.3606 43.0113 13.3655 43.0916C13.3703 43.1719 13.353 43.2519 13.3153 43.3231C13.2776 43.3944 13.2209 43.454 13.1515 43.4957C13.082 43.5374 13.0024 43.5595 12.9212 43.5596V43.558ZM15.2513 43.0694C14.7177 43.0656 14.1867 42.9945 13.6712 42.8579C13.614 42.8438 13.5603 42.8187 13.513 42.7839C13.4657 42.7491 13.4259 42.7054 13.3958 42.6553C13.3657 42.6052 13.3459 42.5496 13.3376 42.4919C13.3293 42.4342 13.3327 42.3754 13.3475 42.3189C13.3623 42.2625 13.3882 42.2095 13.4238 42.163C13.4594 42.1166 13.504 42.0776 13.5549 42.0483C13.6058 42.019 13.662 42 13.7204 41.9924C13.7788 41.9847 13.8381 41.9887 13.8949 42.0039C14.6675 42.2027 15.3974 42.2386 16.0482 42.1109C16.1635 42.0894 16.2828 42.1139 16.38 42.179C16.4772 42.2441 16.5445 42.3446 16.5674 42.4586C16.5902 42.5726 16.5667 42.691 16.502 42.7879C16.4372 42.8849 16.3365 42.9526 16.2216 42.9763C15.902 43.0386 15.577 43.0697 15.2513 43.0694ZM18.248 41.9561C18.1559 41.956 18.066 41.9277 17.9908 41.8751C17.9156 41.8224 17.8587 41.7479 17.8279 41.6619C17.7971 41.5759 17.7941 41.4826 17.819 41.3947C17.844 41.3069 17.8959 41.2289 17.9674 41.1714C18.5414 40.7129 19.022 40.1503 19.3836 39.5137C19.412 39.4631 19.4503 39.4185 19.4961 39.3825C19.542 39.3465 19.5946 39.3198 19.6508 39.304C19.7071 39.2881 19.766 39.2834 19.8241 39.2901C19.8822 39.2967 19.9384 39.3147 19.9896 39.3429C20.0407 39.371 20.0857 39.4089 20.122 39.4543C20.1584 39.4998 20.1853 39.5518 20.2013 39.6076C20.2174 39.6633 20.2221 39.7216 20.2154 39.7792C20.2087 39.8368 20.1906 39.8924 20.1621 39.9431C19.7446 40.6781 19.19 41.3279 18.5277 41.858C18.4486 41.9214 18.3498 41.9561 18.248 41.9561ZM11.1895 39.2215C11.0806 39.2212 10.9755 39.1814 10.8941 39.1096C10.8128 39.0378 10.7608 38.939 10.7479 38.8319C10.7126 38.5395 10.6947 38.2453 10.6941 37.9508C10.6925 37.4058 10.7601 36.8628 10.8953 36.3345C10.9247 36.2212 10.9983 36.124 11.1 36.0645C11.2017 36.0049 11.3232 35.9878 11.4376 36.0169C11.5521 36.046 11.6502 36.1189 11.7103 36.2197C11.7705 36.3204 11.7877 36.4407 11.7584 36.5541C11.6418 37.0103 11.5837 37.4793 11.5854 37.9499C11.5858 38.2096 11.6015 38.4691 11.6324 38.727C11.6463 38.8431 11.6132 38.96 11.5401 39.052C11.4671 39.1439 11.3602 39.2033 11.2429 39.2172C11.2252 39.2197 11.2074 39.2211 11.1895 39.2215ZM7.93101 39.0023C7.86944 39.0023 7.80854 38.9896 7.75217 38.965C7.69579 38.9405 7.64516 38.9047 7.60346 38.8598C7.05383 38.2689 6.54166 37.645 6.06987 36.9914C6.03586 36.9442 6.01157 36.8908 5.99839 36.8343C5.9852 36.7778 5.98339 36.7193 5.99304 36.6621C6.0027 36.6049 6.02364 36.5501 6.05466 36.5009C6.08569 36.4517 6.12619 36.409 6.17386 36.3754C6.22153 36.3417 6.27544 36.3176 6.3325 36.3046C6.38956 36.2915 6.44865 36.2897 6.50641 36.2993C6.56417 36.3088 6.61946 36.3296 6.66913 36.3603C6.7188 36.391 6.76187 36.4311 6.79588 36.4784C7.24611 37.1023 7.73504 37.6978 8.25985 38.2617C8.31848 38.3248 8.35729 38.4034 8.37155 38.488C8.38582 38.5725 8.37492 38.6594 8.34019 38.7379C8.30545 38.8165 8.24839 38.8833 8.17596 38.9302C8.10353 38.9772 8.01886 39.0022 7.9323 39.0023H7.93101ZM20.4307 37.9318H20.4123C20.2943 37.927 20.183 37.8761 20.103 37.7901C20.0229 37.7041 19.9805 37.5901 19.9853 37.4732C19.9853 37.4229 19.9883 37.3726 19.9883 37.3218C19.9883 37.2325 19.9853 37.142 19.9789 37.0519C19.9331 36.4796 19.7816 35.9204 19.5317 35.4023C19.4815 35.2964 19.4757 35.175 19.5157 35.0649C19.5558 34.9548 19.6384 34.865 19.7453 34.8152C19.8522 34.7653 19.9747 34.7596 20.0859 34.7993C20.1971 34.839 20.2878 34.9207 20.338 35.0267C20.6354 35.6447 20.815 36.3118 20.868 36.9944C20.8757 37.1048 20.8791 37.2148 20.8791 37.3239C20.8791 37.3865 20.8791 37.4508 20.8757 37.5109C20.8702 37.6242 20.821 37.7311 20.7381 37.8094C20.6553 37.8878 20.5452 37.9316 20.4307 37.9318ZM5.17945 35.1777C5.0985 35.1778 5.01904 35.1561 4.94965 35.1148C4.88026 35.0735 4.82357 35.0142 4.7857 34.9433C4.45379 34.328 4.16484 33.6909 3.9209 33.0365C3.88203 32.932 3.84445 32.825 3.80858 32.7214C3.77092 32.6104 3.7793 32.4892 3.83188 32.3843C3.88446 32.2795 3.97693 32.1997 4.08895 32.1624C4.20096 32.1251 4.32335 32.1334 4.42919 32.1854C4.53503 32.2375 4.61565 32.3291 4.65331 32.4401C4.68619 32.5382 4.72121 32.6355 4.75708 32.7328C4.98733 33.3494 5.25972 33.9497 5.57235 34.5296C5.60835 34.5968 5.62621 34.6721 5.62418 34.7481C5.62215 34.8242 5.60031 34.8984 5.56077 34.9636C5.52123 35.0288 5.46534 35.0828 5.39853 35.1203C5.33172 35.1578 5.25625 35.1776 5.17945 35.1777ZM12.3597 34.7817C12.2774 34.7815 12.1967 34.7586 12.1267 34.7158C12.0567 34.6729 12.0001 34.6117 11.963 34.539C11.926 34.4662 11.91 34.3847 11.9168 34.3034C11.9237 34.2222 11.9531 34.1444 12.0018 34.0787C12.5463 33.3461 13.1997 32.7598 13.8911 32.3834C13.9424 32.3555 13.9987 32.3378 14.0568 32.3315C14.115 32.3251 14.1738 32.3302 14.23 32.3463C14.2861 32.3625 14.3385 32.3894 14.3842 32.4257C14.4299 32.4619 14.4679 32.5067 14.496 32.5574C14.5242 32.6082 14.542 32.664 14.5484 32.7216C14.5549 32.7792 14.5498 32.8374 14.5335 32.8931C14.5171 32.9487 14.4899 33.0006 14.4533 33.0458C14.4168 33.0911 14.3716 33.1287 14.3203 33.1566C13.7416 33.4722 13.1877 33.9717 12.7188 34.602C12.6774 34.6578 12.6234 34.7032 12.5609 34.7344C12.4985 34.7656 12.4296 34.7819 12.3597 34.7817ZM18.5094 33.789C18.4031 33.7889 18.3004 33.7513 18.2198 33.6828C17.6411 33.1917 16.9873 32.8791 16.3288 32.7818C16.2119 32.7644 16.1069 32.7017 16.0367 32.6075C15.9666 32.5134 15.9371 32.3955 15.9547 32.2797C15.9723 32.164 16.0356 32.06 16.1306 31.9905C16.2257 31.921 16.3448 31.8918 16.4616 31.9092C17.2854 32.0323 18.0938 32.4138 18.7993 33.0128C18.8685 33.0715 18.9178 33.1497 18.9406 33.237C18.9635 33.3242 18.9588 33.4163 18.9272 33.5009C18.8957 33.5855 18.8387 33.6584 18.764 33.7099C18.6892 33.7614 18.6004 33.789 18.5094 33.789ZM3.66936 30.7384C3.56306 30.7382 3.46034 30.7003 3.37975 30.6317C3.29916 30.563 3.24601 30.4681 3.22991 30.364C3.11343 29.607 3.05518 28.8423 3.05567 28.0765V27.9496C3.05691 27.8332 3.1045 27.7221 3.18808 27.6403C3.27167 27.5586 3.38448 27.5128 3.50195 27.5131H3.50579C3.62382 27.5142 3.73658 27.5616 3.81936 27.6449C3.90213 27.7283 3.94817 27.8407 3.94737 27.9576V28.0782C3.94678 28.7992 4.00146 29.5192 4.11094 30.2321C4.12872 30.3477 4.09945 30.4656 4.02955 30.5599C3.95965 30.6542 3.85484 30.7172 3.73811 30.735C3.71531 30.7378 3.69233 30.7389 3.66936 30.7384ZM3.69541 26.0508C3.67268 26.0508 3.64998 26.0491 3.6275 26.0457C3.56968 26.0369 3.51417 26.017 3.46414 25.9869C3.41411 25.9569 3.37054 25.9174 3.33592 25.8707C3.3013 25.824 3.27631 25.771 3.26237 25.7148C3.24843 25.6585 3.24581 25.6 3.25468 25.5428C3.37849 24.7489 3.55309 23.9637 3.7774 23.1918C3.79006 23.1325 3.8149 23.0765 3.85038 23.0271C3.88586 22.9778 3.93122 22.9362 3.98363 22.905C4.03604 22.8738 4.09438 22.8536 4.15501 22.8457C4.21565 22.8378 4.27728 22.8423 4.33606 22.859C4.39485 22.8757 4.44953 22.9043 4.4967 22.9428C4.54387 22.9814 4.58252 23.0291 4.61023 23.0831C4.63795 23.1371 4.65415 23.1962 4.65781 23.2567C4.66148 23.3171 4.65253 23.3777 4.63153 23.4346C4.41772 24.1707 4.25126 24.9195 4.13315 25.6764C4.11701 25.7802 4.06408 25.8748 3.98387 25.9434C3.90365 26.012 3.80138 26.0501 3.69541 26.0508ZM4.99026 21.5349C4.91704 21.5349 4.84496 21.517 4.7804 21.4828C4.71584 21.4485 4.66079 21.3991 4.62013 21.3388C4.57946 21.2785 4.55443 21.2092 4.54726 21.137C4.54009 21.0648 4.55099 20.992 4.579 20.925C4.88869 20.1867 5.23576 19.4643 5.6189 18.7605C5.64666 18.7095 5.68429 18.6644 5.72965 18.6278C5.77501 18.5912 5.82721 18.5638 5.88327 18.5471C5.93932 18.5305 5.99813 18.525 6.05635 18.5309C6.11456 18.5367 6.17104 18.5539 6.22255 18.5814C6.27406 18.6089 6.3196 18.6462 6.35657 18.6911C6.39354 18.736 6.42121 18.7877 6.438 18.8433C6.4548 18.8988 6.46038 18.957 6.45445 19.0147C6.44851 19.0723 6.43117 19.1283 6.40341 19.1793C6.03452 19.8566 5.70042 20.5519 5.40238 21.2625C5.36863 21.3433 5.31145 21.4122 5.23809 21.4607C5.16472 21.5092 5.07847 21.5351 4.99026 21.5349ZM7.23405 17.3951C7.15351 17.395 7.07453 17.3732 7.00548 17.3322C6.93643 17.2911 6.87989 17.2323 6.84188 17.162C6.80386 17.0917 6.78579 17.0125 6.78957 16.9328C6.79335 16.8531 6.81885 16.7759 6.86336 16.7095C7.30238 16.0551 7.78112 15.405 8.28505 14.7777C8.35867 14.6861 8.46599 14.6273 8.5834 14.6141C8.70081 14.601 8.8187 14.6345 8.91112 14.7074C9.00355 14.7804 9.06294 14.8867 9.07624 15.003C9.08953 15.1192 9.05564 15.236 8.98202 15.3275C8.49388 15.935 8.03052 16.5644 7.60559 17.198C7.56488 17.2587 7.50965 17.3084 7.44482 17.3428C7.37999 17.3772 7.30759 17.3952 7.23405 17.3951ZM10.1859 13.7151C10.0991 13.7151 10.0142 13.69 9.94163 13.6428C9.86905 13.5956 9.81197 13.5285 9.7774 13.4496C9.74283 13.3708 9.73228 13.2836 9.74704 13.1989C9.7618 13.1142 9.80123 13.0356 9.86048 12.9728C10.2615 12.5498 10.6843 12.1242 11.1182 11.7139C11.1605 11.6739 11.2104 11.6425 11.2649 11.6216C11.3195 11.6007 11.3777 11.5906 11.4362 11.5919C11.4946 11.5932 11.5523 11.606 11.6058 11.6294C11.6593 11.6528 11.7077 11.6864 11.7481 11.7283C11.7885 11.7702 11.8202 11.8196 11.8413 11.8736C11.8625 11.9277 11.8727 11.9853 11.8713 12.0433C11.87 12.1012 11.8571 12.1583 11.8335 12.2113C11.8098 12.2643 11.7759 12.3122 11.7336 12.3522C11.3116 12.7511 10.9008 13.1627 10.5113 13.5751C10.4695 13.619 10.4191 13.6539 10.3631 13.6776C10.3071 13.7013 10.2468 13.7134 10.1859 13.713V13.7151Z" fill="#F4A351"/>
<g style="mix-blend-mode:multiply" opacity="0.18">
<path d="M99.5872 85.3711C99.5872 85.3677 99.5872 85.3635 99.5872 85.3605C99.5872 85.3575 99.5872 85.3499 99.5872 85.3457C99.5872 85.3157 99.5872 85.2835 99.5838 85.2539C99.5804 85.2243 99.5804 85.19 99.5753 85.1587C99.5753 85.1456 99.5753 85.1329 99.5727 85.1164C99.5727 85.1084 99.5727 85.0995 99.5693 85.0915C99.5672 85.0712 99.5641 85.051 99.5599 85.031C99.5577 85.0098 99.5544 84.9888 99.5501 84.968C99.542 84.9227 99.5343 84.8791 99.5249 84.836L99.4997 84.7247L99.4143 84.3555L91.529 49.3631C91.5192 49.3208 91.5068 49.2752 91.4952 49.2324C91.4879 49.2009 91.4786 49.1698 91.4675 49.1394C91.457 49.1027 91.4446 49.0665 91.4303 49.0311C91.4192 49.0011 91.4081 48.9715 91.3949 48.9418C91.3817 48.9122 91.371 48.8843 91.3577 48.8551C91.3407 48.8179 91.324 48.7828 91.3048 48.746C91.2672 48.6717 91.2255 48.5995 91.1797 48.5299C91.1797 48.5299 91.1771 48.526 91.1762 48.5244C91.1472 48.4821 91.1177 48.4398 91.0865 48.3975C90.9769 48.2461 90.8501 48.1077 90.7086 47.985C90.6757 47.9559 90.6407 47.9267 90.604 47.8983C90.5252 47.8349 90.4422 47.7768 90.3554 47.7245C90.3277 47.7067 90.2999 47.6894 90.27 47.6741C90.2322 47.6513 90.1933 47.6304 90.1534 47.6115C90.1471 47.6082 90.1406 47.6053 90.1338 47.6031L89.9783 47.5316L85.9972 45.725L80.3558 20.6975C80.0841 19.4925 79.3403 18.4438 78.288 17.782C77.2357 17.1202 75.9611 16.8995 74.7446 17.1685L24.4925 28.2809C23.276 28.5499 22.2172 29.2866 21.549 30.3289C20.8808 31.3711 20.658 32.6336 20.9295 33.8385L26.5728 58.8648L23.7443 62.1785L23.6341 62.3084C23.6293 62.3134 23.6247 62.3188 23.6205 62.3244C23.3817 62.6267 23.2136 62.9778 23.1284 63.3522C23.0433 63.7267 23.0432 64.1152 23.1281 64.4897L31.0795 99.7629L31.0996 99.8526L31.1248 99.9634C31.1393 100.029 31.156 100.092 31.1765 100.155C31.1812 100.17 31.1859 100.184 31.1906 100.197C31.1953 100.211 31.197 100.219 31.2008 100.23C31.2047 100.241 31.2047 100.243 31.2068 100.249C31.2068 100.255 31.2124 100.261 31.2145 100.267C31.2269 100.304 31.2414 100.343 31.2572 100.38C31.2606 100.386 31.2628 100.394 31.2657 100.4C31.2722 100.414 31.279 100.428 31.2854 100.442L31.3059 100.487C31.3097 100.494 31.3127 100.502 31.317 100.51C31.3213 100.518 31.3234 100.524 31.3268 100.531C31.346 100.57 31.3665 100.61 31.3875 100.649L31.4016 100.672C31.4109 100.688 31.4203 100.704 31.4302 100.72C31.44 100.736 31.4502 100.756 31.4613 100.773C31.4874 100.812 31.5143 100.854 31.5403 100.891L31.5433 100.895C31.5621 100.921 31.5831 100.946 31.6027 100.971C31.6112 100.982 31.6185 100.995 31.627 101.006C31.6518 101.039 31.6813 101.072 31.7082 101.104C31.7125 101.109 31.7172 101.114 31.7214 101.119C31.7257 101.124 31.7342 101.132 31.7406 101.139C31.7582 101.158 31.7748 101.177 31.794 101.196C31.8013 101.203 31.8102 101.209 31.8179 101.217C31.8504 101.25 31.8833 101.282 31.9179 101.314C31.9247 101.32 31.9311 101.328 31.9384 101.334C31.9725 101.365 32.0088 101.394 32.0451 101.421C32.0626 101.436 32.0802 101.45 32.0985 101.464C32.1246 101.484 32.151 101.504 32.1767 101.521C32.1873 101.528 32.1989 101.534 32.21 101.542C32.2599 101.575 32.3108 101.607 32.3629 101.638L32.4128 101.666C32.4338 101.678 32.4555 101.69 32.476 101.701C32.5611 101.745 32.6485 101.785 32.7378 101.82C32.7528 101.826 32.7682 101.83 32.7831 101.836C32.8053 101.844 32.8258 101.852 32.8497 101.86L32.9556 101.895C32.9795 101.901 33.0039 101.906 33.0282 101.912C33.0526 101.918 33.082 101.925 33.1094 101.931C33.1367 101.937 33.1619 101.943 33.1888 101.949C33.2315 101.957 33.2742 101.962 33.3169 101.968L33.3387 101.972C33.3554 101.974 33.3712 101.979 33.3874 101.98L33.4527 101.986L33.4856 101.989H33.492C33.5475 101.994 33.6022 101.995 33.6569 101.995C33.6711 101.996 33.6854 101.996 33.6996 101.995H33.7214H33.7521C33.7858 101.995 33.8196 101.995 33.8533 101.992H33.8606L33.8858 101.99L33.9152 101.987C33.9357 101.987 33.9554 101.983 33.9755 101.981L34.0028 101.978C34.0096 101.978 34.0169 101.978 34.0237 101.976L34.1207 101.961C34.1668 101.953 34.2129 101.945 34.2586 101.935L97.3938 87.9729L97.5348 87.9416C97.5805 87.9314 97.6257 87.9196 97.671 87.9073L97.765 87.8803C97.7752 87.8777 97.7829 87.8739 97.7914 87.8722L97.8341 87.8557C97.8423 87.8557 97.8499 87.8502 97.8585 87.8481L97.9089 87.8308C97.9089 87.8282 97.9127 87.8274 97.917 87.8265L97.9781 87.8003C97.9943 87.7944 98.0127 87.788 98.0285 87.7804L98.0374 87.7762L98.1036 87.7445C98.1527 87.7208 98.2018 87.6967 98.2501 87.6692L98.2552 87.6662L98.2894 87.6459C98.3039 87.6375 98.3189 87.6294 98.3321 87.6205C98.3453 87.6117 98.3492 87.6104 98.3569 87.6062C98.3645 87.6019 98.3701 87.5969 98.3782 87.5931C98.3863 87.5892 98.3996 87.5757 98.4111 87.5681C98.5118 87.5025 98.6078 87.4302 98.6985 87.3515C98.7008 87.3495 98.7033 87.3477 98.7058 87.346C98.7203 87.3338 98.7348 87.3198 98.7485 87.3063C98.7626 87.295 98.7759 87.2827 98.7882 87.2695C98.8044 87.2547 98.8207 87.2382 98.8365 87.2221C98.8429 87.2157 98.8497 87.2077 98.857 87.2001L98.8779 87.1777C98.9031 87.1515 98.9266 87.1248 98.9505 87.0994C98.9532 87.0947 98.9567 87.0904 98.9607 87.0867C98.9761 87.069 98.9902 87.0491 99.0034 87.0305L99.0462 86.9793C99.0508 86.9729 99.056 86.9674 99.0607 86.9611C99.0654 86.9548 99.0692 86.9501 99.0726 86.9454C99.0859 86.9273 99.0991 86.9091 99.1106 86.8917C99.1222 86.8785 99.1326 86.8644 99.1418 86.8494C99.1504 86.8367 99.158 86.8249 99.1653 86.8126C99.1726 86.8004 99.1824 86.7856 99.1909 86.7703C99.2076 86.7441 99.2247 86.7179 99.2396 86.6904C99.2546 86.6629 99.2704 86.635 99.2853 86.6058C99.2943 86.5897 99.3024 86.5732 99.3109 86.5567C99.3331 86.5144 99.3536 86.4683 99.375 86.423C99.3818 86.404 99.3899 86.3846 99.398 86.3643C99.4032 86.352 99.4074 86.3393 99.4121 86.327C99.4237 86.2966 99.4361 86.2661 99.4459 86.2348C99.4548 86.2158 99.4587 86.1955 99.4655 86.1764C99.4724 86.1574 99.4783 86.1371 99.4847 86.1164C99.4911 86.0957 99.4967 86.0741 99.501 86.0542C99.5181 85.9946 99.53 85.9315 99.5437 85.8706C99.544 85.8646 99.5449 85.8587 99.5462 85.8529C99.5462 85.8326 99.5526 85.8127 99.5561 85.7903C99.5595 85.7678 99.5629 85.7433 99.5663 85.7188C99.5672 85.7166 99.5672 85.7142 99.5663 85.712C99.5693 85.6925 99.5702 85.6697 99.5719 85.6519C99.5736 85.6342 99.5761 85.6147 99.5774 85.5961C99.5774 85.5868 99.5774 85.5779 99.58 85.569C99.581 85.564 99.581 85.5588 99.58 85.5538C99.58 85.5276 99.583 85.4992 99.583 85.4692C99.584 85.4541 99.584 85.439 99.583 85.424C99.584 85.4154 99.584 85.4067 99.583 85.3981C99.5864 85.3901 99.5872 85.3804 99.5872 85.3711Z" fill="#EDB159"/>
</g>
<path d="M93.7385 45.5572L101.736 81.0317C101.745 81.074 101.753 81.1163 101.761 81.1641C101.765 81.1848 101.769 81.2057 101.771 81.2267C101.775 81.2467 101.778 81.2669 101.78 81.2872C101.78 81.2953 101.78 81.3041 101.784 81.3122C101.784 81.327 101.784 81.3397 101.786 81.3545C101.791 81.3858 101.792 81.4179 101.795 81.4496C101.798 81.4814 101.798 81.5114 101.798 81.5414C101.799 81.5567 101.799 81.5719 101.798 81.5871C101.8 81.5985 101.8 81.61 101.798 81.6214C101.799 81.6365 101.799 81.6516 101.798 81.6666C101.798 81.695 101.795 81.7233 101.795 81.7512C101.796 81.7563 101.796 81.7614 101.795 81.7665C101.791 81.8151 101.788 81.8629 101.781 81.9094C101.782 81.9116 101.782 81.914 101.781 81.9162C101.778 81.9407 101.775 81.9653 101.771 81.9877C101.767 82.0101 101.763 82.03 101.761 82.0503C101.76 82.0561 101.759 82.0621 101.759 82.0681C101.746 82.129 101.734 82.192 101.716 82.2521C101.712 82.2703 101.706 82.2944 101.7 82.3138C101.694 82.3333 101.687 82.3532 101.681 82.3743C101.675 82.3955 101.67 82.4132 101.661 82.4323C101.648 82.472 101.633 82.5118 101.618 82.5498C101.609 82.5756 101.599 82.5972 101.59 82.6205C101.566 82.6738 101.543 82.7262 101.515 82.7774C101.495 82.8163 101.475 82.8531 101.455 82.8878C101.435 82.9246 101.412 82.9601 101.39 82.9953C101.38 83.0122 101.369 83.0278 101.357 83.0456C101.348 83.0605 101.338 83.0746 101.326 83.0879C101.315 83.1052 101.301 83.1234 101.288 83.1416C101.285 83.1467 101.28 83.1522 101.276 83.1573C101.245 83.1996 101.21 83.2419 101.176 83.2842C101.172 83.2879 101.169 83.2923 101.166 83.2973C101.138 83.3269 101.11 83.359 101.081 83.3895C101.07 83.4005 101.061 83.4111 101.052 83.4195C101.036 83.436 101.02 83.4521 101.004 83.4669C100.992 83.4801 100.979 83.4924 100.964 83.5037C100.95 83.5177 100.936 83.5316 100.922 83.5434C100.82 83.6349 100.71 83.7175 100.594 83.7905C100.586 83.7943 100.581 83.7998 100.573 83.8036C100.565 83.8074 100.556 83.8142 100.548 83.818C100.521 83.8345 100.494 83.8514 100.465 83.8666C100.417 83.8945 100.368 83.9182 100.319 83.9419L100.242 83.9783C100.226 83.9858 100.209 83.9925 100.192 83.9982L100.13 84.0244C100.126 84.0244 100.124 84.0244 100.123 84.0286L100.072 84.046C100.064 84.046 100.056 84.0519 100.048 84.0536L100.005 84.0701C99.9967 84.0701 99.989 84.0756 99.9787 84.0781L99.8848 84.1052C99.8395 84.1175 99.7942 84.1297 99.7486 84.1395L36.4685 98.1294C36.4228 98.1396 36.3767 98.1476 36.3306 98.1557L36.2336 98.1705C36.1977 98.1763 36.1615 98.1799 36.1252 98.1815C36.1045 98.1844 36.0837 98.1861 36.0628 98.1866C36.012 98.1916 35.9599 98.192 35.9095 98.1925C35.8953 98.1935 35.881 98.1935 35.8668 98.1925C35.8121 98.1925 35.7575 98.1904 35.702 98.1857C35.6686 98.1823 35.6375 98.1802 35.6063 98.1764C35.4569 98.1598 35.3091 98.1315 35.1643 98.0918L35.0584 98.0567C35.0187 98.044 34.9781 98.0292 34.9396 98.0144C34.7041 97.9226 34.483 97.7978 34.2833 97.6439C34.2363 97.6092 34.191 97.5715 34.147 97.5318C33.9969 97.4005 33.8633 97.2518 33.749 97.0889C33.7229 97.0517 33.696 97.0102 33.67 96.9705C33.6439 96.9307 33.6209 96.8888 33.5961 96.8465C33.5713 96.8042 33.5508 96.7619 33.5303 96.7196C33.5098 96.6773 33.4928 96.6397 33.4744 96.5982C33.471 96.5927 33.4693 96.5843 33.4659 96.5788C33.4505 96.539 33.4342 96.4971 33.421 96.4569C33.4184 96.4569 33.4176 96.451 33.4167 96.4472C33.4052 96.4151 33.3958 96.3846 33.3864 96.3525C33.3659 96.2899 33.3497 96.2256 33.3347 96.1608L25.338 60.6867C25.2531 60.3122 25.2532 59.9238 25.3383 59.5493C25.4234 59.1749 25.5913 58.8238 25.83 58.5214C25.8344 58.516 25.8391 58.5108 25.8441 58.5058L25.9542 58.3755C26.3173 57.9754 26.7977 57.698 27.3281 57.582L90.6039 43.5861C90.6647 43.5719 90.7263 43.5612 90.7883 43.5539C90.7991 43.5499 90.8106 43.5481 90.8221 43.5484C90.881 43.5395 90.9425 43.5328 91.0006 43.5285L91.0412 43.526C91.0928 43.523 91.1449 43.5222 91.1953 43.526C91.2084 43.5251 91.2215 43.5251 91.2346 43.526C91.2983 43.526 91.3598 43.5306 91.4221 43.5366C91.4845 43.5425 91.5404 43.5493 91.5972 43.5581C91.6783 43.5711 91.7586 43.5887 91.8376 43.6106C91.8803 43.6207 91.9252 43.6322 91.9658 43.6465C92.0404 43.6687 92.1134 43.6959 92.1844 43.7278C92.1844 43.7252 92.1865 43.7278 92.1865 43.7278L92.342 43.7992C92.3488 43.8015 92.3554 43.8043 92.3616 43.8077C92.4044 43.8267 92.4407 43.85 92.4782 43.8703C92.5077 43.8855 92.5355 43.9029 92.5636 43.9206C92.6503 43.973 92.7334 44.0311 92.8122 44.0945C92.8489 44.1228 92.8839 44.152 92.9168 44.1791C93.0584 44.302 93.1853 44.4405 93.2952 44.5919C93.326 44.6342 93.3554 44.6765 93.3845 44.7188C93.3845 44.7188 93.3875 44.7222 93.3883 44.7243C93.4336 44.7942 93.4752 44.8664 93.513 44.9405C93.5322 44.9773 93.5489 45.0124 93.566 45.0496C93.5792 45.0792 93.592 45.1063 93.6031 45.1363C93.6142 45.1663 93.6275 45.1955 93.6381 45.2256C93.6529 45.2609 93.6654 45.297 93.6757 45.3338C93.6869 45.3643 93.6961 45.3954 93.7035 45.4269C93.7163 45.4692 93.7287 45.514 93.7385 45.5572Z" fill="#F9C067"/>
<path d="M93.3896 44.7239L25.2953 59.7824C25.3559 59.3214 25.5403 58.8849 25.8291 58.5185C25.8335 58.513 25.8383 58.5078 25.8432 58.5028L25.9534 58.3725L52.1537 27.6765C52.5284 27.2368 53.0383 26.9308 53.6052 26.8054C54.1722 26.68 54.7651 26.7422 55.293 26.9824L92.1857 43.7256C92.1857 43.7231 92.1878 43.7256 92.1878 43.7256L92.3433 43.7971C92.3501 43.7994 92.3566 43.8022 92.3629 43.8056C92.4056 43.8246 92.4419 43.8479 92.4795 43.8682C92.509 43.8834 92.5367 43.9008 92.5649 43.9185C92.6516 43.9709 92.7346 44.029 92.8135 44.0924C92.8502 44.1207 92.8852 44.1499 92.9181 44.177C93.0597 44.2999 93.1866 44.4384 93.2965 44.5898C93.3272 44.6321 93.3567 44.6744 93.3857 44.7167C93.3862 44.7201 93.3887 44.7218 93.3896 44.7239Z" fill="#DD9B31"/>
<path d="M94.6038 70.2948L35.1788 83.4358L23.1404 30.032C22.8688 28.827 23.0917 27.5645 23.7598 26.5223C24.428 25.48 25.4868 24.7434 26.7034 24.4743L76.9528 13.3623C77.5552 13.2288 78.1782 13.2142 78.7863 13.3193C79.3944 13.4244 79.9756 13.6471 80.4967 13.9748C81.0178 14.3025 81.4686 14.7287 81.8233 15.2291C82.1781 15.7295 82.4297 16.2942 82.564 16.8909L94.6038 70.2948Z" fill="white"/>
<path d="M78.0794 33.6951L34.4153 43.3507C34.1204 43.4151 33.8118 43.3613 33.5568 43.201C33.3019 43.0408 33.1213 42.7871 33.0546 42.4954L32.9491 42.0267C32.8842 41.7346 32.9385 41.4289 33.1004 41.1764C33.2623 40.9239 33.5185 40.7451 33.8131 40.6791L77.4785 31.0226C77.7734 30.9583 78.082 31.0121 78.337 31.1723C78.5919 31.3326 78.7725 31.5862 78.8392 31.8779L78.9447 32.3466C79.0099 32.639 78.9554 32.9451 78.7933 33.1979C78.6311 33.4506 78.3744 33.6294 78.0794 33.6951Z" fill="#E4ECF9"/>
<path d="M79.3657 39.4031L35.7015 49.0591C35.4067 49.1235 35.0981 49.0697 34.8431 48.9094C34.5882 48.7492 34.4076 48.4955 34.3409 48.2038L34.2354 47.7351C34.1706 47.443 34.225 47.1374 34.3869 46.8849C34.5487 46.6324 34.8049 46.4536 35.0994 46.3875L78.7636 36.7314C79.0585 36.6673 79.367 36.7213 79.6219 36.8816C79.8768 37.0419 80.0574 37.2955 80.1242 37.5872L80.2297 38.0558C80.2946 38.3479 80.2403 38.6536 80.0784 38.906C79.9165 39.1585 79.6602 39.3372 79.3657 39.4031Z" fill="#E4ECF9"/>
<path d="M80.6524 45.1086L36.9883 54.7659C36.6934 54.8303 36.3848 54.7765 36.1298 54.6162C35.8749 54.4559 35.6943 54.2023 35.6276 53.9106L35.5221 53.4419C35.4571 53.1498 35.5115 52.8441 35.6734 52.5916C35.8353 52.339 36.0915 52.1602 36.3861 52.0943L80.0503 42.4387C80.3451 42.3743 80.6536 42.4281 80.9085 42.5884C81.1634 42.7486 81.3438 43.0023 81.4105 43.2939L81.5164 43.7626C81.5809 44.0545 81.5262 44.3598 81.3644 44.6119C81.2025 44.864 80.9466 45.0426 80.6524 45.1086Z" fill="#E4ECF9"/>
<path d="M81.9388 50.8189L38.2742 60.4733C37.9793 60.5377 37.6707 60.4838 37.4159 60.3234C37.161 60.1631 36.9805 59.9093 36.914 59.6176L36.8081 59.1493C36.7434 58.8572 36.7978 58.5516 36.9597 58.2992C37.1215 58.0467 37.3776 57.8679 37.6721 57.8017L81.3367 48.1456C81.6314 48.0814 81.9399 48.1351 82.1947 48.2952C82.4496 48.4552 82.6303 48.7086 82.6973 49.0001L82.8028 49.4688C82.8686 49.7613 82.8147 50.0677 82.6527 50.3208C82.4907 50.5739 82.234 50.7531 81.9388 50.8189Z" fill="#E4ECF9"/>
<path d="M83.2255 56.5246L39.5613 66.1806C39.2664 66.245 38.9577 66.1911 38.7028 66.0308C38.4478 65.8704 38.2673 65.6167 38.2007 65.3249L38.0952 64.8567C38.0302 64.5647 38.0843 64.2591 38.2458 64.0066C38.4074 63.7541 38.6632 63.575 38.9575 63.5086L82.6216 53.8525C82.9166 53.7884 83.2251 53.8424 83.48 54.0027C83.7349 54.163 83.9154 54.4166 83.9823 54.7083L84.0878 55.1769C84.1528 55.4688 84.0986 55.7743 83.9371 56.0268C83.7756 56.2793 83.5198 56.4582 83.2255 56.5246Z" fill="#E4ECF9"/>
<path d="M51.1378 28.8485L32.0951 33.0598C31.8002 33.124 31.4916 33.07 31.2367 32.9097C30.9818 32.7494 30.8013 32.4958 30.7345 32.2041L30.629 31.7354C30.5641 31.4434 30.6186 31.1378 30.7804 30.8854C30.9423 30.6329 31.1985 30.4542 31.4929 30.3882L50.5357 26.1769C50.8306 26.1125 51.1393 26.1664 51.3942 26.3268C51.6492 26.4871 51.8297 26.7409 51.8963 27.0326L52.0018 27.5009C52.0667 27.793 52.0122 28.0987 51.8503 28.3511C51.6885 28.6036 51.4323 28.7824 51.1378 28.8485Z" fill="#79C7D0"/>
<path d="M63.7515 71.8085V71.8106C63.673 71.9451 63.5762 72.0683 63.4636 72.1765L36.6087 98.0978L36.4677 98.1291C36.2157 98.1856 35.9566 98.2043 35.699 98.1845L35.5944 98.1752C35.1577 98.1261 34.7407 97.9682 34.3824 97.7163C34.3486 97.6934 34.3149 97.6685 34.2803 97.6414C34.1817 97.5648 34.0892 97.4808 34.0036 97.3901C33.9728 97.3601 33.9464 97.3292 33.9182 97.2988C33.89 97.2683 33.8618 97.2336 33.837 97.2002C33.5925 96.8944 33.4213 96.5376 33.3361 96.1567L25.3393 60.6826C25.2545 60.3081 25.2546 59.9196 25.3396 59.5452C25.4247 59.1707 25.5926 58.8197 25.8313 58.5173C25.8357 58.5118 25.8404 58.5066 25.8454 58.5016L25.9556 58.3714C26.3187 57.9713 26.7991 57.6938 27.3294 57.5778C27.7124 57.493 28.1117 57.5154 28.4825 57.6425L31.0274 58.5143L59.7098 68.3463L60.7885 68.716L62.847 69.4216C62.9952 69.473 63.1357 69.5442 63.2646 69.6331V69.6352C63.6026 69.8738 63.8394 70.2279 63.9293 70.6293C64.0192 71.0306 63.9559 71.4507 63.7515 71.8085Z" fill="#F4A351"/>
<path d="M93.7385 45.5572L101.736 81.0317C101.745 81.074 101.753 81.1163 101.761 81.1641C101.765 81.1848 101.769 81.2057 101.771 81.2267C101.775 81.2467 101.778 81.2669 101.78 81.2872C101.78 81.2953 101.78 81.3041 101.784 81.3122C101.784 81.327 101.784 81.3397 101.786 81.3545C101.791 81.3858 101.792 81.4179 101.795 81.4496C101.798 81.4814 101.798 81.5114 101.798 81.5414C101.798 81.5457 101.798 81.5524 101.798 81.5562C101.799 81.5665 101.799 81.5768 101.798 81.5871C101.8 81.5985 101.8 81.61 101.798 81.6214C101.799 81.6365 101.799 81.6516 101.798 81.6666C101.798 81.695 101.798 81.7208 101.795 81.7512C101.796 81.7563 101.796 81.7614 101.795 81.7665C101.792 81.8143 101.788 81.8629 101.781 81.9094C101.782 81.9116 101.782 81.914 101.781 81.9162C101.778 81.9407 101.776 81.9627 101.771 81.9877C101.766 82.0127 101.765 82.0279 101.761 82.0503C101.76 82.0562 101.759 82.0621 101.759 82.0681C101.746 82.129 101.734 82.192 101.716 82.2521C101.712 82.2703 101.706 82.2944 101.7 82.3138C101.694 82.3333 101.687 82.3532 101.681 82.3743C101.675 82.3955 101.67 82.4132 101.661 82.4323C101.648 82.472 101.633 82.5118 101.618 82.5498C101.609 82.5756 101.599 82.5972 101.59 82.6205C101.566 82.6759 101.541 82.7267 101.515 82.7774C101.495 82.8163 101.475 82.8531 101.455 82.8878C101.435 82.9246 101.412 82.9601 101.39 82.9953C101.38 83.0122 101.369 83.0278 101.357 83.0456C101.348 83.0605 101.338 83.0746 101.326 83.0879C101.315 83.1052 101.301 83.1234 101.288 83.1416C101.285 83.1467 101.28 83.1522 101.276 83.1573C101.245 83.1996 101.21 83.2419 101.176 83.2842C101.172 83.2879 101.169 83.2923 101.166 83.2973C101.138 83.3269 101.11 83.359 101.081 83.3895C101.07 83.4005 101.061 83.4111 101.052 83.4195C101.036 83.436 101.02 83.4521 101.004 83.4669C100.992 83.4801 100.979 83.4924 100.964 83.5037C100.95 83.5177 100.936 83.5316 100.922 83.5434C100.82 83.6349 100.71 83.7175 100.594 83.7905C100.586 83.7943 100.579 83.8002 100.573 83.8036C100.567 83.807 100.556 83.8142 100.548 83.818C100.521 83.8345 100.494 83.8514 100.465 83.8666C100.417 83.8945 100.368 83.9182 100.319 83.9419L100.242 83.9783C100.226 83.9858 100.209 83.9925 100.192 83.9982L100.13 84.0244H100.124C100.106 84.0303 100.089 84.0388 100.072 84.0443C100.064 84.0443 100.056 84.0502 100.048 84.0519L100.005 84.0684C99.9967 84.0684 99.989 84.0739 99.9788 84.0764L99.8848 84.1035C99.8395 84.1158 99.7943 84.128 99.7486 84.1378L99.6076 84.1691L64.1712 72.0229C64.0233 71.9722 63.8834 71.901 63.7557 71.8114V71.8093C63.4163 71.5716 63.1782 71.2175 63.0877 70.8157C62.9972 70.4139 63.0607 69.9931 63.2659 69.6351V69.633C63.343 69.4984 63.4392 69.3755 63.5516 69.2679L65.1095 67.7625L65.9269 66.9732L87.6644 45.9929L89.6361 44.0894C89.8879 43.8455 90.2031 43.6757 90.5466 43.5987L90.6056 43.5861C90.6664 43.5719 90.728 43.5612 90.7901 43.5539C90.8008 43.5499 90.8123 43.5481 90.8238 43.5484C90.8827 43.5395 90.9442 43.5328 91.0023 43.5285L91.0429 43.526C91.0946 43.523 91.1467 43.5222 91.1971 43.526C91.2101 43.5251 91.2233 43.5251 91.2363 43.526C91.3 43.526 91.3615 43.5306 91.4238 43.5366C91.4862 43.5425 91.5421 43.5493 91.5989 43.5581C91.68 43.5711 91.7603 43.5887 91.8394 43.6106C91.8821 43.6207 91.9269 43.6322 91.9675 43.6465C92.0421 43.6687 92.1152 43.6959 92.1861 43.7278C92.1861 43.7252 92.1883 43.7278 92.1883 43.7278L92.3437 43.7992C92.3505 43.8015 92.3571 43.8043 92.3634 43.8077C92.4061 43.8267 92.4424 43.85 92.48 43.8703C92.5094 43.8855 92.5372 43.9029 92.5654 43.9206C92.652 43.973 92.7351 44.0311 92.8139 44.0945C92.8506 44.1228 92.8857 44.152 92.9186 44.1791C93.0601 44.302 93.187 44.4405 93.2969 44.5919C93.3277 44.6342 93.3571 44.6765 93.3862 44.7188C93.3862 44.7188 93.3892 44.7222 93.39 44.7243C93.4353 44.7942 93.4769 44.8664 93.5147 44.9405C93.5339 44.9773 93.5506 45.0124 93.5677 45.0496C93.5809 45.0792 93.5937 45.1063 93.6048 45.1363C93.6159 45.1663 93.6292 45.1955 93.6399 45.2256C93.6546 45.2609 93.6672 45.297 93.6774 45.3338C93.6886 45.3643 93.6978 45.3954 93.7052 45.4269C93.7163 45.4692 93.7287 45.514 93.7385 45.5572Z" fill="#F4A351"/>
<g style="mix-blend-mode:multiply" opacity="0.25">
<path d="M101.627 80.5521L101.712 80.9214C102.042 82.3841 101.162 83.8244 99.7477 84.1361L36.4686 98.1304C35.0533 98.4434 33.6384 97.5107 33.3083 96.0476L33.2229 95.6787L60.9905 67.2744C61.4081 66.8439 61.9446 66.5448 62.533 66.4147C63.1213 66.2846 63.7353 66.3293 64.2981 66.5431L101.627 80.5521Z" fill="#8E5F13"/>
</g>
<path d="M101.656 80.6787L101.735 81.0323C101.887 81.7054 101.762 82.4105 101.389 82.9927C101.016 83.5748 100.424 83.9863 99.7448 84.1366L36.4687 98.13C36.1321 98.2044 35.7841 98.2125 35.4444 98.1537C35.1048 98.0949 34.7801 97.9704 34.4891 97.7873C34.198 97.6042 33.9462 97.3661 33.748 97.0867C33.5498 96.8072 33.4091 96.4918 33.334 96.1585L33.2542 95.8053L61.2199 68.2893C61.6454 67.8708 62.1817 67.5801 62.7669 67.4506C63.3521 67.3212 63.9623 67.3584 64.5271 67.5579L101.656 80.6787Z" fill="#F9C067"/>
<g style="mix-blend-mode:multiply" opacity="0.18">
<path d="M102.099 33.646C107.784 28.0155 107.784 18.8868 102.099 13.2564C96.4148 7.62591 87.1982 7.62592 81.5135 13.2564C75.8289 18.8868 75.8289 28.0155 81.5135 33.646C87.1982 39.2764 96.4148 39.2764 102.099 33.646Z" fill="#EDB159"/>
</g>
<path d="M93.7129 35.6693C101.752 35.6693 108.269 29.2143 108.269 21.2516C108.269 13.289 101.752 6.83398 93.7129 6.83398C85.6736 6.83398 79.1565 13.289 79.1565 21.2516C79.1565 29.2143 85.6736 35.6693 93.7129 35.6693Z" fill="#79C7D0"/>
<path d="M96.6874 17.6982L97.1423 16.7253L99.5932 17.2502L96.7421 23.5405C96.5644 23.939 96.4608 24.2056 96.4312 24.3404C96.4005 24.4814 96.4121 24.5994 96.4662 24.6944C96.4889 24.7385 96.5213 24.777 96.5608 24.8071C96.6004 24.8372 96.6463 24.8583 96.6951 24.8687C97.0297 24.9403 97.5085 24.8167 98.1318 24.4977C98.755 24.1788 99.3442 23.6888 99.8994 23.0278C100.455 22.3677 100.829 21.596 101.022 20.7128C101.182 19.9997 101.193 19.2615 101.053 18.5441C100.916 17.8396 100.626 17.173 100.202 16.5908C99.7751 15.9986 99.1991 15.4838 98.4743 15.0464C97.7494 14.6091 96.8923 14.2848 95.9029 14.0736C94.8942 13.8575 93.9404 13.7896 93.0416 13.8697C92.1428 13.9498 91.3214 14.1653 90.5775 14.5164C89.8249 14.8733 89.149 15.3705 88.5865 15.9808C88.0579 16.546 87.6141 17.1837 87.269 17.8741C86.9051 18.5915 86.6346 19.3518 86.464 20.1367C86.2339 21.1908 86.2354 22.2002 86.4683 23.1649C86.7006 24.1278 87.1701 25.0188 87.8349 25.7582C88.513 26.5227 89.3975 27.1519 90.4882 27.6456C91.5789 28.1394 92.8614 28.4671 94.3356 28.6287C95.5106 28.7389 96.537 28.6893 97.4147 28.4798C98.2838 28.2746 99.0939 27.8752 99.7832 27.3123L101.761 27.7353C101.301 28.3176 100.746 28.82 100.119 29.2217C99.4725 29.6334 98.7641 29.9414 98.0203 30.1341C97.2021 30.344 96.3595 30.4467 95.5143 30.4395C94.6141 30.4395 93.6563 30.3305 92.641 30.1125C91.1187 29.7862 89.7911 29.2949 88.6582 28.6384C87.5254 27.9819 86.624 27.1923 85.9541 26.2696C85.289 25.3572 84.8421 24.307 84.6473 23.1983C84.4457 22.074 84.4816 20.8865 84.7549 19.6359C85.0396 18.3305 85.5256 17.1577 86.2129 16.1174C86.8749 15.1033 87.7411 14.2354 88.7573 13.5681C89.766 12.9082 90.9177 12.47 92.2122 12.2534C93.5068 12.0368 94.872 12.0822 96.3078 12.3896C97.4839 12.6417 98.5252 13.0429 99.4317 13.593C100.338 14.1432 101.072 14.8121 101.632 15.5997C102.189 16.3793 102.566 17.2701 102.738 18.2095C102.916 19.1616 102.889 20.165 102.659 21.22C102.289 22.8868 101.326 24.3663 99.9459 25.3886C99.2662 25.8929 98.4911 26.2569 97.6667 26.4591C96.833 26.6639 95.9626 26.6736 95.1244 26.4875C94.623 26.38 94.2515 26.2121 94.0098 25.9837C93.768 25.7553 93.6409 25.4473 93.6284 25.0599C92.9736 25.4719 92.282 25.6718 91.5537 25.6597C90.8414 25.6531 90.1476 25.434 89.5627 25.0311C88.9649 24.6239 88.5323 24.0612 88.2649 23.343C87.9976 22.6247 87.9648 21.8029 88.1667 20.8774C88.3768 19.9146 88.7925 19.0122 89.4137 18.1702C90.0349 17.3282 90.7958 16.6923 91.6964 16.2625C92.5665 15.8367 93.5578 15.7195 94.5047 15.9305C95.6205 16.1688 96.3481 16.758 96.6874 17.6982ZM90.5689 21.3731C90.4083 22.1088 90.4399 22.7059 90.6637 23.1645C90.8875 23.623 91.2501 23.9061 91.7514 24.0138C92.3325 24.1382 92.8948 24.0179 93.4383 23.653C93.9819 23.2881 94.4444 22.7793 94.8259 22.1264C95.191 21.5171 95.457 20.8546 95.6142 20.1633C95.6827 19.8674 95.7083 19.5633 95.6902 19.2603C95.6733 18.9978 95.6075 18.7407 95.4964 18.5018C95.3936 18.2812 95.2391 18.088 95.0458 17.9384C94.8404 17.7853 94.6028 17.68 94.3506 17.6305C93.8056 17.5143 93.2692 17.6192 92.7414 17.9452C92.2135 18.2712 91.758 18.7448 91.3748 19.366C90.9944 19.9849 90.722 20.6629 90.5689 21.3714V21.3731Z" fill="#F9F9F9"/>
<g style="mix-blend-mode:multiply" opacity="0.18">
<path d="M33.8819 3.19157L0 1.86719L6.96966 9.28052L5.14739 20.4026L13.0869 15.7734L16.465 19.346L33.8819 3.19157Z" fill="#EDB159"/>
</g>
<path d="M5.56812 19.0783L8.22957 2.83203L34.3022 1.86719L5.56812 19.0783Z" fill="#46C1AA"/>
<path d="M7.43723 8.00622C7.57517 7.96392 34.3016 1.86735 34.3016 1.86735L0.420166 0.542969L7.43723 8.00622Z" fill="#79C7D0"/>
<path d="M9.8191 10.5488L5.56812 19.0784L18.7276 11.4058L9.8191 10.5488Z" fill="#3CAF99"/>
<path d="M9.81909 10.5487L16.8853 18.0216L34.3022 1.86719L9.81909 10.5487Z" fill="#79C7D0"/>
<path d="M58.4069 1.04808L60.2919 0.0663195C60.388 0.0163287 60.4964 -0.00603295 60.6047 0.00176074C60.713 0.00955444 60.8169 0.0471928 60.9047 0.110423C60.9926 0.173654 61.0608 0.259954 61.1017 0.359573C61.1426 0.459192 61.1546 0.568159 61.1362 0.674157L60.7762 2.75316C60.7603 2.84536 60.7673 2.93999 60.7966 3.02893C60.8258 3.11786 60.8764 3.19843 60.944 3.26371L62.4691 4.73614C62.5469 4.81124 62.6019 4.90642 62.6279 5.01089C62.6539 5.11536 62.6499 5.22496 62.6163 5.32729C62.5828 5.42962 62.5209 5.52059 62.4378 5.58992C62.3547 5.65925 62.2537 5.70417 62.1462 5.71959L60.0387 6.02287C59.9452 6.03628 59.8565 6.07202 59.7802 6.127C59.7038 6.18197 59.6422 6.25455 59.6005 6.33843L58.658 8.23004C58.6099 8.32657 58.5356 8.40785 58.4433 8.46468C58.351 8.52151 58.2445 8.55164 58.1359 8.55164C58.0272 8.55164 57.9207 8.52151 57.8285 8.46468C57.7362 8.40785 57.6618 8.32657 57.6138 8.23004L56.6713 6.33843C56.6294 6.25458 56.5677 6.18205 56.4913 6.12708C56.4149 6.07212 56.3261 6.03635 56.2327 6.02287L54.1251 5.71959C54.0176 5.70411 53.9167 5.65914 53.8336 5.58978C53.7506 5.52043 53.6888 5.42945 53.6553 5.32713C53.6217 5.22481 53.6178 5.11523 53.6438 5.01079C53.6699 4.90635 53.7249 4.81122 53.8027 4.73614L55.3277 3.26371C55.3953 3.19841 55.4459 3.11783 55.475 3.02889C55.5042 2.93995 55.5111 2.84532 55.4951 2.75316L55.1351 0.674157C55.1167 0.568102 55.1287 0.459063 55.1696 0.35938C55.2105 0.259696 55.2788 0.173346 55.3667 0.110098C55.4546 0.0468498 55.5586 0.0092289 55.667 0.00149224C55.7753 -0.00624441 55.8837 0.0162114 55.9799 0.0663195L57.8649 1.04808C57.9485 1.09161 58.0415 1.11436 58.1359 1.11436C58.2303 1.11436 58.3233 1.09161 58.4069 1.04808Z" fill="#F4A351"/>
</svg>
