<svg width="109" height="23" viewBox="0 0 109 23" fill="none" xmlns="http://www.w3.org/2000/svg">
<g clip-path="url(#clip0_552_8701)">
<path d="M30.3482 5.26349C29.9706 5.26349 29.7009 5.53134 29.7009 5.90633V18.4595C28.7839 18.638 27.759 18.8345 26.7521 18.8345C24.5405 18.8345 23.8033 18.0131 23.8033 15.6381V5.92419C23.8033 5.5492 23.5336 5.28135 23.2459 5.28135H19.9195V15.6203C19.9195 20.4773 22.5087 22.0308 26.6442 22.0308C29.9706 22.0308 33.279 21.1201 33.5667 21.0308V5.28135H30.3482V5.26349ZM81.1611 21.8344C81.4309 21.8344 81.8084 21.5665 81.8084 21.1915V8.5491C82.7254 8.37053 83.7503 8.17411 84.7573 8.17411C86.9689 8.17411 87.7061 8.99551 87.7061 11.3704V21.1737C87.7061 21.5487 87.9758 21.8165 88.2635 21.8165H91.5899V11.3704C91.5899 6.51346 89.0007 4.95993 84.8651 4.95993C81.5387 4.95993 78.2303 5.87062 77.9426 5.9599V21.7987H81.1611V21.8344ZM67.8735 4.97779C63.5402 4.97779 60.8611 7.26343 60.8611 12.299V14.7632C60.8611 20.263 63.8099 22.0844 66.9386 22.0844C68.5029 22.0844 70.1571 20.9773 70.6246 20.3523V21.3522C70.6246 21.6201 70.8943 21.9058 71.182 21.9058C71.182 21.9058 74.4005 21.9058 74.5083 21.9058V5.88847C74.5983 5.90633 71.3797 4.97779 67.8735 4.97779ZM70.7324 17.7988C69.9952 18.4416 69.4378 18.7988 67.8735 18.7988C65.6619 18.888 64.7449 17.5131 64.7449 14.6739V12.3883C64.7449 9.19193 65.9496 8.26339 67.8735 8.26339C69.4378 8.26339 70.3549 8.35268 70.7324 8.44196V17.7988ZM101.353 4.97779C97.02 4.97779 94.3409 7.26343 94.3409 12.299V14.7632C94.3409 20.263 97.2897 22.0844 100.526 22.0844C102.09 22.0844 103.745 20.9773 104.212 20.3523V21.3522C104.212 21.6201 104.482 21.9058 104.77 21.9058C104.77 21.9058 107.988 21.9058 108.096 21.9058V5.88847C108.078 5.90633 104.859 4.97779 101.353 4.97779ZM104.212 17.7988C103.475 18.4416 102.918 18.7988 101.353 18.7988C99.1417 18.7988 98.2247 17.5131 98.2247 14.6739V12.3883C98.2247 9.08479 99.4294 8.26339 101.353 8.26339C102.918 8.26339 103.835 8.35268 104.212 8.44196V17.7988ZM0.194824 21.8344C0.752221 21.8344 3.70103 21.8344 3.70103 21.8344C3.97074 21.8344 4.25842 21.5665 4.25842 21.2808V12.1204H10.7134C11.8282 12.1204 12.5654 12.9418 12.5654 13.8525V21.263C12.5654 21.5308 12.8351 21.8165 13.1228 21.8165C13.1228 21.8165 16.4492 21.8165 16.629 21.8165C16.629 21.8165 16.629 0.210094 16.629 0.0136719H13.1048C12.8351 0.0136719 12.5474 0.281521 12.5474 0.567226V8.81695H5.91263C4.99563 8.81695 4.34833 8.08483 4.34833 7.26343V0.585078C4.25842 0.406513 4.07862 0.0315295 3.70103 0.0315295H0.194824C0.194824 0.227952 0.194824 21.8344 0.194824 21.8344ZM52.1046 4.97779C50.2526 4.97779 48.5085 5.70991 47.6814 6.26346C46.4767 5.35278 44.8225 4.97779 42.7907 4.97779C39.752 4.97779 37.1628 5.88848 36.8032 6.0849V21.9236H40.1296C40.5072 21.9236 40.687 21.6558 40.687 21.2808V8.5491C41.5141 8.37053 42.1614 8.28125 42.7188 8.28125C45.0203 8.28125 45.5777 9.19193 45.5777 11.4776V21.2808C45.5777 21.5487 45.7575 21.9236 46.1351 21.9236H48.9041C49.2817 21.9236 49.4615 21.6558 49.4615 21.2808V9.01337C50.1088 8.5491 50.9359 8.28125 51.763 8.28125C53.5071 8.28125 54.2443 9.10265 54.2443 11.2097V21.2808C54.2443 21.5487 54.4241 21.9236 54.8017 21.9236C54.8017 21.9236 57.8404 21.9236 58.1281 21.9236V10.6562C58.2 6.45989 55.5209 4.97779 52.1046 4.97779Z" fill="white" fill-opacity="0.75"/>
</g>
<defs>
<clipPath id="clip0_552_8701">
<rect width="107.901" height="22.0707" fill="white" transform="translate(0.194824 0.0136719)"/>
</clipPath>
</defs>
</svg>
