<svg width="32" height="33" viewBox="0 0 32 33" fill="none" xmlns="http://www.w3.org/2000/svg">
<g clip-path="url(#clip0_88_677)">
<path d="M16 32.9639C24.8366 32.9639 32 25.8004 32 16.9639C32 8.12731 24.8366 0.963867 16 0.963867C7.16344 0.963867 0 8.12731 0 16.9639C0 25.8004 7.16344 32.9639 16 32.9639Z" fill="url(#paint0_linear_88_677)"/>
<path d="M19.3991 8.0752H12.608C9.57867 8.0752 7.11823 10.5356 7.11823 13.565V20.3561C7.11823 23.3854 9.57867 25.8459 12.608 25.8459H19.3991C22.4284 25.8459 24.8889 23.3854 24.8889 20.3561V13.565C24.8889 10.5356 22.4284 8.0752 19.3991 8.0752ZM22.9049 20.3632C22.9049 22.2974 21.3333 23.8761 19.392 23.8761H12.6009C10.6667 23.8761 9.088 22.3045 9.088 20.3632V13.5721C9.088 11.6379 10.6596 10.0592 12.6009 10.0592H19.392C21.3262 10.0592 22.9049 11.6308 22.9049 13.5721V20.3632Z" fill="white"/>
<path d="M16.0001 12.4204C13.4969 12.4204 11.4561 14.4613 11.4561 16.9644C11.4561 19.4675 13.4969 21.5084 16.0001 21.5084C18.5032 21.5084 20.5441 19.4675 20.5441 16.9644C20.5441 14.4613 18.5032 12.4204 16.0001 12.4204ZM16.0001 19.7235C14.4783 19.7235 13.2409 18.4862 13.2409 16.9644C13.2409 15.4426 14.4783 14.2053 16.0001 14.2053C17.5218 14.2053 18.7592 15.4426 18.7592 16.9644C18.7592 18.4862 17.5218 19.7235 16.0001 19.7235Z" fill="white"/>
<path d="M20.8901 12.9185C21.3087 12.8507 21.5931 12.4563 21.5252 12.0376C21.4573 11.619 21.0629 11.3346 20.6443 11.4025C20.2257 11.4704 19.9413 11.8648 20.0092 12.2834C20.077 12.702 20.4714 12.9864 20.8901 12.9185Z" fill="white"/>
</g>
<defs>
<linearGradient id="paint0_linear_88_677" x1="3.81717" y1="29.1467" x2="26.555" y2="6.40892" gradientUnits="userSpaceOnUse">
<stop stop-color="#FEE411"/>
<stop offset="0.0518459" stop-color="#FEDB16"/>
<stop offset="0.1381" stop-color="#FEC125"/>
<stop offset="0.2481" stop-color="#FE983D"/>
<stop offset="0.3762" stop-color="#FE5F5E"/>
<stop offset="0.5" stop-color="#FE2181"/>
<stop offset="1" stop-color="#9000DC"/>
</linearGradient>
<clipPath id="clip0_88_677">
<rect width="32" height="32" fill="white" transform="translate(0 0.818359)"/>
</clipPath>
</defs>
</svg>
