<svg width="55" height="56" viewBox="0 0 55 56" fill="none" xmlns="http://www.w3.org/2000/svg">
<g clip-path="url(#clip0_508_577)">
<path d="M39.3175 18.0828C39.3175 17.9998 39.315 17.9169 39.3136 17.8338C31.7248 14.8275 23.2753 14.8275 15.6865 17.8338C15.685 17.9169 15.6826 17.9998 15.6826 18.0828V34.468C15.6826 39.7196 16.8669 44.9036 19.1475 49.6341H35.8526C38.1331 44.9035 39.3175 39.7195 39.3175 34.4679V18.0828Z" fill="url(#paint0_linear_508_577)"/>
<path d="M39.3137 17.8341C34.1844 15.8021 28.6622 15.1456 23.2781 15.8604V49.6344H35.8527C38.1332 44.9038 39.3176 39.7198 39.3176 34.4682V18.0831C39.3176 18.0002 39.3151 17.9171 39.3137 17.8341Z" fill="url(#paint1_linear_508_577)"/>
<path d="M30.3339 15.7061L22.8213 23.2187L38.972 39.3694C39.2015 37.7501 39.3176 36.1123 39.3176 34.4679V20.9995L34.723 16.4048C33.274 16.0699 31.8075 15.8367 30.3339 15.7061Z" fill="url(#paint2_linear_508_577)"/>
<path d="M15.7053 35.7051C15.8763 40.5319 17.0462 45.2756 19.1474 49.6344H35.8525C37.9538 45.2756 39.1236 40.5319 39.2946 35.7051H15.7053Z" fill="url(#paint3_linear_508_577)"/>
<path d="M18.7543 33.2627L15.7307 36.2862C15.9718 40.9124 17.1306 45.451 19.1476 49.6349H35.1265L18.7543 33.2627Z" fill="url(#paint4_linear_508_577)"/>
<path d="M34.9042 49.0986H20.0959C19.8625 49.0986 19.6362 49.1786 19.4547 49.3252L18.9731 49.7141C18.0988 50.4201 17.5906 51.4838 17.5906 52.6077V54.2297C17.5906 54.7934 18.0474 55.2503 18.6111 55.2503H36.3889C36.9525 55.2503 37.4094 54.7934 37.4094 54.2297V52.6077C37.4094 51.4838 36.9012 50.4202 36.0269 49.7141L35.5453 49.3252C35.3638 49.1787 35.1375 49.0986 34.9042 49.0986Z" fill="url(#paint5_linear_508_577)"/>
<path d="M20.964 55.25H19.4211V53.0937C19.4211 52.6676 19.7665 52.3223 20.1925 52.3223C20.6186 52.3223 20.9639 52.6676 20.9639 53.0937L20.964 55.25Z" fill="url(#paint6_linear_508_577)"/>
<path d="M23.8871 55.25H22.3442V53.0937C22.3442 52.6676 22.6896 52.3223 23.1156 52.3223C23.5417 52.3223 23.887 52.6676 23.887 53.0937L23.8871 55.25Z" fill="url(#paint7_linear_508_577)"/>
<path d="M26.81 55.25H25.2671V53.0937C25.2671 52.6676 25.6125 52.3223 26.0385 52.3223C26.4645 52.3223 26.8099 52.6676 26.8099 53.0937V55.25H26.81Z" fill="url(#paint8_linear_508_577)"/>
<path d="M29.7331 55.25H28.1902V53.0937C28.1902 52.6676 28.5355 52.3223 28.9616 52.3223C29.3876 52.3223 29.733 52.6676 29.733 53.0937L29.7331 55.25Z" fill="url(#paint9_linear_508_577)"/>
<path d="M32.6559 55.25H31.113V53.0937C31.113 52.6676 31.4584 52.3223 31.8844 52.3223C32.3105 52.3223 32.6558 52.6676 32.6558 53.0937V55.25H32.6559Z" fill="url(#paint10_linear_508_577)"/>
<path d="M35.579 55.25H34.0361V53.0937C34.0361 52.6676 34.3815 52.3223 34.8075 52.3223C35.2336 52.3223 35.5789 52.6676 35.5789 53.0937V55.25H35.579Z" fill="url(#paint11_linear_508_577)"/>
<path d="M17.5906 52.5518V54.23C17.5906 54.7937 18.0474 55.2505 18.6111 55.2505H36.3889C36.9525 55.2505 37.4094 54.7937 37.4094 54.23V52.5518H17.5906Z" fill="url(#paint12_linear_508_577)"/>
<path d="M36.0268 49.7141L35.5452 49.3252C35.3637 49.1786 35.1374 49.0986 34.904 49.0986H28.6377V55.2503H36.3888C36.9525 55.2503 37.4093 54.7934 37.4093 54.2297V52.6077C37.4093 51.4837 36.9012 50.4201 36.0268 49.7141Z" fill="url(#paint13_linear_508_577)"/>
<path d="M39.3136 17.8341C39.2318 13.1874 36.8618 8.55922 32.2497 4.04793L28.9865 0.856101C28.1604 0.0479663 26.8398 0.0479663 26.0136 0.856101L22.7505 4.04782C18.1383 8.55922 15.7683 13.1873 15.6865 17.834C23.4659 16.0925 31.5342 16.0925 39.3136 17.8341Z" fill="url(#paint14_linear_508_577)"/>
<path d="M32.2497 4.04793L28.9866 0.856101C28.1604 0.0479663 26.8399 0.0479663 26.0137 0.856101L23.9014 2.92225V16.6484C29.0549 16.3047 34.2457 16.6994 39.3137 17.8341C39.2319 13.1874 36.8619 8.55932 32.2497 4.04793Z" fill="url(#paint15_linear_508_577)"/>
<path d="M29.4741 16.5661C31.4658 16.6387 33.4545 16.8205 35.431 17.1134L32.1789 13.8613L29.4741 16.5661Z" fill="url(#paint16_linear_508_577)"/>
<path d="M27.5 25.1568C31.1545 25.1568 34.117 22.1943 34.117 18.5398C34.117 14.8854 31.1545 11.9229 27.5 11.9229C23.8456 11.9229 20.8831 14.8854 20.8831 18.5398C20.8831 22.1943 23.8456 25.1568 27.5 25.1568Z" fill="url(#paint17_linear_508_577)"/>
<path d="M27.5001 23.8738C30.4462 23.8738 32.8345 21.4855 32.8345 18.5394C32.8345 15.5934 30.4462 13.2051 27.5001 13.2051C24.554 13.2051 22.1658 15.5934 22.1658 18.5394C22.1658 21.4855 24.554 23.8738 27.5001 23.8738Z" fill="url(#paint18_linear_508_577)"/>
<path d="M20.8831 18.5398C20.8831 22.1943 23.8455 25.1568 27.5 25.1568C31.1545 25.1568 34.117 22.1942 34.117 18.5398C34.117 17.7484 33.9776 16.9896 33.7228 16.2861H21.2773C21.0225 16.9896 20.8831 17.7484 20.8831 18.5398Z" fill="url(#paint19_linear_508_577)"/>
<path d="M22.8211 23.2186C25.4051 25.8026 29.5948 25.8027 32.1789 23.2186C34.7631 20.6344 34.763 16.4449 32.1789 13.8607C31.6193 13.3011 30.9842 12.8631 30.3066 12.5459L21.5063 21.3461C21.8235 22.0237 22.2614 22.6589 22.8211 23.2186Z" fill="url(#paint20_linear_508_577)"/>
<path d="M27.4999 23.0492C29.9904 23.0492 32.0094 21.0302 32.0094 18.5397C32.0094 16.0492 29.9904 14.0303 27.4999 14.0303C25.0094 14.0303 22.9905 16.0492 22.9905 18.5397C22.9905 21.0302 25.0094 23.0492 27.4999 23.0492Z" fill="url(#paint21_linear_508_577)"/>
<path d="M32.0094 18.5397C32.0094 16.0493 29.9904 14.0303 27.4999 14.0303C25.0095 14.0303 22.9905 16.0493 22.9905 18.5397C22.9905 19.0791 23.0855 19.5962 23.2591 20.0757H31.7406C31.9143 19.5962 32.0094 19.0791 32.0094 18.5397Z" fill="url(#paint22_linear_508_577)"/>
<path d="M30.6886 15.3511C28.9275 13.59 26.0724 13.59 24.3113 15.3511C22.5502 17.1122 22.5502 19.9673 24.3113 21.7284C24.6927 22.1098 25.1255 22.4083 25.5873 22.6244L31.5847 16.627C31.3684 16.1652 31.0699 15.7324 30.6886 15.3511Z" fill="url(#paint23_linear_508_577)"/>
<path d="M44.164 44.7829V53.7602C44.164 54.7101 43.0152 55.1863 42.3424 54.5147L35.1741 47.3454C34.7707 46.9418 34.6119 46.3558 34.7528 45.8028C35.0506 44.6349 35.3011 43.4479 35.5055 42.2461C35.9361 39.7016 36.156 37.0927 36.156 34.4676V33.5145C36.156 33.1578 36.5873 32.9791 36.8395 33.2314L41.1747 37.5666C43.0888 39.4805 44.164 42.0763 44.164 44.7829Z" fill="url(#paint24_linear_508_577)"/>
<path d="M44.164 44.7829V53.7602C44.164 54.7101 43.0152 55.1863 42.3424 54.5147L35.1741 47.3454C34.7707 46.9418 34.6119 46.3558 34.7528 45.8028C35.0506 44.6349 35.3011 43.4479 35.5055 42.2461C35.9361 39.7016 36.156 37.0927 36.156 34.4676V33.5145C36.156 33.1578 36.5873 32.9791 36.8395 33.2314L41.1747 37.5666C43.0888 39.4805 44.164 42.0763 44.164 44.7829Z" fill="url(#paint25_linear_508_577)"/>
<path d="M35.5056 42.2459C35.3013 43.4477 35.0508 44.6347 34.7529 45.8026C34.6119 46.3555 34.7706 46.9416 35.1742 47.3452L42.3425 54.5145C43.0151 55.186 44.1639 54.7099 44.1639 53.76V44.7827C44.1639 42.8522 43.6143 40.9796 42.6063 39.3691H35.8994C35.7978 40.3353 35.6665 41.2951 35.5056 42.2459Z" fill="url(#paint26_linear_508_577)"/>
<path d="M10.8362 44.7829V53.7602C10.8362 54.7101 11.985 55.1863 12.6577 54.5147L19.826 47.3454C20.2295 46.9418 20.3882 46.3558 20.2473 45.8028C19.9495 44.6349 19.699 43.4479 19.4946 42.2461C19.0641 39.7016 18.8442 37.0927 18.8442 34.4676V33.5145C18.8442 33.1578 18.4129 32.9791 18.1606 33.2314L13.8254 37.5666C11.9114 39.4805 10.8362 42.0763 10.8362 44.7829Z" fill="url(#paint27_linear_508_577)"/>
<path d="M10.8362 44.7829V53.7602C10.8362 54.7101 11.985 55.1863 12.6577 54.5147L19.826 47.3454C20.2295 46.9418 20.3882 46.3558 20.2473 45.8028C19.9495 44.6349 19.699 43.4479 19.4946 42.2461C19.0641 39.7016 18.8442 37.0927 18.8442 34.4676V33.5145C18.8442 33.1578 18.4129 32.9791 18.1606 33.2314L13.8254 37.5666C11.9114 39.4805 10.8362 42.0763 10.8362 44.7829Z" fill="url(#paint28_linear_508_577)"/>
<path d="M10.8362 44.7824V53.7597C10.8362 54.7097 11.985 55.1859 12.6577 54.5143L19.826 47.3449C20.2295 46.9413 20.3882 46.3554 20.2473 45.8024C19.9495 44.6345 19.699 43.4475 19.4946 42.2456C19.3681 41.4975 19.2619 40.7433 19.172 39.9854H12.0343C11.2548 41.4489 10.8362 43.094 10.8362 44.7824Z" fill="url(#paint29_linear_508_577)"/>
</g>
<defs>
<linearGradient id="paint0_linear_508_577" x1="21.3992" y1="32.6067" x2="32.4638" y2="32.6067" gradientUnits="userSpaceOnUse">
<stop stop-color="#F5FBFF"/>
<stop offset="1" stop-color="#DBD5EF"/>
</linearGradient>
<linearGradient id="paint1_linear_508_577" x1="27.7375" y1="32.6078" x2="39.1895" y2="32.6078" gradientUnits="userSpaceOnUse">
<stop stop-color="#DBD5EF" stop-opacity="0"/>
<stop offset="0.2853" stop-color="#D9D2EE" stop-opacity="0.285"/>
<stop offset="0.4739" stop-color="#D4C9E9" stop-opacity="0.474"/>
<stop offset="0.6346" stop-color="#CBBAE2" stop-opacity="0.635"/>
<stop offset="0.7795" stop-color="#BFA5D7" stop-opacity="0.78"/>
<stop offset="0.9126" stop-color="#AF8ACA" stop-opacity="0.913"/>
<stop offset="1" stop-color="#A274BF"/>
</linearGradient>
<linearGradient id="paint2_linear_508_577" x1="38.6673" y1="32.3316" x2="29.4936" y2="19.9889" gradientUnits="userSpaceOnUse">
<stop stop-color="#DBD5EF" stop-opacity="0"/>
<stop offset="0.2853" stop-color="#D9D2EE" stop-opacity="0.285"/>
<stop offset="0.4739" stop-color="#D4C9E9" stop-opacity="0.474"/>
<stop offset="0.6346" stop-color="#CBBAE2" stop-opacity="0.635"/>
<stop offset="0.7795" stop-color="#BFA5D7" stop-opacity="0.78"/>
<stop offset="0.9126" stop-color="#AF8ACA" stop-opacity="0.913"/>
<stop offset="1" stop-color="#A274BF"/>
</linearGradient>
<linearGradient id="paint3_linear_508_577" x1="27.5" y1="41.3761" x2="27.5" y2="50.1515" gradientUnits="userSpaceOnUse">
<stop stop-color="#DBD5EF" stop-opacity="0"/>
<stop offset="0.2853" stop-color="#D9D2EE" stop-opacity="0.285"/>
<stop offset="0.4739" stop-color="#D4C9E9" stop-opacity="0.474"/>
<stop offset="0.6346" stop-color="#CBBAE2" stop-opacity="0.635"/>
<stop offset="0.7795" stop-color="#BFA5D7" stop-opacity="0.78"/>
<stop offset="0.9126" stop-color="#AF8ACA" stop-opacity="0.913"/>
<stop offset="1" stop-color="#A274BF"/>
</linearGradient>
<linearGradient id="paint4_linear_508_577" x1="23.9013" y1="41.4488" x2="18.6195" y2="41.4488" gradientUnits="userSpaceOnUse">
<stop stop-color="#DBD5EF" stop-opacity="0"/>
<stop offset="0.2853" stop-color="#D9D2EE" stop-opacity="0.285"/>
<stop offset="0.4739" stop-color="#D4C9E9" stop-opacity="0.474"/>
<stop offset="0.6346" stop-color="#CBBAE2" stop-opacity="0.635"/>
<stop offset="0.7795" stop-color="#BFA5D7" stop-opacity="0.78"/>
<stop offset="0.9126" stop-color="#AF8ACA" stop-opacity="0.913"/>
<stop offset="1" stop-color="#A274BF"/>
</linearGradient>
<linearGradient id="paint5_linear_508_577" x1="27.5" y1="49.5093" x2="27.5" y2="51.0764" gradientUnits="userSpaceOnUse">
<stop stop-color="#FEF0AE"/>
<stop offset="1" stop-color="#FAC600"/>
</linearGradient>
<linearGradient id="paint6_linear_508_577" x1="20.9849" y1="53.7861" x2="19.3761" y2="53.7861" gradientUnits="userSpaceOnUse">
<stop stop-color="#FEF0AE"/>
<stop offset="1" stop-color="#FAC600"/>
</linearGradient>
<linearGradient id="paint7_linear_508_577" x1="23.908" y1="53.7861" x2="22.2991" y2="53.7861" gradientUnits="userSpaceOnUse">
<stop stop-color="#FEF0AE"/>
<stop offset="1" stop-color="#FAC600"/>
</linearGradient>
<linearGradient id="paint8_linear_508_577" x1="26.8308" y1="53.7861" x2="25.2221" y2="53.7861" gradientUnits="userSpaceOnUse">
<stop stop-color="#FEF0AE"/>
<stop offset="1" stop-color="#FAC600"/>
</linearGradient>
<linearGradient id="paint9_linear_508_577" x1="29.7539" y1="53.7861" x2="28.1451" y2="53.7861" gradientUnits="userSpaceOnUse">
<stop stop-color="#FEF0AE"/>
<stop offset="1" stop-color="#FAC600"/>
</linearGradient>
<linearGradient id="paint10_linear_508_577" x1="32.6768" y1="53.7861" x2="31.068" y2="53.7861" gradientUnits="userSpaceOnUse">
<stop stop-color="#FEF0AE"/>
<stop offset="1" stop-color="#FAC600"/>
</linearGradient>
<linearGradient id="paint11_linear_508_577" x1="35.6" y1="53.7861" x2="33.9911" y2="53.7861" gradientUnits="userSpaceOnUse">
<stop stop-color="#FEF0AE"/>
<stop offset="1" stop-color="#FAC600"/>
</linearGradient>
<linearGradient id="paint12_linear_508_577" x1="27.4999" y1="53.2639" x2="27.4999" y2="55.2391" gradientUnits="userSpaceOnUse">
<stop stop-color="#FE9738" stop-opacity="0"/>
<stop offset="1" stop-color="#FE9738"/>
</linearGradient>
<linearGradient id="paint13_linear_508_577" x1="31.2641" y1="52.1744" x2="37.4533" y2="52.1744" gradientUnits="userSpaceOnUse">
<stop stop-color="#FE9738" stop-opacity="0"/>
<stop offset="1" stop-color="#FE9738"/>
</linearGradient>
<linearGradient id="paint14_linear_508_577" x1="21.7329" y1="9.04208" x2="33.2459" y2="9.04208" gradientUnits="userSpaceOnUse">
<stop stop-color="#FFA1AE"/>
<stop offset="1" stop-color="#FF4565"/>
</linearGradient>
<linearGradient id="paint15_linear_508_577" x1="26.5137" y1="10.5414" x2="35.9376" y2="8.45641" gradientUnits="userSpaceOnUse">
<stop stop-color="#FE0364" stop-opacity="0"/>
<stop offset="0.2343" stop-color="#F90362" stop-opacity="0.234"/>
<stop offset="0.5173" stop-color="#EA035B" stop-opacity="0.517"/>
<stop offset="0.8243" stop-color="#D20250" stop-opacity="0.824"/>
<stop offset="1" stop-color="#C00148"/>
</linearGradient>
<linearGradient id="paint16_linear_508_577" x1="39.9677" y1="16.9897" x2="32.6703" y2="15.5719" gradientUnits="userSpaceOnUse">
<stop stop-color="#FE0364" stop-opacity="0"/>
<stop offset="0.2343" stop-color="#F90362" stop-opacity="0.234"/>
<stop offset="0.5173" stop-color="#EA035B" stop-opacity="0.517"/>
<stop offset="0.8243" stop-color="#D20250" stop-opacity="0.824"/>
<stop offset="1" stop-color="#C00148"/>
</linearGradient>
<linearGradient id="paint17_linear_508_577" x1="23.4525" y1="14.4923" x2="30.7541" y2="21.7938" gradientUnits="userSpaceOnUse">
<stop stop-color="#B3DAFE"/>
<stop offset="1" stop-color="#0182FC"/>
</linearGradient>
<linearGradient id="paint18_linear_508_577" x1="31.2336" y1="22.273" x2="23.1983" y2="14.2376" gradientUnits="userSpaceOnUse">
<stop stop-color="#B3DAFE"/>
<stop offset="1" stop-color="#0182FC"/>
</linearGradient>
<linearGradient id="paint19_linear_508_577" x1="27.5" y1="18.6236" x2="27.5" y2="26.4076" gradientUnits="userSpaceOnUse">
<stop stop-color="#314DC9" stop-opacity="0"/>
<stop offset="0.2761" stop-color="#304BC4" stop-opacity="0.276"/>
<stop offset="0.5628" stop-color="#2B45B8" stop-opacity="0.563"/>
<stop offset="0.8535" stop-color="#243BA3" stop-opacity="0.854"/>
<stop offset="1" stop-color="#1F3596"/>
</linearGradient>
<linearGradient id="paint20_linear_508_577" x1="27.6022" y1="18.5666" x2="33.395" y2="24.3594" gradientUnits="userSpaceOnUse">
<stop stop-color="#314DC9" stop-opacity="0"/>
<stop offset="0.2761" stop-color="#304BC4" stop-opacity="0.276"/>
<stop offset="0.5628" stop-color="#2B45B8" stop-opacity="0.563"/>
<stop offset="0.8535" stop-color="#243BA3" stop-opacity="0.854"/>
<stop offset="1" stop-color="#1F3596"/>
</linearGradient>
<linearGradient id="paint21_linear_508_577" x1="30.2583" y1="21.2981" x2="25.2823" y2="16.3222" gradientUnits="userSpaceOnUse">
<stop stop-color="#5A5A5A"/>
<stop offset="1" stop-color="#444444"/>
</linearGradient>
<linearGradient id="paint22_linear_508_577" x1="26.984" y1="17.0297" x2="25.8959" y2="13.846" gradientUnits="userSpaceOnUse">
<stop stop-color="#433F43" stop-opacity="0"/>
<stop offset="1" stop-color="#1A1A1A"/>
</linearGradient>
<linearGradient id="paint23_linear_508_577" x1="25.2853" y1="17.4765" x2="23.2703" y2="16.5093" gradientUnits="userSpaceOnUse">
<stop stop-color="#433F43" stop-opacity="0"/>
<stop offset="1" stop-color="#1A1A1A"/>
</linearGradient>
<linearGradient id="paint24_linear_508_577" x1="35.2148" y1="40.1547" x2="44.3885" y2="47.9524" gradientUnits="userSpaceOnUse">
<stop stop-color="#FFA1AE"/>
<stop offset="1" stop-color="#FF4565"/>
</linearGradient>
<linearGradient id="paint25_linear_508_577" x1="39.6078" y1="43.9712" x2="44.0727" y2="43.9712" gradientUnits="userSpaceOnUse">
<stop stop-color="#FE0364" stop-opacity="0"/>
<stop offset="0.2343" stop-color="#F90362" stop-opacity="0.234"/>
<stop offset="0.5173" stop-color="#EA035B" stop-opacity="0.517"/>
<stop offset="0.8243" stop-color="#D20250" stop-opacity="0.824"/>
<stop offset="1" stop-color="#C00148"/>
</linearGradient>
<linearGradient id="paint26_linear_508_577" x1="39.1799" y1="47.7132" x2="37.0671" y2="50.0484" gradientUnits="userSpaceOnUse">
<stop stop-color="#FE0364" stop-opacity="0"/>
<stop offset="0.2343" stop-color="#F90362" stop-opacity="0.234"/>
<stop offset="0.5173" stop-color="#EA035B" stop-opacity="0.517"/>
<stop offset="0.8243" stop-color="#D20250" stop-opacity="0.824"/>
<stop offset="1" stop-color="#C00148"/>
</linearGradient>
<linearGradient id="paint27_linear_508_577" x1="12.0759" y1="41.7671" x2="19.9154" y2="47.5494" gradientUnits="userSpaceOnUse">
<stop stop-color="#FFA1AE"/>
<stop offset="1" stop-color="#FF4565"/>
</linearGradient>
<linearGradient id="paint28_linear_508_577" x1="16.5777" y1="43.7299" x2="20.6919" y2="43.0072" gradientUnits="userSpaceOnUse">
<stop stop-color="#FE0364" stop-opacity="0"/>
<stop offset="0.2343" stop-color="#F90362" stop-opacity="0.234"/>
<stop offset="0.5173" stop-color="#EA035B" stop-opacity="0.517"/>
<stop offset="0.8243" stop-color="#D20250" stop-opacity="0.824"/>
<stop offset="1" stop-color="#C00148"/>
</linearGradient>
<linearGradient id="paint29_linear_508_577" x1="15.4247" y1="47.4939" x2="17.4262" y2="49.3287" gradientUnits="userSpaceOnUse">
<stop stop-color="#FE0364" stop-opacity="0"/>
<stop offset="0.2343" stop-color="#F90362" stop-opacity="0.234"/>
<stop offset="0.5173" stop-color="#EA035B" stop-opacity="0.517"/>
<stop offset="0.8243" stop-color="#D20250" stop-opacity="0.824"/>
<stop offset="1" stop-color="#C00148"/>
</linearGradient>
<clipPath id="clip0_508_577">
<rect width="55" height="55" fill="white" transform="translate(0 0.25)"/>
</clipPath>
</defs>
</svg>
