<svg width="389" height="384" viewBox="0 0 389 384" fill="none" xmlns="http://www.w3.org/2000/svg">
<rect x="15.8457" y="295.196" width="94.8429" height="94.8429" rx="9.5" fill="#79C7D0" stroke="#E5EFFF"/>
<mask id="path-2-inside-1_28_67" fill="white">
<path d="M113.733 479.597C113.733 443.155 128.209 408.206 153.977 382.438C179.745 356.67 214.694 342.194 251.136 342.194C287.578 342.194 322.527 356.67 348.295 382.438C374.063 408.206 388.539 443.155 388.539 479.597L341.126 479.597C341.126 455.73 331.645 432.841 314.768 415.964C297.892 399.088 275.003 389.607 251.136 389.607C227.269 389.607 204.38 399.088 187.503 415.964C170.627 432.841 161.146 455.73 161.146 479.597L113.733 479.597Z"/>
</mask>
<path d="M113.733 479.597C113.733 443.155 128.209 408.206 153.977 382.438C179.745 356.67 214.694 342.194 251.136 342.194C287.578 342.194 322.527 356.67 348.295 382.438C374.063 408.206 388.539 443.155 388.539 479.597L341.126 479.597C341.126 455.73 331.645 432.841 314.768 415.964C297.892 399.088 275.003 389.607 251.136 389.607C227.269 389.607 204.38 399.088 187.503 415.964C170.627 432.841 161.146 455.73 161.146 479.597L113.733 479.597Z" fill="#F7FAFF" stroke="#E5EFFF" stroke-width="2" mask="url(#path-2-inside-1_28_67)"/>
<rect x="-32.5" y="-30.5" width="250.058" height="250.058" stroke="#E5EFFF"/>
<path d="M216.437 97.1343L215.765 97.8057L216.24 98.2805L212.606 101.916L212.131 101.441L208.496 105.076L208.971 105.551L205.336 109.186L204.862 108.711L201.227 112.346L201.702 112.821L198.067 116.456L197.592 115.981L193.958 119.617L194.432 120.091L190.798 123.726L190.323 123.252L186.688 126.887L187.163 127.362L183.528 130.997L183.054 130.522L179.419 134.157L179.894 134.632L176.259 138.267L175.784 137.792L172.15 141.427L172.624 141.902L168.99 145.537L168.515 145.062L164.88 148.698L165.355 149.172L161.72 152.807L161.246 152.333L157.611 155.968L158.086 156.443L154.451 160.078L153.976 159.603L150.342 163.238L150.816 163.713L147.182 167.348L146.707 166.873L143.072 170.508L143.547 170.983L139.912 174.618L139.438 174.144L135.803 177.779L136.278 178.253L132.643 181.889L132.168 181.414L128.534 185.049L129.008 185.524L125.374 189.159L124.899 188.684L121.264 192.319L121.739 192.794L118.104 196.429L117.63 195.954L113.995 199.589L114.47 200.064L110.835 203.699L110.36 203.225L106.726 206.86L107.2 207.334L103.566 210.97L103.091 210.495L99.4563 214.13L99.9311 214.605L96.2964 218.24L95.8216 217.765L95.1505 218.436L95.1505 217.483L94.4791 217.483L94.4791 212.333L95.1505 212.333L95.1505 207.183L94.4791 207.183L94.4791 202.033L95.1505 202.033L95.1505 196.883L94.4791 196.883L94.4791 191.734L95.1505 191.734L95.1505 186.584L94.4791 186.584L94.4791 181.434L95.1505 181.434L95.1505 176.284L94.4791 176.284L94.4791 171.135L95.1505 171.135L95.1505 165.985L94.4791 165.985L94.4791 160.835L95.1505 160.835L95.1505 155.685L94.4791 155.685L94.4791 150.536L95.1505 150.536L95.1505 145.386L94.4791 145.386L94.4791 140.236L95.1505 140.236L95.1505 135.086L94.4791 135.086L94.4791 129.936L95.1505 129.936L95.1505 124.787L94.4791 124.787L94.4791 119.637L95.1505 119.637L95.1505 114.487L94.4791 114.487L94.4791 109.337L95.1505 109.337L95.1505 104.188L94.4791 104.188L94.4791 99.0378L95.1505 99.0378L95.1505 97.1343L97.0537 97.1343L97.0537 96.4629L102.203 96.4629L102.203 97.1343L107.352 97.1343L107.352 96.4629L112.501 96.4629L112.501 97.1343L117.65 97.1343L117.65 96.4629L122.799 96.4629L122.799 97.1343L127.948 97.1343L127.948 96.4629L133.097 96.4629L133.097 97.1343L138.247 97.1343L138.247 96.4629L143.396 96.4629L143.396 97.1343L148.545 97.1343L148.545 96.4629L153.694 96.4629L153.694 97.1343L158.843 97.1343L158.843 96.4629L163.992 96.4629L163.992 97.1343L169.141 97.1343L169.141 96.4629L174.29 96.4629L174.29 97.1343L179.439 97.1343L179.439 96.4629L184.588 96.4629L184.588 97.1343L189.738 97.1343L189.738 96.4629L194.887 96.4629L194.887 97.1343L200.036 97.1343L200.036 96.4629L205.185 96.4629L205.185 97.1343L210.334 97.1343L210.334 96.4629L215.483 96.4629L215.483 97.1343L216.437 97.1343Z" fill="#F7FAFF" stroke="#CCE0FF" stroke-width="1.34285" stroke-dasharray="5 5"/>
<rect x="93.988" y="-30.5403" width="126.543" height="126.528" transform="rotate(90 93.988 -30.5403)" fill="#F7FAFF" stroke="#CCE0FF" stroke-width="0.919469" stroke-dasharray="5 5"/>
</svg>
