<svg width="32" height="33" viewBox="0 0 32 33" fill="none" xmlns="http://www.w3.org/2000/svg">
<g clip-path="url(#clip0_88_703)">
<path d="M16 32.8179C24.8366 32.8179 32 25.6544 32 16.8179C32 7.98132 24.8366 0.817871 16 0.817871C7.16344 0.817871 0 7.98132 0 16.8179C0 25.6544 7.16344 32.8179 16 32.8179Z" fill="#007AB9"/>
<path d="M25.5599 18.1052V24.7016H21.7354V18.5472C21.7354 17.0019 21.1832 15.9466 19.7985 15.9466C18.7418 15.9466 18.114 16.6571 17.8368 17.3451C17.7361 17.5909 17.7102 17.9323 17.7102 18.2771V24.7013H13.8854C13.8854 24.7013 13.9368 14.2778 13.8854 13.1989H17.7104V14.8289C17.7027 14.8417 17.6919 14.8543 17.6851 14.8665H17.7104V14.8289C18.2187 14.0468 19.1251 12.9288 21.1573 12.9288C23.6734 12.9288 25.5599 14.5728 25.5599 18.1052ZM9.88443 7.6543C8.57614 7.6543 7.72021 8.51308 7.72021 9.64139C7.72021 10.7457 8.55133 11.6293 9.83423 11.6293H9.85904C11.193 11.6293 12.0224 10.7457 12.0224 9.64139C11.997 8.51308 11.193 7.6543 9.88443 7.6543ZM7.94753 24.7016H11.7708V13.1989H7.94753V24.7016Z" fill="#F1F2F2"/>
</g>
<defs>
<clipPath id="clip0_88_703">
<rect width="32" height="32" fill="white" transform="translate(0 0.818359)"/>
</clipPath>
</defs>
</svg>
