<svg width="131" height="50" viewBox="0 0 131 50" fill="none" xmlns="http://www.w3.org/2000/svg">
<path d="M58.7332 34.444C57.7046 34.444 56.6868 34.1717 55.6797 33.627C54.6725 33.0614 53.8689 31.9721 53.269 30.359L52.4654 28.3165H43.4656L40.8942 34.2869H39.4478L48.4476 13.5479H49.4119L56.4832 30.359C57.0189 31.574 57.5225 32.412 57.9939 32.8728C58.4653 33.3128 59.1403 33.5746 60.0189 33.6584V34.2869C59.6332 34.3916 59.2046 34.444 58.7332 34.444ZM51.8226 27.0596L47.9655 17.947L43.9477 27.0596H51.8226ZM61.9399 23.2889C61.9399 22.2205 61.7899 21.435 61.4899 20.9322C61.1899 20.4085 60.5899 20.1466 59.6899 20.1466H59.0471V19.5182H61.9399C62.7327 19.5182 63.3328 19.6229 63.7399 19.8324C64.1685 20.0419 64.4791 20.3561 64.672 20.7751H64.8327C65.2827 20.3352 65.8613 19.9686 66.5684 19.6753C67.2969 19.3611 68.1112 19.2039 69.0112 19.2039C69.9112 19.2039 70.6826 19.3716 71.3255 19.7067C71.9683 20.0209 72.4826 20.5865 72.8683 21.4035C73.4252 20.7122 74.1323 20.1781 74.9899 19.801C75.868 19.403 76.768 19.2039 77.6899 19.2039C79.0611 19.2039 80.1539 19.6229 80.9684 20.4609C81.7822 21.2988 82.1898 22.7652 82.1898 24.86V34.2869H79.297V24.86C79.297 23.3518 79.0822 22.2729 78.6542 21.6235C78.2253 20.9531 77.5825 20.618 76.7256 20.618C76.1251 20.618 75.4932 20.8379 74.8292 21.2779C74.1645 21.6968 73.6721 22.1577 73.3507 22.6605C73.4573 22.9747 73.5114 23.7079 73.5114 24.86V34.2869H70.6183V24.86C70.6183 23.3518 70.4041 22.2729 69.9755 21.6235C69.5469 20.9531 68.9041 20.618 68.0469 20.618C66.9112 20.618 65.8399 21.1731 64.8327 22.2834V34.2869H61.9399V23.2889ZM92.8983 34.6011C91.441 34.6011 90.1765 34.2659 89.1055 33.5956C88.0339 32.9043 87.2194 31.9721 86.6627 30.7989C86.1053 29.6258 85.827 28.327 85.827 26.9025C85.827 25.478 86.1053 24.1792 86.6627 23.0061C87.2194 21.833 88.0339 20.9113 89.1055 20.2409C90.1765 19.5496 91.441 19.2039 92.8983 19.2039C94.355 19.2039 95.6195 19.5496 96.6911 20.2409C97.7621 20.9113 98.5766 21.833 99.134 23.0061C99.6906 24.1792 99.9697 25.478 99.9697 26.9025C99.9697 28.327 99.6906 29.6258 99.134 30.7989C98.5766 31.9721 97.7621 32.9043 96.6911 33.5956C95.6195 34.2659 94.355 34.6011 92.8983 34.6011ZM92.8983 33.3442C93.691 33.3442 94.3871 33.0614 94.9876 32.4958C95.6085 31.9302 96.0804 31.1551 96.4019 30.1705C96.7445 29.1859 96.9161 28.0966 96.9161 26.9025C96.9161 25.7085 96.7445 24.6192 96.4019 23.6346C96.0804 22.65 95.6085 21.8749 94.9876 21.3093C94.3871 20.7437 93.691 20.4609 92.8983 20.4609C92.105 20.4609 91.3979 20.7437 90.7769 21.3093C90.1765 21.8749 89.7053 22.65 89.3627 23.6346C89.0413 24.6192 88.8806 25.7085 88.8806 26.9025C88.8806 28.0966 89.0413 29.1859 89.3627 30.1705C89.7053 31.1551 90.1765 31.9302 90.7769 32.4958C91.3979 33.0614 92.105 33.3442 92.8983 33.3442ZM109.235 34.6011C107.628 34.6011 106.31 34.1821 105.282 33.3442C104.275 32.5063 103.771 31.0398 103.771 28.945V23.2889C103.771 22.2205 103.621 21.435 103.321 20.9322C103.021 20.4085 102.421 20.1466 101.521 20.1466H101.2V19.5182H103.771C104.564 19.5182 105.153 19.6229 105.539 19.8324C105.946 20.0209 106.235 20.3771 106.407 20.9008C106.578 21.4245 106.664 22.2205 106.664 23.2889V28.945C106.664 30.4114 106.996 31.4902 107.66 32.1815C108.346 32.8519 109.192 33.1871 110.2 33.1871C111.335 33.1871 112.407 32.632 113.414 31.5217V19.5182H116.307V34.2869H114.7L113.575 33.03H113.414C112.964 33.4699 112.374 33.847 111.646 34.1612C110.939 34.4545 110.135 34.6011 109.235 34.6011ZM121.197 23.2889C121.197 22.2205 121.047 21.435 120.747 20.9322C120.447 20.4085 119.847 20.1466 118.947 20.1466H118.625V19.5182H121.197C122.011 19.5182 122.622 19.6334 123.029 19.8638C123.458 20.0733 123.758 20.4294 123.929 20.9322H124.09C124.475 20.4504 124.99 20.0419 125.632 19.7067C126.297 19.3716 127.069 19.2039 127.947 19.2039C128.804 19.2039 129.447 19.3611 129.875 19.6753C130.24 19.9476 130.615 20.4189 131 21.0893L129.715 22.032C129.479 21.7178 129.136 21.4873 128.686 21.3407C128.236 21.1731 127.722 21.0893 127.143 21.0893C126.5 21.0893 125.911 21.2359 125.375 21.5292C124.84 21.8015 124.411 22.1786 124.09 22.6605V34.2869H121.197V23.2889Z" fill="black"/>
<path d="M41.6967 39.28H40.5153V42.8564H40.0359V39.28H38.8574V38.856H41.6967V39.28ZM47.5492 42.8564H45.3805V38.856H47.4578V39.28H45.8599V40.6107H47.338V41.0319H45.8599V42.4323H47.5492V42.8564ZM54.1608 42.689C53.8583 42.8452 53.4816 42.9234 53.0308 42.9234C52.4486 42.9234 51.9825 42.7401 51.6325 42.3738C51.2825 42.0074 51.1075 41.5266 51.1075 40.9315C51.1075 40.2918 51.3043 39.7747 51.6982 39.3805C52.0919 38.9862 52.5913 38.7891 53.1962 38.7891C53.5843 38.7891 53.9058 38.8439 54.1608 38.9537V39.453C53.8678 39.293 53.5444 39.2131 53.1905 39.2131C52.7206 39.2131 52.3393 39.3665 52.0462 39.6734C51.7552 39.9803 51.6097 40.3903 51.6097 40.9036C51.6097 41.3909 51.7457 41.7796 52.0178 42.0697C52.2917 42.358 52.6503 42.5021 53.0935 42.5021C53.5044 42.5021 53.8602 42.4128 54.1608 42.2343V42.689ZM61.109 42.8564H60.6297V41.0319H58.5123V42.8564H58.0329V38.856H58.5123V40.6107H60.6297V38.856H61.109V42.8564ZM72.6486 42.689C72.3461 42.8452 71.9694 42.9234 71.5185 42.9234C70.9364 42.9234 70.4703 42.7401 70.1203 42.3738C69.7703 42.0074 69.5953 41.5266 69.5953 40.9315C69.5953 40.2918 69.7921 39.7747 70.1859 39.3805C70.5798 38.9862 71.0791 38.7891 71.6841 38.7891C72.0721 38.7891 72.3936 38.8439 72.6486 38.9537V39.453C72.3556 39.293 72.0322 39.2131 71.6784 39.2131C71.2084 39.2131 70.827 39.3665 70.5341 39.6734C70.243 39.9803 70.0975 40.3903 70.0975 40.9036C70.0975 41.3909 70.2335 41.7796 70.5055 42.0697C70.7795 42.358 71.1381 42.5021 71.5813 42.5021C71.9922 42.5021 72.348 42.4128 72.6486 42.2343V42.689ZM79.4538 42.8564H78.8833L78.1988 41.7349C78.136 41.6308 78.0746 41.5425 78.0162 41.4699C77.957 41.3955 77.8964 41.3351 77.8336 41.2886C77.7722 41.2421 77.7057 41.2086 77.6334 41.1882C77.5633 41.1658 77.4837 41.1547 77.3938 41.1547H77.0001V42.8564H76.5208V38.856H77.7423C77.9205 38.856 78.0856 38.8783 78.2353 38.923C78.388 38.9657 78.5188 39.0317 78.6298 39.121C78.7416 39.2103 78.8292 39.3219 78.8921 39.4558C78.9549 39.5878 78.9863 39.7431 78.9863 39.9216C78.9863 40.0611 78.9644 40.1894 78.9206 40.3066C78.8789 40.4219 78.8176 40.5252 78.7379 40.6163C78.6598 40.7074 78.5648 40.7855 78.4523 40.8506C78.342 40.9138 78.2178 40.9632 78.079 40.9984V41.0097C78.1469 41.0394 78.2061 41.0738 78.2558 41.1128C78.3069 41.1501 78.3559 41.1947 78.4012 41.2468C78.4472 41.2988 78.4918 41.3583 78.5356 41.4253C78.5809 41.4903 78.6313 41.5666 78.6868 41.654L79.4538 42.8564ZM77.0001 39.28V40.7306H77.6509C77.7707 40.7306 77.8811 40.713 77.9819 40.6776C78.0841 40.6423 78.1733 40.5921 78.247 40.527C78.3215 40.46 78.3793 40.3791 78.4209 40.2843C78.4633 40.1876 78.4837 40.0798 78.4837 39.9607C78.4837 39.7468 78.4129 39.5804 78.2697 39.4614C78.1294 39.3405 77.9249 39.28 77.6561 39.28H77.0001ZM85.227 42.8564H83.0582V38.856H85.1357V39.28H83.5374V40.6107H85.0159V41.0319H83.5374V42.4323H85.227V42.8564ZM92.2209 42.8564H91.6898L91.2559 41.7349H89.521L89.1134 42.8564H88.5793L90.1492 38.856H90.6452L92.2209 42.8564ZM91.0996 41.3137L90.4575 39.6092C90.4363 39.5534 90.4151 39.4642 90.3947 39.3414H90.383C90.364 39.4549 90.3421 39.5441 90.3172 39.6092L89.681 41.3137H91.0996ZM98.0789 39.28H96.8976V42.8564H96.4184V39.28H95.2394V38.856H98.0789V39.28ZM102.242 42.8564H101.763V38.856H102.242V42.8564ZM108.009 42.9234C107.429 42.9234 106.964 42.7364 106.613 42.3626C106.266 41.9888 106.091 41.5025 106.091 40.9036C106.091 40.2601 106.269 39.7468 106.625 39.3637C106.981 38.9806 107.465 38.7891 108.077 38.7891C108.643 38.7891 109.097 38.975 109.441 39.347C109.787 39.719 109.961 40.2053 109.961 40.806C109.961 41.4588 109.784 41.9748 109.43 42.3543C109.076 42.7336 108.603 42.9234 108.009 42.9234ZM108.043 39.2131C107.613 39.2131 107.264 39.3647 106.996 39.6678C106.728 39.9709 106.594 40.3689 106.594 40.8618C106.594 41.3546 106.724 41.7517 106.985 42.053C107.247 42.3524 107.589 42.5021 108.009 42.5021C108.458 42.5021 108.812 42.3589 109.071 42.0725C109.329 41.7861 109.459 41.3853 109.459 40.8702C109.459 40.342 109.333 39.9338 109.082 39.6455C108.831 39.3572 108.485 39.2131 108.043 39.2131ZM117.104 42.8564H116.515L114.409 39.6678C114.356 39.5878 114.312 39.5041 114.278 39.4167H114.261C114.276 39.5023 114.284 39.6855 114.284 39.9663V42.8564H113.805V38.856H114.426L116.475 41.9944C116.561 42.1246 116.616 42.2139 116.641 42.2622H116.652C116.633 42.1469 116.624 41.9507 116.624 41.6736V38.856H117.104V42.8564ZM121.024 42.6946V42.1422C121.088 42.198 121.166 42.2482 121.255 42.2928C121.346 42.3375 121.441 42.3756 121.541 42.4073C121.641 42.437 121.742 42.4602 121.843 42.477C121.944 42.4937 122.037 42.5021 122.123 42.5021C122.417 42.5021 122.637 42.4491 122.782 42.343C122.928 42.2352 123.002 42.0809 123.002 41.88C123.002 41.7722 122.977 41.6782 122.927 41.5983C122.88 41.5183 122.813 41.4457 122.728 41.3807C122.641 41.3137 122.54 41.2505 122.422 41.191C122.306 41.1296 122.181 41.0654 122.045 40.9984C121.903 40.9278 121.769 40.8562 121.646 40.7837C121.522 40.7111 121.415 40.6312 121.324 40.5437C121.232 40.4563 121.16 40.3578 121.107 40.2481C121.056 40.1365 121.029 40.0063 121.029 39.8575C121.029 39.6753 121.07 39.5171 121.152 39.3832C121.234 39.2475 121.341 39.1359 121.475 39.0485C121.608 38.9611 121.759 38.896 121.929 38.8532C122.099 38.8104 122.274 38.7891 122.451 38.7891C122.854 38.7891 123.148 38.8365 123.333 38.9313V39.4586C123.091 39.2949 122.781 39.2131 122.402 39.2131C122.297 39.2131 122.193 39.2243 122.089 39.2466C121.983 39.267 121.891 39.3014 121.809 39.3497C121.727 39.3982 121.66 39.4604 121.609 39.5367C121.557 39.6129 121.532 39.7059 121.532 39.8157C121.532 39.9179 121.551 40.0063 121.589 40.0807C121.629 40.155 121.687 40.2229 121.763 40.2843C121.839 40.3457 121.931 40.4052 122.04 40.4628C122.15 40.5205 122.276 40.5837 122.419 40.6526C122.566 40.7232 122.704 40.7976 122.836 40.8757C122.967 40.9538 123.082 41.0403 123.181 41.1351C123.28 41.23 123.358 41.3351 123.415 41.4504C123.474 41.5657 123.504 41.6977 123.504 41.8465C123.504 42.0437 123.463 42.2111 123.384 42.3487C123.306 42.4845 123.199 42.5951 123.064 42.6806C122.931 42.7662 122.777 42.8275 122.602 42.8647C122.427 42.9038 122.243 42.9234 122.048 42.9234C121.983 42.9234 121.904 42.9177 121.809 42.9066C121.714 42.8973 121.617 42.8824 121.517 42.862C121.419 42.8434 121.324 42.8201 121.235 42.7922C121.148 42.7625 121.077 42.7299 121.024 42.6946Z" fill="black"/>
<path d="M20.2979 16.1011C20.2979 16.1011 15.3017 5.14361 6.36237 2.107C-2.57702 -0.929605 0.118484 7.8611 3.48786 12.7711C6.85724 17.6812 2.27173 27.949 12.2693 27.7277C22.2669 27.5064 22.4985 19.9561 20.2979 16.1011Z" fill="#79C7D0"/>
<path d="M21.6352 33.2301C21.6352 33.2301 20.0557 35.4844 14.9859 38.9996C9.91605 42.5149 9.55803 52.2011 17.0233 49.5454C24.4886 46.8897 24.894 30.631 21.6352 33.2301Z" fill="#EDB159"/>
<path d="M31.2219 25.2368C31.2219 25.2368 35.1125 34.5833 32.5907 40.9705C30.069 47.3577 28.2368 35.2627 29.0739 29.7196C29.911 24.1765 30.6165 23.5589 31.2219 25.2368Z" fill="#B47354"/>
<path d="M4.94871 6.19769C5.72589 6.19769 6.35592 5.58177 6.35592 4.82199C6.35592 4.06221 5.72589 3.44629 4.94871 3.44629C4.17153 3.44629 3.5415 4.06221 3.5415 4.82199C3.5415 5.58177 4.17153 6.19769 4.94871 6.19769Z" fill="white" fill-opacity="0.5"/>
<path d="M5.65233 8.26144C6.04092 8.26144 6.35594 7.95348 6.35594 7.57359C6.35594 7.1937 6.04092 6.88574 5.65233 6.88574C5.26374 6.88574 4.94873 7.1937 4.94873 7.57359C4.94873 7.95348 5.26374 8.26144 5.65233 8.26144Z" fill="white" fill-opacity="0.5"/>
<path d="M50.2064 5.30321C47.9067 5.53028 45.6653 6.14863 43.5835 7.13032C41.4849 8.09196 39.5495 9.36258 37.845 10.8978C36.9925 11.6642 36.1939 12.4861 35.4548 13.3579C34.7212 14.2355 34.0443 15.1568 33.428 16.1166C32.1988 18.0218 31.0962 20.0023 30.127 22.0457C28.1791 26.1271 26.8208 30.5688 26.7629 35.1495C26.7566 36.2947 26.8535 37.4382 27.0524 38.5669C27.2216 39.7392 27.6298 40.8663 28.2528 41.8814C28.4331 42.1547 28.657 42.398 28.9161 42.602C29.2196 42.8562 29.6122 42.9854 30.0111 42.9623C30.4038 42.9209 30.7663 42.7373 31.0273 42.4476C31.241 42.2078 31.4183 41.9391 31.5537 41.6498C32.0253 40.575 32.3186 39.4335 32.4224 38.2684C32.6813 36.0027 32.6175 33.7129 32.2328 31.4643C31.8427 29.236 31.2363 27.049 30.4218 24.9331C29.6067 22.8244 28.6444 20.7728 27.542 18.7929C26.4631 16.8073 25.2732 14.8812 23.9779 13.0234C22.6584 11.1756 21.1328 9.47706 19.4292 7.95898C17.7366 6.427 15.8978 5.05686 13.9382 3.86726C12.959 3.28052 11.9482 2.72982 10.9162 2.23572C9.88973 1.73836 8.83509 1.29845 7.75745 0.918145C6.66277 0.534357 5.53262 0.255127 4.38283 0.0843667C3.79712 0.00261775 3.20433 -0.0198034 2.61391 0.0174588C1.98839 0.0377606 1.3804 0.224614 0.855515 0.557871C0.581101 0.749783 0.363211 1.00895 0.223757 1.3093C0.09476 1.60667 0.035401 1.92848 0.0500233 2.25116C0.0926342 2.8441 0.244223 3.42468 0.497519 3.96504C0.897636 5.02528 1.37145 6.05464 1.86107 7.05312C2.35068 8.05161 2.91399 9.06549 3.44046 10.0537C3.9695 11.0361 4.4423 12.0464 4.85666 13.08C4.95668 13.3373 5.06724 13.5947 5.15674 13.8469L5.41471 14.6292C5.56211 15.1439 5.71479 15.6843 5.82009 16.2298C5.92537 16.7754 6.02014 17.3107 6.11491 17.8511C6.20967 18.3915 6.25179 18.9422 6.3097 19.5032C6.42026 20.6304 6.56767 21.7524 6.78878 22.8692C6.99214 24.003 7.31318 25.1136 7.74693 26.1838C8.18333 27.3057 8.88725 28.3096 9.80017 29.1123C10.7622 29.8931 11.9411 30.3753 13.1853 30.4967C13.783 30.5635 14.3854 30.579 14.9858 30.5431C15.5813 30.5069 16.1738 30.4347 16.76 30.3269C17.9574 30.1082 19.0999 29.6642 20.1242 29.0196C21.1675 28.3654 22.0271 27.4667 22.6248 26.4051C23.258 25.3124 23.4655 24.0328 23.2092 22.8023C23.0496 22.1571 22.7107 21.5675 22.23 21.0987C21.4895 20.4462 20.5408 20.0642 19.5451 20.0179C19.1877 19.9963 18.8296 20.0452 18.4921 20.162C18.1343 20.2841 17.8163 20.4973 17.5708 20.7796C17.3309 21.0579 17.1662 21.3906 17.0917 21.7472C16.9594 22.4351 17.1027 23.1463 17.4918 23.7339C17.8684 24.3256 18.4678 24.7489 19.1607 24.9125C19.3332 24.9561 19.5094 24.9837 19.6872 24.9948H20.1347C20.3633 25.0008 20.5893 25.0443 20.8033 25.1235C20.9886 25.1912 21.1493 25.3108 21.2655 25.4673C21.3816 25.6239 21.4479 25.8104 21.4561 26.0036C21.4884 26.481 21.3979 26.9588 21.1929 27.3932C20.9818 27.8684 20.7113 28.3161 20.3874 28.7262C20.0572 29.1471 19.6889 29.5381 19.2871 29.8946C19.087 30.0747 18.8764 30.2394 18.6606 30.4093L17.9814 30.9239C16.0985 32.2396 14.3369 33.7137 12.7168 35.3296C11.9015 36.1565 11.1715 37.0597 10.5373 38.0265C10.2246 38.523 9.94495 39.0388 9.70016 39.5706C9.44463 40.0985 9.23337 40.6459 9.06834 41.2072C8.77936 42.3479 8.74166 43.5356 8.95782 44.6916C9.14914 45.8548 9.61608 46.9581 10.3214 47.9134C10.6889 48.3936 11.1418 48.805 11.6586 49.1281C12.1845 49.4484 12.7757 49.6521 13.3907 49.7251C14.6069 49.8147 15.8175 49.4911 16.8179 48.809C17.7933 48.1712 18.6573 47.3839 19.3765 46.4775C20.0908 45.5881 20.7265 44.6411 21.2771 43.6468C22.3622 41.6634 23.2558 39.5853 23.9463 37.4397L23.8515 37.4089C23.0994 39.5195 22.1495 41.5577 21.0139 43.4976C20.4449 44.4531 19.7951 45.3603 19.0712 46.2099C18.3586 47.0583 17.5148 47.7929 16.5705 48.387C15.664 48.9846 14.5741 49.2573 13.4854 49.159C12.9551 49.0797 12.4474 48.8938 11.9943 48.613C11.5413 48.3322 11.1526 47.9625 10.8531 47.5274C10.2281 46.6474 9.82574 45.6349 9.67905 44.5732C9.50037 43.5143 9.55238 42.4304 9.83173 41.3925C10.3846 39.3337 11.7481 37.4861 13.3011 35.9215C14.919 34.3624 16.6736 32.945 18.5448 31.6857L19.2397 31.171C19.4819 30.9909 19.7135 30.8107 19.9399 30.6151C20.3925 30.2306 20.8067 29.8049 21.1771 29.3439C21.5562 28.8708 21.8711 28.3518 22.1142 27.7998C22.389 27.212 22.5068 26.5657 22.4564 25.9212C22.4225 25.5512 22.29 25.1963 22.0721 24.8919C21.8451 24.59 21.5345 24.3579 21.1771 24.2228C20.8556 24.101 20.516 24.0314 20.1716 24.0169H19.7556C19.6416 24.0089 19.5288 23.99 19.4187 23.9603C19.2018 23.9127 18.9968 23.823 18.816 23.6966C18.6352 23.5701 18.482 23.4096 18.3657 23.2243C18.1283 22.8554 18.0436 22.4118 18.1288 21.984C18.1642 21.7913 18.2517 21.6114 18.3823 21.463C18.5128 21.3145 18.6816 21.203 18.8712 21.1399C19.3224 21.0164 19.8013 21.0289 20.2453 21.1759C20.7179 21.2889 21.1518 21.5214 21.5035 21.8501C21.8383 22.1854 22.0731 22.6036 22.1826 23.0596C22.3671 24.0494 22.1802 25.0709 21.6562 25.9367C21.1432 26.8465 20.4092 27.6189 19.5187 28.1858C18.6121 28.7632 17.6005 29.1651 16.5389 29.3696C15.9991 29.4684 15.4544 29.5388 14.9069 29.5806C14.3647 29.6142 13.8206 29.6039 13.2801 29.5497C12.2266 29.4583 11.2254 29.0603 10.4056 28.4071C9.60015 27.7043 8.98061 26.8214 8.5998 25.8337C8.18333 24.8236 7.87119 23.7753 7.66796 22.7045C7.44683 21.6237 7.29419 20.5222 7.16784 19.4209C7.10466 18.8701 7.02569 18.2937 6.95199 17.7378C6.87828 17.182 6.76772 16.6107 6.62557 16.06C6.48343 15.5093 6.34128 14.9483 6.17808 14.4027L5.90958 13.5844C5.81482 13.3116 5.699 13.0697 5.5937 12.7867C4.69345 10.6662 3.44046 8.77726 2.43491 6.79063C1.90845 5.7973 1.44516 4.78853 1.02925 3.75403C0.791639 3.27946 0.64361 2.76685 0.592283 2.24087C0.564069 2.00811 0.597692 1.77216 0.689908 1.5558C0.782121 1.33944 0.929822 1.14996 1.11875 1.00564C1.559 0.719933 2.07027 0.556291 2.59811 0.532137C3.15093 0.491943 3.70647 0.505735 4.25648 0.573311C5.37744 0.720915 6.48115 0.974291 7.55217 1.32989C9.72376 2.04404 11.8046 2.999 13.7539 4.17606C17.6887 6.46097 21.0778 9.54255 23.6936 13.2138C24.9682 15.0661 26.1319 16.9891 27.1788 18.9731C28.2169 20.9578 29.1157 23.0093 29.8691 25.1132C30.6241 27.2089 31.1741 29.3699 31.5116 31.5673C31.8439 33.7531 31.8688 35.9731 31.5853 38.1655C31.4847 39.2298 31.2129 40.272 30.7798 41.2535C30.6739 41.4701 30.5374 41.671 30.3744 41.8506C30.2554 41.9865 30.0916 42.0776 29.9111 42.1079C29.6268 42.1439 29.2215 41.8094 28.953 41.3925C28.6697 40.9498 28.4484 40.4721 28.2949 39.972C28.1279 39.4568 27.9995 38.9305 27.9106 38.3971C27.7268 37.3185 27.6301 36.2274 27.621 35.134C27.621 30.7283 28.9161 26.3844 30.7798 22.3442C31.733 20.3221 32.7998 18.353 33.9755 16.446C35.1334 14.5388 36.5502 12.7936 38.1872 11.258C39.8336 9.7253 41.6971 8.43218 43.7203 7.41851C44.7377 6.91331 45.7938 6.48655 46.8791 6.14213C47.9625 5.79133 49.0788 5.54652 50.2117 5.41129L50.2064 5.30321Z" fill="black"/>
</svg>
