<svg width="40" height="40" viewBox="0 0 40 40" fill="none" xmlns="http://www.w3.org/2000/svg">
<path d="M16.1474 12.8804C16.1474 12.8804 12.1635 4.11432 5.03534 1.68502C-2.09286 -0.744283 0.0565144 6.28832 2.74323 10.2164C5.42995 14.1445 1.7735 22.3588 9.74549 22.1817C17.7175 22.0047 17.9022 15.9644 16.1474 12.8804Z" fill="#79C7D0"/>
<path d="M17.2137 26.5837C17.2137 26.5837 15.9543 28.3871 11.9116 31.1994C7.86897 34.0116 7.58349 41.7606 13.5363 39.636C19.489 37.5114 19.8122 24.5044 17.2137 26.5837Z" fill="#EDB159"/>
<path d="M24.8582 20.1894C24.8582 20.1894 27.9605 27.6667 25.9497 32.7765C23.9388 37.8862 22.4779 28.2102 23.1454 23.7757C23.8129 19.3412 24.3754 18.8471 24.8582 20.1894Z" fill="#B47354"/>
<path d="M3.90823 4.95895C4.52795 4.95895 5.03033 4.46621 5.03033 3.85838C5.03033 3.25055 4.52795 2.75781 3.90823 2.75781C3.28851 2.75781 2.78613 3.25055 2.78613 3.85838C2.78613 4.46621 3.28851 4.95895 3.90823 4.95895Z" fill="white" fill-opacity="0.5"/>
<path d="M4.46901 6.60936C4.77886 6.60936 5.03005 6.36299 5.03005 6.05907C5.03005 5.75516 4.77886 5.50879 4.46901 5.50879C4.15915 5.50879 3.90796 5.75516 3.90796 6.05907C3.90796 6.36299 4.15915 6.60936 4.46901 6.60936Z" fill="white" fill-opacity="0.5"/>
<path d="M39.9961 4.2426C38.1623 4.42425 36.375 4.91894 34.715 5.70429C33.0416 6.47361 31.4983 7.49011 30.1391 8.71829C29.4594 9.33144 28.8226 9.98898 28.2332 10.6864C27.6483 11.3884 27.1085 12.1255 26.617 12.8934C25.6369 14.4175 24.7577 16.0019 23.9849 17.6367C22.4316 20.9018 21.3485 24.4552 21.3023 28.1197C21.2973 29.0359 21.3746 29.9508 21.5333 30.8537C21.6681 31.7915 21.9936 32.6933 22.4904 33.5053C22.6342 33.724 22.8127 33.9186 23.0193 34.0818C23.2614 34.2852 23.5744 34.3885 23.8925 34.37C24.2056 34.3369 24.4946 34.19 24.7028 33.9583C24.8732 33.7664 25.0146 33.5515 25.1225 33.3201C25.4986 32.4602 25.7324 31.547 25.8152 30.6149C26.0217 28.8024 25.9708 26.9705 25.6641 25.1716C25.3529 23.3889 24.8694 21.6393 24.22 19.9466C23.57 18.2596 22.8027 16.6184 21.9236 15.0344C21.0633 13.446 20.1145 11.905 19.0816 10.4188C18.0294 8.94054 16.8129 7.58169 15.4546 6.36723C14.1048 5.14163 12.6386 4.04551 11.0761 3.09382C10.2952 2.62443 9.48921 2.18387 8.66637 1.78859C7.84784 1.39069 7.00688 1.03877 6.14757 0.73452C5.27469 0.427488 4.37351 0.204102 3.45668 0.0674938C2.98964 0.00209421 2.51695 -0.0158428 2.04615 0.0139672C1.54737 0.0302086 1.06256 0.179693 0.644024 0.4463C0.425209 0.59983 0.251465 0.807164 0.140265 1.04745C0.0374044 1.28535 -0.00992795 1.54279 0.00173175 1.80094C0.0357093 2.2753 0.156585 2.73976 0.358561 3.17206C0.677612 4.02025 1.05543 4.84374 1.44584 5.64253C1.83625 6.44133 2.28544 7.25244 2.70524 8.04298C3.1271 8.8289 3.5041 9.63716 3.8345 10.4641C3.91427 10.6699 4.00242 10.8758 4.07379 11.0776L4.27949 11.7034C4.39703 12.1152 4.51877 12.5475 4.60274 12.9839C4.68669 13.4204 4.76226 13.8486 4.83782 14.281C4.91338 14.7133 4.94697 15.1538 4.99315 15.6027C5.08131 16.5044 5.19885 17.402 5.37517 18.2955C5.53732 19.2025 5.79332 20.091 6.13918 20.9471C6.48717 21.8447 7.04847 22.6479 7.77642 23.29C8.54358 23.9147 9.48356 24.3004 10.4757 24.3975C10.9523 24.451 11.4327 24.4634 11.9114 24.4346C12.3862 24.4057 12.8587 24.3479 13.3261 24.2617C14.2809 24.0867 15.192 23.7315 16.0087 23.2158C16.8407 22.6924 17.5261 21.9735 18.0027 21.1242C18.5076 20.2501 18.673 19.2264 18.4687 18.242C18.3414 17.7258 18.0712 17.2541 17.6879 16.8791C17.0974 16.357 16.3409 16.0515 15.5469 16.0144C15.262 15.9971 14.9764 16.0363 14.7073 16.1297C14.422 16.2274 14.1684 16.3979 13.9727 16.6238C13.7814 16.8464 13.65 17.1126 13.5907 17.3979C13.4852 17.9482 13.5994 18.5172 13.9097 18.9872C14.21 19.4606 14.6879 19.7992 15.2404 19.9301C15.378 19.965 15.5185 19.9871 15.6602 19.996H16.0171C16.1994 20.0008 16.3796 20.0356 16.5502 20.0989C16.698 20.153 16.8262 20.2487 16.9188 20.374C17.0113 20.4992 17.0642 20.6484 17.0708 20.803C17.0965 21.1849 17.0243 21.5671 16.8609 21.9147C16.6925 22.2949 16.4768 22.6531 16.2186 22.9811C15.9553 23.3179 15.6616 23.6307 15.3412 23.9158C15.1817 24.0599 15.0138 24.1917 14.8416 24.3276L14.3001 24.7393C12.7986 25.7918 11.394 26.9711 10.1021 28.2638C9.45199 28.9254 8.86989 29.648 8.36417 30.4214C8.11486 30.8186 7.89187 31.2312 7.69668 31.6566C7.49292 32.079 7.32446 32.5169 7.19287 32.966C6.96243 33.8785 6.93238 34.8287 7.10474 35.7535C7.2573 36.684 7.62963 37.5667 8.19204 38.331C8.48509 38.7151 8.84624 39.0442 9.25831 39.3027C9.67765 39.5589 10.1491 39.7219 10.6395 39.7803C11.6093 39.852 12.5746 39.5931 13.3723 39.0474C14.1501 38.5372 14.839 37.9074 15.4126 37.1822C15.9821 36.4707 16.489 35.7131 16.928 34.9177C17.7933 33.3309 18.5058 31.6685 19.0565 29.952L18.9808 29.9273C18.3811 31.6158 17.6237 33.2464 16.7182 34.7983C16.2645 35.5627 15.7463 36.2885 15.1691 36.9682C14.6008 37.6469 13.928 38.2346 13.175 38.7098C12.4522 39.1879 11.5831 39.4061 10.715 39.3274C10.2921 39.264 9.88729 39.1152 9.52602 38.8906C9.16476 38.666 8.85487 38.3702 8.61604 38.0222C8.11765 37.3181 7.79681 36.5082 7.67984 35.6588C7.53736 34.8116 7.57884 33.9445 7.80159 33.1142C8.24242 31.4672 9.32966 29.9891 10.5681 28.7373C11.8581 27.4901 13.2572 26.3562 14.7493 25.3487L15.3035 24.9369C15.4966 24.7928 15.6813 24.6487 15.8618 24.4923C16.2226 24.1846 16.553 23.8441 16.8483 23.4752C17.1506 23.0967 17.4017 22.6816 17.5955 22.24C17.8147 21.7697 17.9086 21.2527 17.8684 20.7371C17.8414 20.441 17.7357 20.1572 17.5619 19.9136C17.3809 19.6722 17.1333 19.4864 16.8483 19.3784C16.5919 19.2809 16.3211 19.2253 16.0465 19.2137H15.7148C15.6239 19.2073 15.5339 19.1921 15.4462 19.1684C15.2732 19.1303 15.1098 19.0585 14.9656 18.9574C14.8214 18.8562 14.6993 18.7278 14.6065 18.5796C14.4172 18.2844 14.3497 17.9296 14.4176 17.5873C14.4458 17.4331 14.5156 17.2892 14.6197 17.1705C14.7238 17.0517 14.8584 16.9625 15.0096 16.912C15.3694 16.8132 15.7513 16.8232 16.1053 16.9408C16.4821 17.0312 16.8281 17.2172 17.1086 17.4802C17.3755 17.7484 17.5627 18.083 17.6501 18.4478C17.7972 19.2396 17.6481 20.0568 17.2303 20.7495C16.8213 21.4773 16.236 22.0953 15.5259 22.5488C14.803 23.0107 13.9964 23.3322 13.1498 23.4958C12.7194 23.5748 12.285 23.6312 11.8485 23.6646C11.4161 23.6915 10.9823 23.6833 10.5513 23.6399C9.71126 23.5668 8.91288 23.2484 8.2592 22.7258C7.61693 22.1636 7.12291 21.4573 6.81925 20.6671C6.48717 19.859 6.23827 19.0204 6.07622 18.1637C5.89989 17.299 5.77817 16.4179 5.67742 15.5368C5.62705 15.0962 5.56407 14.6351 5.5053 14.1903C5.44653 13.7457 5.35837 13.2886 5.24503 12.8481C5.13168 12.4075 5.01833 11.9587 4.8882 11.5222L4.6741 10.8676C4.59854 10.6494 4.50618 10.4558 4.42222 10.2294C3.70436 8.53301 2.70524 7.02185 1.90342 5.43254C1.48363 4.63787 1.1142 3.83085 0.782561 3.00324C0.593091 2.62358 0.475054 2.2135 0.434125 1.79271C0.411628 1.6065 0.438439 1.41773 0.511971 1.24465C0.585501 1.07156 0.703277 0.919973 0.853923 0.804519C1.20498 0.57595 1.61266 0.445035 2.03356 0.425713C2.47437 0.393557 2.91735 0.404591 3.35593 0.458652C4.24977 0.576735 5.12987 0.779438 5.98389 1.06392C7.71549 1.63524 9.37475 2.39921 10.9291 3.34087C14.0667 5.16881 16.7691 7.63409 18.8549 10.5711C19.8713 12.053 20.7992 13.5914 21.634 15.1786C22.4618 16.7663 23.1785 18.4075 23.7792 20.0907C24.3813 21.7673 24.8198 23.4961 25.089 25.254C25.3539 27.0026 25.3737 28.7786 25.1477 30.5326C25.0675 31.3841 24.8508 32.2178 24.5054 33.003C24.4209 33.1763 24.3121 33.337 24.1822 33.4807C24.0873 33.5894 23.9566 33.6623 23.8128 33.6865C23.586 33.7154 23.2628 33.4477 23.0487 33.1142C22.8229 32.76 22.6464 32.3779 22.524 31.9778C22.3908 31.5656 22.2884 31.1446 22.2175 30.7178C22.071 29.855 21.9938 28.9821 21.9866 28.1074C21.9866 24.5828 23.0193 21.1077 24.5054 17.8755C25.2655 16.2577 26.1161 14.6825 27.0536 13.1569C27.9769 11.6311 29.1067 10.2349 30.412 9.00647C31.7248 7.78029 33.2108 6.74579 34.8241 5.93485C35.6353 5.53068 36.4775 5.18927 37.3429 4.91374C38.2068 4.63309 39.0969 4.43724 40.0002 4.32906L39.9961 4.2426Z" fill="black"/>
</svg>
