<svg width="1366" height="951" viewBox="0 0 1366 951" fill="none" xmlns="http://www.w3.org/2000/svg">
<path fill-rule="evenodd" clip-rule="evenodd" d="M1584.02 -102.637L1611.55 -102.589L1611.55 -101.192L1584.02 -101.24L1583.95 -59.6916L1611.48 -59.6441L1611.47 -58.247L1583.94 -58.2945L1583.87 -16.7453L1611.4 -16.6978L1611.4 -15.3006L1583.87 -15.3482L1583.8 26.199L1611.33 26.2465L1611.33 27.6437L1583.8 27.5961L1583.72 69.1443L1611.26 69.1918L1611.25 70.589L1583.72 70.5415L1583.65 112.09L1611.18 112.137L1611.18 113.534L1583.65 113.487L1583.58 155.035L1611.11 155.082L1611.1 156.48L1583.57 156.432L1583.5 197.979L1611.03 198.027L1611.03 199.424L1583.5 199.376L1583.43 240.926L1610.96 240.973L1610.96 242.37L1583.43 242.323L1583.35 283.871L1610.88 283.918L1610.88 285.316L1583.35 285.268L1583.28 326.816L1610.81 326.864L1610.81 328.261L1583.28 328.213L1583.21 369.761L1610.74 369.809L1610.73 371.206L1583.2 371.159L1583.13 412.707L1610.66 412.754L1610.66 414.152L1583.13 414.104L1583.06 455.651L1610.59 455.699L1610.59 457.096L1583.05 457.048L1582.98 498.597L1610.51 498.645L1610.51 500.042L1582.98 499.995L1582.91 541.542L1610.44 541.589L1610.44 542.986L1582.91 542.939L1582.83 584.488L1610.36 584.536L1610.36 585.933L1582.83 585.885L1582.76 627.433L1610.29 627.481L1610.29 628.878L1582.76 628.831L1582.69 670.378L1610.22 670.425L1610.22 671.822L1582.68 671.775L1582.61 713.323L1610.14 713.371L1610.14 714.768L1582.61 714.72L1582.54 756.268L1610.07 756.316L1610.07 757.713L1582.54 757.666L1582.46 799.213L1610 799.26L1609.99 800.657L1582.46 800.61L1582.39 842.159L1609.92 842.206L1609.92 843.604L1582.39 843.556L1582.32 885.104L1609.85 885.152L1609.84 886.549L1582.31 886.501L1582.24 928.05L1609.77 928.097L1609.77 929.494L1582.24 929.447L1582.17 970.994L1609.7 971.042L1609.7 972.439L1582.17 972.391L1582.09 1013.94L1609.62 1013.99L1609.62 1015.39L1582.09 1015.34L1582.02 1056.88L1609.55 1056.93L1609.55 1058.33L1582.02 1058.28L1581.91 1120.99L1580.51 1120.99L1580.62 1058.28L1539.07 1058.21L1538.96 1120.92L1537.57 1120.92L1537.67 1058.21L1496.13 1058.13L1496.02 1120.85L1494.62 1120.84L1494.73 1058.13L1453.18 1058.06L1453.07 1120.77L1451.68 1120.77L1451.78 1058.06L1410.24 1057.99L1410.13 1120.7L1408.73 1120.7L1408.84 1057.98L1367.29 1057.91L1367.18 1120.62L1365.79 1120.62L1365.89 1057.91L1324.35 1057.84L1324.24 1120.55L1322.84 1120.55L1322.95 1057.83L1281.4 1057.76L1281.29 1120.48L1279.9 1120.47L1280 1057.76L1238.46 1057.69L1238.35 1120.4L1236.95 1120.4L1237.06 1057.69L1195.51 1057.61L1195.4 1120.33L1194.01 1120.33L1194.11 1057.61L1152.57 1057.54L1152.46 1120.25L1151.06 1120.25L1151.17 1057.54L1109.62 1057.47L1109.51 1120.18L1108.12 1120.18L1108.22 1057.46L1066.68 1057.39L1066.57 1120.1L1065.17 1120.1L1065.28 1057.39L1023.73 1057.32L1023.62 1120.03L1022.23 1120.03L1022.33 1057.32L980.787 1057.24L980.678 1119.96L979.281 1119.95L979.39 1057.24L937.84 1057.17L937.732 1119.88L936.335 1119.88L936.443 1057.17L894.896 1057.1L894.788 1119.81L893.391 1119.81L893.499 1057.09L851.951 1057.02L851.842 1119.73L850.445 1119.73L850.554 1057.02L809.005 1056.95L808.896 1119.66L807.499 1119.66L807.607 1056.95L766.06 1056.87L765.952 1119.59L764.555 1119.58L764.663 1056.87L723.116 1056.8L723.008 1119.51L721.61 1119.51L721.719 1056.8L680.17 1056.73L680.061 1119.44L678.664 1119.43L678.772 1056.72L637.225 1056.65L637.117 1119.36L635.72 1119.36L635.828 1056.65L594.279 1056.58L594.171 1119.29L592.774 1119.29L592.882 1056.57L551.334 1056.5L551.225 1119.22L549.828 1119.21L549.936 1056.5L508.388 1056.43L508.28 1119.14L506.883 1119.14L506.991 1056.43L465.443 1056.35L465.335 1119.07L463.938 1119.06L464.046 1056.35L422.499 1056.28L422.39 1118.99L420.993 1118.99L421.101 1056.28L379.552 1056.21L379.444 1118.92L378.047 1118.92L378.155 1056.2L336.608 1056.13L336.5 1118.84L335.103 1118.84L335.211 1056.13L293.663 1056.06L293.554 1118.77L292.157 1118.77L292.265 1056.06L250.717 1055.98L250.609 1118.7L249.212 1118.69L249.32 1055.98L207.772 1055.91L207.664 1118.62L206.267 1118.62L206.375 1055.91L164.827 1055.84L164.719 1118.55L163.322 1118.55L163.43 1055.83L121.882 1055.76L121.774 1118.47L120.377 1118.47L120.485 1055.76L78.9362 1055.69L78.828 1118.4L77.4308 1118.4L77.539 1055.68L35.9916 1055.61L35.8833 1118.33L34.4861 1118.32L34.5944 1055.61L-6.95367 1055.54L-7.06191 1118.25L-8.45912 1118.25L-8.35088 1055.54L-49.8989 1055.47L-50.0072 1118.18L-51.4044 1118.18L-51.2961 1055.46L-92.8447 1055.39L-92.9529 1118.1L-94.3501 1118.1L-94.2419 1055.39L-135.789 1055.32L-135.897 1118.03L-137.294 1118.03L-137.186 1055.31L-178.735 1055.24L-178.843 1117.95L-180.24 1117.95L-180.132 1055.24L-218.693 1055.17L-218.691 1053.78L-180.13 1053.84L-180.058 1012.3L-218.619 1012.23L-218.616 1010.83L-180.055 1010.9L-179.984 969.35L-218.545 969.283L-218.542 967.886L-179.981 967.953L-179.91 926.405L-218.471 926.339L-218.469 924.942L-179.907 925.008L-179.836 883.46L-218.396 883.393L-218.394 881.996L-179.833 882.063L-179.761 840.515L-218.322 840.448L-218.319 839.051L-179.759 839.118L-179.687 797.568L-218.248 797.502L-218.245 796.105L-179.685 796.171L-179.613 754.624L-218.174 754.558L-218.172 753.16L-179.611 753.227L-179.539 711.679L-218.1 711.612L-218.098 710.215L-179.537 710.282L-179.465 668.733L-218.026 668.667L-218.024 667.27L-179.462 667.336L-179.391 625.789L-217.952 625.723L-217.949 624.325L-179.388 624.392L-179.317 582.844L-217.879 582.777L-217.876 581.38L-179.314 581.447L-179.242 539.898L-217.803 539.831L-217.801 538.434L-179.24 538.5L-179.168 496.953L-217.729 496.887L-217.727 495.489L-179.166 495.556L-179.094 454.007L-217.655 453.94L-217.652 452.543L-179.092 452.61L-179.02 411.063L-217.582 410.996L-217.579 409.599L-179.018 409.665L-178.946 368.117L-217.506 368.051L-217.504 366.654L-178.944 366.72L-178.872 325.172L-217.433 325.105L-217.431 323.708L-178.869 323.775L-178.798 282.227L-217.359 282.16L-217.357 280.763L-178.795 280.829L-178.724 239.281L-217.285 239.215L-217.282 237.818L-178.721 237.884L-178.649 196.335L-217.211 196.268L-217.208 194.871L-178.647 194.938L-178.575 153.391L-217.136 153.324L-217.134 151.927L-178.573 151.994L-178.501 110.445L-217.063 110.379L-217.061 108.982L-178.499 109.048L-178.427 67.5L-216.988 67.4335L-216.985 66.0363L-178.425 66.1029L-178.353 24.5547L-216.915 24.4882L-216.912 23.091L-178.35 23.1576L-178.279 -18.3896L-216.84 -18.4561L-216.837 -19.8533L-178.276 -19.7867L-178.205 -61.3359L-216.766 -61.4025L-216.764 -62.7996L-178.202 -62.7331L-178.13 -104.281L-216.691 -104.348L-216.689 -105.745L-178.128 -105.678L-178.053 -149.397L-176.656 -149.394L-176.731 -105.676L-135.182 -105.604L-135.106 -149.323L-133.709 -149.321L-133.785 -105.602L-92.238 -105.53L-92.1625 -149.248L-90.7654 -149.245L-90.8409 -105.528L-49.2922 -105.456L-49.2168 -149.174L-47.8197 -149.171L-47.8951 -105.454L-6.34697 -105.382L-6.27152 -149.099L-4.87443 -149.097L-4.94988 -105.379L36.5983 -105.308L36.6737 -149.026L38.0708 -149.024L37.9954 -105.305L79.5429 -105.234L79.6184 -148.952L81.0155 -148.949L80.94 -105.231L122.489 -105.16L122.564 -148.878L123.962 -148.875L123.886 -105.157L165.434 -105.085L165.509 -148.803L166.906 -148.801L166.831 -105.083L208.379 -105.011L208.454 -148.729L209.851 -148.727L209.776 -105.009L251.324 -104.937L251.399 -148.655L252.796 -148.652L252.721 -104.935L294.269 -104.863L294.345 -148.581L295.742 -148.579L295.666 -104.861L337.215 -104.789L337.29 -148.507L338.687 -148.505L338.612 -104.786L380.159 -104.715L380.234 -148.433L381.631 -148.431L381.556 -104.712L423.105 -104.641L423.181 -148.358L424.578 -148.356L424.502 -104.638L466.05 -104.567L466.126 -148.285L467.523 -148.282L467.447 -104.564L508.995 -104.492L509.07 -148.21L510.467 -148.208L510.392 -104.49L551.94 -104.418L552.016 -148.136L553.413 -148.134L553.337 -104.416L594.886 -104.344L594.961 -148.063L596.358 -148.06L596.283 -104.342L637.832 -104.27L637.907 -147.988L639.304 -147.986L639.229 -104.268L680.776 -104.196L680.852 -147.915L682.249 -147.912L682.173 -104.194L723.722 -104.122L723.798 -147.84L725.195 -147.837L725.12 -104.119L766.667 -104.048L766.742 -147.766L768.139 -147.764L768.064 -104.045L809.611 -103.974L809.687 -147.692L811.084 -147.689L811.009 -103.971L852.557 -103.899L852.633 -147.617L854.03 -147.615L853.955 -103.897L895.503 -103.825L895.578 -147.543L896.975 -147.54L896.9 -103.823L938.447 -103.751L938.522 -147.469L939.92 -147.467L939.844 -103.749L981.393 -103.677L981.469 -147.396L982.866 -147.394L982.791 -103.675L1024.34 -103.603L1024.41 -147.32L1025.81 -147.318L1025.73 -103.601L1067.28 -103.529L1067.36 -147.247L1068.76 -147.244L1068.68 -103.526L1110.23 -103.455L1110.3 -147.173L1111.7 -147.17L1111.62 -103.452L1153.17 -103.381L1153.25 -147.098L1154.65 -147.096L1154.57 -103.378L1196.12 -103.306L1196.19 -147.023L1197.59 -147.021L1197.52 -103.304L1239.06 -103.232L1239.14 -146.951L1240.53 -146.948L1240.46 -103.23L1282.01 -103.158L1282.08 -146.876L1283.48 -146.873L1283.4 -103.156L1324.95 -103.084L1325.03 -146.801L1326.43 -146.799L1326.35 -103.082L1367.9 -103.01L1367.97 -146.728L1369.37 -146.726L1369.29 -103.008L1410.84 -102.936L1410.92 -146.654L1412.32 -146.652L1412.24 -102.933L1453.79 -102.862L1453.86 -146.58L1455.26 -146.577L1455.19 -102.859L1496.73 -102.788L1496.81 -146.505L1498.21 -146.502L1498.13 -102.785L1539.68 -102.713L1539.75 -146.431L1541.15 -146.429L1541.08 -102.711L1582.62 -102.639L1582.7 -146.358L1584.1 -146.356L1584.02 -102.637ZM1582.62 -101.242L1541.07 -101.314L1541 -59.7658L1582.55 -59.694L1582.62 -101.242ZM1582.55 -58.2969L1541 -58.3686L1540.93 -16.8194L1582.48 -16.7477L1582.55 -58.2969ZM1582.47 -15.3506L1540.92 -15.4223L1540.85 26.1249L1582.4 26.1966L1582.47 -15.3506ZM1582.4 27.5937L1540.85 27.522L1540.78 69.0702L1582.33 69.1419L1582.4 27.5937ZM1582.32 70.539L1540.78 70.4673L1540.7 112.015L1582.25 112.087L1582.32 70.539ZM1582.25 113.484L1540.7 113.413L1540.63 154.961L1582.18 155.033L1582.25 113.484ZM1582.18 156.43L1540.63 156.358L1540.56 197.905L1582.1 197.977L1582.18 156.43ZM1582.1 199.374L1540.55 199.302L1540.48 240.851L1582.03 240.923L1582.1 199.374ZM1582.03 242.32L1540.48 242.249L1540.41 283.797L1581.96 283.868L1582.03 242.32ZM1581.95 285.266L1540.41 285.194L1540.33 326.742L1581.88 326.814L1581.95 285.266ZM1581.88 328.211L1540.33 328.139L1540.26 369.687L1581.81 369.759L1581.88 328.211ZM1581.81 371.156L1540.26 371.084L1540.19 412.633L1581.73 412.704L1581.81 371.156ZM1581.73 414.102L1540.18 414.03L1540.11 455.577L1581.66 455.649L1581.73 414.102ZM1581.66 457.046L1540.11 456.974L1540.04 498.523L1581.59 498.595L1581.66 457.046ZM1581.58 499.992L1540.04 499.92L1539.96 541.468L1581.51 541.539L1581.58 499.992ZM1581.51 542.937L1539.96 542.865L1539.89 584.414L1581.44 584.486L1581.51 542.937ZM1581.44 585.883L1539.89 585.811L1539.82 627.359L1581.36 627.431L1581.44 585.883ZM1581.36 628.828L1539.81 628.756L1539.74 670.304L1581.29 670.375L1581.36 628.828ZM1581.29 671.772L1539.74 671.701L1539.67 713.249L1581.22 713.321L1581.29 671.772ZM1581.21 714.718L1539.66 714.646L1539.59 756.194L1581.14 756.266L1581.21 714.718ZM1581.14 757.663L1539.59 757.591L1539.52 799.139L1581.07 799.21L1581.14 757.663ZM1581.06 800.607L1539.52 800.536L1539.44 842.085L1580.99 842.157L1581.06 800.607ZM1580.99 843.554L1539.44 843.482L1539.37 885.03L1580.92 885.102L1580.99 843.554ZM1580.92 886.499L1539.37 886.427L1539.3 927.976L1580.84 928.047L1580.92 886.499ZM1580.84 929.444L1539.29 929.373L1539.22 970.92L1580.77 970.992L1580.84 929.444ZM1580.77 972.389L1539.22 972.317L1539.15 1013.87L1580.7 1013.94L1580.77 972.389ZM1580.69 1015.34L1539.15 1015.26L1539.07 1056.81L1580.62 1056.88L1580.69 1015.34ZM1537.68 1056.81L1537.75 1015.26L1496.2 1015.19L1496.13 1056.74L1537.68 1056.81ZM1494.73 1056.73L1494.8 1015.19L1453.26 1015.12L1453.18 1056.66L1494.73 1056.73ZM1451.79 1056.66L1451.86 1015.11L1410.31 1015.04L1410.24 1056.59L1451.79 1056.66ZM1408.84 1056.59L1408.91 1015.04L1367.36 1014.97L1367.29 1056.51L1408.84 1056.59ZM1365.9 1056.51L1365.97 1014.97L1324.42 1014.89L1324.35 1056.44L1365.9 1056.51ZM1322.95 1056.44L1323.02 1014.89L1281.48 1014.82L1281.4 1056.37L1322.95 1056.44ZM1280.01 1056.36L1280.08 1014.82L1238.53 1014.75L1238.46 1056.29L1280.01 1056.36ZM1237.06 1056.29L1237.13 1014.74L1195.59 1014.67L1195.51 1056.22L1237.06 1056.29ZM1194.12 1056.22L1194.19 1014.67L1152.64 1014.6L1152.57 1056.14L1194.12 1056.22ZM1151.17 1056.14L1151.24 1014.59L1109.69 1014.52L1109.62 1056.07L1151.17 1056.14ZM1108.23 1056.07L1108.3 1014.52L1066.75 1014.45L1066.68 1056L1108.23 1056.07ZM1065.28 1055.99L1065.35 1014.45L1023.81 1014.37L1023.73 1055.92L1065.28 1055.99ZM1022.34 1055.92L1022.41 1014.37L980.861 1014.3L980.789 1055.85L1022.34 1055.92ZM979.392 1055.84L979.464 1014.3L937.914 1014.23L937.843 1055.77L979.392 1055.84ZM936.445 1055.77L936.517 1014.22L894.97 1014.15L894.899 1055.7L936.445 1055.77ZM893.501 1055.7L893.573 1014.15L852.025 1014.08L851.953 1055.62L893.501 1055.7ZM850.556 1055.62L850.628 1014.08L809.079 1014L809.007 1055.55L850.556 1055.62ZM807.61 1055.55L807.682 1014L766.134 1013.93L766.062 1055.48L807.61 1055.55ZM764.665 1055.47L764.737 1013.93L723.19 1013.86L723.118 1055.4L764.665 1055.47ZM721.721 1055.4L721.793 1013.85L680.244 1013.78L680.172 1055.33L721.721 1055.4ZM678.775 1055.33L678.846 1013.78L637.299 1013.71L637.228 1055.25L678.775 1055.33ZM635.83 1055.25L635.902 1013.71L594.353 1013.63L594.281 1055.18L635.83 1055.25ZM592.884 1055.18L592.956 1013.63L551.408 1013.56L551.336 1055.11L592.884 1055.18ZM549.939 1055.1L550.01 1013.56L508.462 1013.49L508.391 1055.03L549.939 1055.1ZM506.993 1055.03L507.065 1013.48L465.518 1013.41L465.446 1054.96L506.993 1055.03ZM464.049 1054.95L464.12 1013.41L422.573 1013.34L422.501 1054.88L464.049 1054.95ZM421.104 1054.88L421.175 1013.33L379.626 1013.26L379.554 1054.81L421.104 1054.88ZM378.157 1054.81L378.229 1013.26L336.682 1013.19L336.61 1054.73L378.157 1054.81ZM335.213 1054.73L335.285 1013.19L293.737 1013.11L293.665 1054.66L335.213 1054.73ZM292.268 1054.66L292.339 1013.11L250.791 1013.04L250.72 1054.59L292.268 1054.66ZM249.322 1054.58L249.394 1013.04L207.846 1012.97L207.774 1054.51L249.322 1054.58ZM206.377 1054.51L206.449 1012.96L164.901 1012.89L164.829 1054.44L206.377 1054.51ZM163.432 1054.44L163.504 1012.89L121.956 1012.82L121.885 1054.36L163.432 1054.44ZM120.488 1054.36L120.559 1012.82L79.0103 1012.74L78.9386 1054.29L120.488 1054.36ZM77.5414 1054.29L77.6131 1012.74L36.0657 1012.67L35.994 1054.22L77.5414 1054.29ZM34.5968 1054.21L34.6685 1012.67L-6.87955 1012.6L-6.95126 1054.14L34.5968 1054.21ZM-8.34847 1054.14L-8.27676 1012.59L-49.8248 1012.52L-49.8965 1054.07L-8.34847 1054.14ZM-51.2937 1054.07L-51.222 1012.52L-92.7705 1012.45L-92.8422 1053.99L-51.2937 1054.07ZM-94.2395 1053.99L-94.1677 1012.45L-135.714 1012.37L-135.786 1053.92L-94.2395 1053.99ZM-137.183 1053.92L-137.112 1012.37L-178.661 1012.3L-178.732 1053.85L-137.183 1053.92ZM-178.658 1010.9L-137.109 1010.97L-137.038 969.424L-178.587 969.352L-178.658 1010.9ZM-178.584 967.955L-137.035 968.027L-136.963 926.48L-178.512 926.408L-178.584 967.955ZM-178.51 925.011L-136.961 925.082L-136.889 883.534L-178.438 883.462L-178.51 925.011ZM-178.436 882.065L-136.887 882.137L-136.815 840.589L-178.364 840.517L-178.436 882.065ZM-178.362 839.12L-136.813 839.192L-136.741 797.643L-178.29 797.571L-178.362 839.12ZM-178.288 796.174L-136.739 796.245L-136.667 754.698L-178.216 754.627L-178.288 796.174ZM-178.214 753.229L-136.664 753.301L-136.593 711.753L-178.142 711.681L-178.214 753.229ZM-178.139 710.284L-136.59 710.356L-136.519 668.808L-178.068 668.736L-178.139 710.284ZM-178.065 667.339L-136.516 667.41L-136.444 625.863L-177.994 625.792L-178.065 667.339ZM-177.991 624.394L-136.442 624.466L-136.37 582.918L-177.919 582.846L-177.991 624.394ZM-177.917 581.449L-136.368 581.521L-136.296 539.972L-177.845 539.9L-177.917 581.449ZM-177.843 538.503L-136.294 538.575L-136.222 497.027L-177.771 496.956L-177.843 538.503ZM-177.769 495.558L-136.22 495.63L-136.148 454.081L-177.697 454.009L-177.769 495.558ZM-177.695 452.612L-136.146 452.684L-136.074 411.137L-177.623 411.065L-177.695 452.612ZM-177.62 409.668L-136.071 409.74L-136 368.191L-177.549 368.12L-177.62 409.668ZM-177.546 366.722L-135.997 366.794L-135.926 325.246L-177.475 325.174L-177.546 366.722ZM-177.472 323.777L-135.923 323.849L-135.851 282.301L-177.4 282.229L-177.472 323.777ZM-177.398 280.832L-135.849 280.904L-135.777 239.355L-177.326 239.284L-177.398 280.832ZM-177.324 237.887L-135.775 237.958L-135.703 196.409L-177.252 196.337L-177.324 237.887ZM-177.25 194.94L-135.701 195.012L-135.629 153.465L-177.178 153.393L-177.25 194.94ZM-177.176 151.996L-135.627 152.068L-135.555 110.519L-177.104 110.448L-177.176 151.996ZM-177.102 109.051L-135.552 109.122L-135.481 67.5742L-177.03 67.5024L-177.102 109.051ZM-177.027 66.1053L-135.478 66.177L-135.407 24.6288L-176.956 24.5571L-177.027 66.1053ZM-176.953 23.16L-135.404 23.2317L-135.333 -18.3155L-176.882 -18.3872L-176.953 23.16ZM-176.879 -19.7843L-135.33 -19.7126L-135.258 -61.2618L-176.808 -61.3335L-176.879 -19.7843ZM-176.805 -62.7307L-135.256 -62.6589L-135.184 -104.207L-176.733 -104.279L-176.805 -62.7307ZM-133.787 -104.205L-133.859 -62.6565L-92.3121 -62.5848L-92.2404 -104.133L-133.787 -104.205ZM-90.8433 -104.131L-90.915 -62.5824L-49.3663 -62.5107L-49.2946 -104.059L-90.8433 -104.131ZM-47.8975 -104.056L-47.9692 -62.5083L-6.42109 -62.4366L-6.34938 -103.985L-47.8975 -104.056ZM-4.95229 -103.982L-5.024 -62.4342L36.5242 -62.3625L36.5959 -103.911L-4.95229 -103.982ZM37.993 -103.908L37.9212 -62.36L79.4688 -62.2883L79.5405 -103.836L37.993 -103.908ZM80.9376 -103.834L80.8659 -62.2859L122.415 -62.2142L122.487 -103.762L80.9376 -103.834ZM123.884 -103.76L123.812 -62.2118L165.36 -62.1401L165.431 -103.688L123.884 -103.76ZM166.828 -103.686L166.757 -62.1377L208.305 -62.066L208.376 -103.614L166.828 -103.686ZM209.773 -103.612L209.702 -62.0636L251.25 -61.9918L251.321 -103.54L209.773 -103.612ZM252.719 -103.538L252.647 -61.9894L294.195 -61.9177L294.267 -103.466L252.719 -103.538ZM295.664 -103.463L295.592 -61.9153L337.141 -61.8436L337.212 -103.392L295.664 -103.463ZM338.609 -103.389L338.538 -61.8412L380.085 -61.7695L380.156 -103.318L338.609 -103.389ZM381.553 -103.315L381.482 -61.7671L423.031 -61.6954L423.103 -103.244L381.553 -103.315ZM424.5 -103.241L424.428 -61.6929L465.976 -61.6212L466.048 -103.169L424.5 -103.241ZM467.445 -103.167L467.373 -61.6188L508.921 -61.5471L508.993 -103.095L467.445 -103.167ZM510.39 -103.093L510.318 -61.5447L551.866 -61.473L551.938 -103.021L510.39 -103.093ZM553.335 -103.019L553.263 -61.4706L594.812 -61.3989L594.883 -102.947L553.335 -103.019ZM596.28 -102.945L596.209 -61.3965L637.758 -61.3247L637.829 -102.873L596.28 -102.945ZM639.227 -102.87L639.155 -61.3223L680.702 -61.2506L680.774 -102.799L639.227 -102.87ZM682.171 -102.796L682.099 -61.2482L723.648 -61.1765L723.72 -102.725L682.171 -102.796ZM725.117 -102.722L725.046 -61.1741L766.593 -61.1024L766.664 -102.651L725.117 -102.722ZM768.061 -102.648L767.99 -61.1L809.537 -61.0282L809.609 -102.576L768.061 -102.648ZM811.006 -102.574L810.934 -61.0258L852.483 -60.9541L852.555 -102.502L811.006 -102.574ZM853.952 -102.5L853.88 -60.9517L895.429 -60.88L895.5 -102.428L853.952 -102.5ZM896.898 -102.426L896.826 -60.8776L938.373 -60.8059L938.444 -102.354L896.898 -102.426ZM939.842 -102.352L939.77 -60.8035L981.319 -60.7318L981.391 -102.28L939.842 -102.352ZM982.788 -102.277L982.716 -60.7293L1024.26 -60.6576L1024.34 -102.206L982.788 -102.277ZM1025.73 -102.203L1025.66 -60.6552L1067.21 -60.5835L1067.28 -102.132L1025.73 -102.203ZM1068.68 -102.129L1068.61 -60.5811L1110.15 -60.5094L1110.22 -102.058L1068.68 -102.129ZM1111.62 -102.055L1111.55 -60.507L1153.1 -60.4353L1153.17 -101.983L1111.62 -102.055ZM1154.57 -101.981L1154.5 -60.4329L1196.04 -60.3611L1196.12 -101.909L1154.57 -101.981ZM1197.51 -101.907L1197.44 -60.3587L1238.99 -60.287L1239.06 -101.835L1197.51 -101.907ZM1240.46 -101.833L1240.39 -60.2846L1281.93 -60.2129L1282.01 -101.761L1240.46 -101.833ZM1283.4 -101.759L1283.33 -60.2105L1324.88 -60.1388L1324.95 -101.687L1283.4 -101.759ZM1326.35 -101.685L1326.28 -60.1364L1367.82 -60.0647L1367.9 -101.613L1326.35 -101.685ZM1369.29 -101.61L1369.22 -60.0622L1410.77 -59.9905L1410.84 -101.539L1369.29 -101.61ZM1412.24 -101.536L1412.17 -59.9881L1453.71 -59.9164L1453.79 -101.465L1412.24 -101.536ZM1455.18 -101.462L1455.11 -59.914L1496.66 -59.8423L1496.73 -101.39L1455.18 -101.462ZM1498.13 -101.388L1498.06 -59.8399L1539.6 -59.7682L1539.68 -101.316L1498.13 -101.388ZM1539.6 -58.371L1498.05 -58.4427L1497.98 -16.8936L1539.53 -16.8218L1539.6 -58.371ZM1539.53 -15.4247L1497.98 -15.4964L1497.91 26.0507L1539.46 26.1225L1539.53 -15.4247ZM1539.45 27.5196L1497.91 27.4479L1497.83 68.9961L1539.38 69.0678L1539.45 27.5196ZM1539.38 70.4649L1497.83 70.3932L1497.76 111.941L1539.31 112.013L1539.38 70.4649ZM1539.31 113.41L1497.76 113.338L1497.69 154.887L1539.23 154.958L1539.31 113.41ZM1539.23 156.356L1497.68 156.284L1497.61 197.831L1539.16 197.903L1539.23 156.356ZM1539.16 199.3L1497.61 199.228L1497.54 240.777L1539.09 240.849L1539.16 199.3ZM1539.08 242.246L1497.53 242.174L1497.46 283.723L1539.01 283.794L1539.08 242.246ZM1539.01 285.191L1497.46 285.12L1497.39 326.668L1538.94 326.74L1539.01 285.191ZM1538.93 328.137L1497.39 328.065L1497.31 369.613L1538.86 369.685L1538.93 328.137ZM1538.86 371.082L1497.31 371.01L1497.24 412.559L1538.79 412.63L1538.86 371.082ZM1538.79 414.027L1497.24 413.956L1497.17 455.503L1538.71 455.575L1538.79 414.027ZM1538.71 456.972L1497.16 456.9L1497.09 498.449L1538.64 498.521L1538.71 456.972ZM1538.64 499.918L1497.09 499.846L1497.02 541.394L1538.57 541.465L1538.64 499.918ZM1538.56 542.862L1497.02 542.791L1496.94 584.34L1538.49 584.412L1538.56 542.862ZM1538.49 585.809L1496.94 585.737L1496.87 627.285L1538.42 627.357L1538.49 585.809ZM1538.42 628.754L1496.87 628.682L1496.8 670.229L1538.34 670.301L1538.42 628.754ZM1538.34 671.698L1496.79 671.627L1496.72 713.175L1538.27 713.246L1538.34 671.698ZM1538.27 714.644L1496.72 714.572L1496.65 756.12L1538.2 756.192L1538.27 714.644ZM1538.19 757.589L1496.65 757.517L1496.57 799.064L1538.12 799.136L1538.19 757.589ZM1538.12 800.533L1496.57 800.462L1496.5 842.011L1538.05 842.082L1538.12 800.533ZM1538.05 843.48L1496.5 843.408L1496.43 884.956L1537.97 885.028L1538.05 843.48ZM1537.97 886.425L1496.42 886.353L1496.35 927.901L1537.9 927.973L1537.97 886.425ZM1537.9 929.37L1496.35 929.299L1496.28 970.846L1537.83 970.917L1537.9 929.37ZM1537.82 972.315L1496.27 972.243L1496.2 1013.79L1537.75 1013.86L1537.82 972.315ZM1494.81 1013.79L1494.88 972.241L1453.33 972.169L1453.26 1013.72L1494.81 1013.79ZM1451.86 1013.72L1451.93 972.166L1410.38 972.095L1410.31 1013.64L1451.86 1013.72ZM1408.92 1013.64L1408.99 972.092L1367.44 972.021L1367.37 1013.57L1408.92 1013.64ZM1365.97 1013.57L1366.04 972.018L1324.49 971.947L1324.42 1013.5L1365.97 1013.57ZM1323.03 1013.49L1323.1 971.944L1281.55 971.872L1281.48 1013.42L1323.03 1013.49ZM1280.08 1013.42L1280.15 971.87L1238.6 971.798L1238.53 1013.35L1280.08 1013.42ZM1237.14 1013.35L1237.21 971.796L1195.66 971.724L1195.59 1013.27L1237.14 1013.35ZM1194.19 1013.27L1194.26 971.722L1152.72 971.65L1152.64 1013.2L1194.19 1013.27ZM1151.25 1013.2L1151.32 971.648L1109.77 971.576L1109.7 1013.13L1151.25 1013.2ZM1108.3 1013.12L1108.37 971.574L1066.82 971.502L1066.75 1013.05L1108.3 1013.12ZM1065.36 1013.05L1065.43 971.499L1023.88 971.428L1023.81 1012.98L1065.36 1013.05ZM1022.41 1012.98L1022.48 971.425L980.935 971.354L980.863 1012.9L1022.41 1012.98ZM979.466 1012.9L979.538 971.351L937.988 971.279L937.917 1012.83L979.466 1012.9ZM936.52 1012.83L936.591 971.277L895.044 971.205L894.973 1012.76L936.52 1012.83ZM893.575 1012.75L893.647 971.203L852.099 971.131L852.027 1012.68L893.575 1012.75ZM850.63 1012.68L850.702 971.129L809.153 971.057L809.081 1012.61L850.63 1012.68ZM807.684 1012.6L807.756 971.055L766.208 970.983L766.136 1012.53L807.684 1012.6ZM764.739 1012.53L764.811 970.981L723.264 970.909L723.192 1012.46L764.739 1012.53ZM721.795 1012.46L721.867 970.906L680.318 970.835L680.246 1012.38L721.795 1012.46ZM678.849 1012.38L678.921 970.832L637.373 970.76L637.302 1012.31L678.849 1012.38ZM635.905 1012.31L635.976 970.758L594.427 970.686L594.356 1012.24L635.905 1012.31ZM592.958 1012.23L593.03 970.684L551.482 970.612L551.41 1012.16L592.958 1012.23ZM550.013 1012.16L550.085 970.61L508.536 970.538L508.465 1012.09L550.013 1012.16ZM507.068 1012.09L507.139 970.536L465.592 970.464L465.52 1012.01L507.068 1012.09ZM464.123 1012.01L464.194 970.462L422.647 970.39L422.575 1011.94L464.123 1012.01ZM421.178 1011.94L421.25 970.387L379.7 970.316L379.629 1011.87L421.178 1011.94ZM378.231 1011.86L378.303 970.313L336.756 970.242L336.684 1011.79L378.231 1011.86ZM335.287 1011.79L335.359 970.239L293.811 970.168L293.739 1011.72L335.287 1011.79ZM292.342 1011.72L292.414 970.165L250.865 970.093L250.794 1011.64L292.342 1011.72ZM249.397 1011.64L249.468 970.091L207.92 970.019L207.848 1011.57L249.397 1011.64ZM206.451 1011.57L206.523 970.017L164.975 969.945L164.904 1011.5L206.451 1011.57ZM163.506 1011.49L163.578 969.943L122.031 969.871L121.959 1011.42L163.506 1011.49ZM120.562 1011.42L120.633 969.869L79.0845 969.797L79.0127 1011.35L120.562 1011.42ZM77.6155 1011.34L77.6872 969.794L36.1398 969.723L36.0681 1011.27L77.6155 1011.34ZM34.6709 1011.27L34.7426 969.72L-6.80543 969.649L-6.87714 1011.2L34.6709 1011.27ZM-8.27435 1011.2L-8.20264 969.646L-49.7507 969.575L-49.8224 1011.12L-8.27435 1011.2ZM-51.2196 1011.12L-51.1479 969.572L-92.6964 969.5L-92.7681 1011.05L-51.2196 1011.12ZM-94.1653 1011.05L-94.0936 969.498L-135.64 969.426L-135.712 1010.98L-94.1653 1011.05ZM-135.638 968.029L-94.0912 968.101L-94.0195 926.554L-135.566 926.482L-135.638 968.029ZM-135.564 925.085L-94.0171 925.156L-93.9454 883.608L-135.492 883.537L-135.564 925.085ZM-135.49 882.139L-93.943 882.211L-93.8713 840.663L-135.418 840.591L-135.49 882.139ZM-135.416 839.194L-93.8689 839.266L-93.797 797.717L-135.344 797.645L-135.416 839.194ZM-135.341 796.248L-93.7946 796.32L-93.7229 754.772L-135.27 754.701L-135.341 796.248ZM-135.267 753.304L-93.7205 753.375L-93.6488 711.827L-135.196 711.755L-135.267 753.304ZM-135.193 710.358L-93.6464 710.43L-93.5747 668.882L-135.121 668.81L-135.193 710.358ZM-135.119 667.413L-93.5722 667.484L-93.5005 625.937L-135.047 625.866L-135.119 667.413ZM-135.045 624.469L-93.4981 624.54L-93.4264 582.992L-134.973 582.92L-135.045 624.469ZM-134.971 581.523L-93.424 581.595L-93.3523 540.046L-134.899 539.974L-134.971 581.523ZM-134.897 538.577L-93.3499 538.649L-93.2782 497.101L-134.825 497.03L-134.897 538.577ZM-134.823 495.633L-93.2758 495.704L-93.2041 454.155L-134.751 454.083L-134.823 495.633ZM-134.748 452.686L-93.2016 452.758L-93.1299 411.211L-134.677 411.139L-134.748 452.686ZM-134.674 409.742L-93.1275 409.814L-93.0558 368.265L-134.603 368.194L-134.674 409.742ZM-134.6 366.797L-93.0534 366.868L-92.9817 325.32L-134.528 325.248L-134.6 366.797ZM-134.526 323.851L-92.9793 323.923L-92.9076 282.375L-134.454 282.303L-134.526 323.851ZM-134.452 280.906L-92.9052 280.978L-92.8335 239.43L-134.38 239.358L-134.452 280.906ZM-134.378 237.961L-92.831 238.032L-92.7593 196.483L-134.306 196.412L-134.378 237.961ZM-134.304 195.014L-92.7569 195.086L-92.6851 153.539L-134.232 153.467L-134.304 195.014ZM-134.229 152.07L-92.6827 152.142L-92.611 110.594L-134.158 110.522L-134.229 152.07ZM-134.155 109.125L-92.6086 109.196L-92.5369 67.6483L-134.084 67.5766L-134.155 109.125ZM-134.081 66.1794L-92.5344 66.2511L-92.4627 24.703L-134.01 24.6313L-134.081 66.1794ZM-134.007 23.2341L-92.4603 23.3058L-92.3886 -18.2413L-133.935 -18.313L-134.007 23.2341ZM-133.933 -19.7102L-92.3862 -19.6385L-92.3145 -61.1877L-133.861 -61.2594L-133.933 -19.7102ZM-90.9174 -61.1852L-90.9891 -19.6361L-49.4405 -19.5644L-49.3688 -61.1135L-90.9174 -61.1852ZM-47.9717 -61.1111L-48.0434 -19.562L-6.49521 -19.4902L-6.4235 -61.0394L-47.9717 -61.1111ZM-5.02641 -61.037L-5.09812 -19.4878L36.45 -19.4161L36.5217 -60.9653L-5.02641 -61.037ZM37.9188 -60.9629L37.8471 -19.4137L79.3947 -19.342L79.4664 -60.8912L37.9188 -60.9629ZM80.8635 -60.8888L80.7918 -19.3396L122.341 -19.2679L122.412 -60.817L80.8635 -60.8888ZM123.81 -60.8146L123.738 -19.2655L165.286 -19.1938L165.357 -60.7429L123.81 -60.8146ZM166.754 -60.7405L166.683 -19.1913L208.23 -19.1196L208.302 -60.6688L166.754 -60.7405ZM209.699 -60.6664L209.628 -19.1172L251.176 -19.0455L251.247 -60.5947L209.699 -60.6664ZM252.644 -60.5923L252.573 -19.0431L294.121 -18.9714L294.193 -60.5206L252.644 -60.5923ZM295.59 -60.5181L295.518 -18.969L337.066 -18.8973L337.138 -60.4464L295.59 -60.5181ZM338.535 -60.444L338.464 -18.8948L380.01 -18.8231L380.082 -60.3723L338.535 -60.444ZM381.479 -60.3699L381.408 -18.8207L422.957 -18.749L423.029 -60.2982L381.479 -60.3699ZM424.426 -60.2958L424.354 -18.7466L465.902 -18.6749L465.974 -60.2241L424.426 -60.2958ZM467.371 -60.2217L467.299 -18.6725L508.847 -18.6008L508.918 -60.1499L467.371 -60.2217ZM510.315 -60.1475L510.244 -18.5984L551.792 -18.5267L551.864 -60.0758L510.315 -60.1475ZM553.261 -60.0734L553.189 -18.5242L594.737 -18.4525L594.809 -60.0017L553.261 -60.0734ZM596.206 -59.9993L596.135 -18.4501L637.684 -18.3784L637.755 -59.9276L596.206 -59.9993ZM639.153 -59.9252L639.081 -18.376L680.628 -18.3043L680.7 -59.8535L639.153 -59.9252ZM682.097 -59.851L682.025 -18.3019L723.574 -18.2302L723.646 -59.7793L682.097 -59.851ZM725.043 -59.7769L724.971 -18.2277L766.518 -18.156L766.59 -59.7052L725.043 -59.7769ZM767.987 -59.7028L767.916 -18.1536L809.463 -18.0819L809.535 -59.6311L767.987 -59.7028ZM810.932 -59.6287L810.86 -18.0795L852.409 -18.0078L852.481 -59.557L810.932 -59.6287ZM853.878 -59.5546L853.806 -18.0054L895.355 -17.9337L895.426 -59.4828L853.878 -59.5546ZM896.823 -59.4804L896.752 -17.9313L938.299 -17.8596L938.37 -59.4087L896.823 -59.4804ZM939.768 -59.4063L939.696 -17.8571L981.245 -17.7854L981.317 -59.3346L939.768 -59.4063ZM982.714 -59.3322L982.642 -17.783L1024.19 -17.7113L1024.26 -59.2605L982.714 -59.3322ZM1025.66 -59.2581L1025.59 -17.7089L1067.13 -17.6372L1067.21 -59.1864L1025.66 -59.2581ZM1068.6 -59.1839L1068.53 -17.6348L1110.08 -17.5631L1110.15 -59.1122L1068.6 -59.1839ZM1111.55 -59.1098L1111.48 -17.5607L1153.03 -17.4889L1153.1 -59.0381L1111.55 -59.1098ZM1154.49 -59.0357L1154.42 -17.4865L1195.97 -17.4148L1196.04 -58.964L1154.49 -59.0357ZM1197.44 -58.9616L1197.37 -17.4124L1238.91 -17.3407L1238.99 -58.8899L1197.44 -58.9616ZM1240.38 -58.8875L1240.31 -17.3383L1281.86 -17.2666L1281.93 -58.8157L1240.38 -58.8875ZM1283.33 -58.8133L1283.26 -17.2642L1324.8 -17.1925L1324.88 -58.7416L1283.33 -58.8133ZM1326.27 -58.7392L1326.2 -17.19L1367.75 -17.1183L1367.82 -58.6675L1326.27 -58.7392ZM1369.22 -58.6651L1369.15 -17.1159L1410.69 -17.0442L1410.77 -58.5934L1369.22 -58.6651ZM1412.16 -58.591L1412.09 -17.0418L1453.64 -16.9701L1453.71 -58.5193L1412.16 -58.591ZM1455.11 -58.5168L1455.04 -16.9677L1496.58 -16.896L1496.66 -58.4451L1455.11 -58.5168ZM1496.58 -15.4988L1455.03 -15.5705L1454.96 25.9766L1496.51 26.0483L1496.58 -15.4988ZM1496.51 27.4455L1454.96 27.3738L1454.89 68.9219L1496.44 68.9936L1496.51 27.4455ZM1496.43 70.3908L1454.89 70.3191L1454.81 111.867L1496.36 111.939L1496.43 70.3908ZM1496.36 113.336L1454.81 113.264L1454.74 154.813L1496.29 154.884L1496.36 113.336ZM1496.29 156.281L1454.74 156.21L1454.67 197.757L1496.21 197.829L1496.29 156.281ZM1496.21 199.226L1454.66 199.154L1454.59 240.703L1496.14 240.775L1496.21 199.226ZM1496.14 242.172L1454.59 242.1L1454.52 283.649L1496.07 283.72L1496.14 242.172ZM1496.06 285.117L1454.52 285.046L1454.44 326.594L1495.99 326.666L1496.06 285.117ZM1495.99 328.063L1454.44 327.991L1454.37 369.539L1495.92 369.611L1495.99 328.063ZM1495.92 371.008L1454.37 370.936L1454.3 412.484L1495.84 412.556L1495.92 371.008ZM1495.84 413.953L1454.29 413.882L1454.22 455.429L1495.77 455.501L1495.84 413.953ZM1495.77 456.898L1454.22 456.826L1454.15 498.375L1495.7 498.447L1495.77 456.898ZM1495.69 499.844L1454.14 499.772L1454.07 541.319L1495.62 541.391L1495.69 499.844ZM1495.62 542.788L1454.07 542.717L1454 584.266L1495.55 584.337L1495.62 542.788ZM1495.54 585.735L1454 585.663L1453.92 627.211L1495.47 627.283L1495.54 585.735ZM1495.47 628.68L1453.92 628.608L1453.85 670.155L1495.4 670.227L1495.47 628.68ZM1495.4 671.624L1453.85 671.552L1453.78 713.101L1495.32 713.172L1495.4 671.624ZM1495.32 714.57L1453.77 714.498L1453.7 756.046L1495.25 756.118L1495.32 714.57ZM1495.25 757.515L1453.7 757.443L1453.63 798.99L1495.18 799.062L1495.25 757.515ZM1495.17 800.459L1453.63 800.387L1453.55 841.937L1495.1 842.008L1495.17 800.459ZM1495.1 843.405L1453.55 843.334L1453.48 884.882L1495.03 884.954L1495.1 843.405ZM1495.03 886.351L1453.48 886.279L1453.41 927.827L1494.95 927.899L1495.03 886.351ZM1494.95 929.296L1453.4 929.224L1453.33 970.772L1494.88 970.843L1494.95 929.296ZM1451.93 970.769L1452.01 929.222L1410.46 929.15L1410.39 970.698L1451.93 970.769ZM1408.99 970.695L1409.06 929.148L1367.51 929.076L1367.44 970.623L1408.99 970.695ZM1366.04 970.621L1366.12 929.074L1324.57 929.002L1324.5 970.549L1366.04 970.621ZM1323.1 970.547L1323.17 929L1281.62 928.928L1281.55 970.475L1323.1 970.547ZM1280.15 970.473L1280.23 928.926L1238.68 928.854L1238.61 970.401L1280.15 970.473ZM1237.21 970.399L1237.28 928.851L1195.73 928.78L1195.66 970.327L1237.21 970.399ZM1194.26 970.325L1194.34 928.777L1152.79 928.706L1152.72 970.253L1194.26 970.325ZM1151.32 970.25L1151.39 928.703L1109.84 928.632L1109.77 970.179L1151.32 970.25ZM1108.37 970.176L1108.45 928.629L1066.9 928.557L1066.83 970.105L1108.37 970.176ZM1065.43 970.102L1065.5 928.555L1023.95 928.483L1023.88 970.03L1065.43 970.102ZM1022.48 970.028L1022.56 928.481L981.009 928.409L980.937 969.956L1022.48 970.028ZM979.54 969.954L979.612 928.407L938.063 928.335L937.991 969.882L979.54 969.954ZM936.594 969.88L936.665 928.333L895.118 928.261L895.047 969.808L936.594 969.88ZM893.65 969.806L893.721 928.259L852.173 928.187L852.101 969.734L893.65 969.806ZM850.704 969.732L850.776 928.184L809.227 928.113L809.155 969.66L850.704 969.732ZM807.758 969.657L807.83 928.11L766.282 928.039L766.211 969.586L807.758 969.657ZM764.813 969.583L764.885 928.036L723.338 927.964L723.266 969.512L764.813 969.583ZM721.869 969.509L721.941 927.962L680.392 927.89L680.32 969.437L721.869 969.509ZM678.923 969.435L678.995 927.888L637.448 927.816L637.376 969.363L678.923 969.435ZM635.979 969.361L636.05 927.814L594.501 927.742L594.43 969.289L635.979 969.361ZM593.033 969.287L593.104 927.74L551.556 927.668L551.484 969.215L593.033 969.287ZM550.087 969.213L550.159 927.665L508.611 927.594L508.539 969.141L550.087 969.213ZM507.142 969.138L507.213 927.591L465.666 927.52L465.594 969.067L507.142 969.138ZM464.197 969.064L464.269 927.517L422.721 927.445L422.649 968.993L464.197 969.064ZM421.252 968.99L421.324 927.443L379.774 927.371L379.703 968.919L421.252 968.99ZM378.305 968.916L378.377 927.369L336.83 927.297L336.759 968.844L378.305 968.916ZM335.361 968.842L335.433 927.295L293.885 927.223L293.813 968.77L335.361 968.842ZM292.416 968.768L292.488 927.221L250.94 927.149L250.868 968.696L292.416 968.768ZM249.471 968.694L249.542 927.147L207.994 927.075L207.923 968.622L249.471 968.694ZM206.525 968.62L206.597 927.072L165.049 927.001L164.978 968.548L206.525 968.62ZM163.581 968.546L163.652 926.998L122.105 926.927L122.033 968.474L163.581 968.546ZM120.636 968.471L120.707 926.924L79.1586 926.853L79.0869 968.4L120.636 968.471ZM77.6897 968.397L77.7614 926.85L36.2139 926.778L36.1422 968.326L77.6897 968.397ZM34.745 968.323L34.8167 926.776L-6.73131 926.704L-6.80301 968.251L34.745 968.323ZM-8.20023 968.249L-8.12852 926.702L-49.6766 926.63L-49.7483 968.177L-8.20023 968.249ZM-51.1455 968.175L-51.0738 926.628L-92.6223 926.556L-92.694 968.103L-51.1455 968.175ZM-92.6199 925.159L-51.0714 925.231L-50.9996 883.682L-92.5482 883.611L-92.6199 925.159ZM-92.5458 882.213L-50.9972 882.285L-50.9255 840.737L-92.4741 840.665L-92.5458 882.213ZM-92.4716 839.268L-50.9231 839.34L-50.8513 797.791L-92.3999 797.719L-92.4716 839.268ZM-92.3975 796.322L-50.8489 796.394L-50.7772 754.847L-92.3258 754.775L-92.3975 796.322ZM-92.3234 753.378L-50.7748 753.449L-50.703 711.901L-92.2517 711.829L-92.3234 753.378ZM-92.2493 710.432L-50.7006 710.504L-50.6289 668.956L-92.1776 668.884L-92.2493 710.432ZM-92.1752 667.487L-50.6265 667.559L-50.5548 626.011L-92.1034 625.94L-92.1752 667.487ZM-92.101 624.543L-50.5524 624.614L-50.4807 583.066L-92.0293 582.994L-92.101 624.543ZM-92.0269 581.597L-50.4783 581.669L-50.4066 540.12L-91.9552 540.048L-92.0269 581.597ZM-91.9528 538.651L-50.4042 538.723L-50.3324 497.176L-91.8811 497.104L-91.9528 538.651ZM-91.8787 495.707L-50.33 495.778L-50.2583 454.229L-91.8068 454.158L-91.8787 495.707ZM-91.8044 452.76L-50.2559 452.832L-50.1842 411.285L-91.7327 411.213L-91.8044 452.76ZM-91.7303 409.816L-50.1818 409.888L-50.1101 368.34L-91.6586 368.268L-91.7303 409.816ZM-91.6562 366.871L-50.1077 366.942L-50.036 325.394L-91.5845 325.323L-91.6562 366.871ZM-91.5821 323.925L-50.0335 323.997L-49.9618 282.449L-91.5104 282.377L-91.5821 323.925ZM-91.5079 280.98L-49.9594 281.052L-49.8877 239.504L-91.4362 239.432L-91.5079 280.98ZM-91.4338 238.035L-49.8853 238.106L-49.8136 196.557L-91.3621 196.486L-91.4338 238.035ZM-91.3597 195.088L-49.8112 195.16L-49.7394 153.613L-91.288 153.541L-91.3597 195.088ZM-91.2856 152.144L-49.7369 152.216L-49.6652 110.668L-91.2139 110.596L-91.2856 152.144ZM-91.2115 109.199L-49.6628 109.271L-49.5911 67.7224L-91.1398 67.6507L-91.2115 109.199ZM-91.1373 66.2535L-49.5887 66.3252L-49.517 24.7771L-91.0656 24.7054L-91.1373 66.2535ZM-91.0632 23.3082L-49.5146 23.3799L-49.4429 -18.1672L-90.9915 -18.2389L-91.0632 23.3082ZM-48.0458 -18.1648L-48.1175 23.3823L-6.56933 23.4541L-6.49763 -18.0931L-48.0458 -18.1648ZM-5.10053 -18.0907L-5.17224 23.4565L36.3759 23.5282L36.4476 -18.019L-5.10053 -18.0907ZM37.8447 -18.0166L37.773 23.5306L79.3206 23.6023L79.3923 -17.9448L37.8447 -18.0166ZM80.7894 -17.9424L80.7176 23.6047L122.267 23.6764L122.338 -17.8707L80.7894 -17.9424ZM123.735 -17.8683L123.664 23.6788L165.211 23.7505L165.283 -17.7966L123.735 -17.8683ZM166.68 -17.7942L166.609 23.753L208.156 23.8247L208.228 -17.7225L166.68 -17.7942ZM209.625 -17.7201L209.553 23.8271L251.102 23.8988L251.173 -17.6484L209.625 -17.7201ZM252.57 -17.646L252.499 23.9012L294.047 23.9729L294.119 -17.5742L252.57 -17.646ZM295.516 -17.5718L295.444 23.9753L336.992 24.047L337.064 -17.5001L295.516 -17.5718ZM338.461 -17.4977L338.389 24.0495L379.936 24.1212L380.008 -17.426L338.461 -17.4977ZM381.405 -17.4236L381.333 24.1236L422.883 24.1953L422.955 -17.3519L381.405 -17.4236ZM424.352 -17.3495L424.28 24.1977L465.828 24.2694L465.899 -17.2777L424.352 -17.3495ZM467.297 -17.2753L467.225 24.2718L508.773 24.3435L508.844 -17.2036L467.297 -17.2753ZM510.241 -17.2012L510.17 24.3459L551.718 24.4176L551.79 -17.1295L510.241 -17.2012ZM553.187 -17.1271L553.115 24.4201L594.663 24.4918L594.735 -17.0554L553.187 -17.1271ZM596.132 -17.053L596.061 24.4942L637.61 24.5659L637.681 -16.9813L596.132 -17.053ZM639.078 -16.9789L639.007 24.5683L680.554 24.64L680.626 -16.9071L639.078 -16.9789ZM682.023 -16.9047L681.951 24.6424L723.5 24.7141L723.572 -16.833L682.023 -16.9047ZM724.969 -16.8306L724.897 24.7166L766.444 24.7883L766.516 -16.7589L724.969 -16.8306ZM767.913 -16.7565L767.841 24.7907L809.389 24.8624L809.461 -16.6848L767.913 -16.7565ZM810.858 -16.6824L810.786 24.8648L852.335 24.9365L852.407 -16.6106L810.858 -16.6824ZM853.804 -16.6082L853.732 24.9389L895.28 25.0106L895.352 -16.5365L853.804 -16.6082ZM896.749 -16.5341L896.678 25.013L938.225 25.0847L938.296 -16.4624L896.749 -16.5341ZM939.693 -16.46L939.622 25.0872L981.171 25.1589L981.243 -16.3883L939.693 -16.46ZM982.64 -16.3859L982.568 25.1613L1024.12 25.233L1024.19 -16.3142L982.64 -16.3859ZM1025.58 -16.3118L1025.51 25.2354L1067.06 25.3071L1067.13 -16.24L1025.58 -16.3118ZM1068.53 -16.2376L1068.46 25.3095L1110 25.3812L1110.08 -16.1659L1068.53 -16.2376ZM1111.47 -16.1635L1111.4 25.3837L1152.95 25.4554L1153.02 -16.0918L1111.47 -16.1635ZM1154.42 -16.0894L1154.35 25.4578L1195.9 25.5295L1195.97 -16.0177L1154.42 -16.0894ZM1197.36 -16.0153L1197.29 25.5319L1238.84 25.6036L1238.91 -15.9435L1197.36 -16.0153ZM1240.31 -15.9411L1240.24 25.606L1281.79 25.6777L1281.86 -15.8694L1240.31 -15.9411ZM1283.25 -15.867L1283.18 25.6801L1324.73 25.7518L1324.8 -15.7953L1283.25 -15.867ZM1326.2 -15.7929L1326.13 25.7543L1367.68 25.826L1367.75 -15.7212L1326.2 -15.7929ZM1369.14 -15.7188L1369.07 25.8284L1410.62 25.9001L1410.69 -15.6471L1369.14 -15.7188ZM1412.09 -15.6447L1412.02 25.9025L1453.57 25.9742L1453.64 -15.5729L1412.09 -15.6447ZM1453.56 27.3714L1412.01 27.2996L1411.94 68.8478L1453.49 68.9195L1453.56 27.3714ZM1453.49 70.3167L1411.94 70.245L1411.87 111.793L1453.42 111.865L1453.49 70.3167ZM1453.41 113.262L1411.87 113.19L1411.79 154.738L1453.34 154.81L1453.41 113.262ZM1453.34 156.207L1411.79 156.136L1411.72 197.683L1453.27 197.755L1453.34 156.207ZM1453.27 199.152L1411.72 199.08L1411.65 240.629L1453.19 240.701L1453.27 199.152ZM1453.19 242.098L1411.64 242.026L1411.57 283.574L1453.12 283.646L1453.19 242.098ZM1453.12 285.043L1411.57 284.972L1411.5 326.52L1453.05 326.591L1453.12 285.043ZM1453.04 327.989L1411.5 327.917L1411.42 369.465L1452.97 369.537L1453.04 327.989ZM1452.97 370.934L1411.42 370.862L1411.35 412.41L1452.9 412.482L1452.97 370.934ZM1452.9 413.879L1411.35 413.808L1411.28 455.355L1452.82 455.426L1452.9 413.879ZM1452.82 456.824L1411.27 456.752L1411.2 498.301L1452.75 498.373L1452.82 456.824ZM1452.75 499.77L1411.2 499.698L1411.13 541.245L1452.68 541.317L1452.75 499.77ZM1452.67 542.714L1411.13 542.642L1411.05 584.192L1452.6 584.263L1452.67 542.714ZM1452.6 585.66L1411.05 585.589L1410.98 627.137L1452.53 627.209L1452.6 585.66ZM1452.53 628.606L1410.98 628.534L1410.91 670.081L1452.45 670.153L1452.53 628.606ZM1452.45 671.55L1410.9 671.478L1410.83 713.027L1452.38 713.098L1452.45 671.55ZM1452.38 714.495L1410.83 714.424L1410.76 755.972L1452.31 756.044L1452.38 714.495ZM1452.3 757.441L1410.75 757.369L1410.68 798.916L1452.23 798.988L1452.3 757.441ZM1452.23 800.385L1410.68 800.313L1410.61 841.862L1452.16 841.934L1452.23 800.385ZM1452.15 843.331L1410.61 843.26L1410.53 884.808L1452.08 884.879L1452.15 843.331ZM1452.08 886.277L1410.53 886.205L1410.46 927.753L1452.01 927.825L1452.08 886.277ZM1409.06 927.751L1409.14 886.202L1367.59 886.131L1367.52 927.679L1409.06 927.751ZM1366.12 927.677L1366.19 886.128L1324.64 886.057L1324.57 927.605L1366.12 927.677ZM1323.17 927.603L1323.25 886.054L1281.7 885.983L1281.63 927.531L1323.17 927.603ZM1280.23 927.528L1280.3 885.98L1238.75 885.908L1238.68 927.457L1280.23 927.528ZM1237.28 927.454L1237.35 885.906L1195.81 885.834L1195.74 927.383L1237.28 927.454ZM1194.34 927.38L1194.41 885.832L1152.86 885.76L1152.79 927.308L1194.34 927.38ZM1151.39 927.306L1151.47 885.758L1109.92 885.686L1109.85 927.234L1151.39 927.306ZM1108.45 927.232L1108.52 885.684L1066.97 885.612L1066.9 927.16L1108.45 927.232ZM1065.5 927.158L1065.58 885.61L1024.03 885.538L1023.96 927.086L1065.5 927.158ZM1022.56 927.084L1022.63 885.535L981.083 885.464L981.011 927.012L1022.56 927.084ZM979.614 927.01L979.686 885.461L938.137 885.39L938.065 926.938L979.614 927.01ZM936.668 926.935L936.74 885.387L895.193 885.315L895.121 926.864L936.668 926.935ZM893.724 926.861L893.796 885.313L852.247 885.241L852.175 926.79L893.724 926.861ZM850.778 926.787L850.85 885.239L809.301 885.167L809.229 926.715L850.778 926.787ZM807.832 926.713L807.904 885.165L766.356 885.093L766.285 926.641L807.832 926.713ZM764.888 926.639L764.959 885.091L723.412 885.019L723.341 926.567L764.888 926.639ZM721.943 926.565L722.015 885.017L680.466 884.945L680.394 926.493L721.943 926.565ZM678.997 926.491L679.069 884.942L637.522 884.871L637.45 926.419L678.997 926.491ZM636.053 926.416L636.125 884.868L594.576 884.797L594.504 926.345L636.053 926.416ZM593.107 926.342L593.178 884.794L551.63 884.722L551.558 926.271L593.107 926.342ZM550.161 926.268L550.233 884.72L508.685 884.648L508.613 926.197L550.161 926.268ZM507.216 926.194L507.287 884.646L465.74 884.574L465.668 926.122L507.216 926.194ZM464.271 926.12L464.343 884.572L422.795 884.5L422.723 926.048L464.271 926.12ZM421.326 926.046L421.398 884.498L379.848 884.426L379.777 925.974L421.326 926.046ZM378.38 925.972L378.451 884.424L336.904 884.352L336.833 925.9L378.38 925.972ZM335.436 925.898L335.507 884.349L293.959 884.278L293.887 925.826L335.436 925.898ZM292.49 925.823L292.562 884.275L251.014 884.204L250.942 925.752L292.49 925.823ZM249.545 925.749L249.616 884.201L208.068 884.13L207.997 925.678L249.545 925.749ZM206.6 925.675L206.671 884.127L165.124 884.055L165.052 925.604L206.6 925.675ZM163.655 925.601L163.726 884.053L122.179 883.981L122.107 925.529L163.655 925.601ZM120.71 925.527L120.782 883.979L79.2327 883.907L79.161 925.455L120.71 925.527ZM77.7638 925.453L77.8355 883.905L36.2881 883.833L36.2164 925.381L77.7638 925.453ZM34.8191 925.379L34.8908 883.831L-6.65719 883.759L-6.7289 925.307L34.8191 925.379ZM-8.12611 925.305L-8.0544 883.756L-49.6024 883.685L-49.6741 925.233L-8.12611 925.305ZM-49.6 882.288L-8.05199 882.359L-7.98028 840.811L-49.5283 840.739L-49.6 882.288ZM-49.5259 839.342L-7.97787 839.414L-7.90604 797.865L-49.4542 797.793L-49.5259 839.342ZM-49.4518 796.396L-7.90362 796.468L-7.83192 754.921L-49.3801 754.849L-49.4518 796.396ZM-49.3777 753.452L-7.82951 753.523L-7.7578 711.975L-49.306 711.904L-49.3777 753.452ZM-49.3035 710.506L-7.75538 710.578L-7.68367 669.03L-49.2318 668.958L-49.3035 710.506ZM-49.2294 667.561L-7.68126 667.633L-7.60956 626.086L-49.1577 626.014L-49.2294 667.561ZM-49.1553 624.617L-7.60714 624.688L-7.53544 583.14L-49.0836 583.069L-49.1553 624.617ZM-49.0812 581.671L-7.53302 581.743L-7.46131 540.194L-49.0095 540.122L-49.0812 581.671ZM-49.0071 538.725L-7.4589 538.797L-7.38719 497.25L-48.9353 497.178L-49.0071 538.725ZM-48.9329 495.781L-7.38478 495.853L-7.31307 454.303L-48.8611 454.232L-48.9329 495.781ZM-48.8587 452.835L-7.31066 452.906L-7.23895 411.359L-48.787 411.287L-48.8587 452.835ZM-48.7846 409.89L-7.23654 409.962L-7.16483 368.414L-48.7129 368.342L-48.7846 409.89ZM-48.7105 366.945L-7.16242 367.017L-7.09071 325.468L-48.6387 325.397L-48.7105 366.945ZM-48.6363 324L-7.0883 324.071L-7.01659 282.523L-48.5646 282.451L-48.6363 324ZM-48.5622 281.054L-7.01418 281.126L-6.94247 239.578L-48.4905 239.506L-48.5622 281.054ZM-48.4881 238.109L-6.94006 238.181L-6.86835 196.631L-48.4164 196.56L-48.4881 238.109ZM-48.414 195.163L-6.86594 195.234L-6.79411 153.687L-48.3423 153.615L-48.414 195.163ZM-48.3399 152.218L-6.7917 152.29L-6.71999 110.742L-48.2681 110.67L-48.3399 152.218ZM-48.2657 109.273L-6.71757 109.345L-6.64587 67.7965L-48.194 67.7248L-48.2657 109.273ZM-48.1916 66.3276L-6.64345 66.3994L-6.57174 24.8512L-48.1199 24.7795L-48.1916 66.3276ZM-5.17465 24.8536L-5.24636 66.4018L36.3018 66.4735L36.3735 24.9253L-5.17465 24.8536ZM37.7706 24.9277L37.6989 66.4759L79.2464 66.5476L79.3181 24.9995L37.7706 24.9277ZM80.7152 25.0019L80.6435 66.55L122.193 66.6217L122.264 25.0736L80.7152 25.0019ZM123.661 25.076L123.59 66.6241L165.137 66.6959L165.209 25.1477L123.661 25.076ZM166.606 25.1501L166.534 66.6983L208.082 66.77L208.154 25.2218L166.606 25.1501ZM209.551 25.2242L209.479 66.7724L251.027 66.8441L251.099 25.2959L209.551 25.2242ZM252.496 25.2984L252.425 66.8465L293.973 66.9182L294.045 25.3701L252.496 25.2984ZM295.442 25.3725L295.37 66.9206L336.918 66.9924L336.99 25.4442L295.442 25.3725ZM338.387 25.4466L338.315 66.9948L379.862 67.0665L379.934 25.5183L338.387 25.4466ZM381.331 25.5207L381.259 67.0689L422.809 67.1406L422.88 25.5924L381.331 25.5207ZM424.278 25.5948L424.206 67.143L465.754 67.2147L465.825 25.6666L424.278 25.5948ZM467.222 25.669L467.151 67.2171L508.698 67.2888L508.77 25.7407L467.222 25.669ZM510.167 25.7431L510.096 67.2912L551.644 67.363L551.716 25.8148L510.167 25.7431ZM553.113 25.8172L553.041 67.3654L594.589 67.4371L594.661 25.8889L553.113 25.8172ZM596.058 25.8913L595.986 67.4395L637.535 67.5112L637.607 25.963L596.058 25.8913ZM639.004 25.9655L638.932 67.5136L680.48 67.5853L680.551 26.0372L639.004 25.9655ZM681.949 26.0396L681.877 67.5877L723.426 67.6595L723.498 26.1113L681.949 26.0396ZM724.895 26.1137L724.823 67.6619L766.37 67.7336L766.442 26.1854L724.895 26.1137ZM767.839 26.1878L767.767 67.736L809.315 67.8077L809.387 26.2595L767.839 26.1878ZM810.784 26.2619L810.712 67.8101L852.261 67.8818L852.333 26.3337L810.784 26.2619ZM853.73 26.3361L853.658 67.8842L895.206 67.9559L895.278 26.4078L853.73 26.3361ZM896.675 26.4102L896.603 67.9583L938.15 68.0301L938.222 26.4819L896.675 26.4102ZM939.619 26.4843L939.548 68.0325L981.097 68.1042L981.169 26.556L939.619 26.4843ZM982.566 26.5584L982.494 68.1066L1024.04 68.1783L1024.11 26.6301L982.566 26.5584ZM1025.51 26.6326L1025.44 68.1807L1066.99 68.2524L1067.06 26.7043L1025.51 26.6326ZM1068.46 26.7067L1068.38 68.2548L1109.93 68.3265L1110 26.7784L1068.46 26.7067ZM1111.4 26.7808L1111.33 68.329L1152.88 68.4007L1152.95 26.8525L1111.4 26.7808ZM1154.35 26.8549L1154.27 68.4031L1195.82 68.4748L1195.89 26.9266L1154.35 26.8549ZM1197.29 26.929L1197.22 68.4772L1238.77 68.5489L1238.84 27.0008L1197.29 26.929ZM1240.23 27.0032L1240.16 68.5513L1281.71 68.623L1281.78 27.0749L1240.23 27.0032ZM1283.18 27.0773L1283.11 68.6254L1324.66 68.6972L1324.73 27.149L1283.18 27.0773ZM1326.13 27.1514L1326.05 68.6996L1367.6 68.7713L1367.67 27.2231L1326.13 27.1514ZM1369.07 27.2255L1369 68.7737L1410.55 68.8454L1410.62 27.2972L1369.07 27.2255ZM1410.54 70.2425L1369 70.1708L1368.92 111.719L1410.47 111.791L1410.54 70.2425ZM1410.47 113.188L1368.92 113.116L1368.85 154.664L1410.4 154.736L1410.47 113.188ZM1410.4 156.133L1368.85 156.062L1368.78 197.609L1410.32 197.68L1410.4 156.133ZM1410.32 199.078L1368.77 199.006L1368.7 240.555L1410.25 240.627L1410.32 199.078ZM1410.25 242.024L1368.7 241.952L1368.63 283.5L1410.18 283.572L1410.25 242.024ZM1410.17 284.969L1368.63 284.897L1368.55 326.446L1410.1 326.517L1410.17 284.969ZM1410.1 327.914L1368.55 327.843L1368.48 369.391L1410.03 369.463L1410.1 327.914ZM1410.02 370.86L1368.48 370.788L1368.41 412.336L1409.95 412.408L1410.02 370.86ZM1409.95 413.805L1368.4 413.733L1368.33 455.281L1409.88 455.352L1409.95 413.805ZM1409.88 456.749L1368.33 456.678L1368.26 498.227L1409.8 498.299L1409.88 456.749ZM1409.8 499.696L1368.25 499.624L1368.18 541.171L1409.73 541.243L1409.8 499.696ZM1409.73 542.64L1368.18 542.568L1368.11 584.117L1409.66 584.189L1409.73 542.64ZM1409.65 585.586L1368.11 585.515L1368.03 627.063L1409.58 627.134L1409.65 585.586ZM1409.58 628.532L1368.03 628.46L1367.96 670.007L1409.51 670.079L1409.58 628.532ZM1409.51 671.476L1367.96 671.404L1367.89 712.952L1409.43 713.024L1409.51 671.476ZM1409.43 714.421L1367.88 714.35L1367.81 755.898L1409.36 755.97L1409.43 714.421ZM1409.36 757.367L1367.81 757.295L1367.74 798.842L1409.29 798.914L1409.36 757.367ZM1409.28 800.311L1367.74 800.239L1367.66 841.788L1409.21 841.86L1409.28 800.311ZM1409.21 843.257L1367.66 843.186L1367.59 884.734L1409.14 884.805L1409.21 843.257ZM1366.19 884.731L1366.26 843.183L1324.72 843.111L1324.65 884.66L1366.19 884.731ZM1323.25 884.657L1323.32 843.109L1281.77 843.037L1281.7 884.585L1323.25 884.657ZM1280.3 884.583L1280.37 843.035L1238.83 842.963L1238.75 884.511L1280.3 884.583ZM1237.36 884.509L1237.43 842.961L1195.88 842.889L1195.81 884.437L1237.36 884.509ZM1194.41 884.435L1194.48 842.887L1152.94 842.815L1152.87 884.363L1194.41 884.435ZM1151.47 884.361L1151.54 842.812L1109.99 842.741L1109.92 884.289L1151.47 884.361ZM1108.52 884.287L1108.59 842.738L1067.05 842.667L1066.98 884.215L1108.52 884.287ZM1065.58 884.212L1065.65 842.664L1024.1 842.593L1024.03 884.141L1065.58 884.212ZM1022.63 884.138L1022.7 842.59L981.157 842.518L981.086 884.067L1022.63 884.138ZM979.688 884.064L979.76 842.516L938.211 842.444L938.139 883.992L979.688 884.064ZM936.742 883.99L936.814 842.442L895.267 842.37L895.195 883.918L936.742 883.99ZM893.798 883.916L893.87 842.368L852.321 842.296L852.25 883.844L893.798 883.916ZM850.852 883.842L850.924 842.294L809.375 842.222L809.304 883.77L850.852 883.842ZM807.906 883.768L807.978 842.22L766.431 842.148L766.359 883.696L807.906 883.768ZM764.962 883.694L765.033 842.145L723.486 842.074L723.415 883.622L764.962 883.694ZM722.018 883.619L722.089 842.071L680.54 842L680.468 883.548L722.018 883.619ZM679.071 883.545L679.143 841.997L637.596 841.925L637.524 883.473L679.071 883.545ZM636.127 883.471L636.199 841.923L594.65 841.851L594.578 883.399L636.127 883.471ZM593.181 883.397L593.253 841.849L551.704 841.777L551.632 883.325L593.181 883.397ZM550.235 883.323L550.307 841.775L508.759 841.703L508.687 883.251L550.235 883.323ZM507.29 883.249L507.362 841.701L465.814 841.629L465.742 883.177L507.29 883.249ZM464.345 883.175L464.417 841.627L422.869 841.555L422.797 883.103L464.345 883.175ZM421.4 883.1L421.472 841.552L379.923 841.481L379.851 883.029L421.4 883.1ZM378.454 883.026L378.525 841.478L336.979 841.407L336.907 882.955L378.454 883.026ZM335.51 882.952L335.581 841.404L294.033 841.332L293.961 882.881L335.51 882.952ZM292.564 882.878L292.636 841.33L251.088 841.258L251.016 882.806L292.564 882.878ZM249.619 882.804L249.691 841.256L208.143 841.184L208.071 882.732L249.619 882.804ZM206.674 882.73L206.745 841.182L165.198 841.11L165.126 882.658L206.674 882.73ZM163.729 882.656L163.8 841.108L122.253 841.036L122.181 882.584L163.729 882.656ZM120.784 882.582L120.856 841.034L79.3068 840.962L79.2351 882.51L120.784 882.582ZM77.8379 882.508L77.9096 840.959L36.3622 840.888L36.2905 882.436L77.8379 882.508ZM34.8933 882.433L34.965 840.885L-6.58307 840.814L-6.65477 882.362L34.8933 882.433ZM-6.58065 839.416L34.9674 839.488L35.0392 797.939L-6.50894 797.867L-6.58065 839.416ZM-6.50653 796.47L35.0416 796.542L35.1133 754.995L-6.43482 754.923L-6.50653 796.47ZM-6.43241 753.526L35.1157 753.598L35.1875 712.049L-6.3607 711.978L-6.43241 753.526ZM-6.35829 710.581L35.1899 710.652L35.2616 669.104L-6.28658 669.032L-6.35829 710.581ZM-6.28417 667.635L35.264 667.707L35.3357 626.16L-6.21246 626.088L-6.28417 667.635ZM-6.21005 624.691L35.3381 624.763L35.4098 583.214L-6.13834 583.143L-6.21005 624.691ZM-6.13593 581.746L35.4122 581.817L35.4839 540.268L-6.06422 540.196L-6.13593 581.746ZM-6.06181 538.799L35.4863 538.871L35.5581 497.324L-5.9901 497.252L-6.06181 538.799ZM-5.98769 495.855L35.5605 495.927L35.6322 454.378L-5.91586 454.306L-5.98769 495.855ZM-5.91345 452.909L35.6346 452.98L35.7063 411.433L-5.84174 411.361L-5.91345 452.909ZM-5.83933 409.964L35.7087 410.036L35.7804 368.488L-5.76762 368.416L-5.83933 409.964ZM-5.76521 367.019L35.7828 367.091L35.8545 325.543L-5.6935 325.471L-5.76521 367.019ZM-5.69109 324.074L35.8569 324.145L35.9287 282.597L-5.61938 282.525L-5.69109 324.074ZM-5.61696 281.128L35.9311 281.2L36.0028 239.652L-5.54526 239.58L-5.61696 281.128ZM-5.54284 238.183L36.0052 238.255L36.0769 196.706L-5.47113 196.634L-5.54284 238.183ZM-5.46872 195.237L36.0793 195.308L36.1511 153.761L-5.39701 153.69L-5.46872 195.237ZM-5.3946 152.292L36.1536 152.364L36.2253 110.816L-5.32289 110.744L-5.3946 152.292ZM-5.32048 109.347L36.2277 109.419L36.2994 67.8706L-5.24877 67.7989L-5.32048 109.347ZM37.6965 67.8731L37.6248 109.421L79.1723 109.493L79.244 67.9448L37.6965 67.8731ZM80.6411 67.9472L80.5694 109.495L122.118 109.567L122.19 68.0189L80.6411 67.9472ZM123.587 68.0213L123.516 109.569L165.063 109.641L165.135 68.093L123.587 68.0213ZM166.532 68.0954L166.46 109.644L208.008 109.715L208.08 68.1671L166.532 68.0954ZM209.477 68.1695L209.405 109.718L250.953 109.789L251.025 68.2412L209.477 68.1695ZM252.422 68.2437L252.35 109.792L293.899 109.863L293.97 68.3154L252.422 68.2437ZM295.367 68.3178L295.296 109.866L336.844 109.938L336.916 68.3895L295.367 68.3178ZM338.313 68.3919L338.241 109.94L379.788 110.012L379.86 68.4636L338.313 68.3919ZM381.257 68.466L381.185 110.014L422.735 110.086L422.806 68.5377L381.257 68.466ZM424.203 68.5402L424.132 110.088L465.68 110.16L465.751 68.6119L424.203 68.5402ZM467.148 68.6143L467.077 110.162L508.624 110.234L508.696 68.686L467.148 68.6143ZM510.093 68.6884L510.021 110.237L551.57 110.308L551.641 68.7601L510.093 68.6884ZM553.038 68.7625L552.967 110.311L594.515 110.382L594.587 68.8342L553.038 68.7625ZM595.984 68.8366L595.912 110.385L637.461 110.456L637.533 68.9084L595.984 68.8366ZM638.93 68.9108L638.858 110.459L680.406 110.531L680.477 68.9825L638.93 68.9108ZM681.874 68.9849L681.803 110.533L723.352 110.605L723.424 69.0566L681.874 68.9849ZM724.821 69.059L724.749 110.607L766.296 110.679L766.368 69.1307L724.821 69.059ZM767.765 69.1331L767.693 110.681L809.241 110.753L809.312 69.2048L767.765 69.1331ZM810.71 69.2073L810.638 110.755L852.187 110.827L852.258 69.279L810.71 69.2073ZM853.656 69.2814L853.584 110.829L895.132 110.901L895.204 69.3531L853.656 69.2814ZM896.601 69.3555L896.529 110.904L938.076 110.975L938.148 69.4272L896.601 69.3555ZM939.545 69.4296L939.473 110.978L981.023 111.049L981.094 69.5013L939.545 69.4296ZM982.492 69.5037L982.42 111.052L1023.97 111.124L1024.04 69.5754L982.492 69.5037ZM1025.44 69.5779L1025.36 111.126L1066.91 111.198L1066.98 69.6496L1025.44 69.5779ZM1068.38 69.652L1068.31 111.2L1109.86 111.272L1109.93 69.7237L1068.38 69.652ZM1111.33 69.7261L1111.25 111.274L1152.8 111.346L1152.87 69.7978L1111.33 69.7261ZM1154.27 69.8002L1154.2 111.348L1195.75 111.42L1195.82 69.8719L1154.27 69.8002ZM1197.22 69.8744L1197.14 111.422L1238.69 111.494L1238.76 69.9461L1197.22 69.8744ZM1240.16 69.9485L1240.09 111.497L1281.64 111.568L1281.71 70.0202L1240.16 69.9485ZM1283.11 70.0226L1283.03 111.571L1324.58 111.642L1324.65 70.0943L1283.11 70.0226ZM1326.05 70.0967L1325.98 111.645L1367.53 111.717L1367.6 70.1684L1326.05 70.0967ZM1367.52 113.114L1325.98 113.042L1325.91 154.59L1367.45 154.662L1367.52 113.114ZM1367.45 156.059L1325.9 155.987L1325.83 197.535L1367.38 197.606L1367.45 156.059ZM1367.38 199.003L1325.83 198.932L1325.76 240.481L1367.3 240.553L1367.38 199.003ZM1367.3 241.95L1325.75 241.878L1325.68 283.426L1367.23 283.498L1367.3 241.95ZM1367.23 284.895L1325.68 284.823L1325.61 326.371L1367.16 326.443L1367.23 284.895ZM1367.15 327.84L1325.61 327.769L1325.53 369.317L1367.08 369.388L1367.15 327.84ZM1367.08 370.786L1325.53 370.714L1325.46 412.262L1367.01 412.334L1367.08 370.786ZM1367.01 413.731L1325.46 413.659L1325.39 455.206L1366.93 455.278L1367.01 413.731ZM1366.93 456.675L1325.38 456.604L1325.31 498.153L1366.86 498.224L1366.93 456.675ZM1366.86 499.622L1325.31 499.55L1325.24 541.097L1366.79 541.169L1366.86 499.622ZM1366.78 542.566L1325.24 542.494L1325.16 584.043L1366.71 584.115L1366.78 542.566ZM1366.71 585.512L1325.16 585.441L1325.09 626.989L1366.64 627.06L1366.71 585.512ZM1366.63 628.458L1325.09 628.386L1325.02 669.933L1366.56 670.005L1366.63 628.458ZM1366.56 671.402L1325.01 671.33L1324.94 712.878L1366.49 712.95L1366.56 671.402ZM1366.49 714.347L1324.94 714.275L1324.87 755.824L1366.41 755.895L1366.49 714.347ZM1366.41 757.293L1324.87 757.221L1324.79 798.768L1366.34 798.84L1366.41 757.293ZM1366.34 800.237L1324.79 800.165L1324.72 841.714L1366.27 841.786L1366.34 800.237ZM1323.32 841.712L1323.39 800.163L1281.85 800.091L1281.77 841.64L1323.32 841.712ZM1280.38 841.638L1280.45 800.089L1238.9 800.017L1238.83 841.566L1280.38 841.638ZM1237.43 841.564L1237.5 800.014L1195.96 799.943L1195.88 841.492L1237.43 841.564ZM1194.49 841.489L1194.56 799.94L1153.01 799.869L1152.94 841.418L1194.49 841.489ZM1151.54 841.415L1151.61 799.866L1110.07 799.794L1109.99 841.344L1151.54 841.415ZM1108.6 841.341L1108.67 799.792L1067.12 799.72L1067.05 841.27L1108.6 841.341ZM1065.65 841.267L1065.72 799.718L1024.18 799.646L1024.1 841.195L1065.65 841.267ZM1022.71 841.193L1022.78 799.644L981.231 799.572L981.16 841.121L1022.71 841.193ZM979.763 841.119L979.834 799.57L938.285 799.498L938.213 841.047L979.763 841.119ZM936.816 841.045L936.888 799.496L895.341 799.424L895.269 840.973L936.816 841.045ZM893.872 840.971L893.944 799.421L852.395 799.35L852.324 840.899L893.872 840.971ZM850.927 840.896L850.998 799.347L809.449 799.276L809.378 840.825L850.927 840.896ZM807.981 840.822L808.052 799.273L766.505 799.202L766.433 840.751L807.981 840.822ZM765.036 840.748L765.108 799.199L723.561 799.127L723.489 840.677L765.036 840.748ZM722.092 840.674L722.163 799.125L680.614 799.053L680.543 840.602L722.092 840.674ZM679.145 840.6L679.217 799.051L637.67 798.979L637.598 840.528L679.145 840.6ZM636.201 840.526L636.273 798.977L594.724 798.905L594.652 840.454L636.201 840.526ZM593.255 840.452L593.327 798.903L551.778 798.831L551.707 840.38L593.255 840.452ZM550.309 840.378L550.381 798.828L508.833 798.757L508.761 840.306L550.309 840.378ZM507.364 840.303L507.436 798.754L465.888 798.683L465.816 840.232L507.364 840.303ZM464.419 840.229L464.491 798.68L422.943 798.609L422.872 840.158L464.419 840.229ZM421.474 840.155L421.546 798.606L379.997 798.534L379.925 840.084L421.474 840.155ZM378.528 840.081L378.6 798.532L337.053 798.46L336.981 840.009L378.528 840.081ZM335.584 840.007L335.656 798.458L294.107 798.386L294.036 839.935L335.584 840.007ZM292.638 839.933L292.71 798.384L251.162 798.312L251.09 839.861L292.638 839.933ZM249.693 839.859L249.765 798.31L208.217 798.238L208.145 839.787L249.693 839.859ZM206.748 839.785L206.82 798.235L165.272 798.164L165.2 839.713L206.748 839.785ZM163.803 839.711L163.875 798.161L122.327 798.09L122.255 839.639L163.803 839.711ZM120.858 839.636L120.93 798.087L79.3809 798.016L79.3092 839.565L120.858 839.636ZM77.912 839.562L77.9839 798.013L36.4363 797.941L36.3646 839.491L77.912 839.562ZM36.4387 796.544L77.9863 796.616L78.058 755.069L36.5104 754.997L36.4387 796.544ZM36.5128 753.6L78.0604 753.672L78.1321 712.123L36.5845 712.052L36.5128 753.6ZM36.587 710.655L78.1345 710.726L78.2062 669.178L36.6587 669.106L36.587 710.655ZM36.6611 667.709L78.2086 667.781L78.2803 626.234L36.7328 626.162L36.6611 667.709ZM36.7352 624.765L78.2827 624.837L78.3545 583.289L36.8069 583.217L36.7352 624.765ZM36.8093 581.82L78.3569 581.891L78.4286 540.342L36.881 540.271L36.8093 581.82ZM36.8834 538.873L78.431 538.945L78.5027 497.398L36.9551 497.326L36.8834 538.873ZM36.9576 495.929L78.5051 496.001L78.5768 454.452L37.0294 454.38L36.9576 495.929ZM37.0318 452.983L78.5792 453.054L78.6509 411.507L37.1035 411.436L37.0318 452.983ZM37.1059 410.038L78.6533 410.11L78.7251 368.562L37.1776 368.49L37.1059 410.038ZM37.18 367.093L78.7275 367.165L78.7992 325.617L37.2518 325.545L37.18 367.093ZM37.2542 324.148L78.8016 324.219L78.8733 282.671L37.3259 282.6L37.2542 324.148ZM37.3283 281.202L78.8757 281.274L78.9474 239.726L37.4 239.654L37.3283 281.202ZM37.4024 238.257L78.9498 238.329L79.0215 196.78L37.4741 196.708L37.4024 238.257ZM37.4765 195.311L79.024 195.383L79.0958 153.835L37.5482 153.764L37.4765 195.311ZM37.5506 152.367L79.0982 152.438L79.1699 110.89L37.6224 110.818L37.5506 152.367ZM80.567 110.892L80.4953 152.441L122.044 152.512L122.116 110.964L80.567 110.892ZM123.513 110.967L123.441 152.515L164.989 152.587L165.061 111.038L123.513 110.967ZM166.458 111.041L166.386 152.589L207.934 152.661L208.006 111.112L166.458 111.041ZM209.403 111.115L209.331 152.663L250.879 152.735L250.951 111.187L209.403 111.115ZM252.348 111.189L252.276 152.737L293.825 152.809L293.896 111.261L252.348 111.189ZM295.293 111.263L295.222 152.811L336.77 152.883L336.842 111.335L295.293 111.263ZM338.239 111.337L338.167 152.885L379.714 152.957L379.786 111.409L338.239 111.337ZM381.183 111.411L381.111 152.96L422.661 153.031L422.732 111.483L381.183 111.411ZM424.129 111.485L424.058 153.034L465.605 153.105L465.677 111.557L424.129 111.485ZM467.074 111.56L467.003 153.108L508.55 153.179L508.622 111.631L467.074 111.56ZM510.019 111.634L509.947 153.182L551.496 153.254L551.567 111.705L510.019 111.634ZM552.964 111.708L552.893 153.256L594.441 153.328L594.513 111.779L552.964 111.708ZM595.91 111.782L595.838 153.33L637.387 153.402L637.459 111.854L595.91 111.782ZM638.856 111.856L638.784 153.404L680.331 153.476L680.403 111.928L638.856 111.856ZM681.8 111.93L681.729 153.478L723.278 153.55L723.349 112.002L681.8 111.93ZM724.747 112.004L724.675 153.553L766.222 153.624L766.294 112.076L724.747 112.004ZM767.691 112.078L767.619 153.627L809.167 153.698L809.238 112.15L767.691 112.078ZM810.635 112.153L810.564 153.701L852.113 153.772L852.184 112.224L810.635 112.153ZM853.581 112.227L853.51 153.775L895.058 153.847L895.13 112.298L853.581 112.227ZM896.527 112.301L896.455 153.849L938.002 153.921L938.074 112.372L896.527 112.301ZM939.471 112.375L939.399 153.923L980.949 153.995L981.02 112.447L939.471 112.375ZM982.417 112.449L982.346 153.997L1023.89 154.069L1023.96 112.521L982.417 112.449ZM1025.36 112.523L1025.29 154.071L1066.84 154.143L1066.91 112.595L1025.36 112.523ZM1068.31 112.597L1068.24 154.145L1109.78 154.217L1109.85 112.669L1068.31 112.597ZM1111.25 112.671L1111.18 154.22L1152.73 154.291L1152.8 112.743L1111.25 112.671ZM1154.2 112.746L1154.13 154.294L1195.67 154.365L1195.74 112.817L1154.2 112.746ZM1197.14 112.82L1197.07 154.368L1238.62 154.44L1238.69 112.891L1197.14 112.82ZM1240.09 112.894L1240.01 154.442L1281.56 154.514L1281.63 112.965L1240.09 112.894ZM1283.03 112.968L1282.96 154.516L1324.51 154.588L1324.58 113.04L1283.03 112.968ZM1324.51 155.985L1282.96 155.913L1282.89 197.46L1324.43 197.532L1324.51 155.985ZM1324.43 198.929L1282.88 198.858L1282.81 240.407L1324.36 240.478L1324.43 198.929ZM1324.36 241.876L1282.81 241.804L1282.74 283.352L1324.29 283.424L1324.36 241.876ZM1324.28 284.821L1282.74 284.749L1282.66 326.297L1324.21 326.369L1324.28 284.821ZM1324.21 327.766L1282.66 327.694L1282.59 369.243L1324.14 369.314L1324.21 327.766ZM1324.14 370.711L1282.59 370.64L1282.52 412.188L1324.06 412.26L1324.14 370.711ZM1324.06 413.657L1282.51 413.585L1282.44 455.132L1323.99 455.204L1324.06 413.657ZM1323.99 456.601L1282.44 456.529L1282.37 498.079L1323.92 498.15L1323.99 456.601ZM1323.91 499.547L1282.36 499.476L1282.29 541.023L1323.84 541.095L1323.91 499.547ZM1323.84 542.492L1282.29 542.42L1282.22 583.969L1323.77 584.041L1323.84 542.492ZM1323.76 585.438L1282.22 585.366L1282.14 626.915L1323.69 626.986L1323.76 585.438ZM1323.69 628.383L1282.14 628.312L1282.07 669.859L1323.62 669.931L1323.69 628.383ZM1323.62 671.328L1282.07 671.256L1282 712.804L1323.54 712.876L1323.62 671.328ZM1323.54 714.273L1281.99 714.201L1281.92 755.75L1323.47 755.821L1323.54 714.273ZM1323.47 757.218L1281.92 757.147L1281.85 798.694L1323.4 798.766L1323.47 757.218ZM1280.45 798.691L1280.52 757.144L1238.97 757.073L1238.9 798.62L1280.45 798.691ZM1237.51 798.617L1237.58 757.07L1196.03 756.998L1195.96 798.546L1237.51 798.617ZM1194.56 798.543L1194.63 756.996L1153.09 756.924L1153.01 798.471L1194.56 798.543ZM1151.62 798.469L1151.69 756.922L1110.14 756.85L1110.07 798.397L1151.62 798.469ZM1108.67 798.395L1108.74 756.848L1067.2 756.776L1067.12 798.323L1108.67 798.395ZM1065.73 798.321L1065.8 756.774L1024.25 756.702L1024.18 798.249L1065.73 798.321ZM1022.78 798.247L1022.85 756.7L981.306 756.628L981.234 798.175L1022.78 798.247ZM979.837 798.173L979.908 756.625L938.359 756.554L938.287 798.101L979.837 798.173ZM936.89 798.098L936.962 756.551L895.415 756.48L895.343 798.027L936.89 798.098ZM893.946 798.024L894.018 756.477L852.47 756.406L852.398 797.953L893.946 798.024ZM851.001 797.95L851.072 756.403L809.524 756.331L809.452 797.879L851.001 797.95ZM808.055 797.876L808.126 756.329L766.579 756.257L766.507 797.804L808.055 797.876ZM765.11 797.802L765.182 756.255L723.635 756.183L723.563 797.73L765.11 797.802ZM722.166 797.728L722.238 756.181L680.688 756.109L680.617 797.656L722.166 797.728ZM679.22 797.654L679.291 756.107L637.744 756.035L637.672 797.582L679.22 797.654ZM636.275 797.58L636.347 756.032L594.798 755.961L594.726 797.508L636.275 797.58ZM593.329 797.505L593.401 755.958L551.852 755.887L551.781 797.434L593.329 797.505ZM550.384 797.431L550.455 755.884L508.907 755.812L508.835 797.36L550.384 797.431ZM507.438 797.357L507.51 755.81L465.962 755.738L465.891 797.285L507.438 797.357ZM464.493 797.283L464.565 755.736L423.017 755.664L422.946 797.211L464.493 797.283ZM421.549 797.209L421.62 755.662L380.071 755.59L379.999 797.137L421.549 797.209ZM378.602 797.135L378.674 755.588L337.127 755.516L337.055 797.063L378.602 797.135ZM335.658 797.061L335.73 755.514L294.181 755.442L294.11 796.989L335.658 797.061ZM292.713 796.987L292.784 755.439L251.236 755.368L251.164 796.915L292.713 796.987ZM249.767 796.912L249.839 755.365L208.291 755.294L208.219 796.841L249.767 796.912ZM206.822 796.838L206.894 755.291L165.346 755.22L165.274 796.767L206.822 796.838ZM163.877 796.764L163.949 755.217L122.401 755.145L122.329 796.693L163.877 796.764ZM120.932 796.69L121.004 755.143L79.4551 755.071L79.3834 796.618L120.932 796.69ZM79.4575 753.674L121.006 753.746L121.078 712.198L79.5292 712.126L79.4575 753.674ZM79.5316 710.729L121.081 710.8L121.152 669.252L79.6033 669.181L79.5316 710.729ZM79.6057 667.783L121.155 667.855L121.226 626.308L79.6774 626.236L79.6057 667.783ZM79.6798 624.839L121.229 624.911L121.301 583.363L79.7515 583.291L79.6798 624.839ZM79.754 581.894L121.303 581.966L121.375 540.416L79.8257 540.345L79.754 581.894ZM79.8281 538.948L121.377 539.019L121.449 497.472L79.8998 497.4L79.8281 538.948ZM79.9022 496.003L121.451 496.075L121.523 454.526L79.974 454.454L79.9022 496.003ZM79.9764 453.057L121.525 453.129L121.597 411.581L80.0481 411.51L79.9764 453.057ZM80.0506 410.113L121.599 410.184L121.671 368.636L80.1223 368.564L80.0506 410.113ZM80.1247 367.167L121.674 367.239L121.745 325.691L80.1964 325.619L80.1247 367.167ZM80.1988 324.222L121.748 324.294L121.819 282.745L80.2705 282.674L80.1988 324.222ZM80.2729 281.277L121.822 281.348L121.894 239.8L80.3446 239.728L80.2729 281.277ZM80.347 238.331L121.896 238.403L121.968 196.854L80.4188 196.782L80.347 238.331ZM80.4212 195.385L121.97 195.457L122.042 153.91L80.4929 153.838L80.4212 195.385ZM123.439 153.912L123.367 195.459L164.915 195.531L164.987 153.984L123.439 153.912ZM166.384 153.986L166.312 195.533L207.86 195.605L207.932 154.058L166.384 153.986ZM209.329 154.06L209.257 195.607L250.805 195.679L250.877 154.132L209.329 154.06ZM252.274 154.134L252.202 195.681L293.75 195.753L293.822 154.206L252.274 154.134ZM295.219 154.208L295.148 195.756L336.696 195.827L336.768 154.28L295.219 154.208ZM338.165 154.283L338.093 195.83L379.64 195.901L379.712 154.354L338.165 154.283ZM381.109 154.357L381.037 195.904L422.586 195.976L422.658 154.428L381.109 154.357ZM424.055 154.431L423.984 195.978L465.531 196.05L465.603 154.503L424.055 154.431ZM467 154.505L466.928 196.052L508.476 196.124L508.548 154.577L467 154.505ZM509.945 154.579L509.873 196.126L551.421 196.198L551.493 154.651L509.945 154.579ZM552.89 154.653L552.819 196.2L594.367 196.272L594.439 154.725L552.89 154.653ZM595.836 154.727L595.764 196.274L637.313 196.346L637.385 154.799L595.836 154.727ZM638.782 154.801L638.71 196.349L680.257 196.42L680.329 154.873L638.782 154.801ZM681.726 154.876L681.654 196.423L723.204 196.494L723.275 154.947L681.726 154.876ZM724.672 154.95L724.601 196.497L766.148 196.569L766.219 155.021L724.672 154.95ZM767.617 155.024L767.545 196.571L809.092 196.643L809.164 155.095L767.617 155.024ZM810.561 155.098L810.49 196.645L852.038 196.717L852.11 155.17L810.561 155.098ZM853.507 155.172L853.436 196.719L894.984 196.791L895.056 155.244L853.507 155.172ZM896.453 155.246L896.381 196.793L937.928 196.865L938 155.318L896.453 155.246ZM939.397 155.32L939.325 196.867L980.874 196.939L980.946 155.392L939.397 155.32ZM982.343 155.394L982.272 196.942L1023.82 197.013L1023.89 155.466L982.343 155.394ZM1025.29 155.469L1025.22 197.016L1066.76 197.087L1066.84 155.54L1025.29 155.469ZM1068.23 155.543L1068.16 197.09L1109.71 197.162L1109.78 155.614L1068.23 155.543ZM1111.18 155.617L1111.11 197.164L1152.65 197.236L1152.73 155.688L1111.18 155.617ZM1154.12 155.691L1154.05 197.238L1195.6 197.31L1195.67 155.763L1154.12 155.691ZM1197.07 155.765L1197 197.312L1238.54 197.384L1238.62 155.837L1197.07 155.765ZM1240.01 155.839L1239.94 197.386L1281.49 197.458L1281.56 155.911L1240.01 155.839ZM1281.49 198.855L1239.94 198.783L1239.87 240.333L1281.41 240.404L1281.49 198.855ZM1281.41 241.801L1239.86 241.73L1239.79 283.278L1281.34 283.35L1281.41 241.801ZM1281.34 284.747L1239.79 284.675L1239.72 326.223L1281.27 326.295L1281.34 284.747ZM1281.26 327.692L1239.72 327.62L1239.64 369.169L1281.19 369.24L1281.26 327.692ZM1281.19 370.637L1239.64 370.566L1239.57 412.114L1281.12 412.186L1281.19 370.637ZM1281.12 413.583L1239.57 413.511L1239.5 455.058L1281.04 455.13L1281.12 413.583ZM1281.04 456.527L1239.49 456.455L1239.42 498.004L1280.97 498.076L1281.04 456.527ZM1280.97 499.473L1239.42 499.402L1239.35 540.949L1280.9 541.021L1280.97 499.473ZM1280.89 542.418L1239.35 542.346L1239.27 583.895L1280.82 583.967L1280.89 542.418ZM1280.82 585.364L1239.27 585.292L1239.2 626.84L1280.75 626.912L1280.82 585.364ZM1280.75 628.309L1239.2 628.238L1239.13 669.785L1280.67 669.856L1280.75 628.309ZM1280.67 671.254L1239.12 671.182L1239.05 712.73L1280.6 712.802L1280.67 671.254ZM1280.6 714.199L1239.05 714.127L1238.98 755.675L1280.53 755.747L1280.6 714.199ZM1237.58 755.673L1237.65 714.125L1196.1 714.053L1196.03 755.601L1237.58 755.673ZM1194.64 755.599L1194.71 714.051L1153.16 713.979L1153.09 755.527L1194.64 755.599ZM1151.69 755.525L1151.76 713.977L1110.21 713.905L1110.14 755.453L1151.69 755.525ZM1108.74 755.451L1108.82 713.902L1067.27 713.831L1067.2 755.379L1108.74 755.451ZM1065.8 755.377L1065.87 713.828L1024.32 713.757L1024.25 755.305L1065.8 755.377ZM1022.86 755.302L1022.93 713.754L981.38 713.682L981.308 755.231L1022.86 755.302ZM979.911 755.228L979.983 713.68L938.433 713.608L938.362 755.157L979.911 755.228ZM936.964 755.154L937.036 713.606L895.489 713.534L895.417 755.082L936.964 755.154ZM894.02 755.08L894.092 713.532L852.544 713.46L852.472 755.008L894.02 755.08ZM851.075 755.006L851.147 713.458L809.598 713.386L809.526 754.934L851.075 755.006ZM808.129 754.932L808.201 713.384L766.653 713.312L766.581 754.86L808.129 754.932ZM765.184 754.858L765.256 713.309L723.709 713.238L723.637 754.786L765.184 754.858ZM722.24 754.784L722.312 713.235L680.763 713.164L680.691 754.712L722.24 754.784ZM679.294 754.709L679.365 713.161L637.818 713.089L637.746 754.638L679.294 754.709ZM636.349 754.635L636.421 713.087L594.872 713.015L594.8 754.564L636.349 754.635ZM593.403 754.561L593.475 713.013L551.927 712.941L551.855 754.489L593.403 754.561ZM550.458 754.487L550.529 712.939L508.981 712.867L508.909 754.415L550.458 754.487ZM507.512 754.413L507.584 712.865L466.036 712.793L465.965 754.341L507.512 754.413ZM464.568 754.339L464.639 712.791L423.092 712.719L423.02 754.267L464.568 754.339ZM421.623 754.265L421.694 712.716L380.145 712.645L380.073 754.193L421.623 754.265ZM378.676 754.191L378.748 712.642L337.201 712.571L337.129 754.119L378.676 754.191ZM335.732 754.116L335.804 712.568L294.256 712.497L294.184 754.045L335.732 754.116ZM292.787 754.042L292.858 712.494L251.31 712.422L251.238 753.971L292.787 754.042ZM249.841 753.968L249.913 712.42L208.365 712.348L208.293 753.896L249.841 753.968ZM206.896 753.894L206.968 712.346L165.42 712.274L165.348 753.822L206.896 753.894ZM163.951 753.82L164.023 712.272L122.475 712.2L122.404 753.748L163.951 753.82ZM122.478 710.803L164.025 710.875L164.097 669.326L122.549 669.255L122.478 710.803ZM122.552 667.858L164.099 667.929L164.171 626.382L122.624 626.31L122.552 667.858ZM122.626 624.913L164.174 624.985L164.245 583.437L122.698 583.365L122.626 624.913ZM122.7 581.968L164.248 582.04L164.319 540.49L122.772 540.419L122.7 581.968ZM122.774 539.022L164.322 539.093L164.394 497.546L122.846 497.474L122.774 539.022ZM122.848 496.077L164.396 496.149L164.468 454.6L122.92 454.528L122.848 496.077ZM122.923 453.131L164.47 453.203L164.542 411.656L122.994 411.584L122.923 453.131ZM122.997 410.187L164.544 410.258L164.616 368.71L123.068 368.638L122.997 410.187ZM123.071 367.241L164.618 367.313L164.69 325.765L123.142 325.693L123.071 367.241ZM123.145 324.296L164.692 324.368L164.764 282.82L123.217 282.748L123.145 324.296ZM123.219 281.351L164.767 281.422L164.838 239.874L123.291 239.803L123.219 281.351ZM123.293 238.405L164.841 238.477L164.912 196.928L123.365 196.856L123.293 238.405ZM166.31 196.93L166.238 238.48L207.786 238.551L207.857 197.002L166.31 196.93ZM209.254 197.005L209.183 238.554L250.731 238.625L250.803 197.076L209.254 197.005ZM252.2 197.079L252.128 238.628L293.676 238.699L293.748 197.15L252.2 197.079ZM295.145 197.153L295.073 238.702L336.622 238.774L336.693 197.224L295.145 197.153ZM338.09 197.227L338.019 238.776L379.566 238.848L379.637 197.299L338.09 197.227ZM381.035 197.301L380.963 238.85L422.512 238.922L422.584 197.373L381.035 197.301ZM423.981 197.375L423.909 238.924L465.457 238.996L465.529 197.447L423.981 197.375ZM466.926 197.449L466.854 238.998L508.402 239.07L508.474 197.521L466.926 197.449ZM509.871 197.523L509.799 239.072L551.347 239.144L551.419 197.595L509.871 197.523ZM552.816 197.597L552.744 239.147L594.293 239.218L594.364 197.669L552.816 197.597ZM595.762 197.672L595.69 239.221L637.239 239.292L637.311 197.743L595.762 197.672ZM638.708 197.746L638.636 239.295L680.183 239.367L680.255 197.817L638.708 197.746ZM681.652 197.82L681.58 239.369L723.129 239.441L723.201 197.892L681.652 197.82ZM724.598 197.894L724.527 239.443L766.074 239.515L766.145 197.966L724.598 197.894ZM767.542 197.968L767.471 239.517L809.018 239.589L809.09 198.04L767.542 197.968ZM810.487 198.042L810.415 239.591L851.964 239.663L852.036 198.114L810.487 198.042ZM853.433 198.116L853.362 239.665L894.91 239.737L894.982 198.188L853.433 198.116ZM896.379 198.19L896.307 239.74L937.854 239.811L937.926 198.262L896.379 198.19ZM939.323 198.265L939.251 239.814L980.8 239.885L980.872 198.336L939.323 198.265ZM982.269 198.339L982.198 239.888L1023.74 239.96L1023.82 198.41L982.269 198.339ZM1025.21 198.413L1025.14 239.962L1066.69 240.034L1066.76 198.485L1025.21 198.413ZM1068.16 198.487L1068.09 240.036L1109.63 240.108L1109.71 198.559L1068.16 198.487ZM1111.1 198.561L1111.03 240.11L1152.58 240.182L1152.65 198.633L1111.1 198.561ZM1154.05 198.635L1153.98 240.184L1195.52 240.256L1195.6 198.707L1154.05 198.635ZM1196.99 198.709L1196.92 240.258L1238.47 240.33L1238.54 198.781L1196.99 198.709ZM1238.47 241.727L1196.92 241.656L1196.85 283.204L1238.4 283.275L1238.47 241.727ZM1238.39 284.673L1196.85 284.601L1196.77 326.149L1238.32 326.221L1238.39 284.673ZM1238.32 327.618L1196.77 327.546L1196.7 369.094L1238.25 369.166L1238.32 327.618ZM1238.24 370.563L1196.7 370.492L1196.63 412.04L1238.17 412.111L1238.24 370.563ZM1238.17 413.509L1196.62 413.437L1196.55 454.984L1238.1 455.056L1238.17 413.509ZM1238.1 456.453L1196.55 456.381L1196.48 497.93L1238.02 498.002L1238.1 456.453ZM1238.02 499.399L1196.47 499.328L1196.4 540.875L1237.95 540.946L1238.02 499.399ZM1237.95 542.344L1196.4 542.272L1196.33 583.821L1237.88 583.893L1237.95 542.344ZM1237.87 585.29L1196.33 585.218L1196.25 626.766L1237.8 626.838L1237.87 585.29ZM1237.8 628.235L1196.25 628.163L1196.18 669.711L1237.73 669.782L1237.8 628.235ZM1237.73 671.179L1196.18 671.108L1196.11 712.656L1237.65 712.728L1237.73 671.179ZM1194.71 712.654L1194.78 671.105L1153.23 671.034L1153.16 712.582L1194.71 712.654ZM1151.77 712.579L1151.84 671.031L1110.29 670.959L1110.22 712.508L1151.77 712.579ZM1108.82 712.505L1108.89 670.957L1067.34 670.885L1067.27 712.434L1108.82 712.505ZM1065.87 712.431L1065.95 670.883L1024.4 670.811L1024.33 712.359L1065.87 712.431ZM1022.93 712.357L1023 670.809L981.454 670.737L981.382 712.285L1022.93 712.357ZM979.985 712.283L980.057 670.735L938.507 670.663L938.436 712.211L979.985 712.283ZM937.038 712.209L937.11 670.661L895.563 670.589L895.492 712.137L937.038 712.209ZM894.094 712.135L894.166 670.586L852.618 670.515L852.546 712.063L894.094 712.135ZM851.149 712.061L851.221 670.512L809.672 670.441L809.6 711.989L851.149 712.061ZM808.203 711.986L808.275 670.438L766.727 670.367L766.655 711.915L808.203 711.986ZM765.258 711.912L765.33 670.364L723.783 670.292L723.711 711.841L765.258 711.912ZM722.314 711.838L722.386 670.29L680.837 670.218L680.765 711.766L722.314 711.838ZM679.368 711.764L679.44 670.216L637.892 670.144L637.821 711.692L679.368 711.764ZM636.423 711.69L636.495 670.142L594.946 670.07L594.874 711.618L636.423 711.69ZM593.477 711.616L593.549 670.068L552.001 669.996L551.929 711.544L593.477 711.616ZM550.532 711.542L550.604 669.993L509.055 669.922L508.984 711.47L550.532 711.542ZM507.586 711.468L507.658 669.919L466.111 669.848L466.039 711.396L507.586 711.468ZM464.642 711.393L464.713 669.845L423.166 669.773L423.094 711.322L464.642 711.393ZM421.697 711.319L421.769 669.771L380.219 669.699L380.147 711.248L421.697 711.319ZM378.75 711.245L378.822 669.697L337.275 669.625L337.203 711.173L378.75 711.245ZM335.806 711.171L335.878 669.623L294.33 669.551L294.258 711.099L335.806 711.171ZM292.861 711.097L292.933 669.549L251.384 669.477L251.313 711.025L292.861 711.097ZM249.915 711.023L249.987 669.475L208.439 669.403L208.367 710.951L249.915 711.023ZM206.97 710.949L207.042 669.4L165.494 669.329L165.422 710.877L206.97 710.949ZM165.497 667.932L207.044 668.003L207.116 626.456L165.568 626.385L165.497 667.932ZM165.571 624.987L207.118 625.059L207.19 583.511L165.642 583.439L165.571 624.987ZM165.645 582.042L207.193 582.114L207.264 540.565L165.717 540.493L165.645 582.042ZM165.719 539.096L207.267 539.167L207.338 497.62L165.791 497.549L165.719 539.096ZM165.793 496.151L207.341 496.223L207.413 454.674L165.865 454.602L165.793 496.151ZM165.867 453.205L207.415 453.277L207.487 411.73L165.939 411.658L165.867 453.205ZM165.941 410.261L207.489 410.333L207.561 368.784L166.013 368.713L165.941 410.261ZM166.016 367.315L207.563 367.387L207.635 325.839L166.087 325.767L166.016 367.315ZM166.09 324.37L207.637 324.442L207.709 282.894L166.161 282.822L166.09 324.37ZM166.164 281.425L207.711 281.497L207.783 239.948L166.235 239.877L166.164 281.425ZM209.18 239.951L209.109 281.499L250.657 281.571L250.728 240.023L209.18 239.951ZM252.126 240.025L252.054 281.573L293.602 281.645L293.674 240.097L252.126 240.025ZM295.071 240.099L294.999 281.647L336.547 281.719L336.619 240.171L295.071 240.099ZM338.016 240.173L337.945 281.721L379.491 281.793L379.563 240.245L338.016 240.173ZM380.96 240.247L380.889 281.795L422.438 281.867L422.51 240.319L380.96 240.247ZM423.907 240.321L423.835 281.87L465.383 281.941L465.455 240.393L423.907 240.321ZM466.852 240.396L466.78 281.944L508.328 282.015L508.399 240.467L466.852 240.396ZM509.797 240.47L509.725 282.018L551.273 282.09L551.345 240.541L509.797 240.47ZM552.742 240.544L552.67 282.092L594.219 282.164L594.29 240.615L552.742 240.544ZM595.687 240.618L595.616 282.166L637.165 282.238L637.236 240.69L595.687 240.618ZM638.634 240.692L638.562 282.24L680.109 282.312L680.181 240.764L638.634 240.692ZM681.578 240.766L681.506 282.314L723.055 282.386L723.127 240.838L681.578 240.766ZM724.524 240.84L724.453 282.388L766 282.46L766.071 240.912L724.524 240.84ZM767.468 240.914L767.397 282.463L808.944 282.534L809.016 240.986L767.468 240.914ZM810.413 240.989L810.341 282.537L851.89 282.608L851.962 241.06L810.413 240.989ZM853.359 241.063L853.287 282.611L894.836 282.683L894.907 241.134L853.359 241.063ZM896.305 241.137L896.233 282.685L937.78 282.757L937.851 241.208L896.305 241.137ZM939.249 241.211L939.177 282.759L980.726 282.831L980.798 241.283L939.249 241.211ZM982.195 241.285L982.123 282.833L1023.67 282.905L1023.74 241.357L982.195 241.285ZM1025.14 241.359L1025.07 282.907L1066.62 282.979L1066.69 241.431L1025.14 241.359ZM1068.08 241.433L1068.01 282.981L1109.56 283.053L1109.63 241.505L1068.08 241.433ZM1111.03 241.507L1110.96 283.056L1152.51 283.127L1152.58 241.579L1111.03 241.507ZM1153.98 241.581L1153.9 283.13L1195.45 283.201L1195.52 241.653L1153.98 241.581ZM1195.45 284.599L1153.9 284.527L1153.83 326.075L1195.38 326.147L1195.45 284.599ZM1195.37 327.544L1153.83 327.472L1153.76 369.02L1195.3 369.092L1195.37 327.544ZM1195.3 370.489L1153.75 370.417L1153.68 411.966L1195.23 412.037L1195.3 370.489ZM1195.23 413.434L1153.68 413.363L1153.61 454.91L1195.15 454.982L1195.23 413.434ZM1195.15 456.379L1153.6 456.307L1153.53 497.856L1195.08 497.928L1195.15 456.379ZM1195.08 499.325L1153.53 499.253L1153.46 540.801L1195.01 540.872L1195.08 499.325ZM1195 542.269L1153.46 542.198L1153.38 583.747L1194.93 583.819L1195 542.269ZM1194.93 585.216L1153.38 585.144L1153.31 626.692L1194.86 626.764L1194.93 585.216ZM1194.86 628.161L1153.31 628.089L1153.24 669.636L1194.78 669.708L1194.86 628.161ZM1151.84 669.634L1151.91 628.087L1110.36 628.015L1110.29 669.562L1151.84 669.634ZM1108.89 669.56L1108.96 628.013L1067.42 627.941L1067.35 669.488L1108.89 669.56ZM1065.95 669.486L1066.02 627.939L1024.47 627.867L1024.4 669.414L1065.95 669.486ZM1023 669.412L1023.08 627.865L981.528 627.793L981.456 669.34L1023 669.412ZM980.059 669.338L980.131 627.79L938.581 627.719L938.51 669.266L980.059 669.338ZM937.113 669.263L937.184 627.716L895.637 627.645L895.566 669.192L937.113 669.263ZM894.169 669.189L894.24 627.642L852.692 627.57L852.62 669.118L894.169 669.189ZM851.223 669.115L851.295 627.568L809.746 627.496L809.674 669.043L851.223 669.115ZM808.277 669.041L808.349 627.494L766.801 627.422L766.73 668.969L808.277 669.041ZM765.332 668.967L765.404 627.42L723.857 627.348L723.785 668.895L765.332 668.967ZM722.388 668.893L722.46 627.346L680.911 627.274L680.839 668.821L722.388 668.893ZM679.442 668.819L679.514 627.272L637.966 627.2L637.895 668.747L679.442 668.819ZM636.498 668.745L636.569 627.197L595.02 627.126L594.949 668.673L636.498 668.745ZM593.551 668.67L593.623 627.123L552.075 627.052L552.003 668.599L593.551 668.67ZM550.606 668.596L550.678 627.049L509.129 626.977L509.058 668.525L550.606 668.596ZM507.661 668.522L507.732 626.975L466.185 626.903L466.113 668.45L507.661 668.522ZM464.716 668.448L464.788 626.901L423.24 626.829L423.168 668.376L464.716 668.448ZM421.771 668.374L421.843 626.827L380.293 626.755L380.221 668.302L421.771 668.374ZM378.824 668.3L378.896 626.753L337.349 626.681L337.277 668.228L378.824 668.3ZM335.88 668.226L335.952 626.679L294.404 626.607L294.332 668.154L335.88 668.226ZM292.935 668.152L293.007 626.604L251.458 626.533L251.387 668.08L292.935 668.152ZM249.99 668.077L250.061 626.53L208.513 626.459L208.441 668.006L249.99 668.077ZM208.516 625.061L250.064 625.133L250.135 583.585L208.587 583.513L208.516 625.061ZM208.59 582.116L250.138 582.188L250.21 540.639L208.661 540.567L208.59 582.116ZM208.664 539.17L250.212 539.242L250.284 497.694L208.736 497.623L208.664 539.17ZM208.738 496.226L250.286 496.297L250.358 454.748L208.81 454.676L208.738 496.226ZM208.812 453.279L250.36 453.351L250.432 411.804L208.884 411.732L208.812 453.279ZM208.886 410.335L250.434 410.407L250.506 368.858L208.958 368.787L208.886 410.335ZM208.96 367.39L250.508 367.461L250.58 325.913L209.032 325.841L208.96 367.39ZM209.035 324.444L250.583 324.516L250.654 282.968L209.106 282.896L209.035 324.444ZM252.052 282.97L251.98 324.518L293.528 324.59L293.6 283.042L252.052 282.97ZM294.997 283.044L294.925 324.593L336.473 324.664L336.545 283.116L294.997 283.044ZM337.942 283.118L337.871 324.667L379.417 324.738L379.489 283.19L337.942 283.118ZM380.886 283.193L380.815 324.741L422.364 324.812L422.436 283.264L380.886 283.193ZM423.833 283.267L423.761 324.815L465.309 324.887L465.381 283.338L423.833 283.267ZM466.778 283.341L466.706 324.889L508.254 324.961L508.325 283.413L466.778 283.341ZM509.723 283.415L509.651 324.963L551.199 325.035L551.271 283.487L509.723 283.415ZM552.668 283.489L552.596 325.037L594.144 325.109L594.216 283.561L552.668 283.489ZM595.613 283.563L595.542 325.111L637.091 325.183L637.162 283.635L595.613 283.563ZM638.559 283.637L638.488 325.185L680.035 325.257L680.107 283.709L638.559 283.637ZM681.504 283.711L681.432 325.26L722.981 325.331L723.053 283.783L681.504 283.711ZM724.45 283.786L724.378 325.334L765.925 325.405L765.997 283.857L724.45 283.786ZM767.394 283.86L767.323 325.408L808.87 325.48L808.942 283.931L767.394 283.86ZM810.339 283.934L810.267 325.482L851.816 325.554L851.888 284.006L810.339 283.934ZM853.285 284.008L853.213 325.556L894.762 325.628L894.833 284.08L853.285 284.008ZM896.23 284.082L896.159 325.63L937.706 325.702L937.777 284.154L896.23 284.082ZM939.175 284.156L939.103 325.704L980.652 325.776L980.724 284.228L939.175 284.156ZM982.121 284.23L982.049 325.778L1023.6 325.85L1023.67 284.302L982.121 284.23ZM1025.07 284.304L1024.99 325.853L1066.54 325.924L1066.61 284.376L1025.07 284.304ZM1068.01 284.379L1067.94 325.927L1109.49 325.998L1109.56 284.45L1068.01 284.379ZM1110.95 284.453L1110.88 326.001L1152.43 326.073L1152.5 284.524L1110.95 284.453ZM1152.43 327.47L1110.88 327.398L1110.81 368.946L1152.36 369.018L1152.43 327.47ZM1152.36 370.415L1110.81 370.343L1110.73 411.892L1152.28 411.963L1152.36 370.415ZM1152.28 413.36L1110.73 413.289L1110.66 454.836L1152.21 454.908L1152.28 413.36ZM1152.21 456.305L1110.66 456.233L1110.59 497.782L1152.14 497.854L1152.21 456.305ZM1152.13 499.251L1110.58 499.179L1110.51 540.726L1152.06 540.798L1152.13 499.251ZM1152.06 542.195L1110.51 542.124L1110.44 583.673L1151.99 583.744L1152.06 542.195ZM1151.99 585.142L1110.44 585.07L1110.36 626.618L1151.91 626.69L1151.99 585.142ZM1108.97 626.616L1109.04 585.067L1067.49 584.996L1067.42 626.544L1108.97 626.616ZM1066.02 626.542L1066.09 584.993L1024.55 584.922L1024.47 626.47L1066.02 626.542ZM1023.08 626.467L1023.15 584.919L981.602 584.848L981.53 626.396L1023.08 626.467ZM980.133 626.393L980.205 584.845L938.656 584.773L938.584 626.322L980.133 626.393ZM937.187 626.319L937.258 584.771L895.712 584.699L895.64 626.247L937.187 626.319ZM894.243 626.245L894.314 584.697L852.766 584.625L852.694 626.173L894.243 626.245ZM851.297 626.171L851.369 584.623L809.82 584.551L809.748 626.099L851.297 626.171ZM808.351 626.097L808.423 584.549L766.875 584.477L766.804 626.025L808.351 626.097ZM765.406 626.023L765.478 584.475L723.931 584.403L723.859 625.951L765.406 626.023ZM722.462 625.949L722.534 584.4L680.985 584.329L680.913 625.877L722.462 625.949ZM679.516 625.874L679.588 584.326L638.041 584.255L637.969 625.803L679.516 625.874ZM636.572 625.8L636.643 584.252L595.094 584.18L595.023 625.729L636.572 625.8ZM593.626 625.726L593.697 584.178L552.149 584.106L552.077 625.654L593.626 625.726ZM550.68 625.652L550.752 584.104L509.204 584.032L509.132 625.58L550.68 625.652ZM507.735 625.578L507.806 584.03L466.259 583.958L466.187 625.506L507.735 625.578ZM464.79 625.504L464.862 583.956L423.314 583.884L423.242 625.432L464.79 625.504ZM421.845 625.43L421.917 583.882L380.367 583.81L380.296 625.358L421.845 625.43ZM378.899 625.356L378.97 583.807L337.423 583.736L337.352 625.284L378.899 625.356ZM335.954 625.281L336.026 583.733L294.478 583.662L294.406 625.21L335.954 625.281ZM293.009 625.207L293.081 583.659L251.533 583.587L251.461 625.136L293.009 625.207ZM251.535 582.19L293.083 582.262L293.155 540.713L251.607 540.641L251.535 582.19ZM251.609 539.244L293.157 539.316L293.229 497.769L251.681 497.697L251.609 539.244ZM251.683 496.3L293.231 496.371L293.303 454.822L251.755 454.751L251.683 496.3ZM251.757 453.353L293.306 453.425L293.377 411.878L251.829 411.806L251.757 453.353ZM251.832 410.409L293.38 410.481L293.451 368.933L251.903 368.861L251.832 410.409ZM251.906 367.464L293.454 367.535L293.526 325.987L251.977 325.916L251.906 367.464ZM294.923 325.99L294.851 367.538L336.399 367.61L336.471 326.061L294.923 325.99ZM337.868 326.064L337.796 367.612L379.343 367.684L379.415 326.135L337.868 326.064ZM380.812 326.138L380.74 367.686L422.29 367.758L422.362 326.21L380.812 326.138ZM423.759 326.212L423.687 367.76L465.235 367.832L465.306 326.284L423.759 326.212ZM466.704 326.286L466.632 367.834L508.179 367.906L508.251 326.358L466.704 326.286ZM509.648 326.36L509.577 367.908L551.125 367.98L551.197 326.432L509.648 326.36ZM552.594 326.434L552.522 367.983L594.07 368.054L594.142 326.506L552.594 326.434ZM595.539 326.509L595.467 368.057L637.016 368.128L637.088 326.58L595.539 326.509ZM638.485 326.583L638.414 368.131L679.961 368.202L680.033 326.654L638.485 326.583ZM681.43 326.657L681.358 368.205L722.907 368.277L722.979 326.728L681.43 326.657ZM724.376 326.731L724.304 368.279L765.851 368.351L765.923 326.803L724.376 326.731ZM767.32 326.805L767.248 368.353L808.796 368.425L808.868 326.877L767.32 326.805ZM810.265 326.879L810.193 368.427L851.742 368.499L851.814 326.951L810.265 326.879ZM853.211 326.953L853.139 368.501L894.687 368.573L894.759 327.025L853.211 326.953ZM896.156 327.027L896.085 368.576L937.632 368.647L937.703 327.099L896.156 327.027ZM939.1 327.102L939.029 368.65L980.578 368.721L980.65 327.173L939.1 327.102ZM982.047 327.176L981.975 368.724L1023.52 368.795L1023.59 327.247L982.047 327.176ZM1024.99 327.25L1024.92 368.798L1066.47 368.87L1066.54 327.321L1024.99 327.25ZM1067.94 327.324L1067.86 368.872L1109.41 368.944L1109.48 327.396L1067.94 327.324ZM1109.41 370.341L1067.86 370.269L1067.79 411.817L1109.34 411.889L1109.41 370.341ZM1109.34 413.286L1067.79 413.215L1067.72 454.762L1109.26 454.833L1109.34 413.286ZM1109.26 456.231L1067.71 456.159L1067.64 497.708L1109.19 497.78L1109.26 456.231ZM1109.19 499.177L1067.64 499.105L1067.57 540.652L1109.12 540.724L1109.19 499.177ZM1109.11 542.121L1067.57 542.049L1067.49 583.599L1109.04 583.67L1109.11 542.121ZM1066.1 583.596L1066.17 542.047L1024.62 541.975L1024.55 583.525L1066.1 583.596ZM1023.15 583.522L1023.22 541.973L981.676 541.901L981.604 583.45L1023.15 583.522ZM980.207 583.448L980.279 541.899L938.73 541.827L938.658 583.376L980.207 583.448ZM937.261 583.374L937.333 541.825L895.786 541.753L895.714 583.302L937.261 583.374ZM894.317 583.3L894.388 541.751L852.84 541.679L852.768 583.228L894.317 583.3ZM851.371 583.226L851.443 541.676L809.894 541.605L809.822 583.154L851.371 583.226ZM808.425 583.151L808.497 541.602L766.949 541.531L766.878 583.08L808.425 583.151ZM765.481 583.077L765.552 541.528L724.005 541.457L723.934 583.006L765.481 583.077ZM722.536 583.003L722.608 541.454L681.059 541.382L680.987 582.931L722.536 583.003ZM679.59 582.929L679.662 541.38L638.115 541.308L638.043 582.857L679.59 582.929ZM636.646 582.855L636.718 541.306L595.169 541.234L595.097 582.783L636.646 582.855ZM593.7 582.781L593.771 541.232L552.223 541.16L552.151 582.709L593.7 582.781ZM550.754 582.707L550.826 541.158L509.278 541.086L509.206 582.635L550.754 582.707ZM507.809 582.633L507.881 541.083L466.333 541.012L466.261 582.561L507.809 582.633ZM464.864 582.558L464.936 541.009L423.388 540.938L423.316 582.487L464.864 582.558ZM421.919 582.484L421.991 540.935L380.441 540.864L380.37 582.413L421.919 582.484ZM378.973 582.41L379.044 540.861L337.497 540.789L337.426 582.339L378.973 582.41ZM336.029 582.336L336.1 540.787L294.552 540.715L294.48 582.264L336.029 582.336ZM294.554 539.318L336.103 539.39L336.174 497.843L294.626 497.771L294.554 539.318ZM294.629 496.374L336.177 496.445L336.249 454.896L294.7 454.825L294.629 496.374ZM294.703 453.427L336.251 453.499L336.323 411.952L294.775 411.88L294.703 453.427ZM294.777 410.483L336.325 410.555L336.397 369.007L294.849 368.935L294.777 410.483ZM337.794 369.009L337.722 410.557L379.269 410.629L379.341 369.081L337.794 369.009ZM380.738 369.083L380.666 410.631L422.216 410.703L422.287 369.155L380.738 369.083ZM423.685 369.157L423.613 410.706L465.161 410.777L465.232 369.229L423.685 369.157ZM466.63 369.231L466.558 410.78L508.105 410.851L508.177 369.303L466.63 369.231ZM509.574 369.306L509.503 410.854L551.051 410.925L551.122 369.377L509.574 369.306ZM552.52 369.38L552.448 410.928L593.996 411L594.068 369.451L552.52 369.38ZM595.465 369.454L595.393 411.002L636.942 411.074L637.014 369.526L595.465 369.454ZM638.411 369.528L638.34 411.076L679.887 411.148L679.958 369.6L638.411 369.528ZM681.356 369.602L681.284 411.15L722.833 411.222L722.905 369.674L681.356 369.602ZM724.302 369.676L724.23 411.224L765.777 411.296L765.849 369.748L724.302 369.676ZM767.246 369.75L767.174 411.299L808.722 411.37L808.794 369.822L767.246 369.75ZM810.191 369.824L810.119 411.373L851.668 411.444L851.74 369.896L810.191 369.824ZM853.137 369.899L853.065 411.447L894.613 411.519L894.685 369.97L853.137 369.899ZM896.082 369.973L896.01 411.521L937.557 411.593L937.629 370.044L896.082 369.973ZM939.026 370.047L938.955 411.595L980.504 411.667L980.576 370.119L939.026 370.047ZM981.973 370.121L981.901 411.669L1023.45 411.741L1023.52 370.193L981.973 370.121ZM1024.92 370.195L1024.85 411.743L1066.39 411.815L1066.47 370.267L1024.92 370.195ZM1066.39 413.212L1024.84 413.14L1024.77 454.688L1066.32 454.759L1066.39 413.212ZM1066.32 456.156L1024.77 456.085L1024.7 497.634L1066.25 497.706L1066.32 456.156ZM1066.24 499.103L1024.69 499.031L1024.62 540.578L1066.17 540.65L1066.24 499.103ZM1023.23 540.576L1023.3 499.029L981.75 498.957L981.679 540.504L1023.23 540.576ZM980.281 540.502L980.353 498.955L938.804 498.883L938.732 540.43L980.281 540.502ZM937.335 540.428L937.407 498.88L895.86 498.809L895.788 540.356L937.335 540.428ZM894.391 540.353L894.463 498.806L852.914 498.735L852.843 540.282L894.391 540.353ZM851.445 540.279L851.517 498.732L809.968 498.66L809.897 540.208L851.445 540.279ZM808.499 540.205L808.571 498.658L767.024 498.586L766.952 540.134L808.499 540.205ZM765.555 540.131L765.626 498.584L724.079 498.512L724.008 540.059L765.555 540.131ZM722.611 540.057L722.682 498.51L681.133 498.438L681.061 539.985L722.611 540.057ZM679.664 539.983L679.736 498.436L638.189 498.364L638.117 539.911L679.664 539.983ZM636.72 539.909L636.792 498.361L595.243 498.29L595.171 539.837L636.72 539.909ZM593.774 539.835L593.845 498.287L552.297 498.216L552.225 539.763L593.774 539.835ZM550.828 539.76L550.9 498.213L509.352 498.142L509.28 539.689L550.828 539.76ZM507.883 539.686L507.955 498.139L466.407 498.067L466.335 539.615L507.883 539.686ZM464.938 539.612L465.01 498.065L423.462 497.993L423.39 539.54L464.938 539.612ZM421.993 539.538L422.065 497.991L380.516 497.919L380.444 539.466L421.993 539.538ZM379.047 539.464L379.118 497.917L337.572 497.845L337.5 539.392L379.047 539.464ZM337.574 496.448L379.121 496.52L379.193 454.97L337.646 454.899L337.574 496.448ZM337.648 453.502L379.195 453.573L379.267 412.026L337.72 411.954L337.648 453.502ZM380.664 412.029L380.592 453.576L422.142 453.647L422.213 412.1L380.664 412.029ZM423.611 412.103L423.539 453.65L465.086 453.722L465.158 412.174L423.611 412.103ZM466.555 412.177L466.484 453.724L508.031 453.796L508.103 412.249L466.555 412.177ZM509.5 412.251L509.428 453.798L550.977 453.87L551.048 412.323L509.5 412.251ZM552.446 412.325L552.374 453.872L593.922 453.944L593.994 412.397L552.446 412.325ZM595.391 412.399L595.319 453.946L636.868 454.018L636.94 412.471L595.391 412.399ZM638.337 412.473L638.265 454.02L679.813 454.092L679.884 412.545L638.337 412.473ZM681.281 412.547L681.21 454.095L722.759 454.166L722.831 412.619L681.281 412.547ZM724.228 412.622L724.156 454.169L765.703 454.24L765.775 412.693L724.228 412.622ZM767.172 412.696L767.1 454.243L808.648 454.315L808.719 412.767L767.172 412.696ZM810.117 412.77L810.045 454.317L851.594 454.389L851.665 412.842L810.117 412.77ZM853.063 412.844L852.991 454.391L894.539 454.463L894.611 412.916L853.063 412.844ZM896.008 412.918L895.936 454.465L937.483 454.537L937.555 412.99L896.008 412.918ZM938.952 412.992L938.88 454.539L980.43 454.611L980.501 413.064L938.952 412.992ZM981.899 413.066L981.827 454.613L1023.37 454.685L1023.45 413.138L981.899 413.066ZM1023.37 456.082L981.824 456.011L981.753 497.56L1023.3 497.631L1023.37 456.082ZM980.356 497.557L980.427 456.008L938.878 455.937L938.806 497.486L980.356 497.557ZM937.409 497.483L937.481 455.934L895.934 455.862L895.862 497.412L937.409 497.483ZM894.465 497.409L894.537 455.86L852.989 455.788L852.917 497.337L894.465 497.409ZM851.52 497.335L851.591 455.786L810.042 455.714L809.971 497.263L851.52 497.335ZM808.574 497.261L808.645 455.712L767.098 455.64L767.026 497.189L808.574 497.261ZM765.629 497.187L765.701 455.638L724.154 455.566L724.082 497.115L765.629 497.187ZM722.685 497.113L722.756 455.564L681.207 455.492L681.136 497.041L722.685 497.113ZM679.738 497.038L679.81 455.489L638.263 455.418L638.191 496.967L679.738 497.038ZM636.794 496.964L636.866 455.415L595.317 455.343L595.245 496.893L636.794 496.964ZM593.848 496.89L593.92 455.341L552.371 455.269L552.3 496.819L593.848 496.89ZM550.902 496.816L550.974 455.267L509.426 455.195L509.354 496.744L550.902 496.816ZM507.957 496.742L508.029 455.193L466.481 455.121L466.409 496.67L507.957 496.742ZM465.012 496.668L465.084 455.119L423.536 455.047L423.465 496.596L465.012 496.668ZM422.067 496.594L422.139 455.045L380.59 454.973L380.518 496.522L422.067 496.594Z" fill="#F4F4F4"/>
</svg>
