<svg width="55" height="56" viewBox="0 0 55 56" fill="none" xmlns="http://www.w3.org/2000/svg">
<g clip-path="url(#clip0_340_895)">
<path d="M1.48534 54.0555C1.46687 54.0369 1.44828 54.0185 1.42981 53.9999C-0.248123 52.322 -0.472097 49.6875 0.879163 47.7369C4.72873 42.1793 9.77112 37.5738 15.7037 34.2227L21.2627 39.7816C17.9114 45.7142 13.3059 50.7566 7.74836 54.6062C5.79769 55.9574 3.16317 55.7335 1.48534 54.0555Z" fill="url(#paint0_linear_340_895)"/>
<path d="M8.82788 38.9979L16.4872 46.6572C18.2786 44.5313 19.8778 42.2327 21.2624 39.7816L15.7034 34.2227C13.2524 35.6071 10.9538 37.2064 8.82788 38.9979Z" fill="url(#paint1_linear_340_895)"/>
<path d="M0.0976562 51.5142C0.2821 52.43 0.728438 53.2986 1.42969 53.9998C1.44816 54.0184 1.46675 54.0369 1.48522 54.0555C3.16315 55.7334 5.79757 55.9574 7.74824 54.6061C13.3058 50.7565 17.9113 45.7142 21.2625 39.7816L16.5463 35.0654L0.0976562 51.5142Z" fill="url(#paint2_linear_340_895)"/>
<path d="M35.0225 40.4401C46.0557 40.4401 54.9999 31.4959 54.9999 20.4627C54.9999 9.42952 46.0557 0.485352 35.0225 0.485352C23.9893 0.485352 15.0452 9.42952 15.0452 20.4627C15.0452 31.4959 23.9893 40.4401 35.0225 40.4401Z" fill="url(#paint3_linear_340_895)"/>
<path d="M35.0226 36.5672C43.9171 36.5672 51.1275 29.3568 51.1275 20.4623C51.1275 11.5678 43.9171 4.35742 35.0226 4.35742C26.1281 4.35742 18.9177 11.5678 18.9177 20.4623C18.9177 29.3568 26.1281 36.5672 35.0226 36.5672Z" fill="url(#paint4_linear_340_895)"/>
<path d="M15.0452 20.4624C15.0452 31.4955 23.9893 40.4398 35.0225 40.4398C46.0557 40.4398 54.9999 31.4955 54.9999 20.4624C54.9999 18.0729 54.5789 15.7821 53.8095 13.6582H16.2355C15.4662 15.782 15.0452 18.0728 15.0452 20.4624Z" fill="url(#paint5_linear_340_895)"/>
<path d="M20.8964 34.5889C28.698 42.3905 41.347 42.3905 49.1486 34.5889C56.9502 26.7873 56.9502 14.1383 49.1486 6.33675C47.459 4.64711 45.5415 3.32496 43.4956 2.36719L16.9268 28.9359C17.8846 30.9818 19.2068 32.8993 20.8964 34.5889Z" fill="url(#paint6_linear_340_895)"/>
<path d="M35.0225 34.0777C42.5416 34.0777 48.637 27.9823 48.637 20.4632C48.637 12.9441 42.5416 6.84863 35.0225 6.84863C27.5034 6.84863 21.408 12.9441 21.408 20.4632C21.408 27.9823 27.5034 34.0777 35.0225 34.0777Z" fill="url(#paint7_linear_340_895)"/>
<path d="M48.637 20.4632C48.637 12.9441 42.5416 6.84863 35.0225 6.84863C27.5034 6.84863 21.408 12.9441 21.408 20.4632C21.408 22.0916 21.6949 23.6529 22.2192 25.1003H47.8258C48.3501 23.6527 48.637 22.0916 48.637 20.4632Z" fill="url(#paint8_linear_340_895)"/>
<path d="M44.6496 10.8362C39.3329 5.51949 30.7126 5.51938 25.3958 10.8362C20.079 16.153 20.079 24.7732 25.3958 30.0901C26.5472 31.2416 27.854 32.1426 29.2482 32.7954L47.3548 14.6888C46.7021 13.2945 45.8011 11.9877 44.6496 10.8362Z" fill="url(#paint9_linear_340_895)"/>
<path d="M35.0225 32.6329C41.7441 32.6329 47.193 27.184 47.193 20.4625C47.193 13.7409 41.7441 8.29199 35.0225 8.29199C28.301 8.29199 22.8521 13.7409 22.8521 20.4625C22.8521 27.184 28.301 32.6329 35.0225 32.6329Z" fill="url(#paint10_linear_340_895)"/>
<path d="M20.1802 40.7486L14.7367 35.3051C14.3259 34.8943 14.5435 34.0106 15.2227 33.3313C15.8042 32.7499 16.5526 32.4941 17.0166 32.7184L17.5454 32.9738C19.7533 34.0406 21.4447 35.732 22.5115 37.9399L22.7669 38.4687C22.9911 38.9327 22.7355 39.681 22.154 40.2626C21.4746 40.9418 20.591 41.1595 20.1802 40.7486Z" fill="url(#paint11_linear_340_895)"/>
<path d="M20.18 40.7489C20.5908 41.1596 21.4745 40.9421 22.1538 40.2629C22.7352 39.6814 22.991 38.9331 22.7667 38.4691L22.5113 37.9403C21.9779 36.8363 21.2884 35.8615 20.4562 35.0293L17.4583 38.0272L20.18 40.7489Z" fill="url(#paint12_linear_340_895)"/>
<path d="M15.2225 33.3316C14.5433 34.0109 14.3256 34.8945 14.7365 35.3054L20.18 40.7489C20.5908 41.1597 21.4746 40.9421 22.1538 40.2629C22.5073 39.9094 22.7393 39.4945 22.8174 39.1191L16.3663 32.668C15.9909 32.7461 15.576 32.9782 15.2225 33.3316Z" fill="url(#paint13_linear_340_895)"/>
<path d="M22.2171 37.7516L17.7338 33.2682C17.3954 32.9298 17.5747 32.202 18.134 31.6426C18.6129 31.1637 19.2293 30.953 19.6115 31.1377L20.047 31.3481C21.8655 32.2267 23.2586 33.6198 24.1372 35.4383L24.3476 35.8738C24.5323 36.256 24.3216 36.8724 23.8428 37.3513C23.2833 37.9108 22.5554 38.0899 22.2171 37.7516Z" fill="url(#paint14_linear_340_895)"/>
<path d="M22.2168 37.7518C22.5552 38.0902 23.2829 37.9109 23.8424 37.3515C24.3213 36.8726 24.5319 36.2563 24.3473 35.8741L24.1368 35.4386C23.6975 34.5292 23.1296 33.7264 22.4442 33.041L19.9751 35.5101L22.2168 37.7518Z" fill="url(#paint15_linear_340_895)"/>
<path d="M18.1336 31.6423C17.5741 32.2017 17.3949 32.9295 17.7333 33.2679L22.2167 37.7512C22.5551 38.0896 23.2828 37.9103 23.8423 37.351C24.1334 37.0599 24.3246 36.7182 24.389 36.4089L19.0758 31.0957C18.7664 31.16 18.4247 31.3512 18.1336 31.6423Z" fill="url(#paint16_linear_340_895)"/>
<path d="M1.98078 46.2158C1.60352 46.7147 1.23603 47.2218 0.879062 47.7372C0.642412 48.0789 0.455068 48.4419 0.314453 48.8167L6.66889 55.1712C7.04368 55.0304 7.40666 54.8432 7.74837 54.6065C8.26378 54.2495 8.77092 53.8821 9.26978 53.5048L1.98078 46.2158Z" fill="url(#paint17_linear_340_895)"/>
</g>
<defs>
<linearGradient id="paint0_linear_340_895" x1="7.33683" y1="42.8815" x2="10.4558" y2="46.0005" gradientUnits="userSpaceOnUse">
<stop stop-color="#5A5A5A"/>
<stop offset="1" stop-color="#444444"/>
</linearGradient>
<linearGradient id="paint1_linear_340_895" x1="14.8017" y1="40.6833" x2="17.576" y2="37.9091" gradientUnits="userSpaceOnUse">
<stop stop-color="#433F43" stop-opacity="0"/>
<stop offset="1" stop-color="#1A1A1A"/>
</linearGradient>
<linearGradient id="paint2_linear_340_895" x1="9.83835" y1="45.383" x2="13.4153" y2="48.9599" gradientUnits="userSpaceOnUse">
<stop stop-color="#433F43" stop-opacity="0"/>
<stop offset="1" stop-color="#1A1A1A"/>
</linearGradient>
<linearGradient id="paint3_linear_340_895" x1="22.8026" y1="8.24282" x2="44.8466" y2="30.2868" gradientUnits="userSpaceOnUse">
<stop stop-color="#B3DAFE"/>
<stop offset="1" stop-color="#0182FC"/>
</linearGradient>
<linearGradient id="paint4_linear_340_895" x1="46.2944" y1="31.7341" x2="22.0349" y2="7.47448" gradientUnits="userSpaceOnUse">
<stop stop-color="#B3DAFE"/>
<stop offset="1" stop-color="#0182FC"/>
</linearGradient>
<linearGradient id="paint5_linear_340_895" x1="35.0225" y1="20.7152" x2="35.0225" y2="44.2159" gradientUnits="userSpaceOnUse">
<stop stop-color="#314DC9" stop-opacity="0"/>
<stop offset="0.2761" stop-color="#304BC4" stop-opacity="0.276"/>
<stop offset="0.5628" stop-color="#2B45B8" stop-opacity="0.563"/>
<stop offset="0.8535" stop-color="#243BA3" stop-opacity="0.854"/>
<stop offset="1" stop-color="#1F3596"/>
</linearGradient>
<linearGradient id="paint6_linear_340_895" x1="35.2299" y1="20.6287" x2="52.719" y2="38.1179" gradientUnits="userSpaceOnUse">
<stop stop-color="#314DC9" stop-opacity="0"/>
<stop offset="0.2761" stop-color="#304BC4" stop-opacity="0.276"/>
<stop offset="0.5628" stop-color="#2B45B8" stop-opacity="0.563"/>
<stop offset="0.8535" stop-color="#243BA3" stop-opacity="0.854"/>
<stop offset="1" stop-color="#1F3596"/>
</linearGradient>
<linearGradient id="paint7_linear_340_895" x1="43.3504" y1="28.7909" x2="28.3274" y2="13.7681" gradientUnits="userSpaceOnUse">
<stop stop-color="#F5FBFF"/>
<stop offset="1" stop-color="#DBD5EF"/>
</linearGradient>
<linearGradient id="paint8_linear_340_895" x1="33.4649" y1="15.9041" x2="30.1799" y2="6.29229" gradientUnits="userSpaceOnUse">
<stop stop-color="#DBD5EF" stop-opacity="0"/>
<stop offset="0.2853" stop-color="#D9D2EE" stop-opacity="0.285"/>
<stop offset="0.4739" stop-color="#D4C9E9" stop-opacity="0.474"/>
<stop offset="0.6346" stop-color="#CBBAE2" stop-opacity="0.635"/>
<stop offset="0.7795" stop-color="#BFA5D7" stop-opacity="0.78"/>
<stop offset="0.9126" stop-color="#AF8ACA" stop-opacity="0.913"/>
<stop offset="1" stop-color="#A274BF"/>
</linearGradient>
<linearGradient id="paint9_linear_340_895" x1="28.3365" y1="17.2532" x2="22.2531" y2="14.3331" gradientUnits="userSpaceOnUse">
<stop stop-color="#DBD5EF" stop-opacity="0"/>
<stop offset="0.2853" stop-color="#D9D2EE" stop-opacity="0.285"/>
<stop offset="0.4739" stop-color="#D4C9E9" stop-opacity="0.474"/>
<stop offset="0.6346" stop-color="#CBBAE2" stop-opacity="0.635"/>
<stop offset="0.7795" stop-color="#BFA5D7" stop-opacity="0.78"/>
<stop offset="0.9126" stop-color="#AF8ACA" stop-opacity="0.913"/>
<stop offset="1" stop-color="#A274BF"/>
</linearGradient>
<linearGradient id="paint10_linear_340_895" x1="21.5927" y1="7.03258" x2="39.1795" y2="24.6195" gradientUnits="userSpaceOnUse">
<stop stop-color="white"/>
<stop offset="1" stop-color="#EAF6FF" stop-opacity="0"/>
</linearGradient>
<linearGradient id="paint11_linear_340_895" x1="19.9516" y1="35.4948" x2="17.7847" y2="37.6617" gradientUnits="userSpaceOnUse">
<stop stop-color="#FEF0AE"/>
<stop offset="1" stop-color="#FAC600"/>
</linearGradient>
<linearGradient id="paint12_linear_340_895" x1="20.3289" y1="38.8684" x2="20.9829" y2="40.8575" gradientUnits="userSpaceOnUse">
<stop stop-color="#FE9738" stop-opacity="0"/>
<stop offset="1" stop-color="#FE9738"/>
</linearGradient>
<linearGradient id="paint13_linear_340_895" x1="18.7237" y1="36.7228" x2="17.368" y2="38.0785" gradientUnits="userSpaceOnUse">
<stop stop-color="#FE9738" stop-opacity="0"/>
<stop offset="1" stop-color="#FE9738"/>
</linearGradient>
<linearGradient id="paint14_linear_340_895" x1="22.028" y1="33.4184" x2="20.2433" y2="35.2032" gradientUnits="userSpaceOnUse">
<stop stop-color="#FEF0AE"/>
<stop offset="1" stop-color="#FAC600"/>
</linearGradient>
<linearGradient id="paint15_linear_340_895" x1="22.3386" y1="36.1969" x2="22.8772" y2="37.8353" gradientUnits="userSpaceOnUse">
<stop stop-color="#FE9738" stop-opacity="0"/>
<stop offset="1" stop-color="#FE9738"/>
</linearGradient>
<linearGradient id="paint16_linear_340_895" x1="21.0164" y1="34.4293" x2="19.8998" y2="35.5458" gradientUnits="userSpaceOnUse">
<stop stop-color="#FE9738" stop-opacity="0"/>
<stop offset="1" stop-color="#FE9738"/>
</linearGradient>
<linearGradient id="paint17_linear_340_895" x1="0.0858593" y1="35.7195" x2="6.26315" y2="55.9871" gradientUnits="userSpaceOnUse">
<stop stop-color="#433F43" stop-opacity="0"/>
<stop offset="1" stop-color="#1A1A1A"/>
</linearGradient>
<clipPath id="clip0_340_895">
<rect width="55" height="55" fill="white" transform="translate(0 0.485352)"/>
</clipPath>
</defs>
</svg>
