<svg width="220" height="384" viewBox="0 0 220 384" fill="none" xmlns="http://www.w3.org/2000/svg">
<rect x="101.156" y="-23" width="107.837" height="107.837" rx="10" fill="#79C7D0"/>
<path d="M2.59044e-05 17.0808C26.3222 17.0808 51.5662 27.4869 70.1788 46.01C88.7914 64.5331 99.2478 89.6558 99.2478 115.851C99.2478 142.047 88.7914 167.17 70.1788 185.693C51.5662 204.216 26.3222 214.622 1.86963e-05 214.622L1.38175e-05 180.54C17.2393 180.54 33.7724 173.724 45.9624 161.593C58.1524 149.461 65.0007 133.008 65.0007 115.851C65.0007 98.695 58.1524 82.2414 45.9624 70.11C33.7724 57.9786 17.2393 51.1632 2.1435e-05 51.1632L2.59044e-05 17.0808Z" fill="#F7FAFF"/>
<path d="M254.799 417.889C228.477 417.889 203.233 407.483 184.62 388.96C166.007 370.437 155.551 345.314 155.551 319.118C155.551 292.923 166.007 267.8 184.62 249.277C203.233 230.754 228.477 220.348 254.799 220.348L254.799 254.43C237.56 254.43 221.026 261.245 208.836 273.377C196.646 285.508 189.798 301.962 189.798 319.118C189.798 336.275 196.646 352.728 208.836 364.86C221.026 376.991 237.56 383.806 254.799 383.806L254.799 417.889Z" fill="#F7FAFF"/>
<path d="M38.3362 108.419C43.7334 111.485 43.7334 119.263 38.3362 122.33L20.5407 132.441C15.2076 135.471 8.58867 131.619 8.58867 125.485L8.58868 105.263C8.58868 99.1293 15.2076 95.2774 20.5408 98.3076L38.3362 108.419Z" fill="#E5EFFF"/>
<path d="M216.465 326.551C211.067 323.485 211.067 315.706 216.465 312.64L234.26 302.529C239.593 299.499 246.212 303.351 246.212 309.484L246.212 329.707C246.212 335.84 239.593 339.692 234.26 336.662L216.465 326.551Z" fill="#E5EFFF"/>
</svg>
