<svg width="170" height="384" viewBox="0 0 170 384" fill="none" xmlns="http://www.w3.org/2000/svg">
<rect x="51.1562" y="-23" width="107.837" height="107.837" rx="10" fill="#EDB159"/>
<path d="M204.799 417.889C178.477 417.889 153.233 407.483 134.62 388.96C116.007 370.437 105.551 345.314 105.551 319.118C105.551 292.923 116.007 267.8 134.62 249.277C153.233 230.754 178.477 220.348 204.799 220.348L204.799 254.43C187.56 254.43 171.026 261.245 158.836 273.377C146.646 285.508 139.798 301.962 139.798 319.118C139.798 336.275 146.646 352.728 158.836 364.86C171.026 376.991 187.56 383.806 204.799 383.806L204.799 417.889Z" fill="#79C7D0"/>
<path d="M166.465 326.551C161.067 323.485 161.067 315.706 166.465 312.64L184.26 302.529C189.593 299.499 196.212 303.351 196.212 309.484L196.212 329.707C196.212 335.84 189.593 339.692 184.26 336.662L166.465 326.551Z" fill="#E5EFFF"/>
</svg>
