<svg width="116" height="44" viewBox="0 0 116 44" fill="none" xmlns="http://www.w3.org/2000/svg">
<path d="M51.6432 30.3105C50.738 30.3105 49.8424 30.0708 48.9561 29.5915C48.0698 29.0938 47.3626 28.1352 46.8347 26.7157L46.1275 24.9183H38.2077L35.9448 30.1722H34.672L42.5919 11.9219H43.4404L49.6632 26.7157C50.1346 27.7849 50.5778 28.5223 50.9926 28.9279C51.4074 29.315 52.0014 29.5455 52.7746 29.6192V30.1722C52.4352 30.2644 52.058 30.3105 51.6432 30.3105ZM45.5618 23.8122L42.1676 15.7932L38.6319 23.8122H45.5618ZM54.4651 20.494C54.4651 19.5538 54.3331 18.8625 54.0691 18.4201C53.8051 17.9593 53.2771 17.7288 52.4851 17.7288H51.9194V17.1758H54.4651C55.1628 17.1758 55.6908 17.268 56.0491 17.4523C56.4262 17.6366 56.6996 17.9131 56.8693 18.2818H57.0108C57.4068 17.8947 57.9159 17.5721 58.5382 17.314C59.1793 17.0375 59.8959 16.8992 60.6878 16.8992C61.4798 16.8992 62.1587 17.0467 62.7244 17.3417C63.2901 17.6182 63.7427 18.1159 64.0821 18.8349C64.5721 18.2265 65.1944 17.7565 65.9491 17.4246C66.7218 17.0744 67.5138 16.8992 68.3251 16.8992C69.5317 16.8992 70.4934 17.268 71.2102 18.0053C71.9263 18.7427 72.285 20.0332 72.285 21.8766V30.1722H69.7393V21.8766C69.7393 20.5493 69.5503 19.5999 69.1736 19.0284C68.7963 18.4385 68.2306 18.1436 67.4765 18.1436C66.9481 18.1436 66.392 18.3371 65.8077 18.7243C65.2227 19.093 64.7894 19.4985 64.5066 19.941C64.6004 20.2175 64.648 20.8627 64.648 21.8766V30.1722H62.1021V21.8766C62.1021 20.5493 61.9136 19.5999 61.5364 19.0284C61.1592 18.4385 60.5935 18.1436 59.8393 18.1436C58.8399 18.1436 57.8971 18.6321 57.0108 19.6091V30.1722H54.4651V20.494ZM81.7085 30.4487C80.426 30.4487 79.3133 30.1538 78.3709 29.5639C77.4278 28.9555 76.711 28.1352 76.2212 27.1028C75.7307 26.0705 75.4858 24.9276 75.4858 23.674C75.4858 22.4204 75.7307 21.2775 76.2212 20.2451C76.711 19.2128 77.4278 18.4017 78.3709 17.8118C79.3133 17.2034 80.426 16.8992 81.7085 16.8992C82.9904 16.8992 84.1031 17.2034 85.0462 17.8118C85.9886 18.4017 86.7054 19.2128 87.1959 20.2451C87.6857 21.2775 87.9313 22.4204 87.9313 23.674C87.9313 24.9276 87.6857 26.0705 87.1959 27.1028C86.7054 28.1352 85.9886 28.9555 85.0462 29.5639C84.1031 30.1538 82.9904 30.4487 81.7085 30.4487ZM81.7085 29.3427C82.406 29.3427 83.0186 29.0938 83.5471 28.596C84.0935 28.0983 84.5088 27.4162 84.7916 26.5498C85.0931 25.6833 85.2442 24.7248 85.2442 23.674C85.2442 22.6232 85.0931 21.6646 84.7916 20.7982C84.5088 19.9317 84.0935 19.2497 83.5471 18.7519C83.0186 18.2542 82.406 18.0053 81.7085 18.0053C81.0104 18.0053 80.3881 18.2542 79.8417 18.7519C79.3133 19.2497 78.8986 19.9317 78.5971 20.7982C78.3143 21.6646 78.1729 22.6232 78.1729 23.674C78.1729 24.7248 78.3143 25.6833 78.5971 26.5498C78.8986 27.4162 79.3133 28.0983 79.8417 28.596C80.3881 29.0938 81.0104 29.3427 81.7085 29.3427ZM96.0852 30.4487C94.6709 30.4487 93.5112 30.08 92.6061 29.3427C91.7196 28.6053 91.2767 27.3148 91.2767 25.4714V20.494C91.2767 19.5538 91.1442 18.8625 90.8807 18.4201C90.6165 17.9593 90.0887 17.7288 89.2967 17.7288H89.0138V17.1758H91.2767C91.9741 17.1758 92.4929 17.268 92.8323 17.4523C93.1904 17.6182 93.445 17.9316 93.5961 18.3924C93.7465 18.8533 93.8223 19.5538 93.8223 20.494V25.4714C93.8223 26.7618 94.1142 27.7112 94.6992 28.3195C95.3022 28.9095 96.0472 29.2044 96.9337 29.2044C97.9327 29.2044 98.8758 28.7159 99.7622 27.7388V17.1758H102.308V30.1722H100.894L99.9037 29.0661H99.7622C99.3662 29.4533 98.8475 29.7851 98.2066 30.0616C97.5843 30.3197 96.8772 30.4487 96.0852 30.4487ZM106.611 20.494C106.611 19.5538 106.479 18.8625 106.215 18.4201C105.952 17.9593 105.423 17.7288 104.631 17.7288H104.348V17.1758H106.611C107.328 17.1758 107.865 17.2771 108.223 17.4799C108.601 17.6643 108.865 17.9777 109.015 18.4201H109.157C109.496 17.9961 109.949 17.6366 110.515 17.3417C111.1 17.0467 111.778 16.8992 112.551 16.8992C113.306 16.8992 113.871 17.0375 114.248 17.314C114.569 17.5537 114.899 17.9684 115.238 18.5584L114.107 19.3879C113.9 19.1114 113.598 18.9086 113.202 18.7796C112.806 18.6321 112.353 18.5584 111.844 18.5584C111.278 18.5584 110.76 18.6874 110.288 18.9455C109.817 19.1851 109.44 19.5169 109.157 19.941V30.1722H106.611V20.494Z" fill="black"/>
<path d="M36.6513 34.5663H35.6117V37.7135H35.1898V34.5663H34.1527V34.1932H36.6513V34.5663ZM41.8014 37.7135H39.893V34.1932H41.7211V34.5663H40.3149V35.7373H41.6157V36.108H40.3149V37.3403H41.8014V37.7135ZM47.6197 37.5662C47.3535 37.7037 47.022 37.7725 46.6252 37.7725C46.113 37.7725 45.7028 37.6112 45.3948 37.2888C45.0868 36.9664 44.9327 36.5433 44.9327 36.0196C44.9327 35.4567 45.106 35.0017 45.4526 34.6547C45.7991 34.3077 46.2385 34.1343 46.7708 34.1343C47.1124 34.1343 47.3953 34.1825 47.6197 34.2791V34.7186C47.3618 34.5778 47.0772 34.5074 46.7658 34.5074C46.3523 34.5074 46.0167 34.6424 45.7589 34.9125C45.5028 35.1825 45.3747 35.5434 45.3747 35.9951C45.3747 36.4239 45.4944 36.7659 45.7338 37.0212C45.9749 37.2749 46.2904 37.4017 46.6805 37.4017C47.0421 37.4017 47.3551 37.3232 47.6197 37.1661V37.5662ZM53.7341 37.7135H53.3123V36.108H51.449V37.7135H51.0271V34.1932H51.449V35.7373H53.3123V34.1932H53.7341V37.7135ZM63.8889 37.5662C63.6227 37.7037 63.2913 37.7725 62.8945 37.7725C62.3822 37.7725 61.9721 37.6112 61.664 37.2888C61.356 36.9664 61.202 36.5433 61.202 36.0196C61.202 35.4567 61.3752 35.0017 61.7218 34.6547C62.0684 34.3077 62.5078 34.1343 63.0402 34.1343C63.3816 34.1343 63.6646 34.1825 63.8889 34.2791V34.7186C63.6311 34.5778 63.3465 34.5074 63.0351 34.5074C62.6216 34.5074 62.286 34.6424 62.0282 34.9125C61.772 35.1825 61.644 35.5434 61.644 35.9951C61.644 36.4239 61.7637 36.7659 62.003 37.0212C62.2441 37.2749 62.5597 37.4017 62.9497 37.4017C63.3113 37.4017 63.6244 37.3232 63.8889 37.1661V37.5662ZM69.8775 37.7135H69.3755L68.7731 36.7267C68.7178 36.635 68.6639 36.5573 68.6124 36.4934C68.5604 36.428 68.507 36.3748 68.4517 36.3339C68.3977 36.293 68.3392 36.2635 68.2756 36.2455C68.2139 36.2258 68.1438 36.216 68.0647 36.216H67.7182V37.7135H67.2965V34.1932H68.3714C68.5282 34.1932 68.6735 34.2128 68.8053 34.2521C68.9396 34.2898 69.0547 34.3478 69.1524 34.4264C69.2508 34.5049 69.3279 34.6032 69.3832 34.721C69.4385 34.8372 69.4661 34.9738 69.4661 35.1309C69.4661 35.2537 69.4468 35.3666 69.4083 35.4697C69.3716 35.5712 69.3176 35.6621 69.2476 35.7422C69.1788 35.8224 69.0952 35.8912 68.9962 35.9484C68.8991 36.0041 68.7898 36.0475 68.6677 36.0785V36.0884C68.7275 36.1145 68.7796 36.1448 68.8233 36.1792C68.8683 36.212 68.9114 36.2512 68.9512 36.297C68.9917 36.3429 69.0309 36.3952 69.0695 36.4542C69.1093 36.5114 69.1537 36.5785 69.2026 36.6555L69.8775 37.7135ZM67.7182 34.5663V35.8429H68.291C68.3964 35.8429 68.4935 35.8273 68.5822 35.7962C68.6722 35.7651 68.7506 35.7209 68.8156 35.6637C68.8811 35.6047 68.9319 35.5335 68.9686 35.4501C69.0058 35.365 69.0238 35.2701 69.0238 35.1653C69.0238 34.9771 68.9615 34.8307 68.8355 34.7259C68.7121 34.6195 68.5321 34.5663 68.2955 34.5663H67.7182ZM74.958 37.7135H73.0494V34.1932H74.8776V34.5663H73.4711V35.7373H74.7722V36.108H73.4711V37.3403H74.958V37.7135ZM81.1126 37.7135H80.6452L80.2634 36.7267H78.7366L78.3779 37.7135H77.908L79.2895 34.1932H79.726L81.1126 37.7135ZM80.1258 36.3559L79.5608 34.856C79.5421 34.8069 79.5235 34.7284 79.5055 34.6203H79.4952C79.4785 34.7202 79.4592 34.7987 79.4373 34.856L78.8774 36.3559H80.1258ZM86.2676 34.5663H85.2281V37.7135H84.8064V34.5663H83.7688V34.1932H86.2676V34.5663ZM89.9312 37.7135H89.5095V34.1932H89.9312V37.7135ZM95.0058 37.7725C94.4954 37.7725 94.0865 37.6079 93.778 37.279C93.472 36.9501 93.3183 36.5221 93.3183 35.9951C93.3183 35.4288 93.4752 34.9771 93.7883 34.64C94.1013 34.3028 94.5275 34.1343 95.0662 34.1343C95.5638 34.1343 95.9637 34.2979 96.2664 34.6252C96.5712 34.9526 96.7235 35.3806 96.7235 35.9092C96.7235 36.4836 96.5679 36.9378 96.2568 37.2717C95.945 37.6055 95.5285 37.7725 95.0058 37.7725ZM95.036 34.5074C94.658 34.5074 94.3508 34.6408 94.1148 34.9076C93.8789 35.1743 93.7606 35.5245 93.7606 35.9582C93.7606 36.3919 93.875 36.7414 94.1045 37.0065C94.336 37.27 94.6362 37.4017 95.0058 37.4017C95.4012 37.4017 95.7123 37.2757 95.9405 37.0237C96.1681 36.7717 96.2819 36.419 96.2819 35.9657C96.2819 35.5009 96.1713 35.1416 95.9502 34.8879C95.729 34.6343 95.425 34.5074 95.036 34.5074ZM103.009 37.7135H102.492L100.638 34.9076C100.592 34.8372 100.553 34.7636 100.523 34.6866H100.508C100.521 34.7619 100.528 34.9231 100.528 35.1702V37.7135H100.106V34.1932H100.653L102.456 36.955C102.532 37.0695 102.58 37.1481 102.602 37.1906H102.612C102.595 37.0891 102.587 36.9165 102.587 36.6727V34.1932H103.009V37.7135ZM106.459 37.5711V37.0851C106.516 37.1341 106.584 37.1783 106.663 37.2176C106.743 37.2569 106.826 37.2904 106.914 37.3183C107.003 37.3445 107.091 37.3649 107.18 37.3797C107.269 37.3944 107.35 37.4017 107.426 37.4017C107.685 37.4017 107.879 37.3551 108.006 37.2618C108.135 37.1669 108.2 37.0311 108.2 36.8543C108.2 36.7594 108.178 36.6768 108.134 36.6064C108.092 36.536 108.034 36.4721 107.959 36.4149C107.883 36.3559 107.793 36.3003 107.69 36.248C107.588 36.1939 107.477 36.1375 107.358 36.0785C107.233 36.0164 107.115 35.9533 107.006 35.8896C106.898 35.8257 106.803 35.7553 106.723 35.6784C106.643 35.6015 106.579 35.5147 106.532 35.4182C106.487 35.32 106.464 35.2054 106.464 35.0745C106.464 34.9141 106.5 34.775 106.572 34.6572C106.644 34.5377 106.738 34.4395 106.856 34.3626C106.973 34.2857 107.106 34.2284 107.255 34.1907C107.406 34.1531 107.559 34.1343 107.715 34.1343C108.07 34.1343 108.328 34.176 108.491 34.2595V34.7235C108.278 34.5794 108.005 34.5074 107.672 34.5074C107.58 34.5074 107.488 34.5173 107.396 34.5369C107.303 34.5549 107.222 34.5851 107.15 34.6277C107.078 34.6703 107.019 34.7251 106.974 34.7922C106.929 34.8593 106.906 34.9411 106.906 35.0377C106.906 35.1277 106.923 35.2054 106.956 35.2709C106.992 35.3363 107.042 35.3961 107.109 35.4501C107.176 35.5041 107.258 35.5565 107.353 35.6072C107.45 35.658 107.561 35.7136 107.687 35.7742C107.816 35.8363 107.938 35.9018 108.054 35.9706C108.169 36.0393 108.27 36.1154 108.358 36.1988C108.445 36.2823 108.513 36.3748 108.563 36.4762C108.616 36.5777 108.641 36.6939 108.641 36.8248C108.641 36.9983 108.606 37.1456 108.536 37.2667C108.467 37.3862 108.373 37.4836 108.255 37.5589C108.137 37.6341 108.002 37.6881 107.848 37.7209C107.694 37.7552 107.532 37.7725 107.361 37.7725C107.303 37.7725 107.233 37.7675 107.15 37.7577C107.066 37.7495 106.981 37.7365 106.893 37.7184C106.807 37.7021 106.724 37.6816 106.645 37.6571C106.568 37.6309 106.506 37.6022 106.459 37.5711Z" fill="black"/>
<path d="M17.82 14.1691C17.82 14.1691 13.4234 4.52646 5.55675 1.85425C-2.30991 -0.817965 0.0621318 6.91785 3.02719 11.2387C5.99224 15.5595 1.95699 24.5952 10.7549 24.4005C19.5527 24.2057 19.7566 17.5614 17.82 14.1691Z" fill="#79C7D0"/>
<path d="M18.9968 29.2421C18.9968 29.2421 17.6069 31.2259 13.1454 34.3193C8.68393 37.4128 8.36887 45.9366 14.9383 43.5996C21.5078 41.2625 21.8645 26.9549 18.9968 29.2421Z" fill="#EDB159"/>
<path d="M27.4333 22.2084C27.4333 22.2084 30.857 30.4334 28.6379 36.0541C26.4187 41.6748 24.8064 31.0312 25.5431 26.1533C26.2797 21.2754 26.9005 20.7319 27.4333 22.2084Z" fill="#B47354"/>
<path d="M4.31293 5.45395C4.99685 5.45395 5.55127 4.91194 5.55127 4.24333C5.55127 3.57473 4.99685 3.03271 4.31293 3.03271C3.62901 3.03271 3.07458 3.57473 3.07458 4.24333C3.07458 4.91194 3.62901 5.45395 4.31293 5.45395Z" fill="white" fill-opacity="0.5"/>
<path d="M4.93204 7.27019C5.27399 7.27019 5.55121 6.99918 5.55121 6.66488C5.55121 6.33058 5.27399 6.05957 4.93204 6.05957C4.59008 6.05957 4.31287 6.33058 4.31287 6.66488C4.31287 6.99918 4.59008 7.27019 4.93204 7.27019Z" fill="white" fill-opacity="0.5"/>
<path d="M44.1395 4.66683C42.1158 4.86665 40.1433 5.4108 38.3114 6.27468C36.4646 7.12092 34.7615 8.23907 33.2615 9.59006C32.5113 10.2645 31.8085 10.9878 31.1581 11.755C30.5126 12.5272 29.9169 13.338 29.3745 14.1826C28.2928 15.8592 27.3225 17.602 26.4697 19.4002C24.7555 22.9919 23.5602 26.9005 23.5092 30.9315C23.5037 31.9393 23.589 32.9456 23.764 33.9389C23.9129 34.9705 24.2721 35.9624 24.8204 36.8556C24.979 37.0962 25.1761 37.3103 25.4041 37.4898C25.6712 37.7135 26.0166 37.8271 26.3677 37.8068C26.7132 37.7704 27.0322 37.6088 27.2619 37.3539C27.45 37.1428 27.606 36.9064 27.7251 36.6518C28.1402 35.706 28.3983 34.7015 28.4896 33.6762C28.7174 31.6824 28.6613 29.6673 28.3228 27.6886C27.9794 25.7277 27.4458 23.8031 26.7291 21.9411C26.0118 20.0854 25.165 18.2801 24.1949 16.5378C23.2454 14.7905 22.1983 13.0955 21.0584 11.4606C19.8972 9.83453 18.5547 8.33981 17.0556 7.00391C15.5661 5.65576 13.948 4.45003 12.2235 3.40318C11.3618 2.88686 10.4723 2.40224 9.56418 1.96744C8.66085 1.52975 7.73277 1.14264 6.78444 0.807967C5.82113 0.470234 4.82659 0.224511 3.81478 0.0742427C3.29936 0.00230362 2.7777 -0.017427 2.25813 0.0153638C1.70767 0.0332293 1.17264 0.197661 0.710744 0.490927C0.469259 0.659809 0.277516 0.887875 0.154796 1.15218C0.0412794 1.41387 -0.0109565 1.69706 0.00191116 1.98102C0.0394087 2.50281 0.172807 3.01372 0.395707 3.48924C0.74781 4.42225 1.16477 5.32809 1.59563 6.20674C2.02649 7.08542 2.5222 7.97763 2.9855 8.84723C3.45105 9.71173 3.86711 10.6008 4.23175 11.5104C4.31977 11.7369 4.41706 11.9633 4.49582 12.1853L4.72283 12.8737C4.85255 13.3266 4.98691 13.8022 5.07957 14.2822C5.17222 14.7624 5.25562 15.2334 5.33901 15.709C5.4224 16.1845 5.45947 16.6691 5.51042 17.1628C5.60772 18.1547 5.73744 19.1421 5.93202 20.1249C6.11097 21.1227 6.39349 22.1 6.77519 23.0417C7.15922 24.029 7.77867 24.9125 8.58204 25.6188C9.42867 26.306 10.466 26.7302 11.561 26.8371C12.0869 26.8959 12.6171 26.9095 13.1454 26.8779C13.6694 26.8461 14.1908 26.7825 14.7067 26.6877C15.7604 26.4952 16.7658 26.1045 17.6671 25.5372C18.5853 24.9615 19.3418 24.1707 19.8677 23.2365C20.4249 22.2749 20.6075 21.1489 20.382 20.066C20.2416 19.4982 19.9433 18.9794 19.5203 18.5668C18.8687 17.9926 18.0338 17.6565 17.1576 17.6157C16.8431 17.5967 16.528 17.6398 16.231 17.7426C15.9161 17.85 15.6363 18.0376 15.4202 18.2861C15.2091 18.531 15.0641 18.8237 14.9986 19.1376C14.8822 19.7429 15.0083 20.3688 15.3507 20.8858C15.6821 21.4065 16.2096 21.779 16.8193 21.923C16.9711 21.9614 17.1262 21.9856 17.2826 21.9954H17.6764C17.8776 22.0007 18.0765 22.039 18.2648 22.1087C18.4278 22.1682 18.5693 22.2735 18.6715 22.4112C18.7737 22.549 18.832 22.7131 18.8392 22.8831C18.8677 23.3033 18.788 23.7237 18.6076 24.1061C18.4218 24.5242 18.1838 24.9182 17.8988 25.2791C17.6082 25.6495 17.2841 25.9936 16.9305 26.3072C16.7545 26.4657 16.5692 26.6107 16.3792 26.7601L15.7815 27.2131C14.1245 28.3708 12.5744 29.6681 11.1487 31.09C10.4312 31.8177 9.78879 32.6126 9.23067 33.4633C8.95553 33.9003 8.70945 34.3541 8.49403 34.8221C8.26916 35.2867 8.08325 35.7684 7.93803 36.2623C7.68372 37.2662 7.65055 38.3113 7.84077 39.3286C8.00913 40.3522 8.42004 41.3231 9.04071 42.1638C9.36413 42.5863 9.76269 42.9484 10.2174 43.2327C10.6802 43.5146 11.2005 43.6939 11.7417 43.7581C12.812 43.8369 13.8773 43.5521 14.7577 42.9519C15.616 42.3906 16.3763 41.6978 17.0093 40.9002C17.6378 40.1175 18.1972 39.2842 18.6818 38.4092C19.6366 36.6638 20.423 34.8351 21.0306 32.947L20.9472 32.9198C20.2853 34.7772 19.4494 36.5708 18.4501 38.2778C17.9494 39.1187 17.3775 39.9171 16.7405 40.6647C16.1134 41.4113 15.371 42.0577 14.5399 42.5806C13.7422 43.1064 12.7831 43.3465 11.8251 43.2599C11.3584 43.1902 10.9116 43.0265 10.5129 42.7794C10.1142 42.5323 9.77221 42.207 9.50864 41.8242C8.95862 41.0497 8.60454 40.1587 8.47545 39.2244C8.31821 38.2925 8.36398 37.3387 8.60981 36.4254C9.09632 34.6137 10.2962 32.9878 11.6629 31.6109C13.0866 30.2389 14.6307 28.9916 16.2773 27.8834L16.8888 27.4305C17.102 27.272 17.3058 27.1134 17.505 26.9413C17.9033 26.6029 18.2678 26.2283 18.5937 25.8226C18.9273 25.4063 19.2045 24.9496 19.4184 24.4638C19.6602 23.9466 19.7639 23.3778 19.7195 22.8107C19.6897 22.485 19.5731 22.1727 19.3813 21.9048C19.1816 21.6392 18.9083 21.4349 18.5937 21.3161C18.3108 21.2089 18.012 21.1477 17.7089 21.1349H17.3428C17.2425 21.1279 17.1432 21.1112 17.0463 21.0851C16.8555 21.0432 16.6751 20.9642 16.516 20.853C16.3568 20.7417 16.2221 20.6004 16.1197 20.4374C15.9108 20.1127 15.8363 19.7224 15.9113 19.3459C15.9424 19.1763 16.0194 19.018 16.1343 18.8874C16.2492 18.7568 16.3977 18.6586 16.5645 18.6031C16.9616 18.4944 17.3831 18.5054 17.7737 18.6348C18.1897 18.7342 18.5715 18.9388 18.881 19.2281C19.1756 19.5231 19.3822 19.8911 19.4786 20.2925C19.6409 21.1634 19.4764 22.0624 19.0153 22.8243C18.5639 23.6249 17.918 24.3046 17.1344 24.8035C16.3365 25.3116 15.4464 25.6653 14.5121 25.8452C14.0371 25.9322 13.5577 25.9941 13.0759 26.0309C12.5988 26.0605 12.12 26.0514 11.6444 26.0037C10.7173 25.9233 9.83623 25.5731 9.11483 24.9983C8.40603 24.3798 7.86083 23.6028 7.52571 22.7337C7.15922 21.8448 6.88454 20.9223 6.7057 19.9799C6.51111 19.0288 6.37678 18.0596 6.26559 17.0904C6.21 16.6057 6.1405 16.0985 6.07564 15.6093C6.01078 15.1202 5.91349 14.6174 5.7884 14.1328C5.66331 13.6482 5.53822 13.1545 5.3946 12.6744L5.15832 11.9542C5.07493 11.7142 4.97301 11.5013 4.88035 11.2523C4.08812 9.38625 2.9855 7.72399 2.10061 5.97575C1.63732 5.10162 1.22963 4.2139 0.863632 3.30354C0.654533 2.88592 0.524268 2.43483 0.4791 1.97197C0.454271 1.76713 0.48386 1.5595 0.56501 1.3691C0.646157 1.17871 0.776134 1.01196 0.942387 0.884965C1.32981 0.633541 1.77973 0.489536 2.24423 0.468281C2.73071 0.43291 3.21958 0.445047 3.7036 0.504514C4.69004 0.634405 5.66131 0.857376 6.6038 1.1703C8.5148 1.79876 10.3459 2.63912 12.0613 3.67494C15.524 5.68565 18.5063 8.39744 20.8082 11.6281C21.9299 13.2582 22.9539 14.9504 23.8753 16.6963C24.7887 18.4429 25.5797 20.2482 26.2427 22.0996C26.9071 23.9438 27.3911 25.8456 27.6881 27.7792C27.9805 29.7027 28.0024 31.6563 27.753 33.5856C27.6645 34.5223 27.4252 35.4394 27.0441 36.3031C26.9509 36.4937 26.8308 36.6705 26.6874 36.8285C26.5827 36.9482 26.4385 37.0283 26.2797 37.0549C26.0295 37.0867 25.6728 36.7922 25.4365 36.4254C25.1872 36.0358 24.9925 35.6155 24.8574 35.1753C24.7104 34.722 24.5974 34.2588 24.5192 33.7894C24.3575 32.8403 24.2723 31.8801 24.2644 30.9179C24.2644 27.0409 25.4041 23.2183 27.0441 19.6629C27.8829 17.8834 28.8217 16.1506 29.8563 14.4725C30.8753 12.7941 32.1221 11.2584 33.5626 9.90705C35.0114 8.55826 36.6513 7.42032 38.4318 6.52829C39.3271 6.08372 40.2564 5.70816 41.2115 5.40508C42.1649 5.09637 43.1472 4.88093 44.1442 4.76194L44.1395 4.66683Z" fill="black"/>
</svg>
