<svg width="18" height="18" viewBox="0 0 18 18" fill="none" xmlns="http://www.w3.org/2000/svg">
<mask id="mask0_180_627" style="mask-type:alpha" maskUnits="userSpaceOnUse" x="0" y="0" width="18" height="18">
<rect width="18" height="18" fill="#D9D9D9"/>
</mask>
<g mask="url(#mask0_180_627)">
<path d="M2.04268 14.6221C1.39476 13.8423 0.892338 12.9731 0.535403 12.0146C0.178467 11.056 0 10.0347 0 8.95055C0 6.60736 0.776631 4.5875 2.32989 2.89096C3.88314 1.19442 5.80156 0.23077 8.08516 0V1.28569C6.16293 1.52281 4.54913 2.36664 3.24374 3.8172C1.93838 5.26775 1.28569 6.97887 1.28569 8.95055C1.28569 9.85715 1.42992 10.7143 1.71839 11.522C2.00685 12.3297 2.41482 13.0632 2.94229 13.7225L2.04268 14.6221ZM9 17.9506C7.91589 17.9506 6.89296 17.7695 5.93121 17.4075C4.96946 17.0455 4.09045 16.5406 3.29418 15.8926L4.2128 14.9835C4.87215 15.511 5.60819 15.9231 6.42095 16.2198C7.23372 16.5165 8.0934 16.6649 9 16.6649C9.9066 16.6649 10.7663 16.5149 11.579 16.2151C12.3918 15.9152 13.131 15.5015 13.7967 14.974L14.7153 15.8831C13.919 16.5311 13.04 17.0376 12.0783 17.4028C11.1165 17.768 10.0905 17.9506 9 17.9506ZM15.9668 14.6126L15.0577 13.7035C15.5788 13.0442 15.9852 12.3122 16.2769 11.5077C16.5685 10.7032 16.7143 9.8508 16.7143 8.95055C16.7143 6.97887 16.0632 5.27092 14.761 3.82669C13.4588 2.38248 11.8498 1.53866 9.93385 1.29521V0.0095195C12.2111 0.246636 14.1248 1.21029 15.6749 2.90048C17.225 4.59067 18 6.60736 18 8.95055C18 10.0347 17.8231 11.0544 17.4693 12.0098C17.1156 12.9652 16.6147 13.8328 15.9668 14.6126ZM6.87364 12.6479V5.2532L12.6974 8.95055L6.87364 12.6479Z" fill="#060608"/>
</g>
</svg>
