<svg width="32" height="33" viewBox="0 0 32 33" fill="none" xmlns="http://www.w3.org/2000/svg">
<g clip-path="url(#clip0_88_689)">
<path d="M16 0.818359C7.16375 0.818359 0 7.98211 0 16.8184C0 25.6546 7.16375 32.8184 16 32.8184C24.8363 32.8184 32 25.6546 32 16.8184C32 7.98211 24.8363 0.818359 16 0.818359Z" fill="black"/>
<path d="M17.7504 15.3706L24.5998 7.40869H22.9767L17.0293 14.3219L12.2792 7.40869H6.80054L13.9836 17.8626L6.80054 26.2119H8.42372L14.7043 18.9113L19.7207 26.2119H25.1994L17.75 15.3706H17.7504ZM9.00856 8.63061H11.5017L22.9774 25.0456H20.4843L9.00856 8.63061Z" fill="white"/>
</g>
<defs>
<clipPath id="clip0_88_689">
<rect width="32" height="32" fill="white" transform="translate(0 0.818359)"/>
</clipPath>
</defs>
</svg>
