<svg width="114" height="36" viewBox="0 0 114 36" fill="none" xmlns="http://www.w3.org/2000/svg">
<path d="M6.43392 34.1494C7.5819 34.5446 8.78634 34.7516 10.0096 34.7328C15.3919 34.7328 19.137 30.8372 19.137 23.4224V1.30966L21.1883 0.331055V23.7987C21.1883 31.3641 17.2927 35.7678 11.7598 35.7678C9.84022 35.7678 7.99593 35.2033 6.43392 34.1494ZM4.08151 31.8911C5.32358 32.3051 6.56566 32.5685 7.65718 32.5685C12.1738 32.5685 15.1849 29.7268 15.1849 23.3283V3.0034L17.1986 2.04361V23.4976C17.1986 30.1973 13.7923 33.6412 9.06863 33.6412C7.33725 33.6412 5.56823 33.0014 4.08151 31.8911ZM2.67006 29.8962C3.62984 30.2161 4.64609 30.3855 5.66233 30.4231C9.18154 30.4231 11.3458 28.5036 11.3458 23.4412V4.69714L13.3218 3.73735V23.1213C13.3218 28.8047 10.7247 31.3641 6.9985 31.3641C5.41768 31.3829 3.89331 30.856 2.67006 29.8962ZM9.46383 23.9869V5.48755L0.750488 9.42078V24.4386C0.750488 27.2991 2.55714 29.2187 5.21067 29.2187C7.86419 29.2187 9.46383 27.2615 9.46383 23.9869ZM32.3858 5.44991V12.3378C32.3858 14.8784 33.8913 16.8732 36.7707 16.8732C39.236 16.8732 41.0991 15.0478 41.0991 12.2813V5.61928C41.0803 4.88533 41.6449 4.26429 42.3788 4.24547H42.3976L42.6611 4.22665V3.56798H38.3327V4.22665L38.615 4.24547C39.3489 4.26429 39.9323 4.86651 39.9135 5.60046V5.61928V12.0743C39.9135 14.1821 38.822 15.4618 37.1094 15.4618C35.3969 15.4618 34.3618 14.1068 34.3618 12.0555V5.43109C34.3618 4.71596 34.757 4.28311 35.5662 4.24547L35.8297 4.22665V3.56798H30.899V4.22665L31.1813 4.24547C31.9906 4.32075 32.3858 4.71596 32.3858 5.44991ZM38.2386 20.1666L38.5209 20.1854C39.2172 20.2231 39.7253 20.5054 39.7253 21.277V25.3231H34.8511V21.277C34.8511 20.4865 35.378 20.2419 36.0555 20.1854L36.319 20.1666V19.5079H31.3883V20.1666L31.6706 20.1854C32.3669 20.2231 32.8751 20.5054 32.8751 21.277V30.7619C32.8751 31.5523 32.3481 31.8158 31.6706 31.8534L31.3883 31.8722V32.5309H36.319V31.8722L36.0555 31.8534C35.3592 31.797 34.8511 31.5335 34.8511 30.7619V26.3394H39.7065V30.7619C39.7065 31.5523 39.1795 31.8158 38.502 31.8534L38.2198 31.8722V32.5309H43.1504V31.8722L42.8869 31.8534C42.2094 31.797 41.6825 31.5335 41.6825 30.7619V21.277C41.6825 20.4865 42.2094 20.2419 42.8869 20.1854L43.1504 20.1666V19.5079H38.2386V20.1666ZM42.6611 7.40712V8.02815L43.0375 8.04698C43.6021 8.08461 43.9596 8.3669 43.9596 9.13849V14.8596C43.9596 15.6312 43.5644 15.9135 42.9434 15.9511L42.6611 15.9699V16.6098H47.0648V15.9699L46.8014 15.9511C46.1615 15.9135 45.7851 15.6312 45.7851 14.8596V11.8108C45.8228 9.57134 46.7825 8.23517 47.9305 8.23517C48.7962 8.23517 49.3796 8.83738 49.3796 9.98536V14.8408C49.3796 15.6123 48.9844 15.8946 48.3634 15.9323L48.0811 15.9511V16.5909H52.4848V15.9511L52.2213 15.9323C51.5815 15.8946 51.2051 15.6123 51.2051 14.8408V9.75953C51.2051 8.31045 50.3206 7.10601 48.5516 7.10601C47.3095 7.10601 46.218 7.85878 45.8039 9.17613V7.14365L42.6611 7.40712ZM68.086 16.798C69.9679 16.798 71.0218 15.5182 71.4547 14.0692L70.6454 13.8433C70.2691 14.8407 69.6292 15.6312 68.3307 15.6312C66.8251 15.6312 65.8089 14.2009 65.8089 11.9238H71.5864V11.378C71.5864 8.98794 70.1749 7.04955 67.8978 7.04955C65.4701 7.04955 63.8517 9.38315 63.8517 11.9238C63.8517 14.4644 65.4137 16.798 68.086 16.798ZM67.879 8.10343C68.8952 8.10343 69.5539 9.06322 69.6292 11.0016H65.8277C66.0159 9.21378 66.7687 8.10343 67.879 8.10343ZM58.9398 14.5208C58.9398 15.9699 59.8055 16.798 61.217 16.798C62.5155 16.798 63.3812 15.8382 63.7576 14.4832L63.0801 14.295C62.8166 15.0854 62.3838 15.5559 61.8004 15.5559C61.0099 15.5559 60.7653 14.9913 60.7653 14.3138V8.29162H63.3059V7.33184H60.7653V4.4713H59.8431C59.4856 6.63553 58.3941 7.40712 57.2461 7.65177V8.31044H58.9586L58.9398 14.5208ZM55.0442 5.65692C55.7217 5.6381 56.2487 5.0547 56.2298 4.37721C56.211 3.73735 55.6841 3.22923 55.0442 3.19159C54.3855 3.19159 53.8586 3.73735 53.8586 4.39603C53.821 5.09234 54.3479 5.6381 55.0442 5.65692C55.0254 5.65692 55.0254 5.65692 55.0442 5.65692ZM54.1785 9.13849V14.8596C54.1785 15.6312 53.7833 15.9135 53.1623 15.9511L52.88 15.9699V16.6098H57.2837V15.9699L57.0202 15.9511C56.3804 15.9135 56.004 15.6312 56.004 14.8596V7.16247L52.7859 7.40712V8.02815L53.2564 8.04698C53.821 8.04698 54.1785 8.34808 54.1785 9.13849ZM76.3289 16.798C77.5521 16.798 78.5119 16.1581 78.9071 15.0854V16.6098H82.0123V15.9887L81.7488 15.9699C81.109 15.9323 80.7326 15.65 80.7326 14.8784V3.34215L77.5709 3.62444V4.24547L77.985 4.26429C78.5495 4.28311 78.9071 4.58422 78.9071 5.35581V8.70565C78.4931 7.67059 77.5521 7.04955 76.3289 7.04955C73.9012 7.04955 72.5085 9.38315 72.5085 11.9238C72.5085 14.4644 73.8824 16.798 76.3289 16.798ZM76.63 8.10343C78.0038 8.10343 78.9071 9.59016 78.9071 11.9049C78.9071 14.2197 78.0226 15.7064 76.63 15.7064C75.3314 15.7064 74.4658 14.2385 74.4658 11.9049C74.4658 9.57134 75.3314 8.10343 76.63 8.10343ZM103.993 23.0083C102.921 23.0083 101.98 23.7235 101.584 24.9844V23.0836L98.4604 23.3283V23.9493L98.8368 23.9681C99.4014 24.0058 99.7589 24.288 99.7589 25.0596V30.7807C99.7589 31.5711 99.3825 31.8346 98.7427 31.8722L98.4604 31.8911V32.5309H102.864V31.8911L102.601 31.8722C101.961 31.8346 101.584 31.5523 101.584 30.7807V27.6567C101.622 25.3419 102.619 23.874 103.862 23.874C104.087 23.8552 104.313 23.9493 104.483 24.1187C104.163 24.288 103.956 24.6268 103.956 24.9844C103.956 25.5301 104.388 25.963 104.934 25.963C105.48 25.963 105.913 25.5113 105.913 24.8903C105.913 23.7423 105.028 23.0083 103.993 23.0083ZM109.978 22.9707C107.55 22.9707 105.932 25.2855 105.932 27.8449C105.932 30.4043 107.494 32.7191 110.166 32.7191C112.048 32.7191 113.102 31.4394 113.535 29.9903L112.725 29.7645C112.349 30.7619 111.709 31.5523 110.411 31.5523C108.905 31.5523 107.889 30.122 107.889 27.8449H113.666V27.2991C113.666 24.9091 112.255 22.9707 109.978 22.9707ZM107.908 26.9228C108.096 25.1161 108.83 24.0246 109.959 24.0246C110.975 24.0246 111.634 24.9844 111.709 26.9228H107.908ZM96.8796 30.9877V26.1323C96.8796 24.1375 95.6375 22.9707 93.5297 22.9707C91.7231 22.9707 90.1234 24.1563 90.1234 25.5113C90.1046 26.0571 90.5375 26.5087 91.0832 26.5087C91.629 26.5087 92.0806 26.0947 92.0806 25.5489C92.0806 25.1914 91.8924 24.8526 91.5725 24.6833C91.9113 24.2128 92.4947 23.9305 93.2286 23.9305C94.3766 23.9305 95.0541 24.7773 95.0541 26.2076V26.6405L92.3065 27.7884C90.4622 28.5412 89.8411 29.2187 89.8411 30.4231C89.8411 31.8158 90.8386 32.7003 92.4194 32.7003C93.5862 32.7003 94.6212 31.9663 95.0353 30.8748V31.1571C95.0353 32.1169 95.7128 32.6815 96.8231 32.6815C97.2183 32.6815 97.6135 32.625 97.9899 32.5121V31.8911C97.2183 31.9851 96.8796 31.684 96.8796 30.9877ZM95.0541 28.88C94.96 30.5172 94.1508 31.6088 93.0028 31.6088C92.1936 31.6088 91.6666 31.0442 91.6666 30.1973C91.6666 29.4445 92.0806 28.8423 92.8522 28.5036L95.0541 27.525V28.88ZM70.7772 30.2161C70.5137 30.9877 70.0997 31.477 69.4975 31.477C68.707 31.477 68.4624 30.9124 68.4624 30.235V24.2128H71.003V23.253H68.4624V20.3924H67.5402C67.1827 22.5567 66.0912 23.3283 64.9432 23.5729V24.2316H66.6557V30.442C66.6557 31.8911 67.5214 32.7191 68.9329 32.7191C70.2314 32.7191 71.0971 31.7593 71.4735 30.4043L70.7772 30.2161ZM58.9775 30.9877V26.1323C58.9775 24.1375 57.7354 22.9707 55.6276 22.9707C53.821 22.9707 52.2213 24.1563 52.2213 25.5113C52.2025 26.0571 52.6353 26.5087 53.1811 26.5087C53.7269 26.5087 54.1785 26.0947 54.1785 25.5489C54.1785 25.1914 53.9903 24.8526 53.6704 24.6833C54.0092 24.2128 54.5926 23.9305 55.3265 23.9305C56.4745 23.9305 57.152 24.7773 57.152 26.2076V26.6405L54.4044 27.7884C52.5601 28.5412 51.939 29.2187 51.939 30.4231C51.939 31.8158 52.9365 32.7003 54.5173 32.7003C55.6841 32.7003 56.7191 31.9663 57.1332 30.8748V31.1571C57.1332 32.1169 57.8107 32.6815 58.921 32.6815C59.3162 32.6815 59.7114 32.625 60.0878 32.5121V31.8911C59.335 31.9851 58.9775 31.684 58.9775 30.9877ZM57.1708 28.88C57.0767 30.5172 56.2675 31.6088 55.1195 31.6088C54.3103 31.6088 53.7833 31.0442 53.7833 30.1973C53.7833 29.4445 54.1974 28.8423 54.9689 28.5036L57.1708 27.525V28.88ZM86.1526 31.5335C84.647 31.5335 83.6308 30.1032 83.6308 27.8261C83.6308 25.5113 84.6282 24.0434 86.1337 24.0434C86.8112 24.0434 87.3194 24.2692 87.6393 24.6833C87.357 24.8714 87.1688 25.1914 87.1688 25.5301C87.1688 26.0759 87.6016 26.5087 88.1474 26.5087C88.712 26.5087 89.126 26.0571 89.126 25.436C89.126 24.3257 88.0157 22.9519 86.0208 22.9519C83.2544 22.9519 81.6547 25.2667 81.6547 27.8261C81.6547 30.3667 83.2167 32.7003 85.8891 32.7003C87.7334 32.7003 88.7684 31.477 89.1825 30.0844L88.3732 29.8397C88.0345 30.7995 87.4135 31.5335 86.1526 31.5335ZM63.6823 30.7807V19.2821L60.5206 19.5456V20.1666L60.9347 20.1854C61.4992 20.2043 61.8568 20.5054 61.8568 21.277V30.7807C61.8568 31.5711 61.4616 31.8346 60.8406 31.8722L60.5583 31.8911V32.5309H64.962V31.9099L64.6985 31.8911C64.0775 31.8346 63.6823 31.5523 63.6823 30.7807ZM79.9798 30.7807V25.6995C79.9798 24.2504 79.0953 23.046 77.3263 23.046C76.0842 23.046 74.9927 23.7799 74.5787 25.1161V19.2821L71.417 19.5456V20.1666L71.8311 20.1854C72.3956 20.2043 72.7532 20.5054 72.7532 21.277V30.7807C72.7532 31.5711 72.358 31.8346 71.737 31.8722L71.4547 31.8911V32.5309H75.8396V31.9099L75.5761 31.8911C74.9362 31.8534 74.5599 31.5711 74.5599 30.7995V27.7508C74.5975 25.5301 75.5573 24.1751 76.7053 24.1751C77.5709 24.1751 78.1543 24.7773 78.1543 25.9253V30.7995C78.1543 31.5899 77.7591 31.8534 77.1381 31.8911L76.8558 31.9099V32.5497H81.2595V31.9099L80.9961 31.8911C80.3562 31.8346 79.9798 31.5523 79.9798 30.7807ZM47.5729 22.9707C45.1453 22.9707 43.5268 25.3043 43.5268 27.8449C43.5268 30.3855 45.0888 32.7191 47.7611 32.7191C49.6431 32.7191 50.697 31.4394 51.1298 29.9903L50.3206 29.7645C49.9442 30.7619 49.3043 31.5523 48.0058 31.5523C46.5003 31.5523 45.484 30.122 45.484 27.8449H51.2615V27.2991C51.2615 24.9091 49.8313 22.9707 47.5729 22.9707ZM45.5028 26.9228C45.691 25.1161 46.425 24.0246 47.5541 24.0246C48.5704 24.0246 49.2291 24.9844 49.3043 26.9228H45.5028Z" fill="white" fill-opacity="0.75"/>
</svg>
