<svg width="60" height="61" viewBox="0 0 60 61" fill="none" xmlns="http://www.w3.org/2000/svg">
<g filter="url(#filter0_d_116_569)">
<g clip-path="url(#clip0_116_569)">
<path fill-rule="evenodd" clip-rule="evenodd" d="M38 36.8184H22C19.8783 36.8183 17.8435 35.9754 16.3432 34.4751C14.843 32.9748 14.0001 30.9401 14 28.8184V12.8184C14.0001 10.6967 14.843 8.66188 16.3432 7.16161C17.8435 5.66134 19.8783 4.81845 22 4.81836L38 4.81836C40.1217 4.81836 42.1566 5.66121 43.6569 7.16151C45.1571 8.6618 46 10.6966 46 12.8184V28.8184C46 30.9401 45.1571 32.9749 43.6569 34.4752C42.1566 35.9755 40.1217 36.8184 38 36.8184Z" fill="#00D264"/>
<path fill-rule="evenodd" clip-rule="evenodd" d="M29 13.8184H38C39.1536 13.8183 40.2632 13.3752 41.0995 12.5806C41.9359 11.7859 42.4351 10.7005 42.4941 9.54836C42.5532 8.39624 42.1675 7.26544 41.4168 6.38949C40.666 5.51354 39.6076 4.95935 38.46 4.84136C38.307 4.83286 38.1555 4.81836 38 4.81836H22C19.8783 4.81845 17.8435 5.66134 16.3432 7.16161C14.843 8.66188 14.0001 10.6967 14 12.8184V28.8184C14.0001 24.8401 15.5805 21.0249 18.3935 18.2119C21.2065 15.3988 25.0218 13.8185 29 13.8184Z" fill="#00EB78"/>
<path fill-rule="evenodd" clip-rule="evenodd" d="M38 20.8184C36.4178 20.8184 34.871 21.2876 33.5554 22.1666C32.2398 23.0457 31.2145 24.2951 30.609 25.7569C30.0035 27.2187 29.845 28.8272 30.1537 30.3791C30.4624 31.9309 31.2243 33.3564 32.3431 34.4752C33.462 35.594 34.8874 36.356 36.4393 36.6646C37.9911 36.9733 39.5997 36.8149 41.0615 36.2094C42.5233 35.6039 43.7727 34.5785 44.6518 33.2629C45.5308 31.9473 46 30.4006 46 28.8184V12.8184C46 14.9401 45.1571 16.9749 43.6569 18.4752C42.1566 19.9755 40.1217 20.8184 38 20.8184Z" fill="#00B950"/>
<path fill-rule="evenodd" clip-rule="evenodd" d="M24.8365 28.3649C24.9696 28.3271 25.1091 28.3172 25.2462 28.336C25.3833 28.3547 25.515 28.4017 25.633 28.4739C27.6211 29.6583 29.9733 30.0756 32.2475 29.6472C34.5216 29.2188 36.5608 27.9743 37.9816 26.1477C39.4024 24.3211 40.1069 22.0383 39.9625 19.7287C39.8182 17.4191 38.835 15.2418 37.1978 13.6064C35.5606 11.9709 33.3822 10.99 31.0725 10.8481C28.7627 10.7062 26.4807 11.4131 24.6556 12.8359C22.8305 14.2586 21.5882 16.2992 21.1622 18.5737C20.7362 20.8483 21.156 23.2001 22.3425 25.1869C22.4145 25.3046 22.4612 25.4359 22.4798 25.5726C22.4984 25.7092 22.4884 25.8483 22.4505 25.9809C22.172 26.9664 21.5 29.3184 21.5 29.3184C21.5 29.3184 23.852 28.6464 24.8365 28.3649ZM20.6095 26.1854C19.18 23.7756 18.6793 20.9269 19.2016 18.1741C19.7238 15.4213 21.233 12.9538 23.4457 11.2351C25.6585 9.51626 28.4226 8.66437 31.219 8.83936C34.0154 9.01434 36.6518 10.2042 38.633 12.1854C40.6143 14.1666 41.8041 16.803 41.9791 19.5994C42.1541 22.3958 41.3022 25.1599 39.5834 27.3727C37.8646 29.5855 35.3971 31.0947 32.6443 31.6169C29.8915 32.1391 27.0428 31.6384 24.633 30.2089C24.633 30.2089 21.4445 31.1199 19.8655 31.5714C19.7798 31.5958 19.689 31.5969 19.6027 31.5744C19.5164 31.552 19.4376 31.507 19.3745 31.4439C19.3115 31.3808 19.2664 31.3021 19.244 31.2157C19.2216 31.1294 19.2226 31.0387 19.247 30.9529C19.6985 29.3739 20.6095 26.1854 20.6095 26.1854Z" fill="white"/>
<path fill-rule="evenodd" clip-rule="evenodd" d="M24.9905 17.2116C25.1461 19.4505 26.1016 21.5588 27.6827 23.1516C29.2637 24.7444 31.3649 25.7155 33.6025 25.8876H33.6035C33.9608 25.9153 34.3198 25.8652 34.6559 25.7409C34.992 25.6167 35.2972 25.4211 35.5505 25.1676L35.8995 24.8186C36.0643 24.6537 36.1569 24.4302 36.157 24.1971V23.4561C36.157 23.3632 36.1311 23.2722 36.0823 23.1931C36.0335 23.1141 35.9636 23.0502 35.8805 23.0086C35.354 22.7456 34.211 22.1741 33.651 21.8941C33.5571 21.8472 33.4508 21.8309 33.3472 21.8477C33.2436 21.8645 33.1478 21.9134 33.0735 21.9876C32.7945 22.2666 32.3535 22.7081 32.1035 22.9576C32.0453 23.0158 31.9737 23.0588 31.8949 23.0827C31.8162 23.1066 31.7328 23.1107 31.652 23.0946L31.6475 23.0936C30.6795 22.9 29.7905 22.4242 29.0925 21.7262C28.3944 21.0282 27.9186 20.1391 27.725 19.1711L27.724 19.1666C27.708 19.0859 27.7121 19.0025 27.736 18.9237C27.7599 18.845 27.8028 18.7733 27.861 18.7151C28.1105 18.4651 28.552 18.0241 28.831 17.7451C28.9052 17.6708 28.9542 17.5751 28.971 17.4715C28.9877 17.3678 28.9715 17.2615 28.9245 17.1676C28.6445 16.6076 28.073 15.4646 27.81 14.9381C27.7685 14.855 27.7046 14.7852 27.6255 14.7363C27.5465 14.6875 27.4554 14.6616 27.3625 14.6616H26.7325C26.5829 14.6617 26.435 14.6931 26.2983 14.7539C26.1616 14.8147 26.0392 14.9035 25.939 15.0146C25.8385 15.1266 25.723 15.2546 25.607 15.3836C25.3887 15.6259 25.2214 15.9096 25.1151 16.2179C25.0087 16.5262 24.9655 16.8528 24.988 17.1781C24.989 17.1891 24.9895 17.2001 24.9905 17.2116Z" fill="white"/>
</g>
</g>
<defs>
<filter id="filter0_d_116_569" x="0" y="0.818359" width="60" height="60" filterUnits="userSpaceOnUse" color-interpolation-filters="sRGB">
<feFlood flood-opacity="0" result="BackgroundImageFix"/>
<feColorMatrix in="SourceAlpha" type="matrix" values="0 0 0 0 0 0 0 0 0 0 0 0 0 0 0 0 0 0 127 0" result="hardAlpha"/>
<feOffset dy="10"/>
<feGaussianBlur stdDeviation="7"/>
<feComposite in2="hardAlpha" operator="out"/>
<feColorMatrix type="matrix" values="0 0 0 0 0 0 0 0 0 0 0 0 0 0 0 0 0 0 0.13 0"/>
<feBlend mode="normal" in2="BackgroundImageFix" result="effect1_dropShadow_116_569"/>
<feBlend mode="normal" in="SourceGraphic" in2="effect1_dropShadow_116_569" result="shape"/>
</filter>
<clipPath id="clip0_116_569">
<rect x="14" y="4.81836" width="32" height="32" rx="16" fill="white"/>
</clipPath>
</defs>
</svg>
